<svg width="236" height="235" viewBox="0 0 236 235" fill="none" xmlns="http://www.w3.org/2000/svg">
<path d="M53.4028 96.567H15.9011C20.5167 -12.4762 218.41 -11.8995 223.026 96.567H184.947C184.947 96.567 184.947 51.5649 119.175 51.5649C53.4028 51.5649 53.4028 96.567 53.4028 96.567Z" fill="black"/>
<path d="M185.524 138.107H223.026C218.41 247.151 20.5168 246.574 15.9012 138.107H53.9798C53.9798 138.107 53.9798 183.11 119.752 183.11C185.524 183.11 185.524 138.107 185.524 138.107Z" fill="black"/>
<path d="M120.489 2.38861H116.3V79.4459H120.489V2.38861Z" fill="#FFD101"/>
<path d="M122.877 0H113.9V81.8344H122.877V0Z" fill="#FFD101"/>
<path d="M201.23 37.5468L198.267 34.5863L143.803 89.0966L146.766 92.0572L201.23 37.5468Z" fill="#FFD101"/>
<path d="M198.251 31.2084L140.41 89.0981L146.761 95.4433L204.602 37.5536L198.251 31.2084Z" fill="#FFD101"/>
<path d="M233.491 119.489L233.488 115.3L156.431 115.359L156.434 119.548L233.491 119.489Z" fill="#FFD101"/>
<path d="M235.867 112.944H154.033V121.921H235.867V112.944Z" fill="#FFD101"/>
<path d="M198.39 200.251L201.349 197.286L146.8 142.86L143.842 145.825L198.39 200.251Z" fill="#FFD101"/>
<path d="M146.801 139.484L140.46 145.839L198.391 203.639L204.732 197.284L146.801 139.484Z" fill="#FFD101"/>
<path d="M116.474 232.576L120.662 232.57L120.544 155.512L116.356 155.519L116.474 232.576Z" fill="#FFD101"/>
<path d="M122.942 153.127L113.964 153.141L114.09 234.975L123.067 234.961L122.942 153.127Z" fill="#FFD101"/>
<path d="M35.6825 197.537L38.6501 200.493L93.0372 145.898L90.0695 142.942L35.6825 197.537Z" fill="#FFD101"/>
<path d="M90.0449 139.582L32.2861 197.554L38.6457 203.89L96.4044 145.919L90.0449 139.582Z" fill="#FFD101"/>
<path d="M3.29898 115.66L3.30859 119.849L80.3659 119.672L80.3563 115.483L3.29898 115.66Z" fill="#FFD101"/>
<path d="M82.7348 113.081L0.900391 113.267L0.920703 122.244L82.7551 122.059L82.7348 113.081Z" fill="#FFD101"/>
<path d="M38.2632 34.8355L35.3093 37.8052L89.943 92.1461L92.8968 89.1763L38.2632 34.8355Z" fill="#FFD101"/>
<path d="M38.262 31.4486L31.9312 37.8135L89.9518 95.5231L96.2826 89.1582L38.262 31.4486Z" fill="#FFD101"/>
<path d="M118.146 136.125C128.12 136.125 136.205 128.04 136.205 118.067C136.205 108.093 128.12 100.008 118.146 100.008C108.173 100.008 100.088 108.093 100.088 118.067C100.088 128.04 108.173 136.125 118.146 136.125Z" fill="#FFD101"/>
</svg>
