<svg width="3831" height="120" viewBox="0 0 3831 120" fill="none" xmlns="http://www.w3.org/2000/svg">
<path d="M2407.52 4H2445C2440.39 113.623 2242.61 113.043 2238 4L2276.06 4C2276.06 4 2276.06 49.2414 2341.79 49.2414C2407.52 49.2414 2407.52 4 2407.52 4Z" fill="black"/>
<rect x="2765" y="46" width="207" height="42" transform="rotate(-180 2765 46)" fill="black"/>
<rect x="3725" y="46" width="211" height="42" transform="rotate(-180 3725 46)" fill="black"/>
<path d="M3047.3 3.99999H3083C3083 158.087 2878 159.245 2878 3.99999L2914.28 3.99999C2914.28 3.99999 2912.55 82.776 2979.92 82.2017C3047.3 81.6273 3047.3 3.99999 3047.3 3.99999Z" fill="black"/>
<path d="M3365.3 3.99999H3401C3401 158.087 3196 159.245 3196 3.99999L3232.28 3.99999C3232.28 3.99999 3230.55 82.776 3297.92 82.2017C3365.3 81.6273 3365.3 3.99999 3365.3 3.99999Z" fill="black"/>
<path d="M2087.46 4L2125 4C2120.38 81.6247 1924.62 81.0415 1920 4L1957.54 4C1957.54 4 1967.93 26.7625 2023.37 26.7625C2078.8 26.7625 2087.46 4 2087.46 4Z" fill="black"/>
<path d="M487.521 4H525C520.387 113.623 322.613 113.043 318 4L356.056 4C356.056 4 356.056 49.2414 421.788 49.2414C487.521 49.2414 487.521 4 487.521 4Z" fill="black"/>
<rect x="845" y="47" width="207" height="42" transform="rotate(-180 845 47)" fill="black"/>
<rect x="1805" y="47" width="211" height="42" transform="rotate(-180 1805 47)" fill="black"/>
<path d="M1127.3 3.99999H1163C1163 158.087 958 159.245 958 3.99999L994.278 3.99999C994.278 3.99999 992.551 82.776 1059.92 82.2017C1127.3 81.6273 1127.3 3.99999 1127.3 3.99999Z" fill="black"/>
<path d="M1445.3 3.99999H1481C1481 158.087 1276 159.245 1276 3.99999L1312.28 3.99999C1312.28 3.99999 1310.55 82.776 1377.92 82.2017C1445.3 81.6273 1445.3 3.99999 1445.3 3.99999Z" fill="black"/>
<path d="M167.465 4L205 4C200.38 81.6247 4.61974 81.0415 1.52588e-05 4L37.5352 4C37.5352 4 47.9296 26.7625 103.366 26.7625C158.803 26.7625 167.465 4 167.465 4Z" fill="black"/>
</svg>
