<svg width="3831" height="120" viewBox="0 0 3831 120" fill="none" xmlns="http://www.w3.org/2000/svg">
<path d="M2407.52 38H2445C2440.39 147.623 2242.61 147.043 2238 38L2276.06 38C2276.06 38 2276.06 83.2414 2341.79 83.2414C2407.52 83.2414 2407.52 38 2407.52 38Z" fill="black"/>
<rect x="2765" y="120" width="207" height="42" transform="rotate(-180 2765 120)" fill="black"/>
<rect x="3725" y="120" width="211" height="42" transform="rotate(-180 3725 120)" fill="black"/>
<path d="M3047.3 3.99999H3083C3083 158.087 2878 159.245 2878 3.99999L2914.28 3.99999C2914.28 3.99999 2912.55 82.776 2979.92 82.2017C3047.3 81.6273 3047.3 3.99999 3047.3 3.99999Z" fill="black"/>
<path d="M3365.3 3.99999H3401C3401 158.087 3196 159.245 3196 3.99999L3232.28 3.99999C3232.28 3.99999 3230.55 82.776 3297.92 82.2017C3365.3 81.6273 3365.3 3.99999 3365.3 3.99999Z" fill="black"/>
<path d="M2087.46 62L2125 62C2120.38 139.625 1924.62 139.041 1920 62L1957.54 62C1957.54 62 1967.93 84.7625 2023.37 84.7625C2078.8 84.7625 2087.46 62 2087.46 62Z" fill="black"/>
<path d="M487.521 38H525C520.387 147.623 322.613 147.043 318 38L356.056 38C356.056 38 356.056 83.2414 421.788 83.2414C487.521 83.2414 487.521 38 487.521 38Z" fill="black"/>
<rect x="845" y="120" width="207" height="42" transform="rotate(-180 845 120)" fill="black"/>
<rect x="1805" y="120" width="211" height="42" transform="rotate(-180 1805 120)" fill="black"/>
<path d="M1127.3 3.99999H1163C1163 158.087 958 159.245 958 3.99999L994.278 3.99999C994.278 3.99999 992.551 82.776 1059.92 82.2017C1127.3 81.6273 1127.3 3.99999 1127.3 3.99999Z" fill="black"/>
<path d="M1445.3 3.99999H1481C1481 158.087 1276 159.245 1276 3.99999L1312.28 3.99999C1312.28 3.99999 1310.55 82.776 1377.92 82.2017C1445.3 81.6273 1445.3 3.99999 1445.3 3.99999Z" fill="black"/>
<path d="M167.465 62L205 62C200.38 139.625 4.61974 139.041 1.52588e-05 62L37.5352 62C37.5352 62 47.9296 84.7625 103.366 84.7625C158.803 84.7625 167.465 62 167.465 62Z" fill="black"/>
</svg>
