<svg width="3831" height="120" viewBox="0 0 3831 120" fill="none" xmlns="http://www.w3.org/2000/svg">
<path d="M2275.48 120H2238C2242.61 10.377 2440.39 10.9567 2445 120H2406.94C2406.94 120 2406.94 74.7586 2341.21 74.7586C2275.48 74.7586 2275.48 120 2275.48 120Z" fill="black"/>
<rect x="2558" y="78" width="207" height="42" fill="black"/>
<rect x="3514" y="78" width="211" height="42" fill="black"/>
<path d="M2913.7 120H2878C2878 -34.0869 3083 -35.2454 3083 120H3046.72C3046.72 120 3048.45 41.224 2981.08 41.7983C2913.7 42.3727 2913.7 120 2913.7 120Z" fill="black"/>
<path d="M3231.7 120H3196C3196 -34.0869 3401 -35.2454 3401 120H3364.72C3364.72 120 3366.45 41.224 3299.08 41.7983C3231.7 42.3727 3231.7 120 3231.7 120Z" fill="black"/>
<path d="M1957.54 120H1920C1924.62 42.3753 2120.38 42.9585 2125 120H2087.46C2087.46 120 2077.07 97.2375 2021.63 97.2375C1966.2 97.2375 1957.54 120 1957.54 120Z" fill="black"/>
<path d="M355.479 120H318C322.613 10.377 520.387 10.9567 525 120H486.944C486.944 120 486.944 74.7586 421.212 74.7586C355.479 74.7586 355.479 120 355.479 120Z" fill="black"/>
<rect x="638" y="78" width="207" height="42" fill="black"/>
<rect x="1594" y="78" width="211" height="42" fill="black"/>
<path d="M993.702 120H958C958 -34.0869 1163 -35.2454 1163 120H1126.72C1126.72 120 1128.45 41.224 1061.08 41.7983C993.702 42.3727 993.702 120 993.702 120Z" fill="black"/>
<path d="M1311.7 120H1276C1276 -34.0869 1481 -35.2454 1481 120H1444.72C1444.72 120 1446.45 41.224 1379.08 41.7983C1311.7 42.3727 1311.7 120 1311.7 120Z" fill="black"/>
<path d="M37.5352 120H0C4.61972 42.3753 200.38 42.9585 205 120H167.465C167.465 120 157.07 97.2375 101.634 97.2375C46.1972 97.2375 37.5352 120 37.5352 120Z" fill="black"/>
</svg>
