<svg width="4328" height="120" viewBox="0 0 4328 120" fill="none" xmlns="http://www.w3.org/2000/svg">
<g clip-path="url(#clip0_198_303)">
<path d="M2360.48 119H2323C2327.61 9.37701 2525.39 9.95672 2530 119H2491.94C2491.94 119 2491.94 73.7586 2426.21 73.7586C2360.48 73.7586 2360.48 119 2360.48 119Z" fill="black"/>
<rect x="2660" y="74" width="207" height="42" fill="black"/>
<rect x="3668" y="78" width="211" height="42" fill="black"/>
<path d="M3037.7 116H3002C3002 -38.0869 3207 -39.2454 3207 116H3170.72C3170.72 116 3172.45 37.224 3105.08 37.7983C3037.7 38.3727 3037.7 116 3037.7 116Z" fill="black"/>
<path d="M3380.7 116H3345C3345 -38.0869 3550 -39.2454 3550 116H3513.72C3513.72 116 3515.45 37.224 3448.08 37.7983C3380.7 38.3727 3380.7 116 3380.7 116Z" fill="black"/>
<path d="M2042.54 119H2005C2009.62 41.3753 2205.38 41.9585 2210 119H2172.46C2172.46 119 2162.07 96.2375 2106.63 96.2375C2051.2 96.2375 2042.54 119 2042.54 119Z" fill="black"/>
<path d="M355.479 119H318C322.613 9.37701 520.387 9.95672 525 119H486.944C486.944 119 486.944 73.7586 421.212 73.7586C355.479 73.7586 355.479 119 355.479 119Z" fill="black"/>
<rect x="655" y="74" width="207" height="42" fill="black"/>
<rect x="1663" y="78" width="211" height="42" fill="black"/>
<path d="M1032.7 116H997C997 -38.0869 1202 -39.2454 1202 116H1165.72C1165.72 116 1167.45 37.224 1100.08 37.7983C1032.7 38.3727 1032.7 116 1032.7 116Z" fill="black"/>
<path d="M1375.7 116H1340C1340 -38.0869 1545 -39.2454 1545 116H1508.72C1508.72 116 1510.45 37.224 1443.08 37.7983C1375.7 38.3727 1375.7 116 1375.7 116Z" fill="black"/>
<path d="M37.5352 119H0C4.61972 41.3753 200.38 41.9585 205 119H167.465C167.465 119 157.07 96.2375 101.634 96.2375C46.1972 96.2375 37.5352 119 37.5352 119Z" fill="black"/>
<path d="M4047.54 120H4010C4014.62 42.3753 4210.38 42.9585 4215 120H4177.46C4177.46 120 4167.07 97.2375 4111.63 97.2375C4056.2 97.2375 4047.54 120 4047.54 120Z" fill="black"/>
</g>
<defs>
<clipPath id="clip0_198_303">
<rect width="4328" height="120" fill="white"/>
</clipPath>
</defs>
</svg>
