<svg width="3745" height="264" viewBox="0 0 3745 264" fill="none" xmlns="http://www.w3.org/2000/svg">
<path d="M389.266 17.3886H385.124V94.4459H389.266V17.3886Z" fill="white"/>
<path d="M391.628 15H382.75V96.8344H391.628V15Z" fill="white"/>
<path d="M469.113 52.5468L466.183 49.5863L412.322 104.097L415.252 107.057L469.113 52.5468Z" fill="white"/>
<path d="M466.19 46.2307L408.967 104.098L415.25 110.441L472.473 52.5734L466.19 46.2307Z" fill="white"/>
<path d="M501.018 134.489L501.015 130.301L424.81 130.359L424.813 134.548L501.018 134.489Z" fill="white"/>
<path d="M503.368 127.944H422.438V136.921H503.368V127.944Z" fill="white"/>
<path d="M466.305 215.251L469.231 212.286L415.286 157.86L412.36 160.825L466.305 215.251Z" fill="white"/>
<path d="M415.289 154.487L409.016 160.839L466.328 218.617L472.601 212.264L415.289 154.487Z" fill="white"/>
<path d="M385.295 247.576L389.438 247.57L389.321 170.512L385.179 170.519L385.295 247.576Z" fill="white"/>
<path d="M391.692 168.127L382.813 168.141L382.939 249.975L391.817 249.962L391.692 168.127Z" fill="white"/>
<path d="M305.397 212.537L308.332 215.493L362.117 160.898L359.183 157.942L305.397 212.537Z" fill="white"/>
<path d="M359.181 154.605L302.039 212.554L308.33 218.888L365.473 160.938L359.181 154.605Z" fill="white"/>
<path d="M273.372 130.66L273.381 134.849L349.586 134.672L349.577 130.483L273.372 130.66Z" fill="white"/>
<path d="M351.929 128.081L271 128.267L271.02 137.244L351.949 137.059L351.929 128.081Z" fill="white"/>
<path d="M307.949 49.8354L305.028 52.8052L359.058 107.146L361.979 104.176L307.949 49.8354Z" fill="white"/>
<path d="M307.951 46.451L301.688 52.8135L359.089 110.501L365.352 104.138L307.951 46.451Z" fill="white"/>
<path d="M386.949 151.125C396.812 151.125 404.808 143.04 404.808 133.067C404.808 123.093 396.812 115.008 386.949 115.008C377.086 115.008 369.09 123.093 369.09 133.067C369.09 143.04 377.086 151.125 386.949 151.125Z" fill="white"/>
<path d="M2261.37 17.3886H2257.23V94.4459H2261.37V17.3886Z" fill="white"/>
<path d="M2263.73 15H2254.85V96.8344H2263.73V15Z" fill="white"/>
<path d="M2341.22 52.5468L2338.29 49.5863L2284.42 104.097L2287.35 107.057L2341.22 52.5468Z" fill="white"/>
<path d="M2338.29 46.2307L2281.07 104.098L2287.35 110.441L2344.58 52.5734L2338.29 46.2307Z" fill="white"/>
<path d="M2373.12 134.489L2373.12 130.301L2296.91 130.359L2296.92 134.548L2373.12 134.489Z" fill="white"/>
<path d="M2375.47 127.944H2294.54V136.921H2375.47V127.944Z" fill="white"/>
<path d="M2338.41 215.251L2341.33 212.286L2287.39 157.86L2284.46 160.825L2338.41 215.251Z" fill="white"/>
<path d="M2287.39 154.487L2281.12 160.839L2338.43 218.617L2344.7 212.264L2287.39 154.487Z" fill="white"/>
<path d="M2257.4 247.576L2261.54 247.57L2261.42 170.512L2257.28 170.519L2257.4 247.576Z" fill="white"/>
<path d="M2263.79 168.127L2254.92 168.141L2255.04 249.975L2263.92 249.962L2263.79 168.127Z" fill="white"/>
<path d="M2177.5 212.537L2180.43 215.493L2234.22 160.898L2231.29 157.942L2177.5 212.537Z" fill="white"/>
<path d="M2231.28 154.605L2174.14 212.554L2180.43 218.888L2237.57 160.938L2231.28 154.605Z" fill="white"/>
<path d="M2145.47 130.66L2145.48 134.849L2221.69 134.672L2221.68 130.483L2145.47 130.66Z" fill="white"/>
<path d="M2224.03 128.081L2143.1 128.267L2143.12 137.244L2224.05 137.059L2224.03 128.081Z" fill="white"/>
<path d="M2180.05 49.8354L2177.13 52.8052L2231.16 107.146L2234.08 104.176L2180.05 49.8354Z" fill="white"/>
<path d="M2180.05 46.451L2173.79 52.8135L2231.19 110.501L2237.45 104.138L2180.05 46.451Z" fill="white"/>
<path d="M2259.05 151.125C2268.91 151.125 2276.91 143.04 2276.91 133.067C2276.91 123.093 2268.91 115.008 2259.05 115.008C2249.19 115.008 2241.19 123.093 2241.19 133.067C2241.19 143.04 2249.19 151.125 2259.05 151.125Z" fill="white"/>
<path d="M1061.63 17.3885H1057.49V94.4459H1061.63V17.3885Z" fill="#FF6100"/>
<path d="M1064 15H1055.12V96.8344H1064V15Z" fill="#FF6100"/>
<path d="M1141.48 52.5468L1138.55 49.5862L1084.69 104.097L1087.62 107.057L1141.48 52.5468Z" fill="#FF6100"/>
<path d="M1138.56 46.2307L1081.33 104.098L1087.62 110.441L1144.84 52.5734L1138.56 46.2307Z" fill="#FF6100"/>
<path d="M1173.39 134.489L1173.38 130.301L1097.18 130.359L1097.18 134.548L1173.39 134.489Z" fill="#FF6100"/>
<path d="M1175.74 127.944H1094.81V136.921H1175.74V127.944Z" fill="#FF6100"/>
<path d="M1138.67 215.251L1141.6 212.286L1087.65 157.86L1084.73 160.825L1138.67 215.251Z" fill="#FF6100"/>
<path d="M1087.66 154.487L1081.38 160.839L1138.7 218.617L1144.97 212.264L1087.66 154.487Z" fill="#FF6100"/>
<path d="M1057.66 247.576L1061.8 247.57L1061.69 170.512L1057.55 170.519L1057.66 247.576Z" fill="#FF6100"/>
<path d="M1064.06 168.127L1055.18 168.141L1055.31 249.975L1064.18 249.962L1064.06 168.127Z" fill="#FF6100"/>
<path d="M977.765 212.537L980.7 215.493L1034.49 160.898L1031.55 157.942L977.765 212.537Z" fill="#FF6100"/>
<path d="M1031.55 154.605L974.406 212.554L980.698 218.888L1037.84 160.939L1031.55 154.605Z" fill="#FF6100"/>
<path d="M945.74 130.66L945.75 134.848L1021.95 134.672L1021.94 130.483L945.74 130.66Z" fill="#FF6100"/>
<path d="M1024.3 128.081L943.368 128.267L943.388 137.244L1024.32 137.059L1024.3 128.081Z" fill="#FF6100"/>
<path d="M980.317 49.8354L977.396 52.8052L1031.43 107.146L1034.35 104.176L980.317 49.8354Z" fill="#FF6100"/>
<path d="M980.318 46.451L974.055 52.8135L1031.46 110.501L1037.72 104.138L980.318 46.451Z" fill="#FF6100"/>
<path d="M1059.32 151.125C1069.18 151.125 1077.18 143.04 1077.18 133.067C1077.18 123.093 1069.18 115.008 1059.32 115.008C1049.45 115.008 1041.46 123.093 1041.46 133.067C1041.46 143.04 1049.45 151.125 1059.32 151.125Z" fill="#FF6100"/>
<path d="M2933.74 17.3885H2929.59V94.4459H2933.74V17.3885Z" fill="#FF6100"/>
<path d="M2936.1 15H2927.22V96.8344H2936.1V15Z" fill="#FF6100"/>
<path d="M3013.58 52.5468L3010.65 49.5863L2956.79 104.097L2959.72 107.057L3013.58 52.5468Z" fill="#FF6100"/>
<path d="M3010.66 46.2307L2953.44 104.098L2959.72 110.441L3016.94 52.5734L3010.66 46.2307Z" fill="#FF6100"/>
<path d="M3045.49 134.489L3045.48 130.301L2969.28 130.359L2969.28 134.548L3045.49 134.489Z" fill="#FF6100"/>
<path d="M3047.84 127.944H2966.91V136.921H3047.84V127.944Z" fill="#FF6100"/>
<path d="M3010.77 215.251L3013.7 212.286L2959.75 157.86L2956.83 160.825L3010.77 215.251Z" fill="#FF6100"/>
<path d="M2959.76 154.487L2953.49 160.839L3010.8 218.617L3017.07 212.264L2959.76 154.487Z" fill="#FF6100"/>
<path d="M2929.77 247.576L2933.91 247.57L2933.79 170.512L2929.65 170.519L2929.77 247.576Z" fill="#FF6100"/>
<path d="M2936.16 168.127L2927.28 168.141L2927.41 249.975L2936.29 249.962L2936.16 168.127Z" fill="#FF6100"/>
<path d="M2849.87 212.537L2852.8 215.493L2906.59 160.898L2903.65 157.942L2849.87 212.537Z" fill="#FF6100"/>
<path d="M2903.65 154.605L2846.51 212.554L2852.8 218.888L2909.94 160.938L2903.65 154.605Z" fill="#FF6100"/>
<path d="M2817.84 130.66L2817.85 134.848L2894.06 134.672L2894.05 130.483L2817.84 130.66Z" fill="#FF6100"/>
<path d="M2896.4 128.081L2815.47 128.267L2815.49 137.244L2896.42 137.059L2896.4 128.081Z" fill="#FF6100"/>
<path d="M2852.42 49.8354L2849.5 52.8052L2903.53 107.146L2906.45 104.176L2852.42 49.8354Z" fill="#FF6100"/>
<path d="M2852.42 46.451L2846.16 52.8135L2903.56 110.501L2909.82 104.138L2852.42 46.451Z" fill="#FF6100"/>
<path d="M2931.42 151.125C2941.28 151.125 2949.28 143.04 2949.28 133.067C2949.28 123.093 2941.28 115.008 2931.42 115.008C2921.56 115.008 2913.56 123.093 2913.56 133.067C2913.56 143.04 2921.56 151.125 2931.42 151.125Z" fill="#FF6100"/>
<path d="M1688 17.3886H1683.86V94.4459H1688V17.3886Z" fill="#5EB6CA"/>
<path d="M1690.36 15H1681.49V96.8344H1690.36V15Z" fill="#5EB6CA"/>
<path d="M1767.85 52.5468L1764.92 49.5863L1711.06 104.097L1713.99 107.057L1767.85 52.5468Z" fill="#5EB6CA"/>
<path d="M1764.93 46.2307L1707.7 104.098L1713.98 110.441L1771.21 52.5734L1764.93 46.2307Z" fill="#5EB6CA"/>
<path d="M1799.75 134.489L1799.75 130.301L1723.55 130.359L1723.55 134.548L1799.75 134.489Z" fill="#5EB6CA"/>
<path d="M1802.1 127.944H1721.17V136.921H1802.1V127.944Z" fill="#5EB6CA"/>
<path d="M1765.04 215.251L1767.97 212.286L1714.02 157.86L1711.09 160.825L1765.04 215.251Z" fill="#5EB6CA"/>
<path d="M1714.02 154.487L1707.75 160.839L1765.06 218.617L1771.34 212.264L1714.02 154.487Z" fill="#5EB6CA"/>
<path d="M1684.03 247.576L1688.17 247.57L1688.06 170.512L1683.91 170.519L1684.03 247.576Z" fill="#5EB6CA"/>
<path d="M1690.43 168.127L1681.55 168.141L1681.67 249.975L1690.55 249.962L1690.43 168.127Z" fill="#5EB6CA"/>
<path d="M1604.13 212.537L1607.07 215.493L1660.85 160.898L1657.92 157.942L1604.13 212.537Z" fill="#5EB6CA"/>
<path d="M1657.92 154.605L1600.77 212.554L1607.07 218.888L1664.21 160.939L1657.92 154.605Z" fill="#5EB6CA"/>
<path d="M1572.11 130.66L1572.12 134.849L1648.32 134.672L1648.31 130.483L1572.11 130.66Z" fill="#5EB6CA"/>
<path d="M1650.66 128.081L1569.74 128.267L1569.76 137.244L1650.68 137.059L1650.66 128.081Z" fill="#5EB6CA"/>
<path d="M1606.68 49.8354L1603.76 52.8052L1657.79 107.146L1660.71 104.176L1606.68 49.8354Z" fill="#5EB6CA"/>
<path d="M1606.69 46.451L1600.42 52.8135L1657.82 110.501L1664.09 104.138L1606.69 46.451Z" fill="#5EB6CA"/>
<path d="M1685.68 151.125C1695.55 151.125 1703.54 143.04 1703.54 133.067C1703.54 123.093 1695.55 115.008 1685.68 115.008C1675.82 115.008 1667.83 123.093 1667.83 133.067C1667.83 143.04 1675.82 151.125 1685.68 151.125Z" fill="#5EB6CA"/>
<path d="M3560.1 17.3886H3555.96V94.4459H3560.1V17.3886Z" fill="#5EB6CA"/>
<path d="M3562.46 15H3553.59V96.8344H3562.46V15Z" fill="#5EB6CA"/>
<path d="M3639.95 52.5468L3637.02 49.5863L3583.16 104.097L3586.09 107.057L3639.95 52.5468Z" fill="#5EB6CA"/>
<path d="M3637.03 46.2307L3579.8 104.098L3586.09 110.441L3643.31 52.5734L3637.03 46.2307Z" fill="#5EB6CA"/>
<path d="M3671.85 134.489L3671.85 130.301L3595.65 130.359L3595.65 134.548L3671.85 134.489Z" fill="#5EB6CA"/>
<path d="M3674.2 127.944H3593.28V136.921H3674.2V127.944Z" fill="#5EB6CA"/>
<path d="M3637.14 215.251L3640.07 212.286L3586.12 157.86L3583.2 160.825L3637.14 215.251Z" fill="#5EB6CA"/>
<path d="M3586.13 154.487L3579.85 160.839L3637.17 218.617L3643.44 212.264L3586.13 154.487Z" fill="#5EB6CA"/>
<path d="M3556.13 247.576L3560.27 247.57L3560.16 170.512L3556.01 170.519L3556.13 247.576Z" fill="#5EB6CA"/>
<path d="M3562.53 168.127L3553.65 168.141L3553.78 249.975L3562.65 249.962L3562.53 168.127Z" fill="#5EB6CA"/>
<path d="M3476.23 212.537L3479.17 215.493L3532.95 160.898L3530.02 157.942L3476.23 212.537Z" fill="#5EB6CA"/>
<path d="M3530.02 154.605L3472.88 212.554L3479.17 218.888L3536.31 160.938L3530.02 154.605Z" fill="#5EB6CA"/>
<path d="M3444.21 130.66L3444.22 134.849L3520.42 134.672L3520.41 130.483L3444.21 130.66Z" fill="#5EB6CA"/>
<path d="M3522.77 128.081L3441.84 128.267L3441.86 137.244L3522.79 137.059L3522.77 128.081Z" fill="#5EB6CA"/>
<path d="M3478.79 49.8355L3475.87 52.8052L3529.9 107.146L3532.82 104.176L3478.79 49.8355Z" fill="#5EB6CA"/>
<path d="M3478.79 46.4511L3472.53 52.8135L3529.93 110.501L3536.19 104.138L3478.79 46.4511Z" fill="#5EB6CA"/>
<path d="M3557.79 151.125C3567.65 151.125 3575.65 143.04 3575.65 133.067C3575.65 123.093 3567.65 115.008 3557.79 115.008C3547.92 115.008 3539.93 123.093 3539.93 133.067C3539.93 143.04 3547.92 151.125 3557.79 151.125Z" fill="#5EB6CA"/>
<path d="M1303.37 126.28H1313.34C1314.95 126.28 1316.18 126.712 1317.05 127.576C1317.94 128.44 1318.38 129.592 1318.38 131.032C1318.38 133.384 1317.12 134.716 1314.6 135.028V135.208C1316.11 135.328 1317.23 135.772 1317.95 136.54C1318.69 137.284 1319.06 138.268 1319.06 139.492C1319.06 140.284 1318.93 141.016 1318.67 141.688C1318.43 142.36 1318.07 142.948 1317.59 143.452C1317.13 143.932 1316.57 144.316 1315.9 144.604C1315.22 144.868 1314.47 145 1313.63 145H1303.37V126.28ZM1312.73 142.012C1313.42 142.012 1313.98 141.832 1314.38 141.472C1314.79 141.112 1315 140.584 1315 139.888V138.916C1315 138.22 1314.79 137.692 1314.38 137.332C1313.98 136.948 1313.42 136.756 1312.73 136.756H1307.22V142.012H1312.73ZM1312.22 134.056C1312.9 134.056 1313.41 133.888 1313.77 133.552C1314.13 133.216 1314.31 132.736 1314.31 132.112V131.212C1314.31 130.588 1314.13 130.108 1313.77 129.772C1313.41 129.436 1312.9 129.268 1312.22 129.268H1307.22V134.056H1312.22ZM1337.37 145C1336.34 145 1335.54 144.712 1334.99 144.136C1334.44 143.536 1334.1 142.78 1333.98 141.868H1333.8C1333.44 143.044 1332.78 143.932 1331.82 144.532C1330.86 145.132 1329.7 145.432 1328.33 145.432C1326.39 145.432 1324.89 144.928 1323.83 143.92C1322.8 142.912 1322.28 141.556 1322.28 139.852C1322.28 137.98 1322.96 136.576 1324.3 135.64C1325.67 134.704 1327.66 134.236 1330.28 134.236H1333.66V132.652C1333.66 131.5 1333.35 130.612 1332.72 129.988C1332.1 129.364 1331.13 129.052 1329.81 129.052C1328.7 129.052 1327.8 129.292 1327.11 129.772C1326.41 130.252 1325.82 130.864 1325.34 131.608L1323 129.484C1323.63 128.428 1324.5 127.564 1325.63 126.892C1326.76 126.196 1328.24 125.848 1330.06 125.848C1332.48 125.848 1334.34 126.412 1335.64 127.54C1336.94 128.668 1337.58 130.288 1337.58 132.4V141.796H1339.56V145H1337.37ZM1329.45 142.444C1330.67 142.444 1331.68 142.18 1332.47 141.652C1333.26 141.1 1333.66 140.368 1333.66 139.456V136.756H1330.35C1327.64 136.756 1326.28 137.596 1326.28 139.276V139.924C1326.28 140.764 1326.56 141.4 1327.11 141.832C1327.68 142.24 1328.46 142.444 1329.45 142.444ZM1341.21 141.796H1343.66C1343.95 141.412 1344.2 140.956 1344.41 140.428C1344.63 139.876 1344.81 139.204 1344.95 138.412C1345.1 137.62 1345.21 136.696 1345.28 135.64C1345.37 134.56 1345.42 133.3 1345.42 131.86V126.28H1359.03V145H1355.11V129.484H1349.2V132.04C1349.2 133.768 1349.13 135.28 1348.99 136.576C1348.87 137.872 1348.69 138.988 1348.45 139.924C1348.23 140.86 1347.95 141.64 1347.62 142.264C1347.31 142.864 1346.97 143.344 1346.61 143.704C1346.11 144.208 1345.53 144.568 1344.88 144.784C1344.23 145 1343.45 145.108 1342.54 145.108H1341.21V141.796ZM1363.35 141.796H1365.36L1366.41 139.492C1366.91 138.436 1367.63 137.848 1368.57 137.728V137.584C1367.03 137.416 1365.83 136.888 1364.97 136C1364.13 135.088 1363.71 133.852 1363.71 132.292C1363.71 131.356 1363.85 130.528 1364.14 129.808C1364.45 129.064 1364.88 128.428 1365.44 127.9C1365.99 127.372 1366.65 126.976 1367.42 126.712C1368.18 126.424 1369.04 126.28 1369.97 126.28H1379.08V145H1375.16V138.088H1371.16L1369.18 142.372C1368.72 143.38 1368.21 144.076 1367.63 144.46C1367.06 144.82 1366.37 145 1365.58 145H1363.35V141.796ZM1375.16 135.1V129.34H1370.73C1369.82 129.34 1369.1 129.544 1368.57 129.952C1368.04 130.336 1367.78 130.948 1367.78 131.788V132.724C1367.78 133.516 1368.04 134.116 1368.57 134.524C1369.1 134.908 1369.82 135.1 1370.73 135.1H1375.16ZM1384.68 126.28H1388.61V133.804H1396.67V126.28H1400.6V145H1396.67V137.008H1388.61V145H1384.68V126.28ZM1406.2 126.28H1410.05V135.424L1409.69 139.852H1409.84L1412.07 135.856L1418.55 126.28H1422.11V145H1418.26V135.856L1418.62 131.428H1418.48L1416.24 135.424L1409.76 145H1406.2V126.28ZM1435.06 145.432C1433.72 145.432 1432.52 145.204 1431.46 144.748C1430.4 144.292 1429.5 143.644 1428.76 142.804C1428.02 141.94 1427.44 140.908 1427.03 139.708C1426.65 138.484 1426.46 137.128 1426.46 135.64C1426.46 134.152 1426.65 132.808 1427.03 131.608C1427.44 130.384 1428.02 129.352 1428.76 128.512C1429.5 127.648 1430.4 126.988 1431.46 126.532C1432.52 126.076 1433.72 125.848 1435.06 125.848C1436.43 125.848 1437.63 126.088 1438.66 126.568C1439.72 127.048 1440.59 127.72 1441.29 128.584C1441.98 129.424 1442.5 130.408 1442.84 131.536C1443.2 132.664 1443.38 133.876 1443.38 135.172V136.648H1430.52V137.26C1430.52 138.7 1430.94 139.888 1431.78 140.824C1432.65 141.736 1433.87 142.192 1435.46 142.192C1436.61 142.192 1437.58 141.94 1438.37 141.436C1439.16 140.932 1439.84 140.248 1440.39 139.384L1442.69 141.652C1442 142.804 1440.99 143.728 1439.67 144.424C1438.35 145.096 1436.81 145.432 1435.06 145.432ZM1435.06 128.908C1434.39 128.908 1433.76 129.028 1433.19 129.268C1432.64 129.508 1432.16 129.844 1431.75 130.276C1431.36 130.708 1431.06 131.224 1430.85 131.824C1430.63 132.424 1430.52 133.084 1430.52 133.804V134.056H1439.24V133.696C1439.24 132.256 1438.86 131.104 1438.12 130.24C1437.38 129.352 1436.36 128.908 1435.06 128.908Z" fill="black"/>
<path d="M3175.47 128.28H3185.44C3187.05 128.28 3188.29 128.712 3189.15 129.576C3190.04 130.44 3190.48 131.592 3190.48 133.032C3190.48 135.384 3189.22 136.716 3186.7 137.028V137.208C3188.21 137.328 3189.33 137.772 3190.05 138.54C3190.79 139.284 3191.17 140.268 3191.17 141.492C3191.17 142.284 3191.03 143.016 3190.77 143.688C3190.53 144.36 3190.17 144.948 3189.69 145.452C3189.23 145.932 3188.67 146.316 3188 146.604C3187.33 146.868 3186.57 147 3185.73 147H3175.47V128.28ZM3184.83 144.012C3185.53 144.012 3186.08 143.832 3186.49 143.472C3186.89 143.112 3187.1 142.584 3187.1 141.888V140.916C3187.1 140.22 3186.89 139.692 3186.49 139.332C3186.08 138.948 3185.53 138.756 3184.83 138.756H3179.32V144.012H3184.83ZM3184.33 136.056C3185 136.056 3185.51 135.888 3185.87 135.552C3186.23 135.216 3186.41 134.736 3186.41 134.112V133.212C3186.41 132.588 3186.23 132.108 3185.87 131.772C3185.51 131.436 3185 131.268 3184.33 131.268H3179.32V136.056H3184.33ZM3209.47 147C3208.44 147 3207.65 146.712 3207.09 146.136C3206.54 145.536 3206.21 144.78 3206.09 143.868H3205.91C3205.55 145.044 3204.89 145.932 3203.93 146.532C3202.97 147.132 3201.8 147.432 3200.43 147.432C3198.49 147.432 3196.99 146.928 3195.93 145.92C3194.9 144.912 3194.39 143.556 3194.39 141.852C3194.39 139.98 3195.06 138.576 3196.4 137.64C3197.77 136.704 3199.76 136.236 3202.38 136.236H3205.76V134.652C3205.76 133.5 3205.45 132.612 3204.83 131.988C3204.2 131.364 3203.23 131.052 3201.91 131.052C3200.81 131.052 3199.91 131.292 3199.21 131.772C3198.51 132.252 3197.93 132.864 3197.45 133.608L3195.11 131.484C3195.73 130.428 3196.61 129.564 3197.73 128.892C3198.86 128.196 3200.34 127.848 3202.16 127.848C3204.59 127.848 3206.45 128.412 3207.74 129.54C3209.04 130.668 3209.69 132.288 3209.69 134.4V143.796H3211.67V147H3209.47ZM3201.55 144.444C3202.77 144.444 3203.78 144.18 3204.57 143.652C3205.37 143.1 3205.76 142.368 3205.76 141.456V138.756H3202.45C3199.74 138.756 3198.38 139.596 3198.38 141.276V141.924C3198.38 142.764 3198.66 143.4 3199.21 143.832C3199.79 144.24 3200.57 144.444 3201.55 144.444ZM3213.31 143.796H3215.76C3216.05 143.412 3216.3 142.956 3216.52 142.428C3216.73 141.876 3216.91 141.204 3217.06 140.412C3217.2 139.62 3217.31 138.696 3217.38 137.64C3217.48 136.56 3217.52 135.3 3217.52 133.86V128.28H3231.13V147H3227.21V131.484H3221.3V134.04C3221.3 135.768 3221.23 137.28 3221.09 138.576C3220.97 139.872 3220.79 140.988 3220.55 141.924C3220.33 142.86 3220.06 143.64 3219.72 144.264C3219.41 144.864 3219.07 145.344 3218.71 145.704C3218.21 146.208 3217.63 146.568 3216.98 146.784C3216.34 147 3215.56 147.108 3214.64 147.108H3213.31V143.796ZM3235.45 143.796H3237.47L3238.51 141.492C3239.01 140.436 3239.73 139.848 3240.67 139.728V139.584C3239.13 139.416 3237.93 138.888 3237.07 138C3236.23 137.088 3235.81 135.852 3235.81 134.292C3235.81 133.356 3235.95 132.528 3236.24 131.808C3236.55 131.064 3236.99 130.428 3237.54 129.9C3238.09 129.372 3238.75 128.976 3239.52 128.712C3240.29 128.424 3241.14 128.28 3242.07 128.28H3251.18V147H3247.26V140.088H3243.26L3241.28 144.372C3240.83 145.38 3240.31 146.076 3239.73 146.46C3239.16 146.82 3238.47 147 3237.68 147H3235.45V143.796ZM3247.26 137.1V131.34H3242.83C3241.92 131.34 3241.2 131.544 3240.67 131.952C3240.14 132.336 3239.88 132.948 3239.88 133.788V134.724C3239.88 135.516 3240.14 136.116 3240.67 136.524C3241.2 136.908 3241.92 137.1 3242.83 137.1H3247.26ZM3256.79 128.28H3260.71V135.804H3268.77V128.28H3272.7V147H3268.77V139.008H3260.71V147H3256.79V128.28ZM3278.3 128.28H3282.15V137.424L3281.79 141.852H3281.94L3284.17 137.856L3290.65 128.28H3294.21V147H3290.36V137.856L3290.72 133.428H3290.58L3288.35 137.424L3281.87 147H3278.3V128.28ZM3307.16 147.432C3305.82 147.432 3304.62 147.204 3303.56 146.748C3302.5 146.292 3301.6 145.644 3300.86 144.804C3300.12 143.94 3299.54 142.908 3299.13 141.708C3298.75 140.484 3298.56 139.128 3298.56 137.64C3298.56 136.152 3298.75 134.808 3299.13 133.608C3299.54 132.384 3300.12 131.352 3300.86 130.512C3301.6 129.648 3302.5 128.988 3303.56 128.532C3304.62 128.076 3305.82 127.848 3307.16 127.848C3308.53 127.848 3309.73 128.088 3310.76 128.568C3311.82 129.048 3312.69 129.72 3313.39 130.584C3314.08 131.424 3314.6 132.408 3314.94 133.536C3315.3 134.664 3315.48 135.876 3315.48 137.172V138.648H3302.62V139.26C3302.62 140.7 3303.04 141.888 3303.88 142.824C3304.75 143.736 3305.97 144.192 3307.56 144.192C3308.71 144.192 3309.68 143.94 3310.47 143.436C3311.26 142.932 3311.94 142.248 3312.49 141.384L3314.79 143.652C3314.1 144.804 3313.09 145.728 3311.77 146.424C3310.45 147.096 3308.91 147.432 3307.16 147.432ZM3307.16 130.908C3306.49 130.908 3305.86 131.028 3305.29 131.268C3304.74 131.508 3304.26 131.844 3303.85 132.276C3303.46 132.708 3303.16 133.224 3302.95 133.824C3302.73 134.424 3302.62 135.084 3302.62 135.804V136.056H3311.34V135.696C3311.34 134.256 3310.96 133.104 3310.22 132.24C3309.48 131.352 3308.46 130.908 3307.16 130.908Z" fill="black"/>
<path d="M633.996 127.28H637.92V130.376H638.1C638.508 129.248 639.168 128.384 640.08 127.784C641.016 127.16 642.108 126.848 643.356 126.848C645.732 126.848 647.568 127.712 648.864 129.44C650.16 131.144 650.808 133.544 650.808 136.64C650.808 139.736 650.16 142.148 648.864 143.876C647.568 145.58 645.732 146.432 643.356 146.432C642.108 146.432 641.016 146.12 640.08 145.496C639.168 144.872 638.508 144.008 638.1 142.904H637.92V153.2H633.996V127.28ZM642.168 143.048C643.536 143.048 644.628 142.616 645.444 141.752C646.26 140.864 646.668 139.7 646.668 138.26V135.02C646.668 133.58 646.26 132.428 645.444 131.564C644.628 130.676 643.536 130.232 642.168 130.232C640.968 130.232 639.96 130.532 639.144 131.132C638.328 131.708 637.92 132.476 637.92 133.436V139.844C637.92 140.804 638.328 141.584 639.144 142.184C639.96 142.76 640.968 143.048 642.168 143.048ZM655.301 127.28H659.153V136.424L658.793 140.852H658.937L661.169 136.856L667.649 127.28H671.213V146H667.361V136.856L667.721 132.428H667.577L665.345 136.424L658.865 146H655.301V127.28ZM684.052 146.432C682.708 146.432 681.508 146.204 680.452 145.748C679.396 145.292 678.508 144.644 677.788 143.804C677.068 142.94 676.516 141.908 676.132 140.708C675.748 139.484 675.556 138.128 675.556 136.64C675.556 135.152 675.748 133.808 676.132 132.608C676.516 131.384 677.068 130.352 677.788 129.512C678.508 128.648 679.396 127.988 680.452 127.532C681.508 127.076 682.708 126.848 684.052 126.848C685.924 126.848 687.46 127.268 688.66 128.108C689.86 128.948 690.736 130.064 691.288 131.456L688.048 132.968C687.784 132.104 687.316 131.42 686.644 130.916C685.996 130.388 685.132 130.124 684.052 130.124C682.612 130.124 681.52 130.58 680.776 131.492C680.056 132.38 679.696 133.544 679.696 134.984V138.332C679.696 139.772 680.056 140.948 680.776 141.86C681.52 142.748 682.612 143.192 684.052 143.192C685.204 143.192 686.116 142.916 686.788 142.364C687.484 141.788 688.036 141.032 688.444 140.096L691.432 141.68C690.808 143.216 689.872 144.392 688.624 145.208C687.376 146.024 685.852 146.432 684.052 146.432ZM702.301 146.432C701.005 146.432 699.817 146.204 698.737 145.748C697.681 145.292 696.781 144.644 696.037 143.804C695.293 142.94 694.717 141.908 694.309 140.708C693.901 139.484 693.697 138.128 693.697 136.64C693.697 135.152 693.901 133.808 694.309 132.608C694.717 131.384 695.293 130.352 696.037 129.512C696.781 128.648 697.681 127.988 698.737 127.532C699.817 127.076 701.005 126.848 702.301 126.848C703.597 126.848 704.773 127.076 705.829 127.532C706.909 127.988 707.821 128.648 708.565 129.512C709.309 130.352 709.885 131.384 710.293 132.608C710.701 133.808 710.905 135.152 710.905 136.64C710.905 138.128 710.701 139.484 710.293 140.708C709.885 141.908 709.309 142.94 708.565 143.804C707.821 144.644 706.909 145.292 705.829 145.748C704.773 146.204 703.597 146.432 702.301 146.432ZM702.301 143.192C703.645 143.192 704.725 142.784 705.541 141.968C706.357 141.128 706.765 139.88 706.765 138.224V135.056C706.765 133.4 706.357 132.164 705.541 131.348C704.725 130.508 703.645 130.088 702.301 130.088C700.957 130.088 699.877 130.508 699.061 131.348C698.245 132.164 697.837 133.4 697.837 135.056V138.224C697.837 139.88 698.245 141.128 699.061 141.968C699.877 142.784 700.957 143.192 702.301 143.192ZM715.277 127.28H725.249C726.857 127.28 728.093 127.712 728.957 128.576C729.845 129.44 730.289 130.592 730.289 132.032C730.289 134.384 729.029 135.716 726.509 136.028V136.208C728.021 136.328 729.137 136.772 729.857 137.54C730.601 138.284 730.973 139.268 730.973 140.492C730.973 141.284 730.841 142.016 730.577 142.688C730.337 143.36 729.977 143.948 729.497 144.452C729.041 144.932 728.477 145.316 727.805 145.604C727.133 145.868 726.377 146 725.537 146H715.277V127.28ZM724.637 143.012C725.333 143.012 725.885 142.832 726.293 142.472C726.701 142.112 726.905 141.584 726.905 140.888V139.916C726.905 139.22 726.701 138.692 726.293 138.332C725.885 137.948 725.333 137.756 724.637 137.756H719.129V143.012H724.637ZM724.133 135.056C724.805 135.056 725.321 134.888 725.681 134.552C726.041 134.216 726.221 133.736 726.221 133.112V132.212C726.221 131.588 726.041 131.108 725.681 130.772C725.321 130.436 724.805 130.268 724.133 130.268H719.129V135.056H724.133ZM749.278 146C748.246 146 747.454 145.712 746.902 145.136C746.35 144.536 746.014 143.78 745.894 142.868H745.714C745.354 144.044 744.694 144.932 743.734 145.532C742.774 146.132 741.61 146.432 740.242 146.432C738.298 146.432 736.798 145.928 735.742 144.92C734.71 143.912 734.194 142.556 734.194 140.852C734.194 138.98 734.866 137.576 736.21 136.64C737.578 135.704 739.57 135.236 742.186 135.236H745.57V133.652C745.57 132.5 745.258 131.612 744.634 130.988C744.01 130.364 743.038 130.052 741.718 130.052C740.614 130.052 739.714 130.292 739.018 130.772C738.322 131.252 737.734 131.864 737.254 132.608L734.914 130.484C735.538 129.428 736.414 128.564 737.542 127.892C738.67 127.196 740.146 126.848 741.97 126.848C744.394 126.848 746.254 127.412 747.55 128.54C748.846 129.668 749.494 131.288 749.494 133.4V142.796H751.474V146H749.278ZM741.358 143.444C742.582 143.444 743.59 143.18 744.382 142.652C745.174 142.1 745.57 141.368 745.57 140.456V137.756H742.258C739.546 137.756 738.19 138.596 738.19 140.276V140.924C738.19 141.764 738.466 142.4 739.018 142.832C739.594 143.24 740.374 143.444 741.358 143.444ZM755.32 127.28H759.244V134.804H767.308V127.28H771.232V146H767.308V138.008H759.244V146H755.32V127.28ZM776.836 127.28H780.688V136.424L780.328 140.852H780.472L782.704 136.856L789.184 127.28H792.748V146H788.896V136.856L789.256 132.428H789.112L786.88 136.424L780.4 146H776.836V127.28ZM805.695 146.432C804.351 146.432 803.151 146.204 802.095 145.748C801.039 145.292 800.139 144.644 799.395 143.804C798.651 142.94 798.075 141.908 797.667 140.708C797.283 139.484 797.091 138.128 797.091 136.64C797.091 135.152 797.283 133.808 797.667 132.608C798.075 131.384 798.651 130.352 799.395 129.512C800.139 128.648 801.039 127.988 802.095 127.532C803.151 127.076 804.351 126.848 805.695 126.848C807.063 126.848 808.263 127.088 809.295 127.568C810.351 128.048 811.227 128.72 811.923 129.584C812.619 130.424 813.135 131.408 813.471 132.536C813.831 133.664 814.011 134.876 814.011 136.172V137.648H801.159V138.26C801.159 139.7 801.579 140.888 802.419 141.824C803.283 142.736 804.507 143.192 806.091 143.192C807.243 143.192 808.215 142.94 809.007 142.436C809.799 141.932 810.471 141.248 811.023 140.384L813.327 142.652C812.631 143.804 811.623 144.728 810.303 145.424C808.983 146.096 807.447 146.432 805.695 146.432ZM805.695 129.908C805.023 129.908 804.399 130.028 803.823 130.268C803.271 130.508 802.791 130.844 802.383 131.276C801.999 131.708 801.699 132.224 801.483 132.824C801.267 133.424 801.159 134.084 801.159 134.804V135.056H809.871V134.696C809.871 133.256 809.499 132.104 808.755 131.24C808.011 130.352 806.991 129.908 805.695 129.908Z" fill="black"/>
<path d="M2506.1 129.28H2510.02V132.376H2510.2C2510.61 131.248 2511.27 130.384 2512.18 129.784C2513.12 129.16 2514.21 128.848 2515.46 128.848C2517.83 128.848 2519.67 129.712 2520.97 131.44C2522.26 133.144 2522.91 135.544 2522.91 138.64C2522.91 141.736 2522.26 144.148 2520.97 145.876C2519.67 147.58 2517.83 148.432 2515.46 148.432C2514.21 148.432 2513.12 148.12 2512.18 147.496C2511.27 146.872 2510.61 146.008 2510.2 144.904H2510.02V155.2H2506.1V129.28ZM2514.27 145.048C2515.64 145.048 2516.73 144.616 2517.55 143.752C2518.36 142.864 2518.77 141.7 2518.77 140.26V137.02C2518.77 135.58 2518.36 134.428 2517.55 133.564C2516.73 132.676 2515.64 132.232 2514.27 132.232C2513.07 132.232 2512.06 132.532 2511.25 133.132C2510.43 133.708 2510.02 134.476 2510.02 135.436V141.844C2510.02 142.804 2510.43 143.584 2511.25 144.184C2512.06 144.76 2513.07 145.048 2514.27 145.048ZM2527.4 129.28H2531.25V138.424L2530.89 142.852H2531.04L2533.27 138.856L2539.75 129.28H2543.31V148H2539.46V138.856L2539.82 134.428H2539.68L2537.45 138.424L2530.97 148H2527.4V129.28ZM2556.15 148.432C2554.81 148.432 2553.61 148.204 2552.55 147.748C2551.5 147.292 2550.61 146.644 2549.89 145.804C2549.17 144.94 2548.62 143.908 2548.23 142.708C2547.85 141.484 2547.66 140.128 2547.66 138.64C2547.66 137.152 2547.85 135.808 2548.23 134.608C2548.62 133.384 2549.17 132.352 2549.89 131.512C2550.61 130.648 2551.5 129.988 2552.55 129.532C2553.61 129.076 2554.81 128.848 2556.15 128.848C2558.03 128.848 2559.56 129.268 2560.76 130.108C2561.96 130.948 2562.84 132.064 2563.39 133.456L2560.15 134.968C2559.89 134.104 2559.42 133.42 2558.75 132.916C2558.1 132.388 2557.23 132.124 2556.15 132.124C2554.71 132.124 2553.62 132.58 2552.88 133.492C2552.16 134.38 2551.8 135.544 2551.8 136.984V140.332C2551.8 141.772 2552.16 142.948 2552.88 143.86C2553.62 144.748 2554.71 145.192 2556.15 145.192C2557.31 145.192 2558.22 144.916 2558.89 144.364C2559.59 143.788 2560.14 143.032 2560.55 142.096L2563.53 143.68C2562.91 145.216 2561.97 146.392 2560.73 147.208C2559.48 148.024 2557.95 148.432 2556.15 148.432ZM2574.4 148.432C2573.11 148.432 2571.92 148.204 2570.84 147.748C2569.78 147.292 2568.88 146.644 2568.14 145.804C2567.39 144.94 2566.82 143.908 2566.41 142.708C2566 141.484 2565.8 140.128 2565.8 138.64C2565.8 137.152 2566 135.808 2566.41 134.608C2566.82 133.384 2567.39 132.352 2568.14 131.512C2568.88 130.648 2569.78 129.988 2570.84 129.532C2571.92 129.076 2573.11 128.848 2574.4 128.848C2575.7 128.848 2576.87 129.076 2577.93 129.532C2579.01 129.988 2579.92 130.648 2580.67 131.512C2581.41 132.352 2581.99 133.384 2582.39 134.608C2582.8 135.808 2583.01 137.152 2583.01 138.64C2583.01 140.128 2582.8 141.484 2582.39 142.708C2581.99 143.908 2581.41 144.94 2580.67 145.804C2579.92 146.644 2579.01 147.292 2577.93 147.748C2576.87 148.204 2575.7 148.432 2574.4 148.432ZM2574.4 145.192C2575.75 145.192 2576.83 144.784 2577.64 143.968C2578.46 143.128 2578.87 141.88 2578.87 140.224V137.056C2578.87 135.4 2578.46 134.164 2577.64 133.348C2576.83 132.508 2575.75 132.088 2574.4 132.088C2573.06 132.088 2571.98 132.508 2571.16 133.348C2570.35 134.164 2569.94 135.4 2569.94 137.056V140.224C2569.94 141.88 2570.35 143.128 2571.16 143.968C2571.98 144.784 2573.06 145.192 2574.4 145.192ZM2587.38 129.28H2597.35C2598.96 129.28 2600.2 129.712 2601.06 130.576C2601.95 131.44 2602.39 132.592 2602.39 134.032C2602.39 136.384 2601.13 137.716 2598.61 138.028V138.208C2600.12 138.328 2601.24 138.772 2601.96 139.54C2602.7 140.284 2603.08 141.268 2603.08 142.492C2603.08 143.284 2602.94 144.016 2602.68 144.688C2602.44 145.36 2602.08 145.948 2601.6 146.452C2601.14 146.932 2600.58 147.316 2599.91 147.604C2599.24 147.868 2598.48 148 2597.64 148H2587.38V129.28ZM2596.74 145.012C2597.44 145.012 2597.99 144.832 2598.4 144.472C2598.8 144.112 2599.01 143.584 2599.01 142.888V141.916C2599.01 141.22 2598.8 140.692 2598.4 140.332C2597.99 139.948 2597.44 139.756 2596.74 139.756H2591.23V145.012H2596.74ZM2596.24 137.056C2596.91 137.056 2597.42 136.888 2597.78 136.552C2598.14 136.216 2598.32 135.736 2598.32 135.112V134.212C2598.32 133.588 2598.14 133.108 2597.78 132.772C2597.42 132.436 2596.91 132.268 2596.24 132.268H2591.23V137.056H2596.24ZM2621.38 148C2620.35 148 2619.56 147.712 2619 147.136C2618.45 146.536 2618.12 145.78 2618 144.868H2617.82C2617.46 146.044 2616.8 146.932 2615.84 147.532C2614.88 148.132 2613.71 148.432 2612.34 148.432C2610.4 148.432 2608.9 147.928 2607.84 146.92C2606.81 145.912 2606.3 144.556 2606.3 142.852C2606.3 140.98 2606.97 139.576 2608.31 138.64C2609.68 137.704 2611.67 137.236 2614.29 137.236H2617.67V135.652C2617.67 134.5 2617.36 133.612 2616.74 132.988C2616.11 132.364 2615.14 132.052 2613.82 132.052C2612.72 132.052 2611.82 132.292 2611.12 132.772C2610.42 133.252 2609.84 133.864 2609.36 134.608L2607.02 132.484C2607.64 131.428 2608.52 130.564 2609.64 129.892C2610.77 129.196 2612.25 128.848 2614.07 128.848C2616.5 128.848 2618.36 129.412 2619.65 130.54C2620.95 131.668 2621.6 133.288 2621.6 135.4V144.796H2623.58V148H2621.38ZM2613.46 145.444C2614.68 145.444 2615.69 145.18 2616.48 144.652C2617.28 144.1 2617.67 143.368 2617.67 142.456V139.756H2614.36C2611.65 139.756 2610.29 140.596 2610.29 142.276V142.924C2610.29 143.764 2610.57 144.4 2611.12 144.832C2611.7 145.24 2612.48 145.444 2613.46 145.444ZM2627.42 129.28H2631.35V136.804H2639.41V129.28H2643.33V148H2639.41V140.008H2631.35V148H2627.42V129.28ZM2648.94 129.28H2652.79V138.424L2652.43 142.852H2652.57L2654.81 138.856L2661.29 129.28H2664.85V148H2661V138.856L2661.36 134.428H2661.21L2658.98 138.424L2652.5 148H2648.94V129.28ZM2677.8 148.432C2676.45 148.432 2675.25 148.204 2674.2 147.748C2673.14 147.292 2672.24 146.644 2671.5 145.804C2670.75 144.94 2670.18 143.908 2669.77 142.708C2669.39 141.484 2669.19 140.128 2669.19 138.64C2669.19 137.152 2669.39 135.808 2669.77 134.608C2670.18 133.384 2670.75 132.352 2671.5 131.512C2672.24 130.648 2673.14 129.988 2674.2 129.532C2675.25 129.076 2676.45 128.848 2677.8 128.848C2679.17 128.848 2680.37 129.088 2681.4 129.568C2682.45 130.048 2683.33 130.72 2684.03 131.584C2684.72 132.424 2685.24 133.408 2685.57 134.536C2685.93 135.664 2686.11 136.876 2686.11 138.172V139.648H2673.26V140.26C2673.26 141.7 2673.68 142.888 2674.52 143.824C2675.39 144.736 2676.61 145.192 2678.19 145.192C2679.35 145.192 2680.32 144.94 2681.11 144.436C2681.9 143.932 2682.57 143.248 2683.13 142.384L2685.43 144.652C2684.73 145.804 2683.73 146.728 2682.41 147.424C2681.09 148.096 2679.55 148.432 2677.8 148.432ZM2677.8 131.908C2677.13 131.908 2676.5 132.028 2675.93 132.268C2675.37 132.508 2674.89 132.844 2674.49 133.276C2674.1 133.708 2673.8 134.224 2673.59 134.824C2673.37 135.424 2673.26 136.084 2673.26 136.804V137.056H2681.97V136.696C2681.97 135.256 2681.6 134.104 2680.86 133.24C2680.11 132.352 2679.09 131.908 2677.8 131.908Z" fill="black"/>
<path d="M61.3839 146.432C60.0399 146.432 58.8399 146.216 57.7839 145.784C56.7279 145.328 55.8279 144.62 55.0839 143.66C54.3399 142.7 53.7639 141.488 53.3559 140.024C52.9719 138.536 52.7799 136.748 52.7799 134.66C52.7799 132.116 52.9599 129.932 53.3199 128.108C53.7039 126.26 54.2919 124.736 55.0839 123.536C55.8999 122.312 56.9199 121.376 58.1439 120.728C59.3919 120.08 60.8799 119.684 62.6079 119.54L68.5839 119V122.852L62.3919 123.428C61.4079 123.524 60.5799 123.716 59.9079 124.004C59.2599 124.292 58.7199 124.736 58.2879 125.336C57.8799 125.912 57.5679 126.692 57.3519 127.676C57.1359 128.636 56.9799 129.836 56.8839 131.276H57.0639C57.5439 130.028 58.1919 129.092 59.0079 128.468C59.8479 127.844 60.9759 127.532 62.3919 127.532C63.4959 127.532 64.5039 127.748 65.4159 128.18C66.3519 128.588 67.1559 129.188 67.8279 129.98C68.4999 130.772 69.0159 131.744 69.3759 132.896C69.7599 134.024 69.9519 135.32 69.9519 136.784C69.9519 138.248 69.7479 139.58 69.3399 140.78C68.9319 141.956 68.3559 142.964 67.6119 143.804C66.8679 144.644 65.9679 145.292 64.9119 145.748C63.8559 146.204 62.6799 146.432 61.3839 146.432ZM61.3839 143.192C62.7519 143.192 63.8319 142.772 64.6239 141.932C65.4159 141.068 65.8119 139.808 65.8119 138.152V135.812C65.8119 134.156 65.4159 132.908 64.6239 132.068C63.8319 131.204 62.7519 130.772 61.3839 130.772C59.9439 130.772 58.8399 131.156 58.0719 131.924C57.3279 132.692 56.9559 133.724 56.9559 135.02V138.152C56.9559 139.808 57.3519 141.068 58.1439 141.932C58.9359 142.772 60.0159 143.192 61.3839 143.192ZM88.0377 146C87.0057 146 86.2137 145.712 85.6617 145.136C85.1097 144.536 84.7737 143.78 84.6537 142.868H84.4737C84.1137 144.044 83.4537 144.932 82.4937 145.532C81.5337 146.132 80.3697 146.432 79.0017 146.432C77.0577 146.432 75.5577 145.928 74.5017 144.92C73.4697 143.912 72.9537 142.556 72.9537 140.852C72.9537 138.98 73.6257 137.576 74.9697 136.64C76.3377 135.704 78.3297 135.236 80.9457 135.236H84.3297V133.652C84.3297 132.5 84.0177 131.612 83.3937 130.988C82.7697 130.364 81.7977 130.052 80.4777 130.052C79.3737 130.052 78.4737 130.292 77.7777 130.772C77.0817 131.252 76.4937 131.864 76.0137 132.608L73.6737 130.484C74.2977 129.428 75.1737 128.564 76.3017 127.892C77.4297 127.196 78.9057 126.848 80.7297 126.848C83.1537 126.848 85.0137 127.412 86.3097 128.54C87.6057 129.668 88.2537 131.288 88.2537 133.4V142.796H90.2337V146H88.0377ZM80.1177 143.444C81.3417 143.444 82.3497 143.18 83.1417 142.652C83.9337 142.1 84.3297 141.368 84.3297 140.456V137.756H81.0177C78.3057 137.756 76.9497 138.596 76.9497 140.276V140.924C76.9497 141.764 77.2257 142.4 77.7777 142.832C78.3537 143.24 79.1337 143.444 80.1177 143.444ZM97.2995 130.484H91.3235V127.28H107.2V130.484H101.224V146H97.2995V130.484ZM110.744 127.28H114.596V136.424L114.236 140.852H114.38L116.612 136.856L123.092 127.28H126.656V146H122.804V136.856L123.164 132.428H123.02L120.788 136.424L114.308 146H110.744V127.28ZM132.259 127.28H136.183V134.84H139.495L142.591 129.62C143.119 128.732 143.647 128.12 144.175 127.784C144.703 127.448 145.375 127.28 146.191 127.28H148.099V130.484H146.011L143.635 134.444C143.275 135.068 142.951 135.5 142.663 135.74C142.399 135.98 142.039 136.16 141.583 136.28V136.424C142.063 136.52 142.483 136.7 142.843 136.964C143.203 137.204 143.551 137.636 143.887 138.26L146.407 142.796H148.459V146H146.227C145.435 146 144.751 145.82 144.175 145.46C143.623 145.1 143.095 144.464 142.591 143.552L139.495 138.008H136.183V146H132.259V127.28Z" fill="black"/>
<path d="M1933.49 148.432C1932.14 148.432 1930.94 148.216 1929.89 147.784C1928.83 147.328 1927.93 146.62 1927.19 145.66C1926.44 144.7 1925.87 143.488 1925.46 142.024C1925.07 140.536 1924.88 138.748 1924.88 136.66C1924.88 134.116 1925.06 131.932 1925.42 130.108C1925.81 128.26 1926.39 126.736 1927.19 125.536C1928 124.312 1929.02 123.376 1930.25 122.728C1931.49 122.08 1932.98 121.684 1934.71 121.54L1940.69 121V124.852L1934.49 125.428C1933.51 125.524 1932.68 125.716 1932.01 126.004C1931.36 126.292 1930.82 126.736 1930.39 127.336C1929.98 127.912 1929.67 128.692 1929.45 129.676C1929.24 130.636 1929.08 131.836 1928.99 133.276H1929.17C1929.65 132.028 1930.29 131.092 1931.11 130.468C1931.95 129.844 1933.08 129.532 1934.49 129.532C1935.6 129.532 1936.61 129.748 1937.52 130.18C1938.45 130.588 1939.26 131.188 1939.93 131.98C1940.6 132.772 1941.12 133.744 1941.48 134.896C1941.86 136.024 1942.05 137.32 1942.05 138.784C1942.05 140.248 1941.85 141.58 1941.44 142.78C1941.03 143.956 1940.46 144.964 1939.71 145.804C1938.97 146.644 1938.07 147.292 1937.01 147.748C1935.96 148.204 1934.78 148.432 1933.49 148.432ZM1933.49 145.192C1934.85 145.192 1935.93 144.772 1936.73 143.932C1937.52 143.068 1937.91 141.808 1937.91 140.152V137.812C1937.91 136.156 1937.52 134.908 1936.73 134.068C1935.93 133.204 1934.85 132.772 1933.49 132.772C1932.05 132.772 1930.94 133.156 1930.17 133.924C1929.43 134.692 1929.06 135.724 1929.06 137.02V140.152C1929.06 141.808 1929.45 143.068 1930.25 143.932C1931.04 144.772 1932.12 145.192 1933.49 145.192ZM1960.14 148C1959.11 148 1958.32 147.712 1957.76 147.136C1957.21 146.536 1956.88 145.78 1956.76 144.868H1956.58C1956.22 146.044 1955.56 146.932 1954.6 147.532C1953.64 148.132 1952.47 148.432 1951.1 148.432C1949.16 148.432 1947.66 147.928 1946.6 146.92C1945.57 145.912 1945.06 144.556 1945.06 142.852C1945.06 140.98 1945.73 139.576 1947.07 138.64C1948.44 137.704 1950.43 137.236 1953.05 137.236H1956.43V135.652C1956.43 134.5 1956.12 133.612 1955.5 132.988C1954.87 132.364 1953.9 132.052 1952.58 132.052C1951.48 132.052 1950.58 132.292 1949.88 132.772C1949.18 133.252 1948.6 133.864 1948.12 134.608L1945.78 132.484C1946.4 131.428 1947.28 130.564 1948.4 129.892C1949.53 129.196 1951.01 128.848 1952.83 128.848C1955.26 128.848 1957.12 129.412 1958.41 130.54C1959.71 131.668 1960.36 133.288 1960.36 135.4V144.796H1962.34V148H1960.14ZM1952.22 145.444C1953.44 145.444 1954.45 145.18 1955.24 144.652C1956.04 144.1 1956.43 143.368 1956.43 142.456V139.756H1953.12C1950.41 139.756 1949.05 140.596 1949.05 142.276V142.924C1949.05 143.764 1949.33 144.4 1949.88 144.832C1950.46 145.24 1951.24 145.444 1952.22 145.444ZM1969.4 132.484H1963.43V129.28H1979.3V132.484H1973.33V148H1969.4V132.484ZM1982.85 129.28H1986.7V138.424L1986.34 142.852H1986.48L1988.71 138.856L1995.19 129.28H1998.76V148H1994.91V138.856L1995.27 134.428H1995.12L1992.89 138.424L1986.41 148H1982.85V129.28ZM2004.36 129.28H2008.29V136.84H2011.6L2014.69 131.62C2015.22 130.732 2015.75 130.12 2016.28 129.784C2016.81 129.448 2017.48 129.28 2018.29 129.28H2020.2V132.484H2018.11L2015.74 136.444C2015.38 137.068 2015.05 137.5 2014.77 137.74C2014.5 137.98 2014.14 138.16 2013.69 138.28V138.424C2014.17 138.52 2014.59 138.7 2014.95 138.964C2015.31 139.204 2015.65 139.636 2015.99 140.26L2018.51 144.796H2020.56V148H2018.33C2017.54 148 2016.85 147.82 2016.28 147.46C2015.73 147.1 2015.2 146.464 2014.69 145.552L2011.6 140.008H2008.29V148H2004.36V129.28Z" fill="black"/>
</svg>
