<svg width="3745" height="264" viewBox="0 0 3745 264" fill="none" xmlns="http://www.w3.org/2000/svg">
<g clip-path="url(#clip0_255_5)">
<path d="M389.266 17.3886H385.124V94.4459H389.266V17.3886Z" fill="#FF6100"/>
<path d="M391.628 15H382.75V96.8344H391.628V15Z" fill="#FF6100"/>
<path d="M469.113 52.5468L466.183 49.5863L412.322 104.097L415.252 107.057L469.113 52.5468Z" fill="#FF6100"/>
<path d="M466.19 46.2307L408.967 104.098L415.25 110.441L472.473 52.5734L466.19 46.2307Z" fill="#FF6100"/>
<path d="M501.018 134.489L501.015 130.301L424.81 130.359L424.813 134.548L501.018 134.489Z" fill="#FF6100"/>
<path d="M503.368 127.944H422.438V136.921H503.368V127.944Z" fill="#FF6100"/>
<path d="M466.305 215.251L469.231 212.286L415.286 157.86L412.36 160.825L466.305 215.251Z" fill="#FF6100"/>
<path d="M415.289 154.487L409.016 160.839L466.328 218.617L472.601 212.264L415.289 154.487Z" fill="#FF6100"/>
<path d="M385.295 247.576L389.438 247.57L389.321 170.512L385.179 170.519L385.295 247.576Z" fill="#FF6100"/>
<path d="M391.692 168.127L382.813 168.141L382.939 249.975L391.817 249.962L391.692 168.127Z" fill="#FF6100"/>
<path d="M305.397 212.537L308.332 215.493L362.117 160.898L359.183 157.942L305.397 212.537Z" fill="#FF6100"/>
<path d="M359.181 154.605L302.039 212.554L308.33 218.888L365.473 160.938L359.181 154.605Z" fill="#FF6100"/>
<path d="M273.372 130.66L273.381 134.849L349.586 134.672L349.577 130.483L273.372 130.66Z" fill="#FF6100"/>
<path d="M351.929 128.081L271 128.267L271.02 137.244L351.949 137.059L351.929 128.081Z" fill="#FF6100"/>
<path d="M307.949 49.8354L305.028 52.8052L359.058 107.146L361.979 104.176L307.949 49.8354Z" fill="#FF6100"/>
<path d="M307.951 46.451L301.688 52.8135L359.089 110.501L365.352 104.138L307.951 46.451Z" fill="#FF6100"/>
<path d="M386.949 151.125C396.812 151.125 404.808 143.04 404.808 133.067C404.808 123.093 396.812 115.008 386.949 115.008C377.086 115.008 369.09 123.093 369.09 133.067C369.09 143.04 377.086 151.125 386.949 151.125Z" fill="#FF6100"/>
<path d="M2261.37 17.3886H2257.23V94.4459H2261.37V17.3886Z" fill="#FF6100"/>
<path d="M2263.73 15H2254.85V96.8344H2263.73V15Z" fill="#FF6100"/>
<path d="M2341.22 52.5468L2338.29 49.5863L2284.42 104.097L2287.35 107.057L2341.22 52.5468Z" fill="#FF6100"/>
<path d="M2338.29 46.2307L2281.07 104.098L2287.35 110.441L2344.58 52.5734L2338.29 46.2307Z" fill="#FF6100"/>
<path d="M2373.12 134.489L2373.12 130.301L2296.91 130.359L2296.92 134.548L2373.12 134.489Z" fill="#FF6100"/>
<path d="M2375.47 127.944H2294.54V136.921H2375.47V127.944Z" fill="#FF6100"/>
<path d="M2338.41 215.251L2341.33 212.286L2287.39 157.86L2284.46 160.825L2338.41 215.251Z" fill="#FF6100"/>
<path d="M2287.39 154.487L2281.12 160.839L2338.43 218.617L2344.7 212.264L2287.39 154.487Z" fill="#FF6100"/>
<path d="M2257.4 247.576L2261.54 247.57L2261.42 170.512L2257.28 170.519L2257.4 247.576Z" fill="#FF6100"/>
<path d="M2263.79 168.127L2254.92 168.141L2255.04 249.975L2263.92 249.962L2263.79 168.127Z" fill="#FF6100"/>
<path d="M2177.5 212.537L2180.43 215.493L2234.22 160.898L2231.29 157.942L2177.5 212.537Z" fill="#FF6100"/>
<path d="M2231.28 154.605L2174.14 212.554L2180.43 218.888L2237.57 160.938L2231.28 154.605Z" fill="#FF6100"/>
<path d="M2145.47 130.66L2145.48 134.849L2221.69 134.672L2221.68 130.483L2145.47 130.66Z" fill="#FF6100"/>
<path d="M2224.03 128.081L2143.1 128.267L2143.12 137.244L2224.05 137.059L2224.03 128.081Z" fill="#FF6100"/>
<path d="M2180.05 49.8354L2177.13 52.8052L2231.16 107.146L2234.08 104.176L2180.05 49.8354Z" fill="#FF6100"/>
<path d="M2180.05 46.451L2173.79 52.8135L2231.19 110.501L2237.45 104.138L2180.05 46.451Z" fill="#FF6100"/>
<path d="M2259.05 151.125C2268.91 151.125 2276.91 143.04 2276.91 133.067C2276.91 123.093 2268.91 115.008 2259.05 115.008C2249.19 115.008 2241.19 123.093 2241.19 133.067C2241.19 143.04 2249.19 151.125 2259.05 151.125Z" fill="#FF6100"/>
<path d="M1061.63 17.3885H1057.49V94.4459H1061.63V17.3885Z" fill="#5EB6CA"/>
<path d="M1064 15H1055.12V96.8344H1064V15Z" fill="#5EB6CA"/>
<path d="M1141.48 52.5468L1138.55 49.5862L1084.69 104.097L1087.62 107.057L1141.48 52.5468Z" fill="#5EB6CA"/>
<path d="M1138.56 46.2307L1081.33 104.098L1087.62 110.441L1144.84 52.5734L1138.56 46.2307Z" fill="#5EB6CA"/>
<path d="M1173.39 134.489L1173.38 130.301L1097.18 130.359L1097.18 134.548L1173.39 134.489Z" fill="#5EB6CA"/>
<path d="M1175.74 127.944H1094.81V136.921H1175.74V127.944Z" fill="#5EB6CA"/>
<path d="M1138.67 215.251L1141.6 212.286L1087.65 157.86L1084.73 160.825L1138.67 215.251Z" fill="#5EB6CA"/>
<path d="M1087.66 154.487L1081.38 160.839L1138.7 218.617L1144.97 212.264L1087.66 154.487Z" fill="#5EB6CA"/>
<path d="M1057.66 247.576L1061.8 247.57L1061.69 170.512L1057.55 170.519L1057.66 247.576Z" fill="#5EB6CA"/>
<path d="M1064.06 168.127L1055.18 168.141L1055.31 249.975L1064.18 249.962L1064.06 168.127Z" fill="#5EB6CA"/>
<path d="M977.765 212.537L980.7 215.493L1034.49 160.898L1031.55 157.942L977.765 212.537Z" fill="#5EB6CA"/>
<path d="M1031.55 154.605L974.406 212.554L980.698 218.888L1037.84 160.939L1031.55 154.605Z" fill="#5EB6CA"/>
<path d="M945.74 130.66L945.75 134.848L1021.95 134.672L1021.94 130.483L945.74 130.66Z" fill="#5EB6CA"/>
<path d="M1024.3 128.081L943.368 128.267L943.388 137.244L1024.32 137.059L1024.3 128.081Z" fill="#5EB6CA"/>
<path d="M980.317 49.8354L977.396 52.8052L1031.43 107.146L1034.35 104.176L980.317 49.8354Z" fill="#5EB6CA"/>
<path d="M980.318 46.451L974.055 52.8135L1031.46 110.501L1037.72 104.138L980.318 46.451Z" fill="#5EB6CA"/>
<path d="M1059.32 151.125C1069.18 151.125 1077.18 143.04 1077.18 133.067C1077.18 123.093 1069.18 115.008 1059.32 115.008C1049.45 115.008 1041.46 123.093 1041.46 133.067C1041.46 143.04 1049.45 151.125 1059.32 151.125Z" fill="#5EB6CA"/>
<path d="M2933.74 17.3885H2929.59V94.4459H2933.74V17.3885Z" fill="#5EB6CA"/>
<path d="M2936.1 15H2927.22V96.8344H2936.1V15Z" fill="#5EB6CA"/>
<path d="M3013.58 52.5468L3010.65 49.5863L2956.79 104.097L2959.72 107.057L3013.58 52.5468Z" fill="#5EB6CA"/>
<path d="M3010.66 46.2307L2953.44 104.098L2959.72 110.441L3016.94 52.5734L3010.66 46.2307Z" fill="#5EB6CA"/>
<path d="M3045.49 134.489L3045.48 130.301L2969.28 130.359L2969.28 134.548L3045.49 134.489Z" fill="#5EB6CA"/>
<path d="M3047.84 127.944H2966.91V136.921H3047.84V127.944Z" fill="#5EB6CA"/>
<path d="M3010.77 215.251L3013.7 212.286L2959.75 157.86L2956.83 160.825L3010.77 215.251Z" fill="#5EB6CA"/>
<path d="M2959.76 154.487L2953.49 160.839L3010.8 218.617L3017.07 212.264L2959.76 154.487Z" fill="#5EB6CA"/>
<path d="M2929.77 247.576L2933.91 247.57L2933.79 170.512L2929.65 170.519L2929.77 247.576Z" fill="#5EB6CA"/>
<path d="M2936.16 168.127L2927.28 168.141L2927.41 249.975L2936.29 249.962L2936.16 168.127Z" fill="#5EB6CA"/>
<path d="M2849.87 212.537L2852.8 215.493L2906.59 160.898L2903.65 157.942L2849.87 212.537Z" fill="#5EB6CA"/>
<path d="M2903.65 154.605L2846.51 212.554L2852.8 218.888L2909.94 160.938L2903.65 154.605Z" fill="#5EB6CA"/>
<path d="M2817.84 130.66L2817.85 134.848L2894.06 134.672L2894.05 130.483L2817.84 130.66Z" fill="#5EB6CA"/>
<path d="M2896.4 128.081L2815.47 128.267L2815.49 137.244L2896.42 137.059L2896.4 128.081Z" fill="#5EB6CA"/>
<path d="M2852.42 49.8354L2849.5 52.8052L2903.53 107.146L2906.45 104.176L2852.42 49.8354Z" fill="#5EB6CA"/>
<path d="M2852.42 46.451L2846.16 52.8135L2903.56 110.501L2909.82 104.138L2852.42 46.451Z" fill="#5EB6CA"/>
<path d="M2931.42 151.125C2941.28 151.125 2949.28 143.04 2949.28 133.067C2949.28 123.093 2941.28 115.008 2931.42 115.008C2921.56 115.008 2913.56 123.093 2913.56 133.067C2913.56 143.04 2921.56 151.125 2931.42 151.125Z" fill="#5EB6CA"/>
<path d="M1688 17.3886H1683.86V94.4459H1688V17.3886Z" fill="white"/>
<path d="M1690.36 15H1681.49V96.8344H1690.36V15Z" fill="white"/>
<path d="M1767.85 52.5468L1764.92 49.5863L1711.06 104.097L1713.99 107.057L1767.85 52.5468Z" fill="white"/>
<path d="M1764.93 46.2307L1707.7 104.098L1713.98 110.441L1771.21 52.5734L1764.93 46.2307Z" fill="white"/>
<path d="M1799.75 134.489L1799.75 130.301L1723.55 130.359L1723.55 134.548L1799.75 134.489Z" fill="white"/>
<path d="M1802.1 127.944H1721.17V136.921H1802.1V127.944Z" fill="white"/>
<path d="M1765.04 215.251L1767.97 212.286L1714.02 157.86L1711.09 160.825L1765.04 215.251Z" fill="white"/>
<path d="M1714.02 154.487L1707.75 160.839L1765.06 218.617L1771.34 212.264L1714.02 154.487Z" fill="white"/>
<path d="M1684.03 247.576L1688.17 247.57L1688.06 170.512L1683.91 170.519L1684.03 247.576Z" fill="white"/>
<path d="M1690.43 168.127L1681.55 168.141L1681.67 249.975L1690.55 249.962L1690.43 168.127Z" fill="white"/>
<path d="M1604.13 212.537L1607.07 215.493L1660.85 160.898L1657.92 157.942L1604.13 212.537Z" fill="white"/>
<path d="M1657.92 154.605L1600.77 212.554L1607.07 218.888L1664.21 160.939L1657.92 154.605Z" fill="white"/>
<path d="M1572.11 130.66L1572.12 134.849L1648.32 134.672L1648.31 130.483L1572.11 130.66Z" fill="white"/>
<path d="M1650.66 128.081L1569.74 128.267L1569.76 137.244L1650.68 137.059L1650.66 128.081Z" fill="white"/>
<path d="M1606.68 49.8354L1603.76 52.8052L1657.79 107.146L1660.71 104.176L1606.68 49.8354Z" fill="white"/>
<path d="M1606.69 46.451L1600.42 52.8135L1657.82 110.501L1664.09 104.138L1606.69 46.451Z" fill="white"/>
<path d="M1685.68 151.125C1695.55 151.125 1703.54 143.04 1703.54 133.067C1703.54 123.093 1695.55 115.008 1685.68 115.008C1675.82 115.008 1667.83 123.093 1667.83 133.067C1667.83 143.04 1675.82 151.125 1685.68 151.125Z" fill="white"/>
<path d="M3569.27 17.3886H3565.12V94.4459H3569.27V17.3886Z" fill="white"/>
<path d="M3571.63 15H3562.75V96.8344H3571.63V15Z" fill="white"/>
<path d="M3649.11 52.5468L3646.18 49.5863L3592.32 104.097L3595.25 107.057L3649.11 52.5468Z" fill="white"/>
<path d="M3646.19 46.2307L3588.97 104.098L3595.25 110.441L3652.47 52.5734L3646.19 46.2307Z" fill="white"/>
<path d="M3681.02 134.489L3681.01 130.301L3604.81 130.359L3604.81 134.548L3681.02 134.489Z" fill="white"/>
<path d="M3683.37 127.944H3602.44V136.921H3683.37V127.944Z" fill="white"/>
<path d="M3646.3 215.251L3649.23 212.286L3595.28 157.86L3592.36 160.825L3646.3 215.251Z" fill="white"/>
<path d="M3595.29 154.487L3589.02 160.839L3646.33 218.617L3652.6 212.264L3595.29 154.487Z" fill="white"/>
<path d="M3565.3 247.576L3569.44 247.57L3569.32 170.512L3565.18 170.519L3565.3 247.576Z" fill="white"/>
<path d="M3571.69 168.127L3562.81 168.141L3562.94 249.975L3571.82 249.962L3571.69 168.127Z" fill="white"/>
<path d="M3485.4 212.537L3488.33 215.493L3542.12 160.898L3539.18 157.942L3485.4 212.537Z" fill="white"/>
<path d="M3539.18 154.605L3482.04 212.554L3488.33 218.888L3545.47 160.938L3539.18 154.605Z" fill="white"/>
<path d="M3453.37 130.66L3453.38 134.849L3529.59 134.672L3529.58 130.483L3453.37 130.66Z" fill="white"/>
<path d="M3531.93 128.081L3451 128.267L3451.02 137.244L3531.95 137.059L3531.93 128.081Z" fill="white"/>
<path d="M3487.95 49.8355L3485.03 52.8052L3539.06 107.146L3541.98 104.176L3487.95 49.8355Z" fill="white"/>
<path d="M3487.95 46.4511L3481.69 52.8135L3539.09 110.501L3545.35 104.138L3487.95 46.4511Z" fill="white"/>
<path d="M3566.95 151.125C3576.81 151.125 3584.81 143.04 3584.81 133.067C3584.81 123.093 3576.81 115.008 3566.95 115.008C3557.09 115.008 3549.09 123.093 3549.09 133.067C3549.09 143.04 3557.09 151.125 3566.95 151.125Z" fill="white"/>
<path d="M1303.63 148H1313.89C1317.28 148 1319.33 145.624 1319.33 142.492C1319.33 140.08 1317.85 138.424 1314.86 138.208V138.028C1317.38 137.704 1318.64 136.372 1318.64 134.032C1318.64 131.188 1316.81 129.28 1313.6 129.28H1303.63V148ZM1307.48 145.012V139.756H1312.99C1314.4 139.756 1315.26 140.548 1315.26 141.916V142.888C1315.26 144.256 1314.4 145.012 1312.99 145.012H1307.48ZM1307.48 137.056V132.268H1312.49C1313.82 132.268 1314.58 132.988 1314.58 134.212V135.112C1314.58 136.336 1313.82 137.056 1312.49 137.056H1307.48ZM1339.83 148V144.796H1337.85V135.4C1337.85 131.224 1335.15 128.848 1330.33 128.848C1326.69 128.848 1324.49 130.396 1323.27 132.484L1325.61 134.608C1326.55 133.132 1327.88 132.052 1330.07 132.052C1332.7 132.052 1333.93 133.384 1333.93 135.652V137.236H1330.54C1325.32 137.236 1322.55 139.144 1322.55 142.852C1322.55 146.236 1324.75 148.432 1328.6 148.432C1331.33 148.432 1333.35 147.208 1334.07 144.868H1334.25C1334.5 146.704 1335.58 148 1337.63 148H1339.83ZM1329.71 145.444C1327.77 145.444 1326.55 144.58 1326.55 142.924V142.276C1326.55 140.656 1327.88 139.756 1330.61 139.756H1333.93V142.456C1333.93 144.292 1332.13 145.444 1329.71 145.444ZM1341.47 148.108H1342.81C1344.64 148.108 1345.87 147.712 1346.87 146.704C1348.35 145.228 1349.47 141.988 1349.47 135.04V132.484H1355.37V148H1359.29V129.28H1345.69V134.86C1345.69 140.62 1345.04 143.248 1343.92 144.796H1341.47V148.108ZM1363.61 148H1365.84C1367.43 148 1368.54 147.352 1369.44 145.372L1371.42 141.088H1375.42V148H1379.34V129.28H1370.24C1366.53 129.28 1363.97 131.584 1363.97 135.292C1363.97 138.388 1365.77 140.26 1368.83 140.584V140.728C1367.93 140.836 1367.18 141.412 1366.67 142.492L1365.63 144.796H1363.61V148ZM1370.99 138.1C1369.16 138.1 1368.04 137.308 1368.04 135.724V134.788C1368.04 133.096 1369.16 132.34 1370.99 132.34H1375.42V138.1H1370.99ZM1384.95 148H1388.87V140.008H1396.94V148H1400.86V129.28H1396.94V136.804H1388.87V129.28H1384.95V148ZM1406.46 148H1410.03L1416.51 138.424L1418.74 134.428H1418.88L1418.52 138.856V148H1422.38V129.28H1418.81L1412.33 138.856L1410.1 142.852H1409.96L1410.32 138.424V129.28H1406.46V148ZM1435.32 148.432C1438.82 148.432 1441.55 146.92 1442.96 144.652L1440.65 142.384C1439.57 144.112 1438.02 145.192 1435.72 145.192C1432.55 145.192 1430.79 143.14 1430.79 140.26V139.648H1443.64V138.172C1443.64 132.988 1440.83 128.848 1435.32 128.848C1430 128.848 1426.72 132.664 1426.72 138.64C1426.72 144.616 1430 148.432 1435.32 148.432ZM1435.32 131.908C1437.92 131.908 1439.5 133.816 1439.5 136.696V137.056H1430.79V136.804C1430.79 133.924 1432.62 131.908 1435.32 131.908Z" fill="black"/>
<path d="M3179.63 146H3189.89C3193.28 146 3195.33 143.624 3195.33 140.492C3195.33 138.08 3193.85 136.424 3190.86 136.208V136.028C3193.38 135.704 3194.64 134.372 3194.64 132.032C3194.64 129.188 3192.81 127.28 3189.6 127.28H3179.63V146ZM3183.48 143.012V137.756H3188.99C3190.4 137.756 3191.26 138.548 3191.26 139.916V140.888C3191.26 142.256 3190.4 143.012 3188.99 143.012H3183.48ZM3183.48 135.056V130.268H3188.49C3189.82 130.268 3190.58 130.988 3190.58 132.212V133.112C3190.58 134.336 3189.82 135.056 3188.49 135.056H3183.48ZM3215.83 146V142.796H3213.85V133.4C3213.85 129.224 3211.15 126.848 3206.33 126.848C3202.69 126.848 3200.49 128.396 3199.27 130.484L3201.61 132.608C3202.55 131.132 3203.88 130.052 3206.07 130.052C3208.7 130.052 3209.93 131.384 3209.93 133.652V135.236H3206.54C3201.32 135.236 3198.55 137.144 3198.55 140.852C3198.55 144.236 3200.75 146.432 3204.6 146.432C3207.33 146.432 3209.35 145.208 3210.07 142.868H3210.25C3210.5 144.704 3211.58 146 3213.63 146H3215.83ZM3205.71 143.444C3203.77 143.444 3202.55 142.58 3202.55 140.924V140.276C3202.55 138.656 3203.88 137.756 3206.61 137.756H3209.93V140.456C3209.93 142.292 3208.13 143.444 3205.71 143.444ZM3217.47 146.108H3218.81C3220.64 146.108 3221.87 145.712 3222.87 144.704C3224.35 143.228 3225.47 139.988 3225.47 133.04V130.484H3231.37V146H3235.29V127.28H3221.69V132.86C3221.69 138.62 3221.04 141.248 3219.92 142.796H3217.47V146.108ZM3239.61 146H3241.84C3243.43 146 3244.54 145.352 3245.44 143.372L3247.42 139.088H3251.42V146H3255.34V127.28H3246.24C3242.53 127.28 3239.97 129.584 3239.97 133.292C3239.97 136.388 3241.77 138.26 3244.83 138.584V138.728C3243.93 138.836 3243.18 139.412 3242.67 140.492L3241.63 142.796H3239.61V146ZM3246.99 136.1C3245.16 136.1 3244.04 135.308 3244.04 133.724V132.788C3244.04 131.096 3245.16 130.34 3246.99 130.34H3251.42V136.1H3246.99ZM3260.95 146H3264.87V138.008H3272.94V146H3276.86V127.28H3272.94V134.804H3264.87V127.28H3260.95V146ZM3282.46 146H3286.03L3292.51 136.424L3294.74 132.428H3294.88L3294.52 136.856V146H3298.38V127.28H3294.81L3288.33 136.856L3286.1 140.852H3285.96L3286.32 136.424V127.28H3282.46V146ZM3311.32 146.432C3314.82 146.432 3317.55 144.92 3318.96 142.652L3316.65 140.384C3315.57 142.112 3314.02 143.192 3311.72 143.192C3308.55 143.192 3306.79 141.14 3306.79 138.26V137.648H3319.64V136.172C3319.64 130.988 3316.83 126.848 3311.32 126.848C3306 126.848 3302.72 130.664 3302.72 136.64C3302.72 142.616 3306 146.432 3311.32 146.432ZM3311.32 129.908C3313.92 129.908 3315.5 131.816 3315.5 134.696V135.056H3306.79V134.804C3306.79 131.924 3308.62 129.908 3311.32 129.908Z" fill="black"/>
<path d="M683.884 148.432C689.104 148.432 692.452 144.616 692.452 138.784C692.452 132.952 689.284 129.532 684.892 129.532C682.084 129.532 680.5 130.792 679.564 133.276H679.384C679.744 127.48 680.968 125.788 684.892 125.428L691.084 124.852V121L685.108 121.54C678.196 122.152 675.28 126.472 675.28 136.66C675.28 144.976 678.556 148.432 683.884 148.432ZM683.884 145.192C681.184 145.192 679.456 143.464 679.456 140.152V137.02C679.456 134.428 681.04 132.772 683.884 132.772C686.584 132.772 688.312 134.5 688.312 137.812V140.152C688.312 143.464 686.584 145.192 683.884 145.192ZM712.734 148V144.796H710.754V135.4C710.754 131.224 708.054 128.848 703.23 128.848C699.594 128.848 697.398 130.396 696.174 132.484L698.514 134.608C699.45 133.132 700.782 132.052 702.978 132.052C705.606 132.052 706.83 133.384 706.83 135.652V137.236H703.446C698.226 137.236 695.454 139.144 695.454 142.852C695.454 146.236 697.65 148.432 701.502 148.432C704.238 148.432 706.254 147.208 706.974 144.868H707.154C707.406 146.704 708.486 148 710.538 148H712.734ZM702.618 145.444C700.674 145.444 699.45 144.58 699.45 142.924V142.276C699.45 140.656 700.782 139.756 703.518 139.756H706.83V142.456C706.83 144.292 705.03 145.444 702.618 145.444ZM719.8 148H723.724V132.484H729.7V129.28H713.824V132.484H719.8V148ZM733.244 148H736.808L743.288 138.424L745.52 134.428H745.664L745.304 138.856V148H749.156V129.28H745.592L739.112 138.856L736.88 142.852H736.736L737.096 138.424V129.28H733.244V148ZM754.759 148H758.683V140.008H761.995L765.091 145.552C766.099 147.352 767.143 148 768.727 148H770.959V144.796H768.907L766.387 140.26C765.703 139 765.019 138.604 764.083 138.424V138.28C764.983 138.028 765.415 137.668 766.135 136.444L768.511 132.484H770.599V129.28H768.691C767.071 129.28 766.171 129.82 765.091 131.62L761.995 136.84H758.683V129.28H754.759V148Z" fill="black"/>
<path d="M2555.88 144.432C2561.1 144.432 2564.45 140.616 2564.45 134.784C2564.45 128.952 2561.28 125.532 2556.89 125.532C2554.08 125.532 2552.5 126.792 2551.56 129.276H2551.38C2551.74 123.48 2552.97 121.788 2556.89 121.428L2563.08 120.852V117L2557.11 117.54C2550.2 118.152 2547.28 122.472 2547.28 132.66C2547.28 140.976 2550.56 144.432 2555.88 144.432ZM2555.88 141.192C2553.18 141.192 2551.46 139.464 2551.46 136.152V133.02C2551.46 130.428 2553.04 128.772 2555.88 128.772C2558.58 128.772 2560.31 130.5 2560.31 133.812V136.152C2560.31 139.464 2558.58 141.192 2555.88 141.192ZM2584.73 144V140.796H2582.75V131.4C2582.75 127.224 2580.05 124.848 2575.23 124.848C2571.59 124.848 2569.4 126.396 2568.17 128.484L2570.51 130.608C2571.45 129.132 2572.78 128.052 2574.98 128.052C2577.61 128.052 2578.83 129.384 2578.83 131.652V133.236H2575.45C2570.23 133.236 2567.45 135.144 2567.45 138.852C2567.45 142.236 2569.65 144.432 2573.5 144.432C2576.24 144.432 2578.25 143.208 2578.97 140.868H2579.15C2579.41 142.704 2580.49 144 2582.54 144H2584.73ZM2574.62 141.444C2572.67 141.444 2571.45 140.58 2571.45 138.924V138.276C2571.45 136.656 2572.78 135.756 2575.52 135.756H2578.83V138.456C2578.83 140.292 2577.03 141.444 2574.62 141.444ZM2591.8 144H2595.72V128.484H2601.7V125.28H2585.82V128.484H2591.8V144ZM2605.24 144H2608.81L2615.29 134.424L2617.52 130.428H2617.66L2617.3 134.856V144H2621.16V125.28H2617.59L2611.11 134.856L2608.88 138.852H2608.74L2609.1 134.424V125.28H2605.24V144ZM2626.76 144H2630.68V136.008H2634L2637.09 141.552C2638.1 143.352 2639.14 144 2640.73 144H2642.96V140.796H2640.91L2638.39 136.26C2637.7 135 2637.02 134.604 2636.08 134.424V134.28C2636.98 134.028 2637.42 133.668 2638.14 132.444L2640.51 128.484H2642.6V125.28H2640.69C2639.07 125.28 2638.17 125.82 2637.09 127.62L2634 132.84H2630.68V125.28H2626.76V144Z" fill="black"/>
<path d="M16.6283 154.2H20.5523V143.904H20.7323C21.5243 146.1 23.5043 147.432 25.9883 147.432C30.7043 147.432 33.4403 143.796 33.4403 137.64C33.4403 131.484 30.7043 127.848 25.9883 127.848C23.5043 127.848 21.5243 129.144 20.7323 131.376H20.5523V128.28H16.6283V154.2ZM24.8003 144.048C22.4243 144.048 20.5523 142.752 20.5523 140.844V134.436C20.5523 132.528 22.4243 131.232 24.8003 131.232C27.5003 131.232 29.3003 133.14 29.3003 136.02V139.26C29.3003 142.14 27.5003 144.048 24.8003 144.048ZM37.933 147H41.497L47.977 137.424L50.209 133.428H50.353L49.993 137.856V147H53.845V128.28H50.281L43.801 137.856L41.569 141.852H41.425L41.785 137.424V128.28H37.933V147ZM66.6846 147.432C70.2846 147.432 72.8406 145.74 74.0646 142.68L71.0766 141.096C70.2846 142.968 68.9526 144.192 66.6846 144.192C63.8046 144.192 62.3286 142.212 62.3286 139.332V135.984C62.3286 133.104 63.8046 131.124 66.6846 131.124C68.8086 131.124 70.1406 132.24 70.6806 133.968L73.9206 132.456C72.8046 129.684 70.4286 127.848 66.6846 127.848C61.2846 127.848 58.1886 131.664 58.1886 137.64C58.1886 143.616 61.2846 147.432 66.6846 147.432ZM84.9333 147.432C90.1533 147.432 93.5373 143.616 93.5373 137.64C93.5373 131.664 90.1533 127.848 84.9333 127.848C79.7133 127.848 76.3293 131.664 76.3293 137.64C76.3293 143.616 79.7133 147.432 84.9333 147.432ZM84.9333 144.192C82.2693 144.192 80.4693 142.536 80.4693 139.224V136.056C80.4693 132.744 82.2693 131.088 84.9333 131.088C87.5973 131.088 89.3973 132.744 89.3973 136.056V139.224C89.3973 142.536 87.5973 144.192 84.9333 144.192ZM97.9096 147H108.17C111.554 147 113.606 144.624 113.606 141.492C113.606 139.08 112.13 137.424 109.142 137.208V137.028C111.662 136.704 112.922 135.372 112.922 133.032C112.922 130.188 111.086 128.28 107.882 128.28H97.9096V147ZM101.762 144.012V138.756H107.27C108.674 138.756 109.538 139.548 109.538 140.916V141.888C109.538 143.256 108.674 144.012 107.27 144.012H101.762ZM101.762 136.056V131.268H106.766C108.098 131.268 108.854 131.988 108.854 133.212V134.112C108.854 135.336 108.098 136.056 106.766 136.056H101.762ZM134.107 147V143.796H132.127V134.4C132.127 130.224 129.427 127.848 124.603 127.848C120.967 127.848 118.771 129.396 117.547 131.484L119.887 133.608C120.823 132.132 122.155 131.052 124.351 131.052C126.979 131.052 128.203 132.384 128.203 134.652V136.236H124.819C119.599 136.236 116.827 138.144 116.827 141.852C116.827 145.236 119.023 147.432 122.875 147.432C125.611 147.432 127.627 146.208 128.347 143.868H128.527C128.779 145.704 129.859 147 131.911 147H134.107ZM123.991 144.444C122.047 144.444 120.823 143.58 120.823 141.924V141.276C120.823 139.656 122.155 138.756 124.891 138.756H128.203V141.456C128.203 143.292 126.403 144.444 123.991 144.444ZM137.953 147H141.877V139.008H149.941V147H153.865V128.28H149.941V135.804H141.877V128.28H137.953V147ZM159.468 147H163.032L169.512 137.424L171.744 133.428H171.888L171.528 137.856V147H175.38V128.28H171.816L165.336 137.856L163.104 141.852H162.96L163.32 137.424V128.28H159.468V147ZM188.328 147.432C191.82 147.432 194.556 145.92 195.96 143.652L193.656 141.384C192.576 143.112 191.028 144.192 188.724 144.192C185.556 144.192 183.792 142.14 183.792 139.26V138.648H196.644V137.172C196.644 131.988 193.836 127.848 188.328 127.848C183 127.848 179.724 131.664 179.724 137.64C179.724 143.616 183 147.432 188.328 147.432ZM188.328 130.908C190.92 130.908 192.504 132.816 192.504 135.696V136.056H183.792V135.804C183.792 132.924 185.628 130.908 188.328 130.908Z" fill="black"/>
<path d="M1883.13 155.2H1887.05V144.904H1887.23C1888.02 147.1 1890 148.432 1892.49 148.432C1897.2 148.432 1899.94 144.796 1899.94 138.64C1899.94 132.484 1897.2 128.848 1892.49 128.848C1890 128.848 1888.02 130.144 1887.23 132.376H1887.05V129.28H1883.13V155.2ZM1891.3 145.048C1888.92 145.048 1887.05 143.752 1887.05 141.844V135.436C1887.05 133.528 1888.92 132.232 1891.3 132.232C1894 132.232 1895.8 134.14 1895.8 137.02V140.26C1895.8 143.14 1894 145.048 1891.3 145.048ZM1904.43 148H1908L1914.48 138.424L1916.71 134.428H1916.85L1916.49 138.856V148H1920.35V129.28H1916.78L1910.3 138.856L1908.07 142.852H1907.93L1908.29 138.424V129.28H1904.43V148ZM1933.18 148.432C1936.78 148.432 1939.34 146.74 1940.56 143.68L1937.58 142.096C1936.78 143.968 1935.45 145.192 1933.18 145.192C1930.3 145.192 1928.83 143.212 1928.83 140.332V136.984C1928.83 134.104 1930.3 132.124 1933.18 132.124C1935.31 132.124 1936.64 133.24 1937.18 134.968L1940.42 133.456C1939.3 130.684 1936.93 128.848 1933.18 128.848C1927.78 128.848 1924.69 132.664 1924.69 138.64C1924.69 144.616 1927.78 148.432 1933.18 148.432ZM1951.43 148.432C1956.65 148.432 1960.04 144.616 1960.04 138.64C1960.04 132.664 1956.65 128.848 1951.43 128.848C1946.21 128.848 1942.83 132.664 1942.83 138.64C1942.83 144.616 1946.21 148.432 1951.43 148.432ZM1951.43 145.192C1948.77 145.192 1946.97 143.536 1946.97 140.224V137.056C1946.97 133.744 1948.77 132.088 1951.43 132.088C1954.1 132.088 1955.9 133.744 1955.9 137.056V140.224C1955.9 143.536 1954.1 145.192 1951.43 145.192ZM1964.41 148H1974.67C1978.05 148 1980.11 145.624 1980.11 142.492C1980.11 140.08 1978.63 138.424 1975.64 138.208V138.028C1978.16 137.704 1979.42 136.372 1979.42 134.032C1979.42 131.188 1977.59 129.28 1974.38 129.28H1964.41V148ZM1968.26 145.012V139.756H1973.77C1975.17 139.756 1976.04 140.548 1976.04 141.916V142.888C1976.04 144.256 1975.17 145.012 1973.77 145.012H1968.26ZM1968.26 137.056V132.268H1973.27C1974.6 132.268 1975.35 132.988 1975.35 134.212V135.112C1975.35 136.336 1974.6 137.056 1973.27 137.056H1968.26ZM2000.61 148V144.796H1998.63V135.4C1998.63 131.224 1995.93 128.848 1991.1 128.848C1987.47 128.848 1985.27 130.396 1984.05 132.484L1986.39 134.608C1987.32 133.132 1988.65 132.052 1990.85 132.052C1993.48 132.052 1994.7 133.384 1994.7 135.652V137.236H1991.32C1986.1 137.236 1983.33 139.144 1983.33 142.852C1983.33 146.236 1985.52 148.432 1989.37 148.432C1992.11 148.432 1994.13 147.208 1994.85 144.868H1995.03C1995.28 146.704 1996.36 148 1998.41 148H2000.61ZM1990.49 145.444C1988.55 145.444 1987.32 144.58 1987.32 142.924V142.276C1987.32 140.656 1988.65 139.756 1991.39 139.756H1994.7V142.456C1994.7 144.292 1992.9 145.444 1990.49 145.444ZM2004.45 148H2008.38V140.008H2016.44V148H2020.36V129.28H2016.44V136.804H2008.38V129.28H2004.45V148ZM2025.97 148H2029.53L2036.01 138.424L2038.24 134.428H2038.39L2038.03 138.856V148H2041.88V129.28H2038.32L2031.84 138.856L2029.6 142.852H2029.46L2029.82 138.424V129.28H2025.97V148ZM2054.83 148.432C2058.32 148.432 2061.06 146.92 2062.46 144.652L2060.16 142.384C2059.08 144.112 2057.53 145.192 2055.22 145.192C2052.06 145.192 2050.29 143.14 2050.29 140.26V139.648H2063.14V138.172C2063.14 132.988 2060.34 128.848 2054.83 128.848C2049.5 128.848 2046.22 132.664 2046.22 138.64C2046.22 144.616 2049.5 148.432 2054.83 148.432ZM2054.83 131.908C2057.42 131.908 2059 133.816 2059 136.696V137.056H2050.29V136.804C2050.29 133.924 2052.13 131.908 2054.83 131.908Z" fill="black"/>
</g>
<defs>
<clipPath id="clip0_255_5">
<rect width="3745" height="264" fill="white"/>
</clipPath>
</defs>
</svg>
