<svg width="3745" height="264" viewBox="0 0 3745 264" fill="none" xmlns="http://www.w3.org/2000/svg">
<g clip-path="url(#clip0_208_586)">
<path d="M389.266 17.3886H385.124V94.4459H389.266V17.3886Z" fill="#5EB6CA"/>
<path d="M391.628 15H382.75V96.8344H391.628V15Z" fill="#5EB6CA"/>
<path d="M469.113 52.5468L466.183 49.5863L412.322 104.097L415.252 107.057L469.113 52.5468Z" fill="#5EB6CA"/>
<path d="M466.19 46.2307L408.967 104.098L415.25 110.441L472.473 52.5734L466.19 46.2307Z" fill="#5EB6CA"/>
<path d="M501.018 134.489L501.015 130.301L424.81 130.359L424.813 134.548L501.018 134.489Z" fill="#5EB6CA"/>
<path d="M503.368 127.944H422.438V136.921H503.368V127.944Z" fill="#5EB6CA"/>
<path d="M466.305 215.251L469.231 212.286L415.286 157.86L412.36 160.825L466.305 215.251Z" fill="#5EB6CA"/>
<path d="M415.289 154.487L409.016 160.839L466.328 218.617L472.601 212.264L415.289 154.487Z" fill="#5EB6CA"/>
<path d="M385.295 247.576L389.438 247.57L389.321 170.512L385.179 170.519L385.295 247.576Z" fill="#5EB6CA"/>
<path d="M391.692 168.127L382.813 168.141L382.939 249.975L391.817 249.962L391.692 168.127Z" fill="#5EB6CA"/>
<path d="M305.397 212.537L308.332 215.493L362.117 160.898L359.183 157.942L305.397 212.537Z" fill="#5EB6CA"/>
<path d="M359.181 154.605L302.039 212.554L308.33 218.888L365.473 160.938L359.181 154.605Z" fill="#5EB6CA"/>
<path d="M273.372 130.66L273.381 134.849L349.586 134.672L349.577 130.483L273.372 130.66Z" fill="#5EB6CA"/>
<path d="M351.929 128.081L271 128.267L271.02 137.244L351.949 137.059L351.929 128.081Z" fill="#5EB6CA"/>
<path d="M307.949 49.8354L305.028 52.8052L359.058 107.146L361.979 104.176L307.949 49.8354Z" fill="#5EB6CA"/>
<path d="M307.951 46.451L301.688 52.8135L359.089 110.501L365.352 104.138L307.951 46.451Z" fill="#5EB6CA"/>
<path d="M386.949 151.125C396.812 151.125 404.808 143.04 404.808 133.067C404.808 123.093 396.812 115.008 386.949 115.008C377.086 115.008 369.09 123.093 369.09 133.067C369.09 143.04 377.086 151.125 386.949 151.125Z" fill="#5EB6CA"/>
<path d="M2261.37 17.3886H2257.23V94.4459H2261.37V17.3886Z" fill="#5EB6CA"/>
<path d="M2263.73 15H2254.85V96.8344H2263.73V15Z" fill="#5EB6CA"/>
<path d="M2341.22 52.5468L2338.29 49.5863L2284.42 104.097L2287.35 107.057L2341.22 52.5468Z" fill="#5EB6CA"/>
<path d="M2338.29 46.2307L2281.07 104.098L2287.35 110.441L2344.58 52.5734L2338.29 46.2307Z" fill="#5EB6CA"/>
<path d="M2373.12 134.489L2373.12 130.301L2296.91 130.359L2296.92 134.548L2373.12 134.489Z" fill="#5EB6CA"/>
<path d="M2375.47 127.944H2294.54V136.921H2375.47V127.944Z" fill="#5EB6CA"/>
<path d="M2338.41 215.251L2341.33 212.286L2287.39 157.86L2284.46 160.825L2338.41 215.251Z" fill="#5EB6CA"/>
<path d="M2287.39 154.487L2281.12 160.839L2338.43 218.617L2344.7 212.264L2287.39 154.487Z" fill="#5EB6CA"/>
<path d="M2257.4 247.576L2261.54 247.57L2261.42 170.512L2257.28 170.519L2257.4 247.576Z" fill="#5EB6CA"/>
<path d="M2263.79 168.127L2254.92 168.141L2255.04 249.975L2263.92 249.962L2263.79 168.127Z" fill="#5EB6CA"/>
<path d="M2177.5 212.537L2180.43 215.493L2234.22 160.898L2231.29 157.942L2177.5 212.537Z" fill="#5EB6CA"/>
<path d="M2231.28 154.605L2174.14 212.554L2180.43 218.888L2237.57 160.938L2231.28 154.605Z" fill="#5EB6CA"/>
<path d="M2145.47 130.66L2145.48 134.849L2221.69 134.672L2221.68 130.483L2145.47 130.66Z" fill="#5EB6CA"/>
<path d="M2224.03 128.081L2143.1 128.267L2143.12 137.244L2224.05 137.059L2224.03 128.081Z" fill="#5EB6CA"/>
<path d="M2180.05 49.8354L2177.13 52.8052L2231.16 107.146L2234.08 104.176L2180.05 49.8354Z" fill="#5EB6CA"/>
<path d="M2180.05 46.451L2173.79 52.8135L2231.19 110.501L2237.45 104.138L2180.05 46.451Z" fill="#5EB6CA"/>
<path d="M2259.05 151.125C2268.91 151.125 2276.91 143.04 2276.91 133.067C2276.91 123.093 2268.91 115.008 2259.05 115.008C2249.19 115.008 2241.19 123.093 2241.19 133.067C2241.19 143.04 2249.19 151.125 2259.05 151.125Z" fill="#5EB6CA"/>
<path d="M1061.63 17.3885H1057.49V94.4459H1061.63V17.3885Z" fill="#FF6100"/>
<path d="M1064 15H1055.12V96.8344H1064V15Z" fill="#FF6100"/>
<path d="M1141.48 52.5468L1138.55 49.5862L1084.69 104.097L1087.62 107.057L1141.48 52.5468Z" fill="#FF6100"/>
<path d="M1138.56 46.2307L1081.33 104.098L1087.62 110.441L1144.84 52.5734L1138.56 46.2307Z" fill="#FF6100"/>
<path d="M1173.39 134.489L1173.38 130.301L1097.18 130.359L1097.18 134.548L1173.39 134.489Z" fill="#FF6100"/>
<path d="M1175.74 127.944H1094.81V136.921H1175.74V127.944Z" fill="#FF6100"/>
<path d="M1138.67 215.251L1141.6 212.286L1087.65 157.86L1084.73 160.825L1138.67 215.251Z" fill="#FF6100"/>
<path d="M1087.66 154.487L1081.38 160.839L1138.7 218.617L1144.97 212.264L1087.66 154.487Z" fill="#FF6100"/>
<path d="M1057.66 247.576L1061.8 247.57L1061.69 170.512L1057.55 170.519L1057.66 247.576Z" fill="#FF6100"/>
<path d="M1064.06 168.127L1055.18 168.141L1055.31 249.975L1064.18 249.962L1064.06 168.127Z" fill="#FF6100"/>
<path d="M977.765 212.537L980.7 215.493L1034.49 160.898L1031.55 157.942L977.765 212.537Z" fill="#FF6100"/>
<path d="M1031.55 154.605L974.406 212.554L980.698 218.888L1037.84 160.939L1031.55 154.605Z" fill="#FF6100"/>
<path d="M945.74 130.66L945.75 134.848L1021.95 134.672L1021.94 130.483L945.74 130.66Z" fill="#FF6100"/>
<path d="M1024.3 128.081L943.368 128.267L943.388 137.244L1024.32 137.059L1024.3 128.081Z" fill="#FF6100"/>
<path d="M980.317 49.8354L977.396 52.8052L1031.43 107.146L1034.35 104.176L980.317 49.8354Z" fill="#FF6100"/>
<path d="M980.318 46.451L974.055 52.8135L1031.46 110.501L1037.72 104.138L980.318 46.451Z" fill="#FF6100"/>
<path d="M1059.32 151.125C1069.18 151.125 1077.18 143.04 1077.18 133.067C1077.18 123.093 1069.18 115.008 1059.32 115.008C1049.45 115.008 1041.46 123.093 1041.46 133.067C1041.46 143.04 1049.45 151.125 1059.32 151.125Z" fill="#FF6100"/>
<path d="M2933.74 17.3885H2929.59V94.4459H2933.74V17.3885Z" fill="#FF6100"/>
<path d="M2936.1 15H2927.22V96.8344H2936.1V15Z" fill="#FF6100"/>
<path d="M3013.58 52.5468L3010.65 49.5863L2956.79 104.097L2959.72 107.057L3013.58 52.5468Z" fill="#FF6100"/>
<path d="M3010.66 46.2307L2953.44 104.098L2959.72 110.441L3016.94 52.5734L3010.66 46.2307Z" fill="#FF6100"/>
<path d="M3045.49 134.489L3045.48 130.301L2969.28 130.359L2969.28 134.548L3045.49 134.489Z" fill="#FF6100"/>
<path d="M3047.84 127.944H2966.91V136.921H3047.84V127.944Z" fill="#FF6100"/>
<path d="M3010.77 215.251L3013.7 212.286L2959.75 157.86L2956.83 160.825L3010.77 215.251Z" fill="#FF6100"/>
<path d="M2959.76 154.487L2953.49 160.839L3010.8 218.617L3017.07 212.264L2959.76 154.487Z" fill="#FF6100"/>
<path d="M2929.77 247.576L2933.91 247.57L2933.79 170.512L2929.65 170.519L2929.77 247.576Z" fill="#FF6100"/>
<path d="M2936.16 168.127L2927.28 168.141L2927.41 249.975L2936.29 249.962L2936.16 168.127Z" fill="#FF6100"/>
<path d="M2849.87 212.537L2852.8 215.493L2906.59 160.898L2903.65 157.942L2849.87 212.537Z" fill="#FF6100"/>
<path d="M2903.65 154.605L2846.51 212.554L2852.8 218.888L2909.94 160.938L2903.65 154.605Z" fill="#FF6100"/>
<path d="M2817.84 130.66L2817.85 134.848L2894.06 134.672L2894.05 130.483L2817.84 130.66Z" fill="#FF6100"/>
<path d="M2896.4 128.081L2815.47 128.267L2815.49 137.244L2896.42 137.059L2896.4 128.081Z" fill="#FF6100"/>
<path d="M2852.42 49.8354L2849.5 52.8052L2903.53 107.146L2906.45 104.176L2852.42 49.8354Z" fill="#FF6100"/>
<path d="M2852.42 46.451L2846.16 52.8135L2903.56 110.501L2909.82 104.138L2852.42 46.451Z" fill="#FF6100"/>
<path d="M2931.42 151.125C2941.28 151.125 2949.28 143.04 2949.28 133.067C2949.28 123.093 2941.28 115.008 2931.42 115.008C2921.56 115.008 2913.56 123.093 2913.56 133.067C2913.56 143.04 2921.56 151.125 2931.42 151.125Z" fill="#FF6100"/>
<path d="M1688 17.3886H1683.86V94.4459H1688V17.3886Z" fill="white"/>
<path d="M1690.36 15H1681.49V96.8344H1690.36V15Z" fill="white"/>
<path d="M1767.85 52.5468L1764.92 49.5863L1711.06 104.097L1713.99 107.057L1767.85 52.5468Z" fill="white"/>
<path d="M1764.93 46.2307L1707.7 104.098L1713.98 110.441L1771.21 52.5734L1764.93 46.2307Z" fill="white"/>
<path d="M1799.75 134.489L1799.75 130.301L1723.55 130.359L1723.55 134.548L1799.75 134.489Z" fill="white"/>
<path d="M1802.1 127.944H1721.17V136.921H1802.1V127.944Z" fill="white"/>
<path d="M1765.04 215.251L1767.97 212.286L1714.02 157.86L1711.09 160.825L1765.04 215.251Z" fill="white"/>
<path d="M1714.02 154.487L1707.75 160.839L1765.06 218.617L1771.34 212.264L1714.02 154.487Z" fill="white"/>
<path d="M1684.03 247.576L1688.17 247.57L1688.06 170.512L1683.91 170.519L1684.03 247.576Z" fill="white"/>
<path d="M1690.43 168.127L1681.55 168.141L1681.67 249.975L1690.55 249.962L1690.43 168.127Z" fill="white"/>
<path d="M1604.13 212.537L1607.07 215.493L1660.85 160.898L1657.92 157.942L1604.13 212.537Z" fill="white"/>
<path d="M1657.92 154.605L1600.77 212.554L1607.07 218.888L1664.21 160.939L1657.92 154.605Z" fill="white"/>
<path d="M1572.11 130.66L1572.12 134.849L1648.32 134.672L1648.31 130.483L1572.11 130.66Z" fill="white"/>
<path d="M1650.66 128.081L1569.74 128.267L1569.76 137.244L1650.68 137.059L1650.66 128.081Z" fill="white"/>
<path d="M1606.68 49.8354L1603.76 52.8052L1657.79 107.146L1660.71 104.176L1606.68 49.8354Z" fill="white"/>
<path d="M1606.69 46.451L1600.42 52.8135L1657.82 110.501L1664.09 104.138L1606.69 46.451Z" fill="white"/>
<path d="M1685.68 151.125C1695.55 151.125 1703.54 143.04 1703.54 133.067C1703.54 123.093 1695.55 115.008 1685.68 115.008C1675.82 115.008 1667.83 123.093 1667.83 133.067C1667.83 143.04 1675.82 151.125 1685.68 151.125Z" fill="white"/>
<path d="M3565.27 17.3886H3561.12V94.4459H3565.27V17.3886Z" fill="white"/>
<path d="M3567.63 15H3558.75V96.8344H3567.63V15Z" fill="white"/>
<path d="M3645.11 52.5468L3642.18 49.5863L3588.32 104.097L3591.25 107.057L3645.11 52.5468Z" fill="white"/>
<path d="M3642.19 46.2307L3584.97 104.098L3591.25 110.441L3648.47 52.5734L3642.19 46.2307Z" fill="white"/>
<path d="M3677.02 134.489L3677.01 130.301L3600.81 130.359L3600.81 134.548L3677.02 134.489Z" fill="white"/>
<path d="M3679.37 127.944H3598.44V136.921H3679.37V127.944Z" fill="white"/>
<path d="M3642.3 215.251L3645.23 212.286L3591.28 157.86L3588.36 160.825L3642.3 215.251Z" fill="white"/>
<path d="M3591.29 154.487L3585.02 160.839L3642.33 218.617L3648.6 212.264L3591.29 154.487Z" fill="white"/>
<path d="M3561.3 247.576L3565.44 247.57L3565.32 170.512L3561.18 170.519L3561.3 247.576Z" fill="white"/>
<path d="M3567.69 168.127L3558.81 168.141L3558.94 249.975L3567.82 249.962L3567.69 168.127Z" fill="white"/>
<path d="M3481.4 212.537L3484.33 215.493L3538.12 160.898L3535.18 157.942L3481.4 212.537Z" fill="white"/>
<path d="M3535.18 154.605L3478.04 212.554L3484.33 218.888L3541.47 160.938L3535.18 154.605Z" fill="white"/>
<path d="M3449.37 130.66L3449.38 134.849L3525.59 134.672L3525.58 130.483L3449.37 130.66Z" fill="white"/>
<path d="M3527.93 128.081L3447 128.267L3447.02 137.244L3527.95 137.059L3527.93 128.081Z" fill="white"/>
<path d="M3483.95 49.8355L3481.03 52.8052L3535.06 107.146L3537.98 104.176L3483.95 49.8355Z" fill="white"/>
<path d="M3483.95 46.4511L3477.69 52.8135L3535.09 110.501L3541.35 104.138L3483.95 46.4511Z" fill="white"/>
<path d="M3562.95 151.125C3572.81 151.125 3580.81 143.04 3580.81 133.067C3580.81 123.093 3572.81 115.008 3562.95 115.008C3553.09 115.008 3545.09 123.093 3545.09 133.067C3545.09 143.04 3553.09 151.125 3562.95 151.125Z" fill="white"/>
<path d="M1285.34 144.432C1284 144.432 1282.8 144.204 1281.74 143.748C1280.69 143.292 1279.8 142.644 1279.08 141.804C1278.36 140.94 1277.81 139.908 1277.42 138.708C1277.04 137.484 1276.85 136.128 1276.85 134.64C1276.85 133.152 1277.04 131.808 1277.42 130.608C1277.81 129.384 1278.36 128.352 1279.08 127.512C1279.8 126.648 1280.69 125.988 1281.74 125.532C1282.8 125.076 1284 124.848 1285.34 124.848C1287.22 124.848 1288.75 125.268 1289.95 126.108C1291.15 126.948 1292.03 128.064 1292.58 129.456L1289.34 130.968C1289.08 130.104 1288.61 129.42 1287.94 128.916C1287.29 128.388 1286.42 128.124 1285.34 128.124C1283.9 128.124 1282.81 128.58 1282.07 129.492C1281.35 130.38 1280.99 131.544 1280.99 132.984V136.332C1280.99 137.772 1281.35 138.948 1282.07 139.86C1282.81 140.748 1283.9 141.192 1285.34 141.192C1286.5 141.192 1287.41 140.916 1288.08 140.364C1288.78 139.788 1289.33 139.032 1289.74 138.096L1292.72 139.68C1292.1 141.216 1291.16 142.392 1289.92 143.208C1288.67 144.024 1287.14 144.432 1285.34 144.432ZM1296.46 125.28H1300.38V132.84H1303.7L1306.79 127.62C1307.32 126.732 1307.85 126.12 1308.38 125.784C1308.9 125.448 1309.58 125.28 1310.39 125.28H1312.3V128.484H1310.21L1307.84 132.444C1307.48 133.068 1307.15 133.5 1306.86 133.74C1306.6 133.98 1306.24 134.16 1305.78 134.28V134.424C1306.26 134.52 1306.68 134.7 1307.04 134.964C1307.4 135.204 1307.75 135.636 1308.09 136.26L1310.61 140.796H1312.66V144H1310.43C1309.64 144 1308.95 143.82 1308.38 143.46C1307.82 143.1 1307.3 142.464 1306.79 141.552L1303.7 136.008H1300.38V144H1296.46V125.28ZM1328.41 125.28H1332.19L1324.3 147.708C1324.09 148.332 1323.83 148.86 1323.55 149.292C1323.28 149.748 1322.96 150.108 1322.57 150.372C1322.21 150.66 1321.77 150.864 1321.24 150.984C1320.71 151.128 1320.09 151.2 1319.37 151.2H1317.1V147.996H1320.27L1321.35 144.828L1314.55 125.28H1318.47L1322.21 136.296L1323.29 140.364H1323.47L1324.66 136.296L1328.41 125.28ZM1332.33 140.796H1334.78C1335.07 140.412 1335.32 139.956 1335.54 139.428C1335.75 138.876 1335.93 138.204 1336.08 137.412C1336.22 136.62 1336.33 135.696 1336.4 134.64C1336.5 133.56 1336.55 132.3 1336.55 130.86V125.28H1350.15V144H1346.23V128.484H1340.33V131.04C1340.33 132.768 1340.25 134.28 1340.11 135.576C1339.99 136.872 1339.81 137.988 1339.57 138.924C1339.35 139.86 1339.08 140.64 1338.74 141.264C1338.43 141.864 1338.09 142.344 1337.73 142.704C1337.23 143.208 1336.65 143.568 1336.01 143.784C1335.36 144 1334.58 144.108 1333.67 144.108H1332.33V140.796ZM1355.8 125.28H1359.73V131.544H1364.88C1366.75 131.544 1368.26 132.096 1369.41 133.2C1370.59 134.28 1371.18 135.804 1371.18 137.772C1371.18 139.764 1370.6 141.3 1369.45 142.38C1368.3 143.46 1366.78 144 1364.91 144H1355.8V125.28ZM1364.16 140.94C1365.07 140.94 1365.79 140.748 1366.32 140.364C1366.84 139.956 1367.11 139.332 1367.11 138.492V137.016C1367.11 136.176 1366.84 135.564 1366.32 135.18C1365.79 134.796 1365.07 134.604 1364.16 134.604H1359.73V140.94H1364.16ZM1375.18 125.28H1390.55V144H1386.62V128.484H1379.1V144H1375.18V125.28ZM1400.05 128.484H1394.08V125.28H1409.95V128.484H1403.98V144H1400.05V128.484ZM1425.44 125.28H1429.22L1421.33 147.708C1421.12 148.332 1420.86 148.86 1420.58 149.292C1420.31 149.748 1419.99 150.108 1419.6 150.372C1419.24 150.66 1418.8 150.864 1418.27 150.984C1417.74 151.128 1417.12 151.2 1416.4 151.2H1414.13V147.996H1417.3L1418.38 144.828L1411.58 125.28H1415.5L1419.24 136.296L1420.32 140.364H1420.5L1421.69 136.296L1425.44 125.28ZM1432.44 125.28H1436.37V128.376H1436.55C1436.96 127.248 1437.62 126.384 1438.53 125.784C1439.46 125.16 1440.56 124.848 1441.8 124.848C1444.18 124.848 1446.02 125.712 1447.31 127.44C1448.61 129.144 1449.26 131.544 1449.26 134.64C1449.26 137.736 1448.61 140.148 1447.31 141.876C1446.02 143.58 1444.18 144.432 1441.8 144.432C1440.56 144.432 1439.46 144.12 1438.53 143.496C1437.62 142.872 1436.96 142.008 1436.55 140.904H1436.37V151.2H1432.44V125.28ZM1440.62 141.048C1441.98 141.048 1443.08 140.616 1443.89 139.752C1444.71 138.864 1445.12 137.7 1445.12 136.26V133.02C1445.12 131.58 1444.71 130.428 1443.89 129.564C1443.08 128.676 1441.98 128.232 1440.62 128.232C1439.42 128.232 1438.41 128.532 1437.59 129.132C1436.78 129.708 1436.37 130.476 1436.37 131.436V137.844C1436.37 138.804 1436.78 139.584 1437.59 140.184C1438.41 140.76 1439.42 141.048 1440.62 141.048ZM1467.47 144C1466.43 144 1465.64 143.712 1465.09 143.136C1464.54 142.536 1464.2 141.78 1464.08 140.868H1463.9C1463.54 142.044 1462.88 142.932 1461.92 143.532C1460.96 144.132 1459.8 144.432 1458.43 144.432C1456.49 144.432 1454.99 143.928 1453.93 142.92C1452.9 141.912 1452.38 140.556 1452.38 138.852C1452.38 136.98 1453.05 135.576 1454.4 134.64C1455.77 133.704 1457.76 133.236 1460.37 133.236H1463.76V131.652C1463.76 130.5 1463.45 129.612 1462.82 128.988C1462.2 128.364 1461.23 128.052 1459.91 128.052C1458.8 128.052 1457.9 128.292 1457.21 128.772C1456.51 129.252 1455.92 129.864 1455.44 130.608L1453.1 128.484C1453.73 127.428 1454.6 126.564 1455.73 125.892C1456.86 125.196 1458.33 124.848 1460.16 124.848C1462.58 124.848 1464.44 125.412 1465.74 126.54C1467.03 127.668 1467.68 129.288 1467.68 131.4V140.796H1469.66V144H1467.47ZM1459.55 141.444C1460.77 141.444 1461.78 141.18 1462.57 140.652C1463.36 140.1 1463.76 139.368 1463.76 138.456V135.756H1460.45C1457.73 135.756 1456.38 136.596 1456.38 138.276V138.924C1456.38 139.764 1456.65 140.4 1457.21 140.832C1457.78 141.24 1458.56 141.444 1459.55 141.444Z" fill="black"/>
<path d="M3159.34 144.432C3158 144.432 3156.8 144.204 3155.74 143.748C3154.69 143.292 3153.8 142.644 3153.08 141.804C3152.36 140.94 3151.81 139.908 3151.42 138.708C3151.04 137.484 3150.85 136.128 3150.85 134.64C3150.85 133.152 3151.04 131.808 3151.42 130.608C3151.81 129.384 3152.36 128.352 3153.08 127.512C3153.8 126.648 3154.69 125.988 3155.74 125.532C3156.8 125.076 3158 124.848 3159.34 124.848C3161.22 124.848 3162.75 125.268 3163.95 126.108C3165.15 126.948 3166.03 128.064 3166.58 129.456L3163.34 130.968C3163.08 130.104 3162.61 129.42 3161.94 128.916C3161.29 128.388 3160.42 128.124 3159.34 128.124C3157.9 128.124 3156.81 128.58 3156.07 129.492C3155.35 130.38 3154.99 131.544 3154.99 132.984V136.332C3154.99 137.772 3155.35 138.948 3156.07 139.86C3156.81 140.748 3157.9 141.192 3159.34 141.192C3160.5 141.192 3161.41 140.916 3162.08 140.364C3162.78 139.788 3163.33 139.032 3163.74 138.096L3166.72 139.68C3166.1 141.216 3165.16 142.392 3163.92 143.208C3162.67 144.024 3161.14 144.432 3159.34 144.432ZM3170.46 125.28H3174.38V132.84H3177.7L3180.79 127.62C3181.32 126.732 3181.85 126.12 3182.38 125.784C3182.9 125.448 3183.58 125.28 3184.39 125.28H3186.3V128.484H3184.21L3181.84 132.444C3181.48 133.068 3181.15 133.5 3180.86 133.74C3180.6 133.98 3180.24 134.16 3179.78 134.28V134.424C3180.26 134.52 3180.68 134.7 3181.04 134.964C3181.4 135.204 3181.75 135.636 3182.09 136.26L3184.61 140.796H3186.66V144H3184.43C3183.64 144 3182.95 143.82 3182.38 143.46C3181.82 143.1 3181.3 142.464 3180.79 141.552L3177.7 136.008H3174.38V144H3170.46V125.28ZM3202.41 125.28H3206.19L3198.3 147.708C3198.09 148.332 3197.83 148.86 3197.55 149.292C3197.28 149.748 3196.96 150.108 3196.57 150.372C3196.21 150.66 3195.77 150.864 3195.24 150.984C3194.71 151.128 3194.09 151.2 3193.37 151.2H3191.1V147.996H3194.27L3195.35 144.828L3188.55 125.28H3192.47L3196.21 136.296L3197.29 140.364H3197.47L3198.66 136.296L3202.41 125.28ZM3206.33 140.796H3208.78C3209.07 140.412 3209.32 139.956 3209.54 139.428C3209.75 138.876 3209.93 138.204 3210.08 137.412C3210.22 136.62 3210.33 135.696 3210.4 134.64C3210.5 133.56 3210.55 132.3 3210.55 130.86V125.28H3224.15V144H3220.23V128.484H3214.33V131.04C3214.33 132.768 3214.25 134.28 3214.11 135.576C3213.99 136.872 3213.81 137.988 3213.57 138.924C3213.35 139.86 3213.08 140.64 3212.74 141.264C3212.43 141.864 3212.09 142.344 3211.73 142.704C3211.23 143.208 3210.65 143.568 3210.01 143.784C3209.36 144 3208.58 144.108 3207.67 144.108H3206.33V140.796ZM3229.8 125.28H3233.73V131.544H3238.88C3240.75 131.544 3242.26 132.096 3243.41 133.2C3244.59 134.28 3245.18 135.804 3245.18 137.772C3245.18 139.764 3244.6 141.3 3243.45 142.38C3242.3 143.46 3240.78 144 3238.91 144H3229.8V125.28ZM3238.16 140.94C3239.07 140.94 3239.79 140.748 3240.32 140.364C3240.84 139.956 3241.11 139.332 3241.11 138.492V137.016C3241.11 136.176 3240.84 135.564 3240.32 135.18C3239.79 134.796 3239.07 134.604 3238.16 134.604H3233.73V140.94H3238.16ZM3249.18 125.28H3264.55V144H3260.62V128.484H3253.1V144H3249.18V125.28ZM3274.05 128.484H3268.08V125.28H3283.95V128.484H3277.98V144H3274.05V128.484ZM3299.44 125.28H3303.22L3295.33 147.708C3295.12 148.332 3294.86 148.86 3294.58 149.292C3294.31 149.748 3293.99 150.108 3293.6 150.372C3293.24 150.66 3292.8 150.864 3292.27 150.984C3291.74 151.128 3291.12 151.2 3290.4 151.2H3288.13V147.996H3291.3L3292.38 144.828L3285.58 125.28H3289.5L3293.24 136.296L3294.32 140.364H3294.5L3295.69 136.296L3299.44 125.28ZM3306.44 125.28H3310.37V128.376H3310.55C3310.96 127.248 3311.62 126.384 3312.53 125.784C3313.46 125.16 3314.56 124.848 3315.8 124.848C3318.18 124.848 3320.02 125.712 3321.31 127.44C3322.61 129.144 3323.26 131.544 3323.26 134.64C3323.26 137.736 3322.61 140.148 3321.31 141.876C3320.02 143.58 3318.18 144.432 3315.8 144.432C3314.56 144.432 3313.46 144.12 3312.53 143.496C3311.62 142.872 3310.96 142.008 3310.55 140.904H3310.37V151.2H3306.44V125.28ZM3314.62 141.048C3315.98 141.048 3317.08 140.616 3317.89 139.752C3318.71 138.864 3319.12 137.7 3319.12 136.26V133.02C3319.12 131.58 3318.71 130.428 3317.89 129.564C3317.08 128.676 3315.98 128.232 3314.62 128.232C3313.42 128.232 3312.41 128.532 3311.59 129.132C3310.78 129.708 3310.37 130.476 3310.37 131.436V137.844C3310.37 138.804 3310.78 139.584 3311.59 140.184C3312.41 140.76 3313.42 141.048 3314.62 141.048ZM3341.47 144C3340.43 144 3339.64 143.712 3339.09 143.136C3338.54 142.536 3338.2 141.78 3338.08 140.868H3337.9C3337.54 142.044 3336.88 142.932 3335.92 143.532C3334.96 144.132 3333.8 144.432 3332.43 144.432C3330.49 144.432 3328.99 143.928 3327.93 142.92C3326.9 141.912 3326.38 140.556 3326.38 138.852C3326.38 136.98 3327.05 135.576 3328.4 134.64C3329.77 133.704 3331.76 133.236 3334.37 133.236H3337.76V131.652C3337.76 130.5 3337.45 129.612 3336.82 128.988C3336.2 128.364 3335.23 128.052 3333.91 128.052C3332.8 128.052 3331.9 128.292 3331.21 128.772C3330.51 129.252 3329.92 129.864 3329.44 130.608L3327.1 128.484C3327.73 127.428 3328.6 126.564 3329.73 125.892C3330.86 125.196 3332.33 124.848 3334.16 124.848C3336.58 124.848 3338.44 125.412 3339.74 126.54C3341.03 127.668 3341.68 129.288 3341.68 131.4V140.796H3343.66V144H3341.47ZM3333.55 141.444C3334.77 141.444 3335.78 141.18 3336.57 140.652C3337.36 140.1 3337.76 139.368 3337.76 138.456V135.756H3334.45C3331.73 135.756 3330.38 136.596 3330.38 138.276V138.924C3330.38 139.764 3330.65 140.4 3331.21 140.832C3331.78 141.24 3332.56 141.444 3333.55 141.444Z" fill="black"/>
<path d="M638.777 146.432C637.433 146.432 636.233 146.216 635.177 145.784C634.121 145.328 633.221 144.62 632.477 143.66C631.733 142.7 631.157 141.488 630.749 140.024C630.365 138.536 630.173 136.748 630.173 134.66C630.173 132.116 630.353 129.932 630.713 128.108C631.097 126.26 631.685 124.736 632.477 123.536C633.293 122.312 634.313 121.376 635.537 120.728C636.785 120.08 638.273 119.684 640.001 119.54L645.977 119V122.852L639.785 123.428C638.801 123.524 637.973 123.716 637.301 124.004C636.653 124.292 636.113 124.736 635.681 125.336C635.273 125.912 634.961 126.692 634.745 127.676C634.529 128.636 634.373 129.836 634.277 131.276H634.457C634.937 130.028 635.585 129.092 636.401 128.468C637.241 127.844 638.369 127.532 639.785 127.532C640.889 127.532 641.897 127.748 642.809 128.18C643.745 128.588 644.549 129.188 645.221 129.98C645.893 130.772 646.409 131.744 646.769 132.896C647.153 134.024 647.345 135.32 647.345 136.784C647.345 138.248 647.141 139.58 646.733 140.78C646.325 141.956 645.749 142.964 645.005 143.804C644.261 144.644 643.361 145.292 642.305 145.748C641.249 146.204 640.073 146.432 638.777 146.432ZM638.777 143.192C640.145 143.192 641.225 142.772 642.017 141.932C642.809 141.068 643.205 139.808 643.205 138.152V135.812C643.205 134.156 642.809 132.908 642.017 132.068C641.225 131.204 640.145 130.772 638.777 130.772C637.337 130.772 636.233 131.156 635.465 131.924C634.721 132.692 634.349 133.724 634.349 135.02V138.152C634.349 139.808 634.745 141.068 635.537 141.932C636.329 142.772 637.409 143.192 638.777 143.192ZM651.715 127.28H655.567V136.424L655.207 140.852H655.351L657.583 136.856L664.063 127.28H667.627V146H663.775V136.856L664.135 132.428H663.991L661.759 136.424L655.279 146H651.715V127.28ZM671.826 142.796H673.914L675.966 138.26C676.23 137.708 676.542 137.288 676.902 137C677.286 136.712 677.706 136.52 678.162 136.424V136.28C677.25 136.016 676.542 135.368 676.038 134.336L674.274 130.484H672.186V127.28H674.094C674.934 127.28 675.642 127.472 676.218 127.856C676.818 128.24 677.322 128.864 677.73 129.728L680.142 134.84H683.058V127.28H686.982V134.84H689.898L692.31 129.728C692.718 128.864 693.21 128.24 693.786 127.856C694.386 127.472 695.106 127.28 695.946 127.28H697.854V130.484H695.766L694.002 134.336C693.498 135.368 692.79 136.016 691.878 136.28V136.424C692.334 136.52 692.742 136.712 693.102 137C693.486 137.288 693.81 137.708 694.074 138.26L696.126 142.796H698.214V146H695.982C695.166 146 694.47 145.82 693.894 145.46C693.318 145.076 692.802 144.392 692.346 143.408L689.898 138.008H686.982V146H683.058V138.008H680.142L677.694 143.408C677.238 144.392 676.722 145.076 676.146 145.46C675.57 145.82 674.874 146 674.058 146H671.826V142.796ZM713.894 127.28H717.674L709.79 149.708C709.574 150.332 709.322 150.86 709.034 151.292C708.77 151.748 708.446 152.108 708.062 152.372C707.702 152.66 707.258 152.864 706.73 152.984C706.202 153.128 705.578 153.2 704.858 153.2H702.59V149.996H705.758L706.838 146.828L700.034 127.28H703.958L707.702 138.296L708.782 142.364H708.962L710.15 138.296L713.894 127.28ZM725.142 130.484H719.166V127.28H735.042V130.484H729.066V146H725.142V130.484ZM745.578 146.432C744.234 146.432 743.034 146.204 741.978 145.748C740.922 145.292 740.022 144.644 739.278 143.804C738.534 142.94 737.958 141.908 737.55 140.708C737.166 139.484 736.974 138.128 736.974 136.64C736.974 135.152 737.166 133.808 737.55 132.608C737.958 131.384 738.534 130.352 739.278 129.512C740.022 128.648 740.922 127.988 741.978 127.532C743.034 127.076 744.234 126.848 745.578 126.848C746.946 126.848 748.146 127.088 749.178 127.568C750.234 128.048 751.11 128.72 751.806 129.584C752.502 130.424 753.018 131.408 753.354 132.536C753.714 133.664 753.894 134.876 753.894 136.172V137.648H741.042V138.26C741.042 139.7 741.462 140.888 742.302 141.824C743.166 142.736 744.39 143.192 745.974 143.192C747.126 143.192 748.098 142.94 748.89 142.436C749.682 141.932 750.354 141.248 750.906 140.384L753.21 142.652C752.514 143.804 751.506 144.728 750.186 145.424C748.866 146.096 747.33 146.432 745.578 146.432ZM745.578 129.908C744.906 129.908 744.282 130.028 743.706 130.268C743.154 130.508 742.674 130.844 742.266 131.276C741.882 131.708 741.582 132.224 741.366 132.824C741.15 133.424 741.042 134.084 741.042 134.804V135.056H749.754V134.696C749.754 133.256 749.382 132.104 748.638 131.24C747.894 130.352 746.874 129.908 745.578 129.908ZM758.238 127.28H762.162V130.376H762.342C762.75 129.248 763.41 128.384 764.322 127.784C765.258 127.16 766.35 126.848 767.598 126.848C769.974 126.848 771.81 127.712 773.106 129.44C774.402 131.144 775.05 133.544 775.05 136.64C775.05 139.736 774.402 142.148 773.106 143.876C771.81 145.58 769.974 146.432 767.598 146.432C766.35 146.432 765.258 146.12 764.322 145.496C763.41 144.872 762.75 144.008 762.342 142.904H762.162V153.2H758.238V127.28ZM766.41 143.048C767.778 143.048 768.87 142.616 769.686 141.752C770.502 140.864 770.91 139.7 770.91 138.26V135.02C770.91 133.58 770.502 132.428 769.686 131.564C768.87 130.676 767.778 130.232 766.41 130.232C765.21 130.232 764.202 130.532 763.386 131.132C762.57 131.708 762.162 132.476 762.162 133.436V139.844C762.162 140.804 762.57 141.584 763.386 142.184C764.202 142.76 765.21 143.048 766.41 143.048ZM779.543 127.28H783.395V136.424L783.035 140.852H783.179L785.411 136.856L791.891 127.28H795.455V146H791.603V136.856L791.963 132.428H791.819L789.587 136.424L783.107 146H779.543V127.28ZM799.726 142.796H801.742L802.786 140.492C803.29 139.436 804.01 138.848 804.946 138.728V138.584C803.41 138.416 802.21 137.888 801.346 137C800.506 136.088 800.086 134.852 800.086 133.292C800.086 132.356 800.23 131.528 800.518 130.808C800.83 130.064 801.262 129.428 801.814 128.9C802.366 128.372 803.026 127.976 803.794 127.712C804.562 127.424 805.414 127.28 806.35 127.28H815.458V146H811.534V139.088H807.538L805.558 143.372C805.102 144.38 804.586 145.076 804.01 145.46C803.434 145.82 802.75 146 801.958 146H799.726V142.796ZM811.534 136.1V130.34H807.106C806.194 130.34 805.474 130.544 804.946 130.952C804.418 131.336 804.154 131.948 804.154 132.788V133.724C804.154 134.516 804.418 135.116 804.946 135.524C805.474 135.908 806.194 136.1 807.106 136.1H811.534Z" fill="black"/>
<path d="M2510.41 144.432C2509.07 144.432 2507.87 144.216 2506.81 143.784C2505.75 143.328 2504.85 142.62 2504.11 141.66C2503.37 140.7 2502.79 139.488 2502.38 138.024C2502 136.536 2501.81 134.748 2501.81 132.66C2501.81 130.116 2501.99 127.932 2502.35 126.108C2502.73 124.26 2503.32 122.736 2504.11 121.536C2504.93 120.312 2505.95 119.376 2507.17 118.728C2508.42 118.08 2509.91 117.684 2511.63 117.54L2517.61 117V120.852L2511.42 121.428C2510.43 121.524 2509.61 121.716 2508.93 122.004C2508.29 122.292 2507.75 122.736 2507.31 123.336C2506.91 123.912 2506.59 124.692 2506.38 125.676C2506.16 126.636 2506.01 127.836 2505.91 129.276H2506.09C2506.57 128.028 2507.22 127.092 2508.03 126.468C2508.87 125.844 2510 125.532 2511.42 125.532C2512.52 125.532 2513.53 125.748 2514.44 126.18C2515.38 126.588 2516.18 127.188 2516.85 127.98C2517.53 128.772 2518.04 129.744 2518.4 130.896C2518.79 132.024 2518.98 133.32 2518.98 134.784C2518.98 136.248 2518.77 137.58 2518.37 138.78C2517.96 139.956 2517.38 140.964 2516.64 141.804C2515.89 142.644 2514.99 143.292 2513.94 143.748C2512.88 144.204 2511.71 144.432 2510.41 144.432ZM2510.41 141.192C2511.78 141.192 2512.86 140.772 2513.65 139.932C2514.44 139.068 2514.84 137.808 2514.84 136.152V133.812C2514.84 132.156 2514.44 130.908 2513.65 130.068C2512.86 129.204 2511.78 128.772 2510.41 128.772C2508.97 128.772 2507.87 129.156 2507.1 129.924C2506.35 130.692 2505.98 131.724 2505.98 133.02V136.152C2505.98 137.808 2506.38 139.068 2507.17 139.932C2507.96 140.772 2509.04 141.192 2510.41 141.192ZM2523.35 125.28H2527.2V134.424L2526.84 138.852H2526.98L2529.22 134.856L2535.7 125.28H2539.26V144H2535.41V134.856L2535.77 130.428H2535.62L2533.39 134.424L2526.91 144H2523.35V125.28ZM2543.46 140.796H2545.55L2547.6 136.26C2547.86 135.708 2548.17 135.288 2548.53 135C2548.92 134.712 2549.34 134.52 2549.79 134.424V134.28C2548.88 134.016 2548.17 133.368 2547.67 132.336L2545.91 128.484H2543.82V125.28H2545.73C2546.57 125.28 2547.27 125.472 2547.85 125.856C2548.45 126.24 2548.95 126.864 2549.36 127.728L2551.77 132.84H2554.69V125.28H2558.61V132.84H2561.53L2563.94 127.728C2564.35 126.864 2564.84 126.24 2565.42 125.856C2566.02 125.472 2566.74 125.28 2567.58 125.28H2569.49V128.484H2567.4L2565.63 132.336C2565.13 133.368 2564.42 134.016 2563.51 134.28V134.424C2563.97 134.52 2564.37 134.712 2564.73 135C2565.12 135.288 2565.44 135.708 2565.71 136.26L2567.76 140.796H2569.85V144H2567.61C2566.8 144 2566.1 143.82 2565.53 143.46C2564.95 143.076 2564.43 142.392 2563.98 141.408L2561.53 136.008H2558.61V144H2554.69V136.008H2551.77L2549.33 141.408C2548.87 142.392 2548.35 143.076 2547.78 143.46C2547.2 143.82 2546.51 144 2545.69 144H2543.46V140.796ZM2585.53 125.28H2589.31L2581.42 147.708C2581.21 148.332 2580.95 148.86 2580.67 149.292C2580.4 149.748 2580.08 150.108 2579.69 150.372C2579.33 150.66 2578.89 150.864 2578.36 150.984C2577.83 151.128 2577.21 151.2 2576.49 151.2H2574.22V147.996H2577.39L2578.47 144.828L2571.67 125.28H2575.59L2579.33 136.296L2580.41 140.364H2580.59L2581.78 136.296L2585.53 125.28ZM2596.77 128.484H2590.8V125.28H2606.67V128.484H2600.7V144H2596.77V128.484ZM2617.21 144.432C2615.87 144.432 2614.67 144.204 2613.61 143.748C2612.55 143.292 2611.65 142.644 2610.91 141.804C2610.17 140.94 2609.59 139.908 2609.18 138.708C2608.8 137.484 2608.61 136.128 2608.61 134.64C2608.61 133.152 2608.8 131.808 2609.18 130.608C2609.59 129.384 2610.17 128.352 2610.91 127.512C2611.65 126.648 2612.55 125.988 2613.61 125.532C2614.67 125.076 2615.87 124.848 2617.21 124.848C2618.58 124.848 2619.78 125.088 2620.81 125.568C2621.87 126.048 2622.74 126.72 2623.44 127.584C2624.13 128.424 2624.65 129.408 2624.99 130.536C2625.35 131.664 2625.53 132.876 2625.53 134.172V135.648H2612.67V136.26C2612.67 137.7 2613.09 138.888 2613.93 139.824C2614.8 140.736 2616.02 141.192 2617.61 141.192C2618.76 141.192 2619.73 140.94 2620.52 140.436C2621.31 139.932 2621.99 139.248 2622.54 138.384L2624.84 140.652C2624.15 141.804 2623.14 142.728 2621.82 143.424C2620.5 144.096 2618.96 144.432 2617.21 144.432ZM2617.21 127.908C2616.54 127.908 2615.91 128.028 2615.34 128.268C2614.79 128.508 2614.31 128.844 2613.9 129.276C2613.51 129.708 2613.21 130.224 2613 130.824C2612.78 131.424 2612.67 132.084 2612.67 132.804V133.056H2621.39V132.696C2621.39 131.256 2621.01 130.104 2620.27 129.24C2619.53 128.352 2618.51 127.908 2617.21 127.908ZM2629.87 125.28H2633.79V128.376H2633.97C2634.38 127.248 2635.04 126.384 2635.95 125.784C2636.89 125.16 2637.98 124.848 2639.23 124.848C2641.61 124.848 2643.44 125.712 2644.74 127.44C2646.03 129.144 2646.68 131.544 2646.68 134.64C2646.68 137.736 2646.03 140.148 2644.74 141.876C2643.44 143.58 2641.61 144.432 2639.23 144.432C2637.98 144.432 2636.89 144.12 2635.95 143.496C2635.04 142.872 2634.38 142.008 2633.97 140.904H2633.79V151.2H2629.87V125.28ZM2638.04 141.048C2639.41 141.048 2640.5 140.616 2641.32 139.752C2642.13 138.864 2642.54 137.7 2642.54 136.26V133.02C2642.54 131.58 2642.13 130.428 2641.32 129.564C2640.5 128.676 2639.41 128.232 2638.04 128.232C2636.84 128.232 2635.83 128.532 2635.02 129.132C2634.2 129.708 2633.79 130.476 2633.79 131.436V137.844C2633.79 138.804 2634.2 139.584 2635.02 140.184C2635.83 140.76 2636.84 141.048 2638.04 141.048ZM2651.18 125.28H2655.03V134.424L2654.67 138.852H2654.81L2657.04 134.856L2663.52 125.28H2667.09V144H2663.24V134.856L2663.6 130.428H2663.45L2661.22 134.424L2654.74 144H2651.18V125.28ZM2671.36 140.796H2673.37L2674.42 138.492C2674.92 137.436 2675.64 136.848 2676.58 136.728V136.584C2675.04 136.416 2673.84 135.888 2672.98 135C2672.14 134.088 2671.72 132.852 2671.72 131.292C2671.72 130.356 2671.86 129.528 2672.15 128.808C2672.46 128.064 2672.89 127.428 2673.45 126.9C2674 126.372 2674.66 125.976 2675.43 125.712C2676.19 125.424 2677.05 125.28 2677.98 125.28H2687.09V144H2683.17V137.088H2679.17L2677.19 141.372C2676.73 142.38 2676.22 143.076 2675.64 143.46C2675.07 143.82 2674.38 144 2673.59 144H2671.36V140.796ZM2683.17 134.1V128.34H2678.74C2677.83 128.34 2677.11 128.544 2676.58 128.952C2676.05 129.336 2675.79 129.948 2675.79 130.788V131.724C2675.79 132.516 2676.05 133.116 2676.58 133.524C2677.11 133.908 2677.83 134.1 2678.74 134.1H2683.17Z" fill="black"/>
<path d="M4.35878 127.28H8.28278V134.84H11.5948L14.6908 129.62C15.2188 128.732 15.7468 128.12 16.2748 127.784C16.8028 127.448 17.4748 127.28 18.2908 127.28H20.1988V130.484H18.1108L15.7348 134.444C15.3748 135.068 15.0508 135.5 14.7628 135.74C14.4988 135.98 14.1388 136.16 13.6828 136.28V136.424C14.1628 136.52 14.5828 136.7 14.9428 136.964C15.3028 137.204 15.6508 137.636 15.9868 138.26L18.5068 142.796H20.5588V146H18.3268C17.5348 146 16.8508 145.82 16.2748 145.46C15.7228 145.1 15.1948 144.464 14.6908 143.552L11.5948 138.008H8.28278V146H4.35878V127.28ZM38.1842 146C37.1522 146 36.3602 145.712 35.8082 145.136C35.2562 144.536 34.9202 143.78 34.8002 142.868H34.6202C34.2602 144.044 33.6002 144.932 32.6402 145.532C31.6802 146.132 30.5162 146.432 29.1482 146.432C27.2042 146.432 25.7042 145.928 24.6482 144.92C23.6162 143.912 23.1002 142.556 23.1002 140.852C23.1002 138.98 23.7722 137.576 25.1162 136.64C26.4842 135.704 28.4762 135.236 31.0922 135.236H34.4762V133.652C34.4762 132.5 34.1642 131.612 33.5402 130.988C32.9162 130.364 31.9442 130.052 30.6242 130.052C29.5202 130.052 28.6202 130.292 27.9242 130.772C27.2282 131.252 26.6402 131.864 26.1602 132.608L23.8202 130.484C24.4442 129.428 25.3202 128.564 26.4482 127.892C27.5762 127.196 29.0522 126.848 30.8762 126.848C33.3002 126.848 35.1602 127.412 36.4562 128.54C37.7522 129.668 38.4002 131.288 38.4002 133.4V142.796H40.3802V146H38.1842ZM30.2642 143.444C31.4882 143.444 32.4962 143.18 33.2882 142.652C34.0802 142.1 34.4762 141.368 34.4762 140.456V137.756H31.1642C28.4522 137.756 27.0962 138.596 27.0962 140.276V140.924C27.0962 141.764 27.3722 142.4 27.9242 142.832C28.5002 143.24 29.2802 143.444 30.2642 143.444ZM42.0249 142.796H44.4729C44.7609 142.412 45.0129 141.956 45.2289 141.428C45.4449 140.876 45.6249 140.204 45.7689 139.412C45.9129 138.62 46.0209 137.696 46.0929 136.64C46.1889 135.56 46.2369 134.3 46.2369 132.86V127.28H59.8449V146H55.9209V130.484H50.0169V133.04C50.0169 134.768 49.9449 136.28 49.8009 137.576C49.6809 138.872 49.5009 139.988 49.2609 140.924C49.0449 141.86 48.7689 142.64 48.4329 143.264C48.1209 143.864 47.7849 144.344 47.4249 144.704C46.9209 145.208 46.3449 145.568 45.6969 145.784C45.0489 146 44.2689 146.108 43.3569 146.108H42.0249V142.796ZM65.4955 127.28H69.3475V136.424L68.9875 140.852H69.1315L71.3635 136.856L77.8435 127.28H81.4075V146H77.5555V136.856L77.9155 132.428H77.7715L75.5395 136.424L69.0595 146H65.4955V127.28ZM87.0111 127.28H99.2151V130.484H90.9351V146H87.0111V127.28ZM102.831 127.28H106.755V130.376H106.935C107.343 129.248 108.003 128.384 108.915 127.784C109.851 127.16 110.943 126.848 112.191 126.848C114.567 126.848 116.403 127.712 117.699 129.44C118.995 131.144 119.643 133.544 119.643 136.64C119.643 139.736 118.995 142.148 117.699 143.876C116.403 145.58 114.567 146.432 112.191 146.432C110.943 146.432 109.851 146.12 108.915 145.496C108.003 144.872 107.343 144.008 106.935 142.904H106.755V153.2H102.831V127.28ZM111.003 143.048C112.371 143.048 113.463 142.616 114.279 141.752C115.095 140.864 115.503 139.7 115.503 138.26V135.02C115.503 133.58 115.095 132.428 114.279 131.564C113.463 130.676 112.371 130.232 111.003 130.232C109.803 130.232 108.795 130.532 107.979 131.132C107.163 131.708 106.755 132.476 106.755 133.436V139.844C106.755 140.804 107.163 141.584 107.979 142.184C108.795 142.76 109.803 143.048 111.003 143.048ZM137.852 146C136.82 146 136.028 145.712 135.476 145.136C134.924 144.536 134.588 143.78 134.468 142.868H134.288C133.928 144.044 133.268 144.932 132.308 145.532C131.348 146.132 130.184 146.432 128.816 146.432C126.872 146.432 125.372 145.928 124.316 144.92C123.284 143.912 122.768 142.556 122.768 140.852C122.768 138.98 123.44 137.576 124.784 136.64C126.152 135.704 128.144 135.236 130.76 135.236H134.144V133.652C134.144 132.5 133.832 131.612 133.208 130.988C132.584 130.364 131.612 130.052 130.292 130.052C129.188 130.052 128.288 130.292 127.592 130.772C126.896 131.252 126.308 131.864 125.828 132.608L123.488 130.484C124.112 129.428 124.988 128.564 126.116 127.892C127.244 127.196 128.72 126.848 130.544 126.848C132.968 126.848 134.828 127.412 136.124 128.54C137.42 129.668 138.068 131.288 138.068 133.4V142.796H140.048V146H137.852ZM129.932 143.444C131.156 143.444 132.164 143.18 132.956 142.652C133.748 142.1 134.144 141.368 134.144 140.456V137.756H130.832C128.12 137.756 126.764 138.596 126.764 140.276V140.924C126.764 141.764 127.04 142.4 127.592 142.832C128.168 143.24 128.948 143.444 129.932 143.444ZM153.038 144.02H152.894C152.438 144.788 151.874 145.388 151.202 145.82C150.554 146.228 149.774 146.432 148.862 146.432C146.798 146.432 145.262 145.652 144.254 144.092C143.246 142.532 142.742 140.048 142.742 136.64C142.742 133.232 143.234 130.748 144.218 129.188C145.226 127.628 146.774 126.848 148.862 126.848C149.774 126.848 150.554 127.064 151.202 127.496C151.874 127.928 152.438 128.528 152.894 129.296H153.038V120.44H156.962V129.296H157.106C157.562 128.528 158.114 127.928 158.762 127.496C159.434 127.064 160.226 126.848 161.138 126.848C163.226 126.848 164.762 127.628 165.746 129.188C166.754 130.748 167.258 133.232 167.258 136.64C167.258 140.048 166.754 142.532 165.746 144.092C164.738 145.652 163.202 146.432 161.138 146.432C160.226 146.432 159.434 146.228 158.762 145.82C158.114 145.388 157.562 144.788 157.106 144.02H156.962V153.2H153.038V144.02ZM150.194 143.336C152.114 143.336 153.074 142.556 153.074 140.996V132.284C153.074 131.54 152.846 130.964 152.39 130.556C151.934 130.148 151.202 129.944 150.194 129.944C149.018 129.944 148.166 130.34 147.638 131.132C147.11 131.9 146.846 133.172 146.846 134.948V138.332C146.846 140.132 147.11 141.416 147.638 142.184C148.166 142.952 149.018 143.336 150.194 143.336ZM159.806 143.336C160.982 143.336 161.834 142.952 162.362 142.184C162.89 141.416 163.154 140.132 163.154 138.332V134.948C163.154 133.172 162.89 131.9 162.362 131.132C161.834 130.34 160.982 129.944 159.806 129.944C158.798 129.944 158.066 130.148 157.61 130.556C157.154 130.964 156.926 131.54 156.926 132.284V140.996C156.926 142.556 157.886 143.336 159.806 143.336ZM171.738 127.28H175.59V136.424L175.23 140.852H175.374L177.606 136.856L184.086 127.28H187.65V146H183.798V136.856L184.158 132.428H184.014L181.782 136.424L175.302 146H171.738V127.28ZM191.921 142.796H193.937L194.981 140.492C195.485 139.436 196.205 138.848 197.141 138.728V138.584C195.605 138.416 194.405 137.888 193.541 137C192.701 136.088 192.281 134.852 192.281 133.292C192.281 132.356 192.425 131.528 192.713 130.808C193.025 130.064 193.457 129.428 194.009 128.9C194.561 128.372 195.221 127.976 195.989 127.712C196.757 127.424 197.609 127.28 198.545 127.28H207.653V146H203.729V139.088H199.733L197.753 143.372C197.297 144.38 196.781 145.076 196.205 145.46C195.629 145.82 194.945 146 194.153 146H191.921V142.796ZM203.729 136.1V130.34H199.301C198.389 130.34 197.669 130.544 197.141 130.952C196.613 131.336 196.349 131.948 196.349 132.788V133.724C196.349 134.516 196.613 135.116 197.141 135.524C197.669 135.908 198.389 136.1 199.301 136.1H203.729Z" fill="black"/>
<path d="M1870.86 125.28H1874.78V132.84H1878.09L1881.19 127.62C1881.72 126.732 1882.25 126.12 1882.77 125.784C1883.3 125.448 1883.97 125.28 1884.79 125.28H1886.7V128.484H1884.61L1882.23 132.444C1881.87 133.068 1881.55 133.5 1881.26 133.74C1881 133.98 1880.64 134.16 1880.18 134.28V134.424C1880.66 134.52 1881.08 134.7 1881.44 134.964C1881.8 135.204 1882.15 135.636 1882.49 136.26L1885.01 140.796H1887.06V144H1884.83C1884.03 144 1883.35 143.82 1882.77 143.46C1882.22 143.1 1881.69 142.464 1881.19 141.552L1878.09 136.008H1874.78V144H1870.86V125.28ZM1904.68 144C1903.65 144 1902.86 143.712 1902.31 143.136C1901.76 142.536 1901.42 141.78 1901.3 140.868H1901.12C1900.76 142.044 1900.1 142.932 1899.14 143.532C1898.18 144.132 1897.02 144.432 1895.65 144.432C1893.7 144.432 1892.2 143.928 1891.15 142.92C1890.12 141.912 1889.6 140.556 1889.6 138.852C1889.6 136.98 1890.27 135.576 1891.62 134.64C1892.98 133.704 1894.98 133.236 1897.59 133.236H1900.98V131.652C1900.98 130.5 1900.66 129.612 1900.04 128.988C1899.42 128.364 1898.44 128.052 1897.12 128.052C1896.02 128.052 1895.12 128.292 1894.42 128.772C1893.73 129.252 1893.14 129.864 1892.66 130.608L1890.32 128.484C1890.94 127.428 1891.82 126.564 1892.95 125.892C1894.08 125.196 1895.55 124.848 1897.38 124.848C1899.8 124.848 1901.66 125.412 1902.96 126.54C1904.25 127.668 1904.9 129.288 1904.9 131.4V140.796H1906.88V144H1904.68ZM1896.76 141.444C1897.99 141.444 1899 141.18 1899.79 140.652C1900.58 140.1 1900.98 139.368 1900.98 138.456V135.756H1897.66C1894.95 135.756 1893.6 136.596 1893.6 138.276V138.924C1893.6 139.764 1893.87 140.4 1894.42 140.832C1895 141.24 1895.78 141.444 1896.76 141.444ZM1908.52 140.796H1910.97C1911.26 140.412 1911.51 139.956 1911.73 139.428C1911.94 138.876 1912.12 138.204 1912.27 137.412C1912.41 136.62 1912.52 135.696 1912.59 134.64C1912.69 133.56 1912.74 132.3 1912.74 130.86V125.28H1926.34V144H1922.42V128.484H1916.52V131.04C1916.52 132.768 1916.44 134.28 1916.3 135.576C1916.18 136.872 1916 137.988 1915.76 138.924C1915.54 139.86 1915.27 140.64 1914.93 141.264C1914.62 141.864 1914.28 142.344 1913.92 142.704C1913.42 143.208 1912.84 143.568 1912.2 143.784C1911.55 144 1910.77 144.108 1909.86 144.108H1908.52V140.796ZM1932 125.28H1935.85V134.424L1935.49 138.852H1935.63L1937.86 134.856L1944.34 125.28H1947.91V144H1944.06V134.856L1944.42 130.428H1944.27L1942.04 134.424L1935.56 144H1932V125.28ZM1953.51 125.28H1965.72V128.484H1957.44V144H1953.51V125.28ZM1969.33 125.28H1973.26V128.376H1973.44C1973.84 127.248 1974.5 126.384 1975.42 125.784C1976.35 125.16 1977.44 124.848 1978.69 124.848C1981.07 124.848 1982.9 125.712 1984.2 127.44C1985.5 129.144 1986.14 131.544 1986.14 134.64C1986.14 137.736 1985.5 140.148 1984.2 141.876C1982.9 143.58 1981.07 144.432 1978.69 144.432C1977.44 144.432 1976.35 144.12 1975.42 143.496C1974.5 142.872 1973.84 142.008 1973.44 140.904H1973.26V151.2H1969.33V125.28ZM1977.5 141.048C1978.87 141.048 1979.96 140.616 1980.78 139.752C1981.6 138.864 1982 137.7 1982 136.26V133.02C1982 131.58 1981.6 130.428 1980.78 129.564C1979.96 128.676 1978.87 128.232 1977.5 128.232C1976.3 128.232 1975.3 128.532 1974.48 129.132C1973.66 129.708 1973.26 130.476 1973.26 131.436V137.844C1973.26 138.804 1973.66 139.584 1974.48 140.184C1975.3 140.76 1976.3 141.048 1977.5 141.048ZM2004.35 144C2003.32 144 2002.53 143.712 2001.98 143.136C2001.42 142.536 2001.09 141.78 2000.97 140.868H2000.79C2000.43 142.044 1999.77 142.932 1998.81 143.532C1997.85 144.132 1996.68 144.432 1995.32 144.432C1993.37 144.432 1991.87 143.928 1990.82 142.92C1989.78 141.912 1989.27 140.556 1989.27 138.852C1989.27 136.98 1989.94 135.576 1991.28 134.64C1992.65 133.704 1994.64 133.236 1997.26 133.236H2000.64V131.652C2000.64 130.5 2000.33 129.612 1999.71 128.988C1999.08 128.364 1998.11 128.052 1996.79 128.052C1995.69 128.052 1994.79 128.292 1994.09 128.772C1993.4 129.252 1992.81 129.864 1992.33 130.608L1989.99 128.484C1990.61 127.428 1991.49 126.564 1992.62 125.892C1993.74 125.196 1995.22 124.848 1997.04 124.848C1999.47 124.848 2001.33 125.412 2002.62 126.54C2003.92 127.668 2004.57 129.288 2004.57 131.4V140.796H2006.55V144H2004.35ZM1996.43 141.444C1997.66 141.444 1998.66 141.18 1999.46 140.652C2000.25 140.1 2000.64 139.368 2000.64 138.456V135.756H1997.33C1994.62 135.756 1993.26 136.596 1993.26 138.276V138.924C1993.26 139.764 1993.54 140.4 1994.09 140.832C1994.67 141.24 1995.45 141.444 1996.43 141.444ZM2019.54 142.02H2019.39C2018.94 142.788 2018.37 143.388 2017.7 143.82C2017.05 144.228 2016.27 144.432 2015.36 144.432C2013.3 144.432 2011.76 143.652 2010.75 142.092C2009.75 140.532 2009.24 138.048 2009.24 134.64C2009.24 131.232 2009.73 128.748 2010.72 127.188C2011.73 125.628 2013.27 124.848 2015.36 124.848C2016.27 124.848 2017.05 125.064 2017.7 125.496C2018.37 125.928 2018.94 126.528 2019.39 127.296H2019.54V118.44H2023.46V127.296H2023.61C2024.06 126.528 2024.61 125.928 2025.26 125.496C2025.93 125.064 2026.73 124.848 2027.64 124.848C2029.73 124.848 2031.26 125.628 2032.25 127.188C2033.25 128.748 2033.76 131.232 2033.76 134.64C2033.76 138.048 2033.25 140.532 2032.25 142.092C2031.24 143.652 2029.7 144.432 2027.64 144.432C2026.73 144.432 2025.93 144.228 2025.26 143.82C2024.61 143.388 2024.06 142.788 2023.61 142.02H2023.46V151.2H2019.54V142.02ZM2016.69 141.336C2018.61 141.336 2019.57 140.556 2019.57 138.996V130.284C2019.57 129.54 2019.35 128.964 2018.89 128.556C2018.43 128.148 2017.7 127.944 2016.69 127.944C2015.52 127.944 2014.67 128.34 2014.14 129.132C2013.61 129.9 2013.35 131.172 2013.35 132.948V136.332C2013.35 138.132 2013.61 139.416 2014.14 140.184C2014.67 140.952 2015.52 141.336 2016.69 141.336ZM2026.31 141.336C2027.48 141.336 2028.33 140.952 2028.86 140.184C2029.39 139.416 2029.65 138.132 2029.65 136.332V132.948C2029.65 131.172 2029.39 129.9 2028.86 129.132C2028.33 128.34 2027.48 127.944 2026.31 127.944C2025.3 127.944 2024.57 128.148 2024.11 128.556C2023.65 128.964 2023.43 129.54 2023.43 130.284V138.996C2023.43 140.556 2024.39 141.336 2026.31 141.336ZM2038.24 125.28H2042.09V134.424L2041.73 138.852H2041.87L2044.11 134.856L2050.59 125.28H2054.15V144H2050.3V134.856L2050.66 130.428H2050.51L2048.28 134.424L2041.8 144H2038.24V125.28ZM2058.42 140.796H2060.44L2061.48 138.492C2061.99 137.436 2062.71 136.848 2063.64 136.728V136.584C2062.11 136.416 2060.91 135.888 2060.04 135C2059.2 134.088 2058.78 132.852 2058.78 131.292C2058.78 130.356 2058.93 129.528 2059.21 128.808C2059.53 128.064 2059.96 127.428 2060.51 126.9C2061.06 126.372 2061.72 125.976 2062.49 125.712C2063.26 125.424 2064.11 125.28 2065.05 125.28H2074.15V144H2070.23V137.088H2066.23L2064.25 141.372C2063.8 142.38 2063.28 143.076 2062.71 143.46C2062.13 143.82 2061.45 144 2060.65 144H2058.42V140.796ZM2070.23 134.1V128.34H2065.8C2064.89 128.34 2064.17 128.544 2063.64 128.952C2063.11 129.336 2062.85 129.948 2062.85 130.788V131.724C2062.85 132.516 2063.11 133.116 2063.64 133.524C2064.17 133.908 2064.89 134.1 2065.8 134.1H2070.23Z" fill="black"/>
</g>
<defs>
<clipPath id="clip0_208_586">
<rect width="3745" height="264" fill="white"/>
</clipPath>
</defs>
</svg>
