<svg width="235" height="1036" viewBox="0 0 235 1036" fill="none" xmlns="http://www.w3.org/2000/svg">
<path d="M52.5352 978H15C19.6197 1055.62 215.38 1055.04 220 978H182.465C182.465 978 172.07 1000.76 116.634 1000.76C61.1972 1000.76 52.5352 978 52.5352 978Z" fill="black"/>
<path d="M52.5352 895H15C19.6197 972.625 215.38 972.041 220 895H182.465C182.465 895 172.07 917.763 116.634 917.763C61.1972 917.763 52.5352 895 52.5352 895Z" fill="black"/>
<path d="M52.5352 812H15C19.6197 889.625 215.38 889.041 220 812H182.465C182.465 812 172.07 834.763 116.634 834.763C61.1972 834.763 52.5352 812 52.5352 812Z" fill="black"/>
<path d="M52.5352 142H15C19.6197 64.3753 215.38 64.9585 220 142H182.465C182.465 142 172.07 119.237 116.634 119.237C61.1972 119.237 52.5352 142 52.5352 142Z" fill="black"/>
<path d="M52.5352 729H15C19.6197 806.625 215.38 806.041 220 729H182.465C182.465 729 172.07 751.763 116.634 751.763C61.1972 751.763 52.5352 729 52.5352 729Z" fill="black"/>
<path d="M52.5352 602H15C19.6197 525.714 215.38 526.287 220 602H182.465C182.465 602 172.07 579.63 116.634 579.63C61.1972 579.63 52.5352 602 52.5352 602Z" fill="black"/>
<path d="M52.5352 58H15C19.6197 -19.6247 215.38 -19.0415 220 58H182.465C182.465 58 172.07 35.2375 116.634 35.2375C61.1972 35.2375 52.5352 58 52.5352 58Z" fill="black"/>
<path d="M52.5352 224H15C19.6197 147.714 215.38 148.287 220 224H182.465C182.465 224 172.07 201.63 116.634 201.63C61.1972 201.63 52.5352 224 52.5352 224Z" fill="black"/>
<path d="M52.5352 462H15C19.6197 540.963 215.38 540.37 220 462H182.465C182.465 462 172.07 485.155 116.634 485.155C61.1972 485.155 52.5352 462 52.5352 462Z" fill="black"/>
<path d="M119.589 226.231H115.4V303.288H119.589V226.231Z" fill="#5EB6CA"/>
<path d="M121.977 223.843H113V305.677H121.977V223.843Z" fill="#5EB6CA"/>
<path d="M200.33 261.389L197.367 258.429L142.903 312.939L145.866 315.9L200.33 261.389Z" fill="#5EB6CA"/>
<path d="M197.351 255.051L139.51 312.94L145.861 319.286L203.701 261.396L197.351 255.051Z" fill="#5EB6CA"/>
<path d="M232.591 343.331L232.588 339.143L155.53 339.202L155.534 343.39L232.591 343.331Z" fill="#5EB6CA"/>
<path d="M234.967 336.786H153.132V345.763H234.967V336.786Z" fill="#5EB6CA"/>
<path d="M197.49 424.094L200.448 421.128L145.899 366.703L142.941 369.668L197.49 424.094Z" fill="#5EB6CA"/>
<path d="M145.9 363.327L139.56 369.682L197.49 427.482L203.831 421.127L145.9 363.327Z" fill="#5EB6CA"/>
<path d="M115.573 456.419L119.762 456.412L119.644 379.355L115.455 379.361L115.573 456.419Z" fill="#5EB6CA"/>
<path d="M122.041 376.969L113.064 376.983L113.19 458.818L122.167 458.804L122.041 376.969Z" fill="#5EB6CA"/>
<path d="M34.7821 421.379L37.7498 424.335L92.1368 369.74L89.1692 366.784L34.7821 421.379Z" fill="#5EB6CA"/>
<path d="M89.1447 363.425L31.386 421.396L37.7455 427.732L95.5043 369.761L89.1447 363.425Z" fill="#5EB6CA"/>
<path d="M2.39859 339.502L2.4082 343.691L79.4655 343.514L79.4559 339.325L2.39859 339.502Z" fill="#5EB6CA"/>
<path d="M81.8344 336.924L0 337.109L0.0203128 346.086L81.8548 345.901L81.8344 336.924Z" fill="#5EB6CA"/>
<path d="M37.3628 258.678L34.4089 261.648L89.0426 315.989L91.9964 313.019L37.3628 258.678Z" fill="#5EB6CA"/>
<path d="M37.3616 255.291L31.0308 261.656L89.0514 319.366L95.3822 313.001L37.3616 255.291Z" fill="#5EB6CA"/>
<path d="M117.246 359.968C127.219 359.968 135.305 351.883 135.305 341.91C135.305 331.936 127.219 323.851 117.246 323.851C107.273 323.851 99.1875 331.936 99.1875 341.91C99.1875 351.883 107.273 359.968 117.246 359.968Z" fill="#5EB6CA"/>
</svg>
