<svg width="170" height="1143" viewBox="0 0 170 1143" fill="none" xmlns="http://www.w3.org/2000/svg">
<path d="M30.8561 219.44H38.6121C39.8628 219.44 40.8241 219.776 41.4961 220.448C42.1868 221.12 42.5321 222.016 42.5321 223.136C42.5321 224.965 41.5521 226.001 39.5921 226.244V226.384C40.7681 226.477 41.6361 226.823 42.1961 227.42C42.7748 227.999 43.0641 228.764 43.0641 229.716C43.0641 230.332 42.9615 230.901 42.7561 231.424C42.5695 231.947 42.2895 232.404 41.9161 232.796C41.5615 233.169 41.1228 233.468 40.6001 233.692C40.0775 233.897 39.4895 234 38.8361 234H30.8561V219.44ZM38.1361 231.676C38.6775 231.676 39.1068 231.536 39.4241 231.256C39.7415 230.976 39.9001 230.565 39.9001 230.024V229.268C39.9001 228.727 39.7415 228.316 39.4241 228.036C39.1068 227.737 38.6775 227.588 38.1361 227.588H33.8521V231.676H38.1361ZM37.7441 225.488C38.2668 225.488 38.6681 225.357 38.9481 225.096C39.2281 224.835 39.3681 224.461 39.3681 223.976V223.276C39.3681 222.791 39.2281 222.417 38.9481 222.156C38.6681 221.895 38.2668 221.764 37.7441 221.764H33.8521V225.488H37.7441ZM45.5975 231.508H47.1655L47.9775 229.716C48.3695 228.895 48.9295 228.437 49.6575 228.344V228.232C48.4628 228.101 47.5295 227.691 46.8575 227C46.2041 226.291 45.8775 225.329 45.8775 224.116C45.8775 223.388 45.9895 222.744 46.2135 222.184C46.4561 221.605 46.7921 221.111 47.2215 220.7C47.6508 220.289 48.1641 219.981 48.7615 219.776C49.3588 219.552 50.0215 219.44 50.7495 219.44H57.8335V234H54.7815V228.624H51.6735L50.1335 231.956C49.7788 232.74 49.3775 233.281 48.9295 233.58C48.4815 233.86 47.9495 234 47.3335 234H45.5975V231.508ZM54.7815 226.3V221.82H51.3375C50.6281 221.82 50.0681 221.979 49.6575 222.296C49.2468 222.595 49.0415 223.071 49.0415 223.724V224.452C49.0415 225.068 49.2468 225.535 49.6575 225.852C50.0681 226.151 50.6281 226.3 51.3375 226.3H54.7815ZM66.7281 234.336C65.2721 234.336 64.0774 234.093 63.1441 233.608C62.2107 233.123 61.4081 232.432 60.7361 231.536L62.7241 229.716C63.1721 230.369 63.7227 230.883 64.3761 231.256C65.0481 231.629 65.8321 231.816 66.7281 231.816C67.7734 231.816 68.5387 231.629 69.0241 231.256C69.5281 230.883 69.7801 230.397 69.7801 229.8V229.464C69.7801 228.867 69.5747 228.419 69.1641 228.12C68.7721 227.803 68.2027 227.644 67.4561 227.644H64.3201V225.404H67.1481C67.8947 225.404 68.4641 225.264 68.8561 224.984C69.2667 224.685 69.4721 224.256 69.4721 223.696V223.388C69.4721 222.847 69.2481 222.417 68.8001 222.1C68.3521 221.783 67.6427 221.624 66.6721 221.624C65.7947 221.624 65.0481 221.801 64.4321 222.156C63.8161 222.511 63.3214 222.987 62.9481 223.584L61.0441 221.932C61.6041 221.073 62.3507 220.392 63.2841 219.888C64.2361 219.365 65.4307 219.104 66.8681 219.104C68.8094 219.104 70.2467 219.468 71.1801 220.196C72.1321 220.905 72.6081 221.857 72.6081 223.052C72.6081 223.985 72.3654 224.713 71.8801 225.236C71.3947 225.74 70.6667 226.085 69.6961 226.272V226.412C70.7601 226.543 71.5627 226.897 72.1041 227.476C72.6641 228.055 72.9441 228.801 72.9441 229.716C72.9441 231.153 72.3841 232.283 71.2641 233.104C70.1627 233.925 68.6507 234.336 66.7281 234.336ZM87.1608 234C86.3582 234 85.7422 233.776 85.3128 233.328C84.8835 232.861 84.6222 232.273 84.5288 231.564H84.3888C84.1088 232.479 83.5955 233.169 82.8488 233.636C82.1022 234.103 81.1968 234.336 80.1328 234.336C78.6208 234.336 77.4542 233.944 76.6328 233.16C75.8302 232.376 75.4288 231.321 75.4288 229.996C75.4288 228.54 75.9515 227.448 76.9968 226.72C78.0608 225.992 79.6102 225.628 81.6448 225.628H84.2768V224.396C84.2768 223.5 84.0342 222.809 83.5488 222.324C83.0635 221.839 82.3075 221.596 81.2808 221.596C80.4222 221.596 79.7222 221.783 79.1808 222.156C78.6395 222.529 78.1822 223.005 77.8088 223.584L75.9888 221.932C76.4742 221.111 77.1555 220.439 78.0328 219.916C78.9102 219.375 80.0582 219.104 81.4768 219.104C83.3622 219.104 84.8088 219.543 85.8168 220.42C86.8248 221.297 87.3288 222.557 87.3288 224.2V231.508H88.8688V234H87.1608ZM81.0008 232.012C81.9528 232.012 82.7368 231.807 83.3528 231.396C83.9688 230.967 84.2768 230.397 84.2768 229.688V227.588H81.7008C79.5915 227.588 78.5368 228.241 78.5368 229.548V230.052C78.5368 230.705 78.7515 231.2 79.1808 231.536C79.6288 231.853 80.2355 232.012 81.0008 232.012ZM91.86 219.44H94.912V225.292H101.184V219.44H104.236V234H101.184V227.784H94.912V234H91.86V219.44ZM108.594 219.44H111.59V226.552L111.31 229.996H111.422L113.158 226.888L118.198 219.44H120.97V234H117.974V226.888L118.254 223.444H118.142L116.406 226.552L111.366 234H108.594V219.44ZM131.041 234.336C129.995 234.336 129.062 234.159 128.241 233.804C127.419 233.449 126.719 232.945 126.141 232.292C125.562 231.62 125.114 230.817 124.797 229.884C124.498 228.932 124.349 227.877 124.349 226.72C124.349 225.563 124.498 224.517 124.797 223.584C125.114 222.632 125.562 221.829 126.141 221.176C126.719 220.504 127.419 219.991 128.241 219.636C129.062 219.281 129.995 219.104 131.041 219.104C132.105 219.104 133.038 219.291 133.841 219.664C134.662 220.037 135.343 220.56 135.885 221.232C136.426 221.885 136.827 222.651 137.089 223.528C137.369 224.405 137.509 225.348 137.509 226.356V227.504H127.513V227.98C127.513 229.1 127.839 230.024 128.493 230.752C129.165 231.461 130.117 231.816 131.349 231.816C132.245 231.816 133.001 231.62 133.617 231.228C134.233 230.836 134.755 230.304 135.185 229.632L136.977 231.396C136.435 232.292 135.651 233.011 134.625 233.552C133.598 234.075 132.403 234.336 131.041 234.336ZM131.041 221.484C130.518 221.484 130.033 221.577 129.585 221.764C129.155 221.951 128.782 222.212 128.465 222.548C128.166 222.884 127.933 223.285 127.765 223.752C127.597 224.219 127.513 224.732 127.513 225.292V225.488H134.289V225.208C134.289 224.088 133.999 223.192 133.421 222.52C132.842 221.829 132.049 221.484 131.041 221.484Z" fill="black"/>
<path d="M20.9397 694.508H22.7037C23.2451 693.668 23.6651 692.613 23.9637 691.344C24.2811 690.056 24.4397 688.479 24.4397 686.612V682.44H35.0797V694.508H37.5437V700.92H34.7717V697H23.7117V700.92H20.9397V694.508ZM32.0277 694.508V684.932H27.3517V686.78C27.3517 688.74 27.2117 690.345 26.9317 691.596C26.6517 692.828 26.3251 693.799 25.9517 694.508H32.0277ZM46.0291 697.336C44.9837 697.336 44.0504 697.159 43.2291 696.804C42.4077 696.449 41.7077 695.945 41.1291 695.292C40.5504 694.62 40.1024 693.817 39.7851 692.884C39.4864 691.932 39.3371 690.877 39.3371 689.72C39.3371 688.563 39.4864 687.517 39.7851 686.584C40.1024 685.632 40.5504 684.829 41.1291 684.176C41.7077 683.504 42.4077 682.991 43.2291 682.636C44.0504 682.281 44.9837 682.104 46.0291 682.104C47.0931 682.104 48.0264 682.291 48.8291 682.664C49.6504 683.037 50.3317 683.56 50.8731 684.232C51.4144 684.885 51.8157 685.651 52.0771 686.528C52.3571 687.405 52.4971 688.348 52.4971 689.356V690.504H42.5011V690.98C42.5011 692.1 42.8277 693.024 43.4811 693.752C44.1531 694.461 45.1051 694.816 46.3371 694.816C47.2331 694.816 47.9891 694.62 48.6051 694.228C49.2211 693.836 49.7437 693.304 50.1731 692.632L51.9651 694.396C51.4237 695.292 50.6397 696.011 49.6131 696.552C48.5864 697.075 47.3917 697.336 46.0291 697.336ZM46.0291 684.484C45.5064 684.484 45.0211 684.577 44.5731 684.764C44.1437 684.951 43.7704 685.212 43.4531 685.548C43.1544 685.884 42.9211 686.285 42.7531 686.752C42.5851 687.219 42.5011 687.732 42.5011 688.292V688.488H49.2771V688.208C49.2771 687.088 48.9877 686.192 48.4091 685.52C47.8304 684.829 47.0371 684.484 46.0291 684.484ZM55.8757 682.44H58.9277V688.32H61.5037L63.9117 684.26C64.3223 683.569 64.733 683.093 65.1437 682.832C65.5543 682.571 66.077 682.44 66.7117 682.44H68.1957V684.932H66.5717L64.7237 688.012C64.4437 688.497 64.1917 688.833 63.9677 689.02C63.7623 689.207 63.4823 689.347 63.1277 689.44V689.552C63.501 689.627 63.8277 689.767 64.1077 689.972C64.3877 690.159 64.6583 690.495 64.9197 690.98L66.8797 694.508H68.4757V697H66.7397C66.1237 697 65.5917 696.86 65.1437 696.58C64.7143 696.3 64.3037 695.805 63.9117 695.096L61.5037 690.784H58.9277V697H55.8757V682.44ZM80.7217 682.44H83.6617L77.5297 699.884C77.3617 700.369 77.1657 700.78 76.9417 701.116C76.7364 701.471 76.4844 701.751 76.1857 701.956C75.9057 702.18 75.5604 702.339 75.1497 702.432C74.739 702.544 74.2537 702.6 73.6937 702.6H71.9297V700.108H74.3937L75.2337 697.644L69.9417 682.44H72.9937L75.9057 691.008L76.7457 694.172H76.8857L77.8097 691.008L80.7217 682.44ZM86.1725 682.44H98.1285V697H95.0765V684.932H89.2245V697H86.1725V682.44ZM113.165 697C112.362 697 111.746 696.776 111.317 696.328C110.887 695.861 110.626 695.273 110.533 694.564H110.393C110.113 695.479 109.599 696.169 108.853 696.636C108.106 697.103 107.201 697.336 106.137 697.336C104.625 697.336 103.458 696.944 102.637 696.16C101.834 695.376 101.433 694.321 101.433 692.996C101.433 691.54 101.955 690.448 103.001 689.72C104.065 688.992 105.614 688.628 107.649 688.628H110.281V687.396C110.281 686.5 110.038 685.809 109.553 685.324C109.067 684.839 108.311 684.596 107.285 684.596C106.426 684.596 105.726 684.783 105.185 685.156C104.643 685.529 104.186 686.005 103.813 686.584L101.993 684.932C102.478 684.111 103.159 683.439 104.037 682.916C104.914 682.375 106.062 682.104 107.481 682.104C109.366 682.104 110.813 682.543 111.821 683.42C112.829 684.297 113.333 685.557 113.333 687.2V694.508H114.873V697H113.165ZM107.005 695.012C107.957 695.012 108.741 694.807 109.357 694.396C109.973 693.967 110.281 693.397 110.281 692.688V690.588H107.705C105.595 690.588 104.541 691.241 104.541 692.548V693.052C104.541 693.705 104.755 694.2 105.185 694.536C105.633 694.853 106.239 695.012 107.005 695.012ZM116.772 694.508H118.396L119.992 690.98C120.197 690.551 120.44 690.224 120.72 690C121.019 689.776 121.345 689.627 121.7 689.552V689.44C120.991 689.235 120.44 688.731 120.048 687.928L118.676 684.932H117.052V682.44H118.536C119.189 682.44 119.74 682.589 120.188 682.888C120.655 683.187 121.047 683.672 121.364 684.344L123.24 688.32H125.508V682.44H128.56V688.32H130.828L132.704 684.344C133.021 683.672 133.404 683.187 133.852 682.888C134.319 682.589 134.879 682.44 135.532 682.44H137.016V684.932H135.392L134.02 687.928C133.628 688.731 133.077 689.235 132.368 689.44V689.552C132.723 689.627 133.04 689.776 133.32 690C133.619 690.224 133.871 690.551 134.076 690.98L135.672 694.508H137.296V697H135.56C134.925 697 134.384 696.86 133.936 696.58C133.488 696.281 133.087 695.749 132.732 694.984L130.828 690.784H128.56V697H125.508V690.784H123.24L121.336 694.984C120.981 695.749 120.58 696.281 120.132 696.58C119.684 696.86 119.143 697 118.508 697H116.772V694.508Z" fill="black"/>
<path d="M34.463 82H8.68774C8.68774 -26.9235 156.688 -27.7424 156.688 82H130.497C130.497 82 131.744 26.3135 83.1035 26.7195C34.463 27.1255 34.463 82 34.463 82Z" fill="black"/>
<path d="M34.463 551H8.68774C8.68774 439.42 156.688 438.581 156.688 551H130.497C130.497 551 131.744 493.955 83.1035 494.371C34.463 494.787 34.463 551 34.463 551Z" fill="black"/>
<path d="M34.463 183H8.68774C8.68774 72.7482 156.688 71.9192 156.688 183H130.497C130.497 183 131.744 126.634 83.1035 127.045C34.463 127.456 34.463 183 34.463 183Z" fill="black"/>
<path d="M34.463 650H8.68774C8.68774 539.748 156.688 538.919 156.688 650H130.497C130.497 650 131.744 593.634 83.1035 594.045C34.463 594.456 34.463 650 34.463 650Z" fill="black"/>
<path d="M36.7753 916H11C11 805.748 159 804.919 159 916H132.809C132.809 916 134.056 859.634 85.4157 860.045C36.7753 860.456 36.7753 916 36.7753 916Z" fill="black"/>
<path d="M35.463 733H9.68774C9.68774 843.252 157.688 844.081 157.688 733H131.497C131.497 733 132.744 789.366 84.1035 788.955C35.463 788.544 35.463 733 35.463 733Z" fill="black"/>
<path d="M36.7753 1060H11C11 1170.25 159 1171.08 159 1060H132.809C132.809 1060 134.056 1116.37 85.4157 1115.95C36.7753 1115.54 36.7753 1060 36.7753 1060Z" fill="black"/>
<path d="M34.463 267H8.68774C8.68774 377.252 156.688 378.081 156.688 267H130.497C130.497 267 131.744 323.366 83.1035 322.955C34.463 322.544 34.463 267 34.463 267Z" fill="black"/>
<path d="M35.463 450H9.68774C9.68774 338.42 157.688 337.581 157.688 450H131.497C131.497 450 132.744 392.955 84.1035 393.371C35.463 393.787 35.463 450 35.463 450Z" fill="black"/>
<path d="M86.3643 901.725H83.3394V957.374H86.3643V901.725Z" fill="#FFD101"/>
<path d="M88.0892 900H81.606V959.099H88.0892V900Z" fill="#FFD101"/>
<path d="M144.674 927.115L142.534 924.977L103.201 964.343L105.341 966.481L144.674 927.115Z" fill="#FFD101"/>
<path d="M142.522 922.538L100.751 964.344L105.337 968.927L147.109 927.12L142.522 922.538Z" fill="#FFD101"/>
<path d="M167.972 986.292L167.969 983.267L112.32 983.31L112.323 986.335L167.972 986.292Z" fill="#FFD101"/>
<path d="M169.688 981.565H110.589V988.048H169.688V981.565Z" fill="#FFD101"/>
<path d="M142.623 1044.62L144.759 1042.48L105.365 1003.17L103.229 1005.31L142.623 1044.62Z" fill="#FFD101"/>
<path d="M105.366 1000.73L100.787 1005.32L142.623 1047.06L147.202 1042.47L105.366 1000.73Z" fill="#FFD101"/>
<path d="M83.4643 1067.96L86.4893 1067.96L86.4041 1012.31L83.3792 1012.31L83.4643 1067.96Z" fill="#FFD101"/>
<path d="M88.1356 1010.58L81.6523 1010.59L81.743 1069.69L88.2262 1069.68L88.1356 1010.58Z" fill="#FFD101"/>
<path d="M25.119 1042.66L27.2622 1044.79L66.5393 1005.36L64.3961 1003.23L25.119 1042.66Z" fill="#FFD101"/>
<path d="M64.3785 1000.8L22.6665 1042.67L27.2592 1047.24L68.9713 1005.38L64.3785 1000.8Z" fill="#FFD101"/>
<path d="M1.73232 983.527L1.73926 986.552L57.3883 986.424L57.3813 983.399L1.73232 983.527Z" fill="#FFD101"/>
<path d="M59.099 981.664L0 981.798L0.0146694 988.281L59.1136 988.148L59.099 981.664Z" fill="#FFD101"/>
<path d="M26.9826 925.157L24.8494 927.302L64.3045 966.546L66.4377 964.401L26.9826 925.157Z" fill="#FFD101"/>
<path d="M26.9819 922.711L22.4099 927.308L64.3111 968.984L68.883 964.388L26.9819 922.711Z" fill="#FFD101"/>
<path d="M84.6723 998.307C91.8749 998.307 97.7137 992.468 97.7137 985.265C97.7137 978.062 91.8749 972.224 84.6723 972.224C77.4697 972.224 71.6309 978.062 71.6309 985.265C71.6309 992.468 77.4697 998.307 84.6723 998.307Z" fill="#FFD101"/>
</svg>
