<svg width="235" height="1325" viewBox="0 0 235 1325" fill="none" xmlns="http://www.w3.org/2000/svg">
<path d="M60.1303 274.28H64.0543V277.376H64.2343C64.6423 276.248 65.3023 275.384 66.2143 274.784C67.1503 274.16 68.2423 273.848 69.4903 273.848C71.8663 273.848 73.7023 274.712 74.9983 276.44C76.2943 278.144 76.9423 280.544 76.9423 283.64C76.9423 286.736 76.2943 289.148 74.9983 290.876C73.7023 292.58 71.8663 293.432 69.4903 293.432C68.2423 293.432 67.1503 293.12 66.2143 292.496C65.3023 291.872 64.6423 291.008 64.2343 289.904H64.0543V300.2H60.1303V274.28ZM68.3023 290.048C69.6703 290.048 70.7623 289.616 71.5783 288.752C72.3943 287.864 72.8023 286.7 72.8023 285.26V282.02C72.8023 280.58 72.3943 279.428 71.5783 278.564C70.7623 277.676 69.6703 277.232 68.3023 277.232C67.1023 277.232 66.0943 277.532 65.2783 278.132C64.4623 278.708 64.0543 279.476 64.0543 280.436V286.844C64.0543 287.804 64.4623 288.584 65.2783 289.184C66.0943 289.76 67.1023 290.048 68.3023 290.048ZM88.779 293.432C87.435 293.432 86.235 293.204 85.179 292.748C84.123 292.292 83.223 291.644 82.479 290.804C81.735 289.94 81.159 288.908 80.751 287.708C80.367 286.484 80.175 285.128 80.175 283.64C80.175 282.152 80.367 280.808 80.751 279.608C81.159 278.384 81.735 277.352 82.479 276.512C83.223 275.648 84.123 274.988 85.179 274.532C86.235 274.076 87.435 273.848 88.779 273.848C90.147 273.848 91.347 274.088 92.379 274.568C93.435 275.048 94.311 275.72 95.007 276.584C95.703 277.424 96.219 278.408 96.555 279.536C96.915 280.664 97.095 281.876 97.095 283.172V284.648H84.243V285.26C84.243 286.7 84.663 287.888 85.503 288.824C86.367 289.736 87.591 290.192 89.175 290.192C90.327 290.192 91.299 289.94 92.091 289.436C92.883 288.932 93.555 288.248 94.107 287.384L96.411 289.652C95.715 290.804 94.707 291.728 93.387 292.424C92.067 293.096 90.531 293.432 88.779 293.432ZM88.779 276.908C88.107 276.908 87.483 277.028 86.907 277.268C86.355 277.508 85.875 277.844 85.467 278.276C85.083 278.708 84.783 279.224 84.567 279.824C84.351 280.424 84.243 281.084 84.243 281.804V282.056H92.955V281.696C92.955 280.256 92.583 279.104 91.839 278.24C91.095 277.352 90.075 276.908 88.779 276.908ZM107.271 293.432C105.399 293.432 103.863 293.12 102.663 292.496C101.463 291.872 100.431 290.984 99.5669 289.832L102.123 287.492C102.699 288.332 103.407 288.992 104.247 289.472C105.111 289.952 106.119 290.192 107.271 290.192C108.615 290.192 109.599 289.952 110.223 289.472C110.871 288.992 111.195 288.368 111.195 287.6V287.168C111.195 286.4 110.931 285.824 110.403 285.44C109.899 285.032 109.167 284.828 108.207 284.828H104.175V281.948H107.811C108.771 281.948 109.503 281.768 110.007 281.408C110.535 281.024 110.799 280.472 110.799 279.752V279.356C110.799 278.66 110.511 278.108 109.935 277.7C109.359 277.292 108.447 277.088 107.199 277.088C106.071 277.088 105.111 277.316 104.319 277.772C103.527 278.228 102.891 278.84 102.411 279.608L99.9629 277.484C100.683 276.38 101.643 275.504 102.843 274.856C104.067 274.184 105.603 273.848 107.451 273.848C109.947 273.848 111.795 274.316 112.995 275.252C114.219 276.164 114.831 277.388 114.831 278.924C114.831 280.124 114.519 281.06 113.895 281.732C113.271 282.38 112.335 282.824 111.087 283.064V283.244C112.455 283.412 113.487 283.868 114.183 284.612C114.903 285.356 115.263 286.316 115.263 287.492C115.263 289.34 114.543 290.792 113.103 291.848C111.687 292.904 109.743 293.432 107.271 293.432ZM119.931 274.28H123.855V280.544H129.003C130.875 280.544 132.387 281.096 133.539 282.2C134.715 283.28 135.303 284.804 135.303 286.772C135.303 288.764 134.727 290.3 133.575 291.38C132.423 292.46 130.911 293 129.039 293H119.931V274.28ZM128.283 289.94C129.195 289.94 129.915 289.748 130.443 289.364C130.971 288.956 131.235 288.332 131.235 287.492V286.016C131.235 285.176 130.971 284.564 130.443 284.18C129.915 283.796 129.195 283.604 128.283 283.604H123.855V289.94H128.283ZM146.79 293.432C145.446 293.432 144.246 293.216 143.19 292.784C142.134 292.328 141.234 291.62 140.49 290.66C139.746 289.7 139.17 288.488 138.762 287.024C138.378 285.536 138.186 283.748 138.186 281.66C138.186 279.116 138.366 276.932 138.726 275.108C139.11 273.26 139.698 271.736 140.49 270.536C141.306 269.312 142.326 268.376 143.55 267.728C144.798 267.08 146.286 266.684 148.014 266.54L153.99 266V269.852L147.798 270.428C146.814 270.524 145.986 270.716 145.314 271.004C144.666 271.292 144.126 271.736 143.694 272.336C143.286 272.912 142.974 273.692 142.758 274.676C142.542 275.636 142.386 276.836 142.29 278.276H142.47C142.95 277.028 143.598 276.092 144.414 275.468C145.254 274.844 146.382 274.532 147.798 274.532C148.902 274.532 149.91 274.748 150.822 275.18C151.758 275.588 152.562 276.188 153.234 276.98C153.906 277.772 154.422 278.744 154.782 279.896C155.166 281.024 155.358 282.32 155.358 283.784C155.358 285.248 155.154 286.58 154.746 287.78C154.338 288.956 153.762 289.964 153.018 290.804C152.274 291.644 151.374 292.292 150.318 292.748C149.262 293.204 148.086 293.432 146.79 293.432ZM146.79 290.192C148.158 290.192 149.238 289.772 150.03 288.932C150.822 288.068 151.218 286.808 151.218 285.152V282.812C151.218 281.156 150.822 279.908 150.03 279.068C149.238 278.204 148.158 277.772 146.79 277.772C145.35 277.772 144.246 278.156 143.478 278.924C142.734 279.692 142.362 280.724 142.362 282.02V285.152C142.362 286.808 142.758 288.068 143.55 288.932C144.342 289.772 145.422 290.192 146.79 290.192ZM173.444 293C172.412 293 171.62 292.712 171.068 292.136C170.516 291.536 170.18 290.78 170.06 289.868H169.88C169.52 291.044 168.86 291.932 167.9 292.532C166.94 293.132 165.776 293.432 164.408 293.432C162.464 293.432 160.964 292.928 159.908 291.92C158.876 290.912 158.36 289.556 158.36 287.852C158.36 285.98 159.032 284.576 160.376 283.64C161.744 282.704 163.736 282.236 166.352 282.236H169.736V280.652C169.736 279.5 169.424 278.612 168.8 277.988C168.176 277.364 167.204 277.052 165.884 277.052C164.78 277.052 163.88 277.292 163.184 277.772C162.488 278.252 161.9 278.864 161.42 279.608L159.08 277.484C159.704 276.428 160.58 275.564 161.708 274.892C162.836 274.196 164.312 273.848 166.136 273.848C168.56 273.848 170.42 274.412 171.716 275.54C173.012 276.668 173.66 278.288 173.66 280.4V289.796H175.64V293H173.444ZM165.524 290.444C166.748 290.444 167.756 290.18 168.548 289.652C169.34 289.1 169.736 288.368 169.736 287.456V284.756H166.424C163.712 284.756 162.356 285.596 162.356 287.276V287.924C162.356 288.764 162.632 289.4 163.184 289.832C163.76 290.24 164.54 290.444 165.524 290.444Z" fill="black"/>
<path d="M39.9107 738C38.8787 738 38.0867 737.712 37.5347 737.136C36.9827 736.536 36.6467 735.78 36.5267 734.868H36.3467C35.9867 736.044 35.3267 736.932 34.3667 737.532C33.4067 738.132 32.2427 738.432 30.8747 738.432C28.9307 738.432 27.4307 737.928 26.3747 736.92C25.3427 735.912 24.8267 734.556 24.8267 732.852C24.8267 730.98 25.4987 729.576 26.8427 728.64C28.2107 727.704 30.2027 727.236 32.8187 727.236H36.2027V725.652C36.2027 724.5 35.8907 723.612 35.2667 722.988C34.6427 722.364 33.6707 722.052 32.3507 722.052C31.2467 722.052 30.3467 722.292 29.6507 722.772C28.9547 723.252 28.3667 723.864 27.8867 724.608L25.5467 722.484C26.1707 721.428 27.0467 720.564 28.1747 719.892C29.3027 719.196 30.7787 718.848 32.6027 718.848C35.0267 718.848 36.8867 719.412 38.1827 720.54C39.4787 721.668 40.1267 723.288 40.1267 725.4V734.796H42.1067V738H39.9107ZM31.9907 735.444C33.2147 735.444 34.2227 735.18 35.0147 734.652C35.8067 734.1 36.2027 733.368 36.2027 732.456V729.756H32.8907C30.1787 729.756 28.8227 730.596 28.8227 732.276V732.924C28.8227 733.764 29.0987 734.4 29.6507 734.832C30.2267 735.24 31.0067 735.444 31.9907 735.444ZM45.9525 719.28H50.7045L55.9965 728.136H56.0685L61.3605 719.28H65.8965V738H62.0445V724.104H61.9005L60.6765 726.408L55.9245 734.328L51.1725 726.408L49.9485 724.104H49.8045V738H45.9525V719.28ZM71.5111 719.28H75.3631V728.424L75.0031 732.852H75.1471L77.3791 728.856L83.8591 719.28H87.4231V738H83.5711V728.856L83.9311 724.428H83.7871L81.5551 728.424L75.0751 738H71.5111V719.28ZM93.0268 719.28H105.231V722.484H96.9508V738H93.0268V719.28ZM120.788 719.28H124.568L116.684 741.708C116.468 742.332 116.216 742.86 115.928 743.292C115.664 743.748 115.34 744.108 114.956 744.372C114.596 744.66 114.152 744.864 113.624 744.984C113.096 745.128 112.472 745.2 111.752 745.2H109.484V741.996H112.652L113.732 738.828L106.928 719.28H110.852L114.596 730.296L115.676 734.364H115.856L117.044 730.296L120.788 719.28ZM127.796 719.28H131.72V722.376H131.9C132.308 721.248 132.968 720.384 133.88 719.784C134.816 719.16 135.908 718.848 137.156 718.848C139.532 718.848 141.368 719.712 142.664 721.44C143.96 723.144 144.608 725.544 144.608 728.64C144.608 731.736 143.96 734.148 142.664 735.876C141.368 737.58 139.532 738.432 137.156 738.432C135.908 738.432 134.816 738.12 133.88 737.496C132.968 736.872 132.308 736.008 131.9 734.904H131.72V745.2H127.796V719.28ZM135.968 735.048C137.336 735.048 138.428 734.616 139.244 733.752C140.06 732.864 140.468 731.7 140.468 730.26V727.02C140.468 725.58 140.06 724.428 139.244 723.564C138.428 722.676 137.336 722.232 135.968 722.232C134.768 722.232 133.76 722.532 132.944 723.132C132.128 723.708 131.72 724.476 131.72 725.436V731.844C131.72 732.804 132.128 733.584 132.944 734.184C133.76 734.76 134.768 735.048 135.968 735.048ZM160.339 719.28H164.119L156.235 741.708C156.019 742.332 155.767 742.86 155.479 743.292C155.215 743.748 154.891 744.108 154.507 744.372C154.147 744.66 153.703 744.864 153.175 744.984C152.647 745.128 152.023 745.2 151.303 745.2H149.035V741.996H152.203L153.283 738.828L146.479 719.28H150.403L154.147 730.296L155.227 734.364H155.407L156.595 730.296L160.339 719.28ZM167.347 719.28H172.099L177.391 728.136H177.463L182.755 719.28H187.291V738H183.439V724.104H183.295L182.071 726.408L177.319 734.328L172.567 726.408L171.343 724.104H171.199V738H167.347V719.28ZM192.906 719.28H196.758V728.424L196.398 732.852H196.542L198.774 728.856L205.254 719.28H208.818V738H204.966V728.856L205.326 724.428H205.182L202.95 728.424L196.47 738H192.906V719.28Z" fill="black"/>
<rect x="19" width="197" height="41" fill="black"/>
<rect x="19" y="359" width="197" height="42" fill="black"/>
<rect x="19" y="83" width="197" height="41" fill="black"/>
<rect x="19" y="442" width="197" height="41" fill="black"/>
<rect x="19" y="166" width="197" height="42" fill="black"/>
<rect x="19" y="525" width="197" height="42" fill="black"/>
<rect x="19" y="808" width="197" height="41" fill="black"/>
<rect x="19" y="1200" width="197" height="42" fill="black"/>
<rect x="19" y="609" width="197" height="41" fill="black"/>
<rect x="19" y="891" width="197" height="41" fill="black"/>
<rect x="19" y="1284" width="197" height="41" fill="black"/>
<path d="M119.589 950.879H115.4V1027.94H119.589V950.879Z" fill="white"/>
<path d="M121.977 948.49H113V1030.32H121.977V948.49Z" fill="white"/>
<path d="M200.329 986.037L197.366 983.077L142.902 1037.59L145.865 1040.55L200.329 986.037Z" fill="white"/>
<path d="M197.351 979.699L139.51 1037.59L145.861 1043.93L203.701 986.044L197.351 979.699Z" fill="white"/>
<path d="M232.591 1067.98L232.588 1063.79L155.53 1063.85L155.534 1068.04L232.591 1067.98Z" fill="white"/>
<path d="M234.967 1061.43H153.132V1070.41H234.967V1061.43Z" fill="white"/>
<path d="M197.49 1148.74L200.448 1145.78L145.9 1091.35L142.941 1094.32L197.49 1148.74Z" fill="white"/>
<path d="M145.901 1087.98L139.56 1094.33L197.491 1152.13L203.831 1145.77L145.901 1087.98Z" fill="white"/>
<path d="M115.573 1181.07L119.762 1181.06L119.644 1104L115.455 1104.01L115.573 1181.07Z" fill="white"/>
<path d="M122.041 1101.62L113.064 1101.63L113.19 1183.47L122.167 1183.45L122.041 1101.62Z" fill="white"/>
<path d="M34.7819 1146.03L37.7495 1148.98L92.1366 1094.39L89.1689 1091.43L34.7819 1146.03Z" fill="white"/>
<path d="M89.1447 1088.07L31.386 1146.04L37.7455 1152.38L95.5043 1094.41L89.1447 1088.07Z" fill="white"/>
<path d="M2.39835 1064.15L2.40796 1068.34L79.4653 1068.16L79.4557 1063.97L2.39835 1064.15Z" fill="white"/>
<path d="M81.8344 1061.57L0 1061.76L0.0203128 1070.73L81.8548 1070.55L81.8344 1061.57Z" fill="white"/>
<path d="M37.363 983.326L34.4092 986.296L89.0428 1040.64L91.9967 1037.67L37.363 983.326Z" fill="white"/>
<path d="M37.3618 979.939L31.031 986.304L89.0516 1044.01L95.3824 1037.65L37.3618 979.939Z" fill="white"/>
<path d="M117.246 1084.62C127.219 1084.62 135.305 1076.53 135.305 1066.56C135.305 1056.58 127.219 1048.5 117.246 1048.5C107.273 1048.5 99.1875 1056.58 99.1875 1066.56C99.1875 1076.53 107.273 1084.62 117.246 1084.62Z" fill="white"/>
</svg>
