<svg width="184" height="1060" viewBox="0 0 184 1060" fill="none" xmlns="http://www.w3.org/2000/svg">
<path d="M14.3787 489.336C13.3333 489.336 12.4 489.159 11.5787 488.804C10.7573 488.449 10.0667 487.945 9.50665 487.292C8.94665 486.62 8.51732 485.817 8.21865 484.884C7.91998 483.932 7.77065 482.877 7.77065 481.72C7.77065 480.563 7.91998 479.517 8.21865 478.584C8.51732 477.632 8.94665 476.829 9.50665 476.176C10.0667 475.504 10.7573 474.991 11.5787 474.636C12.4 474.281 13.3333 474.104 14.3787 474.104C15.8347 474.104 17.0293 474.431 17.9627 475.084C18.896 475.737 19.5773 476.605 20.0067 477.688L17.4867 478.864C17.2813 478.192 16.9173 477.66 16.3947 477.268C15.8907 476.857 15.2187 476.652 14.3787 476.652C13.2587 476.652 12.4093 477.007 11.8307 477.716C11.2707 478.407 10.9907 479.312 10.9907 480.432V483.036C10.9907 484.156 11.2707 485.071 11.8307 485.78C12.4093 486.471 13.2587 486.816 14.3787 486.816C15.2747 486.816 15.984 486.601 16.5067 486.172C17.048 485.724 17.4773 485.136 17.7947 484.408L20.1187 485.64C19.6333 486.835 18.9053 487.749 17.9347 488.384C16.964 489.019 15.7787 489.336 14.3787 489.336ZM23.0241 474.44H26.0761V480.32H28.6521L31.0601 476.26C31.4708 475.569 31.8814 475.093 32.2921 474.832C32.7028 474.571 33.2254 474.44 33.8601 474.44H35.3441V476.932H33.7201L31.8721 480.012C31.5921 480.497 31.3401 480.833 31.1161 481.02C30.9108 481.207 30.6308 481.347 30.2761 481.44V481.552C30.6494 481.627 30.9761 481.767 31.2561 481.972C31.5361 482.159 31.8068 482.495 32.0681 482.98L34.0281 486.508H35.6241V489H33.8881C33.2721 489 32.7401 488.86 32.2921 488.58C31.8628 488.3 31.4521 487.805 31.0601 487.096L28.6521 482.784H26.0761V489H23.0241V474.44ZM38.9382 474.44H41.9902V476.848H42.1302C42.4475 475.971 42.9608 475.299 43.6702 474.832C44.3982 474.347 45.2475 474.104 46.2182 474.104C48.0662 474.104 49.4942 474.776 50.5022 476.12C51.5102 477.445 52.0142 479.312 52.0142 481.72C52.0142 484.128 51.5102 486.004 50.5022 487.348C49.4942 488.673 48.0662 489.336 46.2182 489.336C45.2475 489.336 44.3982 489.093 43.6702 488.608C42.9608 488.123 42.4475 487.451 42.1302 486.592H41.9902V494.6H38.9382V474.44ZM45.2942 486.704C46.3582 486.704 47.2075 486.368 47.8422 485.696C48.4768 485.005 48.7942 484.1 48.7942 482.98V480.46C48.7942 479.34 48.4768 478.444 47.8422 477.772C47.2075 477.081 46.3582 476.736 45.2942 476.736C44.3608 476.736 43.5768 476.969 42.9422 477.436C42.3075 477.884 41.9902 478.481 41.9902 479.228V484.212C41.9902 484.959 42.3075 485.565 42.9422 486.032C43.5768 486.48 44.3608 486.704 45.2942 486.704ZM66.1765 489C65.3738 489 64.7578 488.776 64.3285 488.328C63.8991 487.861 63.6378 487.273 63.5445 486.564H63.4045C63.1245 487.479 62.6111 488.169 61.8645 488.636C61.1178 489.103 60.2125 489.336 59.1485 489.336C57.6365 489.336 56.4698 488.944 55.6485 488.16C54.8458 487.376 54.4445 486.321 54.4445 484.996C54.4445 483.54 54.9671 482.448 56.0125 481.72C57.0765 480.992 58.6258 480.628 60.6605 480.628H63.2925V479.396C63.2925 478.5 63.0498 477.809 62.5645 477.324C62.0791 476.839 61.3231 476.596 60.2965 476.596C59.4378 476.596 58.7378 476.783 58.1965 477.156C57.6551 477.529 57.1978 478.005 56.8245 478.584L55.0045 476.932C55.4898 476.111 56.1711 475.439 57.0485 474.916C57.9258 474.375 59.0738 474.104 60.4925 474.104C62.3778 474.104 63.8245 474.543 64.8325 475.42C65.8405 476.297 66.3445 477.557 66.3445 479.2V486.508H67.8845V489H66.1765ZM60.0165 487.012C60.9685 487.012 61.7525 486.807 62.3685 486.396C62.9845 485.967 63.2925 485.397 63.2925 484.688V482.588H60.7165C58.6071 482.588 57.5525 483.241 57.5525 484.548V485.052C57.5525 485.705 57.7671 486.2 58.1965 486.536C58.6445 486.853 59.2511 487.012 60.0165 487.012ZM70.8757 474.44H82.8317V489H79.7797V476.932H73.9277V489H70.8757V474.44ZM93.0239 489.336C91.9785 489.336 91.0452 489.168 90.2239 488.832C89.4025 488.477 88.7025 487.927 88.1239 487.18C87.5452 486.433 87.0972 485.491 86.7799 484.352C86.4812 483.195 86.3319 481.804 86.3319 480.18C86.3319 478.201 86.4719 476.503 86.7519 475.084C87.0505 473.647 87.5079 472.461 88.1239 471.528C88.7585 470.576 89.5519 469.848 90.5039 469.344C91.4745 468.84 92.6319 468.532 93.9759 468.42L98.6239 468V470.996L93.8079 471.444C93.0425 471.519 92.3985 471.668 91.8759 471.892C91.3719 472.116 90.9519 472.461 90.6159 472.928C90.2985 473.376 90.0559 473.983 89.8879 474.748C89.7199 475.495 89.5985 476.428 89.5239 477.548H89.6639C90.0372 476.577 90.5412 475.849 91.1759 475.364C91.8292 474.879 92.7065 474.636 93.8079 474.636C94.6665 474.636 95.4505 474.804 96.1599 475.14C96.8879 475.457 97.5132 475.924 98.0359 476.54C98.5585 477.156 98.9599 477.912 99.2399 478.808C99.5385 479.685 99.6879 480.693 99.6879 481.832C99.6879 482.971 99.5292 484.007 99.2119 484.94C98.8945 485.855 98.4465 486.639 97.8679 487.292C97.2892 487.945 96.5892 488.449 95.7679 488.804C94.9465 489.159 94.0319 489.336 93.0239 489.336ZM93.0239 486.816C94.0879 486.816 94.9279 486.489 95.5439 485.836C96.1599 485.164 96.4679 484.184 96.4679 482.896V481.076C96.4679 479.788 96.1599 478.817 95.5439 478.164C94.9279 477.492 94.0879 477.156 93.0239 477.156C91.9039 477.156 91.0452 477.455 90.4479 478.052C89.8692 478.649 89.5799 479.452 89.5799 480.46V482.896C89.5799 484.184 89.8879 485.164 90.5039 485.836C91.1199 486.489 91.9599 486.816 93.0239 486.816ZM111.855 474.44H114.795L108.663 491.884C108.495 492.369 108.299 492.78 108.075 493.116C107.869 493.471 107.617 493.751 107.319 493.956C107.039 494.18 106.693 494.339 106.283 494.432C105.872 494.544 105.387 494.6 104.827 494.6H103.063V492.108H105.527L106.367 489.644L101.075 474.44H104.127L107.039 483.008L107.879 486.172H108.019L108.943 483.008L111.855 474.44ZM117.305 474.44H120.357V480.32H122.933L125.341 476.26C125.752 475.569 126.163 475.093 126.573 474.832C126.984 474.571 127.507 474.44 128.141 474.44H129.625V476.932H128.001L126.153 480.012C125.873 480.497 125.621 480.833 125.397 481.02C125.192 481.207 124.912 481.347 124.557 481.44V481.552C124.931 481.627 125.257 481.767 125.537 481.972C125.817 482.159 126.088 482.495 126.349 482.98L128.309 486.508H129.905V489H128.169C127.553 489 127.021 488.86 126.573 488.58C126.144 488.3 125.733 487.805 125.341 487.096L122.933 482.784H120.357V489H117.305V474.44ZM133.219 474.44H136.215V481.552L135.935 484.996H136.047L137.783 481.888L142.823 474.44H145.595V489H142.599V481.888L142.879 478.444H142.767L141.031 481.552L135.991 489H133.219V474.44ZM149.954 474.44H153.006V480.292H159.278V474.44H162.33V489H159.278V482.784H153.006V489H149.954V474.44ZM166.688 474.44H176.18V476.932H169.74V489H166.688V474.44Z" fill="black"/>
<path d="M61.8335 861.336C60.7882 861.336 59.8548 861.159 59.0335 860.804C58.2122 860.449 57.5215 859.945 56.9615 859.292C56.4015 858.62 55.9722 857.817 55.6735 856.884C55.3748 855.932 55.2255 854.877 55.2255 853.72C55.2255 852.563 55.3748 851.517 55.6735 850.584C55.9722 849.632 56.4015 848.829 56.9615 848.176C57.5215 847.504 58.2122 846.991 59.0335 846.636C59.8548 846.281 60.7882 846.104 61.8335 846.104C63.2895 846.104 64.4842 846.431 65.4175 847.084C66.3508 847.737 67.0322 848.605 67.4615 849.688L64.9415 850.864C64.7362 850.192 64.3722 849.66 63.8495 849.268C63.3455 848.857 62.6735 848.652 61.8335 848.652C60.7135 848.652 59.8642 849.007 59.2855 849.716C58.7255 850.407 58.4455 851.312 58.4455 852.432V855.036C58.4455 856.156 58.7255 857.071 59.2855 857.78C59.8642 858.471 60.7135 858.816 61.8335 858.816C62.7295 858.816 63.4388 858.601 63.9615 858.172C64.5028 857.724 64.9322 857.136 65.2495 856.408L67.5735 857.64C67.0882 858.835 66.3602 859.749 65.3895 860.384C64.4188 861.019 63.2335 861.336 61.8335 861.336ZM70.4789 846.44H78.2349C79.4856 846.44 80.4469 846.776 81.1189 847.448C81.8096 848.12 82.1549 849.016 82.1549 850.136C82.1549 851.965 81.1749 853.001 79.2149 853.244V853.384C80.3909 853.477 81.2589 853.823 81.8189 854.42C82.3976 854.999 82.6869 855.764 82.6869 856.716C82.6869 857.332 82.5843 857.901 82.3789 858.424C82.1923 858.947 81.9123 859.404 81.5389 859.796C81.1843 860.169 80.7456 860.468 80.2229 860.692C79.7003 860.897 79.1123 861 78.4589 861H70.4789V846.44ZM77.7589 858.676C78.3003 858.676 78.7296 858.536 79.0469 858.256C79.3643 857.976 79.5229 857.565 79.5229 857.024V856.268C79.5229 855.727 79.3643 855.316 79.0469 855.036C78.7296 854.737 78.3003 854.588 77.7589 854.588H73.4749V858.676H77.7589ZM77.3669 852.488C77.8896 852.488 78.2909 852.357 78.5709 852.096C78.8509 851.835 78.9909 851.461 78.9909 850.976V850.276C78.9909 849.791 78.8509 849.417 78.5709 849.156C78.2909 848.895 77.8896 848.764 77.3669 848.764H73.4749V852.488H77.3669ZM92.0503 861.336C91.005 861.336 90.0716 861.159 89.2503 860.804C88.429 860.449 87.729 859.945 87.1503 859.292C86.5716 858.62 86.1236 857.817 85.8063 856.884C85.5076 855.932 85.3583 854.877 85.3583 853.72C85.3583 852.563 85.5076 851.517 85.8063 850.584C86.1236 849.632 86.5716 848.829 87.1503 848.176C87.729 847.504 88.429 846.991 89.2503 846.636C90.0716 846.281 91.005 846.104 92.0503 846.104C93.1143 846.104 94.0476 846.291 94.8503 846.664C95.6716 847.037 96.353 847.56 96.8943 848.232C97.4356 848.885 97.837 849.651 98.0983 850.528C98.3783 851.405 98.5183 852.348 98.5183 853.356V854.504H88.5223V854.98C88.5223 856.1 88.849 857.024 89.5023 857.752C90.1743 858.461 91.1263 858.816 92.3583 858.816C93.2543 858.816 94.0103 858.62 94.6263 858.228C95.2423 857.836 95.765 857.304 96.1943 856.632L97.9863 858.396C97.445 859.292 96.661 860.011 95.6343 860.552C94.6076 861.075 93.413 861.336 92.0503 861.336ZM92.0503 848.484C91.5276 848.484 91.0423 848.577 90.5943 848.764C90.165 848.951 89.7916 849.212 89.4743 849.548C89.1756 849.884 88.9423 850.285 88.7743 850.752C88.6063 851.219 88.5223 851.732 88.5223 852.292V852.488H95.2983V852.208C95.2983 851.088 95.009 850.192 94.4303 849.52C93.8516 848.829 93.0583 848.484 92.0503 848.484ZM110.017 854.532H109.877C109.466 855.073 108.944 855.512 108.309 855.848C107.674 856.184 106.844 856.352 105.817 856.352C104.268 856.352 103.092 855.96 102.289 855.176C101.505 854.392 101.113 853.188 101.113 851.564V846.44H104.165V851.368C104.165 852.189 104.38 852.796 104.809 853.188C105.238 853.561 105.929 853.748 106.881 853.748C107.833 853.748 108.589 853.608 109.149 853.328C109.728 853.048 110.017 852.647 110.017 852.124V846.44H113.069V861H110.017V854.532ZM117.428 846.44H120.424V853.552L120.144 856.996H120.256L121.992 853.888L127.032 846.44H129.804V861H126.808V853.888L127.088 850.444H126.976L125.24 853.552L120.2 861H117.428V846.44Z" fill="black"/>
<path d="M44.7863 707H17.6877C21.023 760.534 162.353 760.132 165.688 707H138.589C138.589 707 131.085 722.698 91.0624 722.698C51.0399 722.698 44.7863 707 44.7863 707Z" fill="black"/>
<path d="M44.7863 646H17.6877C21.023 702.211 162.353 701.789 165.688 646H138.589C138.589 646 131.085 662.483 91.0624 662.483C51.0399 662.483 44.7863 646 44.7863 646Z" fill="black"/>
<path d="M46.0986 1018H19C22.3352 1074.21 163.665 1073.79 167 1018H139.901C139.901 1018 132.397 1034.48 92.3746 1034.48C52.3521 1034.48 46.0986 1018 46.0986 1018Z" fill="black"/>
<path d="M44.7863 586H17.6877C21.023 642.211 162.353 641.789 165.688 586H138.589C138.589 586 131.085 602.483 91.0624 602.483C51.0399 602.483 44.7863 586 44.7863 586Z" fill="black"/>
<path d="M46.0986 958H19C22.3352 1014.21 163.665 1013.79 167 958H139.901C139.901 958 132.397 974.483 92.3746 974.483C52.3521 974.483 46.0986 958 46.0986 958Z" fill="black"/>
<path d="M44.7863 102H17.6877C21.023 45.789 162.353 46.2114 165.688 102H138.589C138.589 102 131.085 85.5168 91.0624 85.5168C51.0399 85.5168 44.7863 102 44.7863 102Z" fill="black"/>
<path d="M44.7863 527H17.6877C21.023 581.873 162.353 581.46 165.688 527H138.589C138.589 527 131.085 543.091 91.0624 543.091C51.0399 543.091 44.7863 527 44.7863 527Z" fill="black"/>
<path d="M46.0986 899H19C22.3352 953.873 163.665 953.46 167 899H139.901C139.901 899 132.397 915.091 92.3746 915.091C52.3521 915.091 46.0986 899 46.0986 899Z" fill="black"/>
<path d="M44.7863 162H17.6877C21.023 105.789 162.353 106.211 165.688 162H138.589C138.589 162 131.085 145.517 91.0624 145.517C51.0399 145.517 44.7863 162 44.7863 162Z" fill="black"/>
<path d="M44.7863 435H17.6877C21.023 378.789 162.353 379.211 165.688 435H138.589C138.589 435 131.085 418.517 91.0624 418.517C51.0399 418.517 44.7863 435 44.7863 435Z" fill="black"/>
<path d="M46.0986 807H19C22.3352 750.789 163.665 751.211 167 807H139.901C139.901 807 132.397 790.517 92.3746 790.517C52.3521 790.517 46.0986 807 46.0986 807Z" fill="black"/>
<path d="M44.7863 333H17.6877C21.023 389.211 162.353 388.789 165.688 333H138.589C138.589 333 131.085 349.483 91.0624 349.483C51.0399 349.483 44.7863 333 44.7863 333Z" fill="black"/>
<path d="M44.7863 40H17.6877C21.023 -13.5342 162.353 -13.132 165.688 40H138.589C138.589 40 131.085 24.3017 91.0624 24.3017C51.0399 24.3017 44.7863 40 44.7863 40Z" fill="black"/>
<path d="M93.3728 162.849H90.3479V218.498H93.3728V162.849Z" fill="#5EB6CA"/>
<path d="M95.098 161.124H88.6147V220.223H95.098V161.124Z" fill="#5EB6CA"/>
<path d="M151.682 188.239L149.542 186.101L110.21 225.467L112.35 227.606L151.682 188.239Z" fill="#5EB6CA"/>
<path d="M149.531 183.662L107.76 225.469L112.346 230.051L154.117 188.244L149.531 183.662Z" fill="#5EB6CA"/>
<path d="M174.98 247.416L174.978 244.391L119.329 244.434L119.331 247.459L174.98 247.416Z" fill="#5EB6CA"/>
<path d="M176.696 242.689H117.597V249.172H176.696V242.689Z" fill="#5EB6CA"/>
<path d="M149.631 305.741L151.768 303.599L112.374 264.294L110.237 266.436L149.631 305.741Z" fill="#5EB6CA"/>
<path d="M112.375 261.856L107.796 266.446L149.632 308.187L154.211 303.598L112.375 261.856Z" fill="#5EB6CA"/>
<path d="M90.4729 329.085L93.4978 329.08L93.4127 273.431L90.3877 273.436L90.4729 329.085Z" fill="#5EB6CA"/>
<path d="M95.1444 271.709L88.6611 271.719L88.7518 330.818L95.235 330.808L95.1444 271.709Z" fill="#5EB6CA"/>
<path d="M32.1276 303.781L34.2708 305.916L73.5478 266.488L71.4047 264.353L32.1276 303.781Z" fill="#5EB6CA"/>
<path d="M71.3871 261.927L29.675 303.793L34.2678 308.369L75.9798 266.503L71.3871 261.927Z" fill="#5EB6CA"/>
<path d="M8.74086 244.651L8.7478 247.676L64.3968 247.548L64.3899 244.523L8.74086 244.651Z" fill="#5EB6CA"/>
<path d="M66.1077 242.789L7.00879 242.922L7.02346 249.405L66.1224 249.272L66.1077 242.789Z" fill="#5EB6CA"/>
<path d="M33.9911 186.281L31.8579 188.426L71.3131 227.67L73.4463 225.525L33.9911 186.281Z" fill="#5EB6CA"/>
<path d="M33.9904 183.835L29.4185 188.432L71.3196 230.108L75.8916 225.512L33.9904 183.835Z" fill="#5EB6CA"/>
<path d="M91.6811 259.431C98.8837 259.431 104.723 253.592 104.723 246.389C104.723 239.187 98.8837 233.348 91.6811 233.348C84.4785 233.348 78.6396 239.187 78.6396 246.389C78.6396 253.592 84.4785 259.431 91.6811 259.431Z" fill="#5EB6CA"/>
</svg>
