<svg width="206" height="1133" viewBox="0 0 206 1133" fill="none" xmlns="http://www.w3.org/2000/svg">
<path d="M35.8764 763H0C0 610.241 206 609.093 206 763H169.545C169.545 763 171.281 684.903 103.579 685.472C35.8764 686.042 35.8764 763 35.8764 763Z" fill="black"/>
<path d="M35.8764 902H0C0 747.913 206 746.755 206 902H169.545C169.545 902 171.281 823.224 103.579 823.798C35.8764 824.373 35.8764 902 35.8764 902Z" fill="black"/>
<path d="M35.8764 1017H0C0 1171.09 206 1172.25 206 1017H169.545C169.545 1017 171.281 1095.78 103.579 1095.2C35.8764 1094.63 35.8764 1017 35.8764 1017Z" fill="black"/>
<path d="M35.8764 116H0C0 -38.0869 206 -39.2454 206 116H169.545C169.545 116 171.281 37.224 103.579 37.7983C35.8764 38.3727 35.8764 116 35.8764 116Z" fill="black"/>
<path d="M35.8764 254H0C0 99.9131 206 98.7546 206 254H169.545C169.545 254 171.281 175.224 103.579 175.798C35.8764 176.373 35.8764 254 35.8764 254Z" fill="black"/>
<path d="M35.8764 371H0C0 525.087 206 526.245 206 371H169.545C169.545 371 171.281 449.776 103.579 449.202C35.8764 448.627 35.8764 371 35.8764 371Z" fill="black"/>
<path d="M35.8764 625H0C0 470.913 206 469.755 206 625H169.545C169.545 625 171.281 546.224 103.579 546.798C35.8764 547.373 35.8764 625 35.8764 625Z" fill="black"/>
</svg>
