<svg width="121" height="1090" viewBox="0 0 121 1090" fill="none" xmlns="http://www.w3.org/2000/svg">
<path d="M10.3013 324.216C9.6293 324.216 9.0293 324.102 8.5013 323.874C7.9733 323.646 7.5293 323.322 7.1693 322.902C6.8093 322.47 6.5333 321.954 6.3413 321.354C6.1493 320.742 6.0533 320.064 6.0533 319.32C6.0533 318.576 6.1493 317.904 6.3413 317.304C6.5333 316.692 6.8093 316.176 7.1693 315.756C7.5293 315.324 7.9733 314.994 8.5013 314.766C9.0293 314.538 9.6293 314.424 10.3013 314.424C11.2373 314.424 12.0053 314.634 12.6053 315.054C13.2053 315.474 13.6433 316.032 13.9193 316.728L12.2993 317.484C12.1673 317.052 11.9333 316.71 11.5973 316.458C11.2733 316.194 10.8413 316.062 10.3013 316.062C9.5813 316.062 9.0353 316.29 8.6633 316.746C8.3033 317.19 8.1233 317.772 8.1233 318.492V320.166C8.1233 320.886 8.3033 321.474 8.6633 321.93C9.0353 322.374 9.5813 322.596 10.3013 322.596C10.8773 322.596 11.3333 322.458 11.6693 322.182C12.0173 321.894 12.2933 321.516 12.4973 321.048L13.9913 321.84C13.6793 322.608 13.2113 323.196 12.5873 323.604C11.9633 324.012 11.2013 324.216 10.3013 324.216ZM15.8591 314.64H17.8211V318.42H19.4771L21.0251 315.81C21.2891 315.366 21.5531 315.06 21.8171 314.892C22.0811 314.724 22.4171 314.64 22.8251 314.64H23.7791V316.242H22.7351L21.5471 318.222C21.3671 318.534 21.2051 318.75 21.0611 318.87C20.9291 318.99 20.7491 319.08 20.5211 319.14V319.212C20.7611 319.26 20.9711 319.35 21.1511 319.482C21.3311 319.602 21.5051 319.818 21.6731 320.13L22.9331 322.398H23.9591V324H22.8431C22.4471 324 22.1051 323.91 21.8171 323.73C21.5411 323.55 21.2771 323.232 21.0251 322.776L19.4771 320.004H17.8211V324H15.8591V314.64ZM26.0895 314.64H28.0515V316.188H28.1415C28.3455 315.624 28.6755 315.192 29.1315 314.892C29.5995 314.58 30.1455 314.424 30.7695 314.424C31.9575 314.424 32.8755 314.856 33.5235 315.72C34.1715 316.572 34.4955 317.772 34.4955 319.32C34.4955 320.868 34.1715 322.074 33.5235 322.938C32.8755 323.79 31.9575 324.216 30.7695 324.216C30.1455 324.216 29.5995 324.06 29.1315 323.748C28.6755 323.436 28.3455 323.004 28.1415 322.452H28.0515V327.6H26.0895V314.64ZM30.1755 322.524C30.8595 322.524 31.4055 322.308 31.8135 321.876C32.2215 321.432 32.4255 320.85 32.4255 320.13V318.51C32.4255 317.79 32.2215 317.214 31.8135 316.782C31.4055 316.338 30.8595 316.116 30.1755 316.116C29.5755 316.116 29.0715 316.266 28.6635 316.566C28.2555 316.854 28.0515 317.238 28.0515 317.718V320.922C28.0515 321.402 28.2555 321.792 28.6635 322.092C29.0715 322.38 29.5755 322.524 30.1755 322.524ZM43.5999 324C43.0839 324 42.6879 323.856 42.4119 323.568C42.1359 323.268 41.9679 322.89 41.9079 322.434H41.8179C41.6379 323.022 41.3079 323.466 40.8279 323.766C40.3479 324.066 39.7659 324.216 39.0819 324.216C38.1099 324.216 37.3599 323.964 36.8319 323.46C36.3159 322.956 36.0579 322.278 36.0579 321.426C36.0579 320.49 36.3939 319.788 37.0659 319.32C37.7499 318.852 38.7459 318.618 40.0539 318.618H41.7459V317.826C41.7459 317.25 41.5899 316.806 41.2779 316.494C40.9659 316.182 40.4799 316.026 39.8199 316.026C39.2679 316.026 38.8179 316.146 38.4699 316.386C38.1219 316.626 37.8279 316.932 37.5879 317.304L36.4179 316.242C36.7299 315.714 37.1679 315.282 37.7319 314.946C38.2959 314.598 39.0339 314.424 39.9459 314.424C41.1579 314.424 42.0879 314.706 42.7359 315.27C43.3839 315.834 43.7079 316.644 43.7079 317.7V322.398H44.6979V324H43.5999ZM39.6399 322.722C40.2519 322.722 40.7559 322.59 41.1519 322.326C41.5479 322.05 41.7459 321.684 41.7459 321.228V319.878H40.0899C38.7339 319.878 38.0559 320.298 38.0559 321.138V321.462C38.0559 321.882 38.1939 322.2 38.4699 322.416C38.7579 322.62 39.1479 322.722 39.6399 322.722ZM46.6208 314.64H54.3068V324H52.3448V316.242H48.5828V324H46.6208V314.64ZM60.8589 324.216C60.1869 324.216 59.5869 324.108 59.0589 323.892C58.5309 323.664 58.0809 323.31 57.7089 322.83C57.3369 322.35 57.0489 321.744 56.8449 321.012C56.6529 320.268 56.5569 319.374 56.5569 318.33C56.5569 317.058 56.6469 315.966 56.8269 315.054C57.0189 314.13 57.3129 313.368 57.7089 312.768C58.1169 312.156 58.6269 311.688 59.2389 311.364C59.8629 311.04 60.6069 310.842 61.4709 310.77L64.4589 310.5V312.426L61.3629 312.714C60.8709 312.762 60.4569 312.858 60.1209 313.002C59.7969 313.146 59.5269 313.368 59.3109 313.668C59.1069 313.956 58.9509 314.346 58.8429 314.838C58.7349 315.318 58.6569 315.918 58.6089 316.638H58.6989C58.9389 316.014 59.2629 315.546 59.6709 315.234C60.0909 314.922 60.6549 314.766 61.3629 314.766C61.9149 314.766 62.4189 314.874 62.8749 315.09C63.3429 315.294 63.7449 315.594 64.0809 315.99C64.4169 316.386 64.6749 316.872 64.8549 317.448C65.0469 318.012 65.1429 318.66 65.1429 319.392C65.1429 320.124 65.0409 320.79 64.8369 321.39C64.6329 321.978 64.3449 322.482 63.9729 322.902C63.6009 323.322 63.1509 323.646 62.6229 323.874C62.0949 324.102 61.5069 324.216 60.8589 324.216ZM60.8589 322.596C61.5429 322.596 62.0829 322.386 62.4789 321.966C62.8749 321.534 63.0729 320.904 63.0729 320.076V318.906C63.0729 318.078 62.8749 317.454 62.4789 317.034C62.0829 316.602 61.5429 316.386 60.8589 316.386C60.1389 316.386 59.5869 316.578 59.2029 316.962C58.8309 317.346 58.6449 317.862 58.6449 318.51V320.076C58.6449 320.904 58.8429 321.534 59.2389 321.966C59.6349 322.386 60.1749 322.596 60.8589 322.596ZM72.9644 314.64H74.8544L70.9124 325.854C70.8044 326.166 70.6784 326.43 70.5344 326.646C70.4024 326.874 70.2404 327.054 70.0484 327.186C69.8684 327.33 69.6464 327.432 69.3824 327.492C69.1184 327.564 68.8064 327.6 68.4464 327.6H67.3124V325.998H68.8964L69.4364 324.414L66.0344 314.64H67.9964L69.8684 320.148L70.4084 322.182H70.4984L71.0924 320.148L72.9644 314.64ZM76.4685 314.64H78.4305V318.42H80.0865L81.6345 315.81C81.8985 315.366 82.1625 315.06 82.4265 314.892C82.6905 314.724 83.0265 314.64 83.4345 314.64H84.3885V316.242H83.3445L82.1565 318.222C81.9765 318.534 81.8145 318.75 81.6705 318.87C81.5385 318.99 81.3585 319.08 81.1305 319.14V319.212C81.3705 319.26 81.5805 319.35 81.7605 319.482C81.9405 319.602 82.1145 319.818 82.2825 320.13L83.5425 322.398H84.5685V324H83.4525C83.0565 324 82.7145 323.91 82.4265 323.73C82.1505 323.55 81.8865 323.232 81.6345 322.776L80.0865 320.004H78.4305V324H76.4685V314.64ZM86.6989 314.64H88.6249V319.212L88.4449 321.426H88.5169L89.6329 319.428L92.8729 314.64H94.6549V324H92.7289V319.428L92.9089 317.214H92.8369L91.7209 319.212L88.4809 324H86.6989V314.64ZM97.4567 314.64H99.4187V318.402H103.451V314.64H105.413V324H103.451V320.004H99.4187V324H97.4567V314.64ZM108.215 314.64H114.317V316.242H110.177V324H108.215V314.64Z" fill="black"/>
<path d="M41.4644 569.216C40.7924 569.216 40.1924 569.102 39.6644 568.874C39.1364 568.646 38.6924 568.322 38.3324 567.902C37.9724 567.47 37.6964 566.954 37.5044 566.354C37.3124 565.742 37.2164 565.064 37.2164 564.32C37.2164 563.576 37.3124 562.904 37.5044 562.304C37.6964 561.692 37.9724 561.176 38.3324 560.756C38.6924 560.324 39.1364 559.994 39.6644 559.766C40.1924 559.538 40.7924 559.424 41.4644 559.424C42.4004 559.424 43.1684 559.634 43.7684 560.054C44.3684 560.474 44.8064 561.032 45.0824 561.728L43.4624 562.484C43.3304 562.052 43.0964 561.71 42.7604 561.458C42.4364 561.194 42.0044 561.062 41.4644 561.062C40.7444 561.062 40.1984 561.29 39.8264 561.746C39.4664 562.19 39.2864 562.772 39.2864 563.492V565.166C39.2864 565.886 39.4664 566.474 39.8264 566.93C40.1984 567.374 40.7444 567.596 41.4644 567.596C42.0404 567.596 42.4964 567.458 42.8324 567.182C43.1804 566.894 43.4564 566.516 43.6604 566.048L45.1544 566.84C44.8424 567.608 44.3744 568.196 43.7504 568.604C43.1264 569.012 42.3644 569.216 41.4644 569.216ZM47.0222 559.64H52.0082C52.8122 559.64 53.4302 559.856 53.8622 560.288C54.3062 560.72 54.5282 561.296 54.5282 562.016C54.5282 563.192 53.8982 563.858 52.6382 564.014V564.104C53.3942 564.164 53.9522 564.386 54.3122 564.77C54.6842 565.142 54.8702 565.634 54.8702 566.246C54.8702 566.642 54.8042 567.008 54.6722 567.344C54.5522 567.68 54.3722 567.974 54.1322 568.226C53.9042 568.466 53.6222 568.658 53.2862 568.802C52.9502 568.934 52.5722 569 52.1522 569H47.0222V559.64ZM51.7022 567.506C52.0502 567.506 52.3262 567.416 52.5302 567.236C52.7342 567.056 52.8362 566.792 52.8362 566.444V565.958C52.8362 565.61 52.7342 565.346 52.5302 565.166C52.3262 564.974 52.0502 564.878 51.7022 564.878H48.9482V567.506H51.7022ZM51.4502 563.528C51.7862 563.528 52.0442 563.444 52.2242 563.276C52.4042 563.108 52.4942 562.868 52.4942 562.556V562.106C52.4942 561.794 52.4042 561.554 52.2242 561.386C52.0442 561.218 51.7862 561.134 51.4502 561.134H48.9482V563.528H51.4502ZM60.8895 569.216C60.2175 569.216 59.6175 569.102 59.0895 568.874C58.5615 568.646 58.1115 568.322 57.7395 567.902C57.3675 567.47 57.0795 566.954 56.8755 566.354C56.6835 565.742 56.5875 565.064 56.5875 564.32C56.5875 563.576 56.6835 562.904 56.8755 562.304C57.0795 561.692 57.3675 561.176 57.7395 560.756C58.1115 560.324 58.5615 559.994 59.0895 559.766C59.6175 559.538 60.2175 559.424 60.8895 559.424C61.5735 559.424 62.1735 559.544 62.6895 559.784C63.2175 560.024 63.6555 560.36 64.0035 560.792C64.3515 561.212 64.6095 561.704 64.7775 562.268C64.9575 562.832 65.0475 563.438 65.0475 564.086V564.824H58.6215V565.13C58.6215 565.85 58.8315 566.444 59.2515 566.912C59.6835 567.368 60.2955 567.596 61.0875 567.596C61.6635 567.596 62.1495 567.47 62.5455 567.218C62.9415 566.966 63.2775 566.624 63.5535 566.192L64.7055 567.326C64.3575 567.902 63.8535 568.364 63.1935 568.712C62.5335 569.048 61.7655 569.216 60.8895 569.216ZM60.8895 560.954C60.5535 560.954 60.2415 561.014 59.9535 561.134C59.6775 561.254 59.4375 561.422 59.2335 561.638C59.0415 561.854 58.8915 562.112 58.7835 562.412C58.6755 562.712 58.6215 563.042 58.6215 563.402V563.528H62.9775V563.348C62.9775 562.628 62.7915 562.052 62.4195 561.62C62.0475 561.176 61.5375 560.954 60.8895 560.954ZM72.4394 564.842H72.3494C72.0854 565.19 71.7494 565.472 71.3414 565.688C70.9334 565.904 70.3994 566.012 69.7394 566.012C68.7434 566.012 67.9874 565.76 67.4714 565.256C66.9674 564.752 66.7154 563.978 66.7154 562.934V559.64H68.6774V562.808C68.6774 563.336 68.8154 563.726 69.0914 563.978C69.3674 564.218 69.8114 564.338 70.4234 564.338C71.0354 564.338 71.5214 564.248 71.8814 564.068C72.2534 563.888 72.4394 563.63 72.4394 563.294V559.64H74.4014V569H72.4394V564.842ZM77.2038 559.64H79.1298V564.212L78.9498 566.426H79.0218L80.1378 564.428L83.3778 559.64H85.1598V569H83.2338V564.428L83.4138 562.214H83.3418L82.2258 564.212L78.9858 569H77.2038V559.64Z" fill="black"/>
<path d="M26.0048 774.398H27.1388C27.4868 773.858 27.7568 773.18 27.9488 772.364C28.1528 771.536 28.2548 770.522 28.2548 769.322V766.64H35.0948V774.398H36.6788V778.52H34.8968V776H27.7868V778.52H26.0048V774.398ZM33.1328 774.398V768.242H30.1268V769.43C30.1268 770.69 30.0368 771.722 29.8568 772.526C29.6768 773.318 29.4668 773.942 29.2268 774.398H33.1328ZM44.0806 766.64H45.9706L42.0286 777.854C41.9206 778.166 41.7946 778.43 41.6506 778.646C41.5186 778.874 41.3566 779.054 41.1646 779.186C40.9846 779.33 40.7626 779.432 40.4986 779.492C40.2346 779.564 39.9226 779.6 39.5626 779.6H38.4286V777.998H40.0126L40.5526 776.414L37.1506 766.64H39.1126L40.9846 772.148L41.5246 774.182H41.6146L42.2086 772.148L44.0806 766.64ZM45.9911 774.398H47.1251C47.4731 773.858 47.7431 773.18 47.9351 772.364C48.1391 771.536 48.2411 770.522 48.2411 769.322V766.64H55.0811V774.398H56.6651V778.52H54.8831V776H47.7731V778.52H45.9911V774.398ZM53.1191 774.398V768.242H50.1131V769.43C50.1131 770.69 50.0231 771.722 49.8431 772.526C49.6631 773.318 49.4531 773.942 49.2131 774.398H53.1191ZM57.4001 774.398H58.6241C58.7681 774.206 58.8941 773.978 59.0021 773.714C59.1101 773.438 59.2001 773.102 59.2721 772.706C59.3441 772.31 59.3981 771.848 59.4341 771.32C59.4821 770.78 59.5061 770.15 59.5061 769.43V766.64H66.3101V776H64.3481V768.242H61.3961V769.52C61.3961 770.384 61.3601 771.14 61.2881 771.788C61.2281 772.436 61.1381 772.994 61.0181 773.462C60.9101 773.93 60.7721 774.32 60.6041 774.632C60.4481 774.932 60.2801 775.172 60.1001 775.352C59.8481 775.604 59.5601 775.784 59.2361 775.892C58.9121 776 58.5221 776.054 58.0661 776.054H57.4001V774.398ZM69.1354 766.64H71.0614V771.212L70.8814 773.426H70.9534L72.0694 771.428L75.3094 766.64H77.0914V776H75.1654V771.428L75.3454 769.214H75.2734L74.1574 771.212L70.9174 776H69.1354V766.64ZM79.8933 766.64H81.8553V770.402H85.8873V766.64H87.8493V776H85.8873V772.004H81.8553V776H79.8933V766.64ZM90.6511 766.64H96.7531V768.242H92.6131V776H90.6511V766.64Z" fill="black"/>
<path d="M29.1268 469H11C13.231 505.136 107.769 504.864 110 469H91.8732C91.8732 469 86.8535 479.596 60.0817 479.596C33.3099 479.596 29.1268 469 29.1268 469Z" fill="black"/>
<path d="M29.1268 428H11C13.231 465.474 107.769 465.192 110 428H91.8732C91.8732 428 86.8535 438.989 60.0817 438.989C33.3099 438.989 29.1268 428 29.1268 428Z" fill="black"/>
<path d="M30.1268 674H12C14.231 712.812 108.769 712.521 111 674H92.8732C92.8732 674 87.8535 685.381 61.0817 685.381C34.3099 685.381 30.1268 674 30.1268 674Z" fill="black"/>
<path d="M29.1268 1061H11C13.231 1099.81 107.769 1099.52 110 1061H91.8732C91.8732 1061 86.8535 1072.38 60.0817 1072.38C33.3099 1072.38 29.1268 1061 29.1268 1061Z" fill="black"/>
<path d="M29.1268 388H11C13.231 425.474 107.769 425.192 110 388H91.8732C91.8732 388 86.8535 398.989 60.0817 398.989C33.3099 398.989 29.1268 388 29.1268 388Z" fill="black"/>
<path d="M30.1268 634H12C14.231 672.812 108.769 672.521 111 634H92.8732C92.8732 634 87.8535 645.381 61.0817 645.381C34.3099 645.381 30.1268 634 30.1268 634Z" fill="black"/>
<path d="M29.1268 1021H11C13.231 1059.81 107.769 1059.52 110 1021H91.8732C91.8732 1021 86.8535 1032.38 60.0817 1032.38C33.3099 1032.38 29.1268 1021 29.1268 1021Z" fill="black"/>
<path d="M29.1268 67H11C13.231 29.526 107.769 29.8076 110 67H91.8732C91.8732 67 86.8535 56.0112 60.0817 56.0112C33.3099 56.0112 29.1268 67 29.1268 67Z" fill="black"/>
<path d="M28.1268 350H10C12.231 386.136 106.769 385.864 109 350H90.8732C90.8732 350 85.8535 360.596 59.0817 360.596C32.3099 360.596 28.1268 350 28.1268 350Z" fill="black"/>
<path d="M30.1268 596H12C14.231 632.136 108.769 631.864 111 596H92.8732C92.8732 596 87.8535 606.596 61.0817 606.596C34.3099 606.596 30.1268 596 30.1268 596Z" fill="black"/>
<path d="M30.1268 803H12C14.231 839.136 108.769 838.864 111 803H92.8732C92.8732 803 87.8535 813.596 61.0817 813.596C34.3099 813.596 30.1268 803 30.1268 803Z" fill="black"/>
<path d="M29.1268 106H11C13.231 71.2027 107.769 71.4642 110 106H91.8732C91.8732 106 86.8535 95.7961 60.0817 95.7961C33.3099 95.7961 29.1268 106 29.1268 106Z" fill="black"/>
<path d="M29.8875 867H11.7607C13.9917 832.203 108.53 832.464 110.761 867H92.634C92.634 867 87.6143 856.796 60.8424 856.796C34.0706 856.796 29.8875 867 29.8875 867Z" fill="black"/>
<path d="M28.1268 288H10C12.231 250.526 106.769 250.808 109 288H90.8732C90.8732 288 85.8535 277.011 59.0817 277.011C32.3099 277.011 28.1268 288 28.1268 288Z" fill="black"/>
<path d="M30.1268 535H12C14.231 497.526 108.769 497.808 111 535H92.8732C92.8732 535 87.8535 524.011 61.0817 524.011C34.3099 524.011 30.1268 535 30.1268 535Z" fill="black"/>
<path d="M30.1268 742H12C14.231 704.526 108.769 704.808 111 742H92.8732C92.8732 742 87.8535 731.011 61.0817 731.011C34.3099 731.011 30.1268 742 30.1268 742Z" fill="black"/>
<path d="M29.1268 220H11C13.231 258.812 107.769 258.521 110 220H91.8732C91.8732 220 86.8535 231.381 60.0817 231.381C33.3099 231.381 29.1268 220 29.1268 220Z" fill="black"/>
<path d="M29.8875 981H11.7607C13.9917 1019.81 108.53 1019.52 110.761 981H92.634C92.634 981 87.6143 992.381 60.8424 992.381C34.0706 992.381 29.8875 981 29.8875 981Z" fill="black"/>
<path d="M29.1268 27H11C13.231 -9.13562 107.769 -8.86413 110 27H91.8732C91.8732 27 86.8535 16.4036 60.0817 16.4036C33.3099 16.4036 29.1268 27 29.1268 27Z" fill="black"/>
<path d="M61.4855 107.705H59.4805V144.592H61.4855V107.705Z" fill="#5EB6CA"/>
<path d="M62.6289 106.562H58.3315V145.735H62.6289V106.562Z" fill="#5EB6CA"/>
<path d="M100.136 124.535L98.7173 123.117L72.6458 149.211L74.0642 150.628L100.136 124.535Z" fill="#5EB6CA"/>
<path d="M98.7093 121.501L71.0215 149.212L74.0614 152.25L101.749 124.538L98.7093 121.501Z" fill="#5EB6CA"/>
<path d="M115.579 163.76L115.577 161.755L78.6905 161.783L78.692 163.788L115.579 163.76Z" fill="#5EB6CA"/>
<path d="M116.716 160.627H77.5425V164.924H116.716V160.627Z" fill="#5EB6CA"/>
<path d="M98.7762 202.42L100.192 201.001L74.0803 174.947L72.6641 176.367L98.7762 202.42Z" fill="#5EB6CA"/>
<path d="M74.0806 173.331L71.0454 176.373L98.7763 204.042L101.812 201L74.0806 173.331Z" fill="#5EB6CA"/>
<path d="M59.5633 217.894L61.5684 217.891L61.5119 181.004L59.5069 181.007L59.5633 217.894Z" fill="#5EB6CA"/>
<path d="M62.6597 179.862L58.3623 179.869L58.4224 219.042L62.7198 219.036L62.6597 179.862Z" fill="#5EB6CA"/>
<path d="M20.8895 201.121L22.3101 202.536L48.3447 176.402L46.9241 174.986L20.8895 201.121Z" fill="#5EB6CA"/>
<path d="M46.9123 173.378L19.2637 201.128L22.3079 204.161L49.9566 176.411L46.9123 173.378Z" fill="#5EB6CA"/>
<path d="M5.38749 161.928L5.39209 163.933L42.2788 163.848L42.2742 161.843L5.38749 161.928Z" fill="#5EB6CA"/>
<path d="M43.4127 160.693L4.23926 160.782L4.24898 165.079L43.4224 164.99L43.4127 160.693Z" fill="#5EB6CA"/>
<path d="M22.1244 123.237L20.7104 124.658L46.8631 150.671L48.2771 149.249L22.1244 123.237Z" fill="#5EB6CA"/>
<path d="M22.1238 121.615L19.0933 124.662L46.8672 152.287L49.8978 149.241L22.1238 121.615Z" fill="#5EB6CA"/>
<path d="M60.3642 171.723C65.1384 171.723 69.0086 167.853 69.0086 163.079C69.0086 158.305 65.1384 154.435 60.3642 154.435C55.59 154.435 51.7197 158.305 51.7197 163.079C51.7197 167.853 55.59 171.723 60.3642 171.723Z" fill="#5EB6CA"/>
<path d="M62.2463 868.705H60.2412V905.592H62.2463V868.705Z" fill="white"/>
<path d="M63.3897 867.562H59.0923V906.735H63.3897V867.562Z" fill="white"/>
<path d="M100.896 885.535L99.478 884.117L73.4065 910.211L74.8249 911.628L100.896 885.535Z" fill="white"/>
<path d="M99.47 882.501L71.7822 910.212L74.8222 913.25L102.51 885.538L99.47 882.501Z" fill="white"/>
<path d="M116.339 924.76L116.338 922.755L79.4512 922.783L79.4527 924.788L116.339 924.76Z" fill="white"/>
<path d="M117.477 921.627H78.3032V925.924H117.477V921.627Z" fill="white"/>
<path d="M99.5369 963.42L100.953 962.001L74.841 935.947L73.4249 937.367L99.5369 963.42Z" fill="white"/>
<path d="M74.8414 934.331L71.8062 937.373L99.537 965.042L102.572 962L74.8414 934.331Z" fill="white"/>
<path d="M60.324 978.894L62.3291 978.891L62.2727 942.004L60.2676 942.007L60.324 978.894Z" fill="white"/>
<path d="M63.4204 940.862L59.123 940.869L59.1832 980.042L63.4805 980.036L63.4204 940.862Z" fill="white"/>
<path d="M21.6502 962.121L23.0708 963.536L49.1054 937.402L47.6848 935.986L21.6502 962.121Z" fill="white"/>
<path d="M47.673 934.378L20.0244 962.128L23.0687 965.161L50.7173 937.411L47.673 934.378Z" fill="white"/>
<path d="M6.14823 922.927L6.15283 924.933L43.0395 924.848L43.0349 922.843L6.14823 922.927Z" fill="white"/>
<path d="M44.1735 921.693L5 921.782L5.00972 926.079L44.1832 925.99L44.1735 921.693Z" fill="white"/>
<path d="M22.8852 884.237L21.4712 885.659L47.6239 911.671L49.0378 910.249L22.8852 884.237Z" fill="white"/>
<path d="M22.8845 882.615L19.854 885.662L47.628 913.287L50.6585 910.241L22.8845 882.615Z" fill="white"/>
<path d="M61.1249 932.723C65.8991 932.723 69.7694 928.853 69.7694 924.079C69.7694 919.305 65.8991 915.435 61.1249 915.435C56.3507 915.435 52.4805 919.305 52.4805 924.079C52.4805 928.853 56.3507 932.723 61.1249 932.723Z" fill="white"/>
</svg>
