<svg width="235" height="1325" viewBox="0 0 235 1325" fill="none" xmlns="http://www.w3.org/2000/svg">
<rect x="19" width="197" height="41" fill="black"/>
<rect x="19" y="359" width="197" height="42" fill="black"/>
<rect x="19" y="83" width="197" height="41" fill="black"/>
<rect x="19" y="442" width="197" height="41" fill="black"/>
<rect x="19" y="166" width="197" height="42" fill="black"/>
<rect x="19" y="525" width="197" height="42" fill="black"/>
<rect x="19" y="609" width="197" height="41" fill="black"/>
<rect x="19" y="808" width="197" height="41" fill="black"/>
<rect x="19" y="1200" width="197" height="42" fill="black"/>
<rect x="19" y="891" width="197" height="41" fill="black"/>
<rect x="19" y="1284" width="197" height="41" fill="black"/>
<path d="M119.589 950.879H115.4V1027.94H119.589V950.879Z" fill="white"/>
<path d="M121.977 948.49H113V1030.32H121.977V948.49Z" fill="white"/>
<path d="M200.33 986.037L197.367 983.077L142.902 1037.59L145.866 1040.55L200.33 986.037Z" fill="white"/>
<path d="M197.351 979.699L139.51 1037.59L145.861 1043.93L203.701 986.044L197.351 979.699Z" fill="white"/>
<path d="M232.591 1067.98L232.588 1063.79L155.53 1063.85L155.534 1068.04L232.591 1067.98Z" fill="white"/>
<path d="M234.967 1061.43H153.132V1070.41H234.967V1061.43Z" fill="white"/>
<path d="M197.49 1148.74L200.448 1145.78L145.899 1091.35L142.941 1094.32L197.49 1148.74Z" fill="white"/>
<path d="M145.9 1087.98L139.56 1094.33L197.49 1152.13L203.831 1145.77L145.9 1087.98Z" fill="white"/>
<path d="M115.573 1181.07L119.762 1181.06L119.644 1104L115.455 1104.01L115.573 1181.07Z" fill="white"/>
<path d="M122.041 1101.62L113.064 1101.63L113.189 1183.47L122.167 1183.45L122.041 1101.62Z" fill="white"/>
<path d="M34.782 1146.03L37.7496 1148.98L92.1367 1094.39L89.169 1091.43L34.782 1146.03Z" fill="white"/>
<path d="M89.1447 1088.07L31.386 1146.04L37.7455 1152.38L95.5043 1094.41L89.1447 1088.07Z" fill="white"/>
<path d="M2.39847 1064.15L2.40808 1068.34L79.4654 1068.16L79.4558 1063.97L2.39847 1064.15Z" fill="white"/>
<path d="M81.8344 1061.57L0 1061.76L0.0203128 1070.73L81.8548 1070.55L81.8344 1061.57Z" fill="white"/>
<path d="M37.3631 983.326L34.4093 986.296L89.0429 1040.64L91.9968 1037.67L37.3631 983.326Z" fill="white"/>
<path d="M37.3621 979.939L31.0312 986.304L89.0519 1044.01L95.3827 1037.65L37.3621 979.939Z" fill="white"/>
<path d="M117.246 1084.62C127.22 1084.62 135.305 1076.53 135.305 1066.56C135.305 1056.58 127.22 1048.5 117.246 1048.5C107.273 1048.5 99.1876 1056.58 99.1876 1066.56C99.1876 1076.53 107.273 1084.62 117.246 1084.62Z" fill="white"/>
</svg>
