<svg width="235" height="1034" viewBox="0 0 235 1034" fill="none" xmlns="http://www.w3.org/2000/svg">
<path d="M77.4288 378.432C76.0848 378.432 74.8848 378.204 73.8288 377.748C72.7728 377.292 71.8848 376.644 71.1648 375.804C70.4448 374.94 69.8928 373.908 69.5088 372.708C69.1248 371.484 68.9328 370.128 68.9328 368.64C68.9328 367.152 69.1248 365.808 69.5088 364.608C69.8928 363.384 70.4448 362.352 71.1648 361.512C71.8848 360.648 72.7728 359.988 73.8288 359.532C74.8848 359.076 76.0848 358.848 77.4288 358.848C79.3008 358.848 80.8368 359.268 82.0368 360.108C83.2368 360.948 84.1128 362.064 84.6648 363.456L81.4248 364.968C81.1608 364.104 80.6928 363.42 80.0208 362.916C79.3728 362.388 78.5088 362.124 77.4288 362.124C75.9888 362.124 74.8968 362.58 74.1528 363.492C73.4328 364.38 73.0728 365.544 73.0728 366.984V370.332C73.0728 371.772 73.4328 372.948 74.1528 373.86C74.8968 374.748 75.9888 375.192 77.4288 375.192C78.5808 375.192 79.4928 374.916 80.1648 374.364C80.8608 373.788 81.4128 373.032 81.8208 372.096L84.8088 373.68C84.1848 375.216 83.2488 376.392 82.0008 377.208C80.7528 378.024 79.2288 378.432 77.4288 378.432ZM88.5443 359.28H98.5163C100.124 359.28 101.36 359.712 102.224 360.576C103.112 361.44 103.556 362.592 103.556 364.032C103.556 366.384 102.296 367.716 99.7763 368.028V368.208C101.288 368.328 102.404 368.772 103.124 369.54C103.868 370.284 104.24 371.268 104.24 372.492C104.24 373.284 104.108 374.016 103.844 374.688C103.604 375.36 103.244 375.948 102.764 376.452C102.308 376.932 101.744 377.316 101.072 377.604C100.4 377.868 99.6443 378 98.8043 378H88.5443V359.28ZM97.9043 375.012C98.6003 375.012 99.1523 374.832 99.5603 374.472C99.9683 374.112 100.172 373.584 100.172 372.888V371.916C100.172 371.22 99.9683 370.692 99.5603 370.332C99.1523 369.948 98.6003 369.756 97.9043 369.756H92.3963V375.012H97.9043ZM97.4003 367.056C98.0723 367.056 98.5883 366.888 98.9483 366.552C99.3083 366.216 99.4883 365.736 99.4883 365.112V364.212C99.4883 363.588 99.3083 363.108 98.9483 362.772C98.5883 362.436 98.0723 362.268 97.4003 362.268H92.3963V367.056H97.4003ZM116.279 378.432C114.935 378.432 113.735 378.204 112.679 377.748C111.623 377.292 110.723 376.644 109.979 375.804C109.235 374.94 108.659 373.908 108.251 372.708C107.867 371.484 107.675 370.128 107.675 368.64C107.675 367.152 107.867 365.808 108.251 364.608C108.659 363.384 109.235 362.352 109.979 361.512C110.723 360.648 111.623 359.988 112.679 359.532C113.735 359.076 114.935 358.848 116.279 358.848C117.647 358.848 118.847 359.088 119.879 359.568C120.935 360.048 121.811 360.72 122.507 361.584C123.203 362.424 123.719 363.408 124.055 364.536C124.415 365.664 124.595 366.876 124.595 368.172V369.648H111.743V370.26C111.743 371.7 112.163 372.888 113.003 373.824C113.867 374.736 115.091 375.192 116.675 375.192C117.827 375.192 118.799 374.94 119.591 374.436C120.383 373.932 121.055 373.248 121.607 372.384L123.911 374.652C123.215 375.804 122.207 376.728 120.887 377.424C119.567 378.096 118.031 378.432 116.279 378.432ZM116.279 361.908C115.607 361.908 114.983 362.028 114.407 362.268C113.855 362.508 113.375 362.844 112.967 363.276C112.583 363.708 112.283 364.224 112.067 364.824C111.851 365.424 111.743 366.084 111.743 366.804V367.056H120.455V366.696C120.455 365.256 120.083 364.104 119.339 363.24C118.595 362.352 117.575 361.908 116.279 361.908ZM139.379 369.684H139.199C138.671 370.38 137.999 370.944 137.183 371.376C136.367 371.808 135.299 372.024 133.979 372.024C131.987 372.024 130.475 371.52 129.443 370.512C128.435 369.504 127.931 367.956 127.931 365.868V359.28H131.855V365.616C131.855 366.672 132.131 367.452 132.683 367.956C133.235 368.436 134.123 368.676 135.347 368.676C136.571 368.676 137.543 368.496 138.263 368.136C139.007 367.776 139.379 367.26 139.379 366.588V359.28H143.303V378H139.379V369.684ZM148.908 359.28H152.76V368.424L152.4 372.852H152.544L154.776 368.856L161.256 359.28H164.82V378H160.968V368.856L161.328 364.428H161.184L158.952 368.424L152.472 378H148.908V359.28Z" fill="black"/>
<path d="M52.5352 58H15C19.6197 -19.6247 215.38 -19.0415 220 58H182.465C182.465 58 172.07 35.2375 116.634 35.2375C61.1972 35.2375 52.5352 58 52.5352 58Z" fill="black"/>
<path d="M52.5352 141H15C19.6197 63.3753 215.38 63.9585 220 141H182.465C182.465 141 172.07 118.237 116.634 118.237C61.1972 118.237 52.5352 141 52.5352 141Z" fill="black"/>
<path d="M52.5352 977H15C19.6197 1053.29 215.38 1052.71 220 977H182.465C182.465 977 172.07 999.37 116.634 999.37C61.1972 999.37 52.5352 977 52.5352 977Z" fill="black"/>
<path d="M52.5352 222H15C19.6197 147.052 215.38 147.615 220 222H182.465C182.465 222 172.07 200.022 116.634 200.022C61.1972 200.022 52.5352 222 52.5352 222Z" fill="black"/>
<path d="M52.5352 894H15C19.6197 970.286 215.38 969.713 220 894H182.465C182.465 894 172.07 916.37 116.634 916.37C61.1972 916.37 52.5352 894 52.5352 894Z" fill="black"/>
<path d="M52.5352 305H15C19.6197 230.052 215.38 230.615 220 305H182.465C182.465 305 172.07 283.022 116.634 283.022C61.1972 283.022 52.5352 305 52.5352 305Z" fill="black"/>
<path d="M52.5352 811H15C19.6197 888.625 215.38 888.041 220 811H182.465C182.465 811 172.07 833.763 116.634 833.763C61.1972 833.763 52.5352 811 52.5352 811Z" fill="black"/>
<path d="M52.5352 432H15C19.6197 509.625 215.38 509.041 220 432H182.465C182.465 432 172.07 454.763 116.634 454.763C61.1972 454.763 52.5352 432 52.5352 432Z" fill="black"/>
<path d="M52.5352 574H15C19.6197 495.037 215.38 495.63 220 574H182.465C182.465 574 172.07 550.845 116.634 550.845C61.1972 550.845 52.5352 574 52.5352 574Z" fill="black"/>
<path d="M119.589 577.17H115.4V654.227H119.589V577.17Z" fill="#FFD101"/>
<path d="M121.977 574.781H113V656.616H121.977V574.781Z" fill="#FFD101"/>
<path d="M200.33 612.328L197.367 609.368L142.903 663.878L145.866 666.839L200.33 612.328Z" fill="#FFD101"/>
<path d="M197.351 605.99L139.51 663.879L145.861 670.225L203.701 612.335L197.351 605.99Z" fill="#FFD101"/>
<path d="M232.591 694.27L232.587 690.082L155.53 690.141L155.533 694.329L232.591 694.27Z" fill="#FFD101"/>
<path d="M234.967 687.725H153.132V696.702H234.967V687.725Z" fill="#FFD101"/>
<path d="M197.49 775.033L200.448 772.067L145.9 717.642L142.941 720.607L197.49 775.033Z" fill="#FFD101"/>
<path d="M145.901 714.266L139.56 720.621L197.491 778.421L203.831 772.065L145.901 714.266Z" fill="#FFD101"/>
<path d="M115.573 807.357L119.762 807.351L119.644 730.294L115.455 730.3L115.573 807.357Z" fill="#FFD101"/>
<path d="M122.041 727.908L113.064 727.922L113.19 809.757L122.167 809.743L122.041 727.908Z" fill="#FFD101"/>
<path d="M34.7816 772.319L37.7493 775.275L92.1363 720.68L89.1687 717.723L34.7816 772.319Z" fill="#FFD101"/>
<path d="M89.1442 714.364L31.3855 772.335L37.745 778.672L95.5038 720.7L89.1442 714.364Z" fill="#FFD101"/>
<path d="M2.39859 690.441L2.4082 694.63L79.4655 694.453L79.4559 690.265L2.39859 690.441Z" fill="#FFD101"/>
<path d="M81.8344 687.863L0 688.048L0.0203128 697.025L81.8548 696.84L81.8344 687.863Z" fill="#FFD101"/>
<path d="M37.3628 609.617L34.4089 612.587L89.0426 666.927L91.9964 663.958L37.3628 609.617Z" fill="#FFD101"/>
<path d="M37.3616 606.23L31.0308 612.595L89.0514 670.305L95.3822 663.94L37.3616 606.23Z" fill="#FFD101"/>
<path d="M117.246 710.907C127.219 710.907 135.305 702.822 135.305 692.848C135.305 682.875 127.219 674.79 117.246 674.79C107.273 674.79 99.1875 682.875 99.1875 692.848C99.1875 702.822 107.273 710.907 117.246 710.907Z" fill="#FFD101"/>
</svg>
