<svg width="235" height="1324" viewBox="0 0 235 1324" fill="none" xmlns="http://www.w3.org/2000/svg">
<path d="M50.2064 587.28H54.1304V590.376H54.3104C54.7184 589.248 55.3784 588.384 56.2904 587.784C57.2264 587.16 58.3184 586.848 59.5664 586.848C61.9424 586.848 63.7784 587.712 65.0744 589.44C66.3704 591.144 67.0184 593.544 67.0184 596.64C67.0184 599.736 66.3704 602.148 65.0744 603.876C63.7784 605.58 61.9424 606.432 59.5664 606.432C58.3184 606.432 57.2264 606.12 56.2904 605.496C55.3784 604.872 54.7184 604.008 54.3104 602.904H54.1304V613.2H50.2064V587.28ZM58.3784 603.048C59.7464 603.048 60.8384 602.616 61.6544 601.752C62.4704 600.864 62.8784 599.7 62.8784 598.26V595.02C62.8784 593.58 62.4704 592.428 61.6544 591.564C60.8384 590.676 59.7464 590.232 58.3784 590.232C57.1784 590.232 56.1704 590.532 55.3544 591.132C54.5384 591.708 54.1304 592.476 54.1304 593.436V599.844C54.1304 600.804 54.5384 601.584 55.3544 602.184C56.1704 602.76 57.1784 603.048 58.3784 603.048ZM78.8551 606.432C77.5591 606.432 76.3711 606.204 75.2911 605.748C74.2351 605.292 73.3351 604.644 72.5911 603.804C71.8471 602.94 71.2711 601.908 70.8631 600.708C70.4551 599.484 70.2511 598.128 70.2511 596.64C70.2511 595.152 70.4551 593.808 70.8631 592.608C71.2711 591.384 71.8471 590.352 72.5911 589.512C73.3351 588.648 74.2351 587.988 75.2911 587.532C76.3711 587.076 77.5591 586.848 78.8551 586.848C80.1511 586.848 81.3271 587.076 82.3831 587.532C83.4631 587.988 84.3751 588.648 85.1191 589.512C85.8631 590.352 86.4391 591.384 86.8471 592.608C87.2551 593.808 87.4591 595.152 87.4591 596.64C87.4591 598.128 87.2551 599.484 86.8471 600.708C86.4391 601.908 85.8631 602.94 85.1191 603.804C84.3751 604.644 83.4631 605.292 82.3831 605.748C81.3271 606.204 80.1511 606.432 78.8551 606.432ZM78.8551 603.192C80.1991 603.192 81.2791 602.784 82.0951 601.968C82.9111 601.128 83.3191 599.88 83.3191 598.224V595.056C83.3191 593.4 82.9111 592.164 82.0951 591.348C81.2791 590.508 80.1991 590.088 78.8551 590.088C77.5111 590.088 76.4311 590.508 75.6151 591.348C74.7991 592.164 74.3911 593.4 74.3911 595.056V598.224C74.3911 599.88 74.7991 601.128 75.6151 601.968C76.4311 602.784 77.5111 603.192 78.8551 603.192ZM99.0674 606.432C97.7234 606.432 96.5234 606.204 95.4674 605.748C94.4114 605.292 93.5234 604.644 92.8034 603.804C92.0834 602.94 91.5314 601.908 91.1474 600.708C90.7634 599.484 90.5714 598.128 90.5714 596.64C90.5714 595.152 90.7634 593.808 91.1474 592.608C91.5314 591.384 92.0834 590.352 92.8034 589.512C93.5234 588.648 94.4114 587.988 95.4674 587.532C96.5234 587.076 97.7234 586.848 99.0674 586.848C100.939 586.848 102.475 587.268 103.675 588.108C104.875 588.948 105.751 590.064 106.303 591.456L103.063 592.968C102.799 592.104 102.331 591.42 101.659 590.916C101.011 590.388 100.147 590.124 99.0674 590.124C97.6274 590.124 96.5354 590.58 95.7914 591.492C95.0714 592.38 94.7114 593.544 94.7114 594.984V598.332C94.7114 599.772 95.0714 600.948 95.7914 601.86C96.5354 602.748 97.6274 603.192 99.0674 603.192C100.219 603.192 101.131 602.916 101.803 602.364C102.499 601.788 103.051 601.032 103.459 600.096L106.447 601.68C105.823 603.216 104.887 604.392 103.639 605.208C102.391 606.024 100.867 606.432 99.0674 606.432ZM110.183 587.28H125.555V606H121.631V590.484H114.107V606H110.183V587.28ZM131.171 587.28H135.023V596.424L134.663 600.852H134.807L137.039 596.856L143.519 587.28H147.083V606H143.231V596.856L143.591 592.428H143.447L141.215 596.424L134.735 606H131.171V587.28ZM159.923 606.432C158.579 606.432 157.379 606.204 156.323 605.748C155.267 605.292 154.379 604.644 153.659 603.804C152.939 602.94 152.387 601.908 152.003 600.708C151.619 599.484 151.427 598.128 151.427 596.64C151.427 595.152 151.619 593.808 152.003 592.608C152.387 591.384 152.939 590.352 153.659 589.512C154.379 588.648 155.267 587.988 156.323 587.532C157.379 587.076 158.579 586.848 159.923 586.848C161.795 586.848 163.331 587.268 164.531 588.108C165.731 588.948 166.607 590.064 167.159 591.456L163.919 592.968C163.655 592.104 163.187 591.42 162.515 590.916C161.867 590.388 161.003 590.124 159.923 590.124C158.483 590.124 157.391 590.58 156.647 591.492C155.927 592.38 155.567 593.544 155.567 594.984V598.332C155.567 599.772 155.927 600.948 156.647 601.86C157.391 602.748 158.483 603.192 159.923 603.192C161.075 603.192 161.987 602.916 162.659 602.364C163.355 601.788 163.907 601.032 164.315 600.096L167.303 601.68C166.679 603.216 165.743 604.392 164.495 605.208C163.247 606.024 161.723 606.432 159.923 606.432ZM171.038 587.28H174.962V593.544H180.11C181.982 593.544 183.494 594.096 184.646 595.2C185.822 596.28 186.41 597.804 186.41 599.772C186.41 601.764 185.834 603.3 184.682 604.38C183.53 605.46 182.018 606 180.146 606H171.038V587.28ZM179.39 602.94C180.302 602.94 181.022 602.748 181.55 602.364C182.078 601.956 182.342 601.332 182.342 600.492V599.016C182.342 598.176 182.078 597.564 181.55 597.18C181.022 596.796 180.302 596.604 179.39 596.604H174.962V602.94H179.39Z" fill="black"/>
<path d="M39.4486 1031.28H54.8206V1050H50.8966V1034.48H43.3726V1050H39.4486V1031.28ZM58.0249 1046.8H60.4729C60.7609 1046.41 61.0129 1045.96 61.2289 1045.43C61.4449 1044.88 61.6249 1044.2 61.7689 1043.41C61.9129 1042.62 62.0209 1041.7 62.0929 1040.64C62.1889 1039.56 62.2369 1038.3 62.2369 1036.86V1031.28H75.8449V1050H71.9209V1034.48H66.0169V1037.04C66.0169 1038.77 65.9449 1040.28 65.8009 1041.58C65.6809 1042.87 65.5009 1043.99 65.2609 1044.92C65.0449 1045.86 64.7689 1046.64 64.4329 1047.26C64.1209 1047.86 63.7849 1048.34 63.4249 1048.7C62.9209 1049.21 62.3449 1049.57 61.6969 1049.78C61.0489 1050 60.2689 1050.11 59.3569 1050.11H58.0249V1046.8ZM88.8395 1050.43C87.4955 1050.43 86.2955 1050.2 85.2395 1049.75C84.1835 1049.29 83.2835 1048.64 82.5395 1047.8C81.7955 1046.94 81.2195 1045.91 80.8115 1044.71C80.4275 1043.48 80.2355 1042.13 80.2355 1040.64C80.2355 1039.15 80.4275 1037.81 80.8115 1036.61C81.2195 1035.38 81.7955 1034.35 82.5395 1033.51C83.2835 1032.65 84.1835 1031.99 85.2395 1031.53C86.2955 1031.08 87.4955 1030.85 88.8395 1030.85C90.2075 1030.85 91.4075 1031.09 92.4395 1031.57C93.4955 1032.05 94.3715 1032.72 95.0675 1033.58C95.7635 1034.42 96.2795 1035.41 96.6155 1036.54C96.9755 1037.66 97.1555 1038.88 97.1555 1040.17V1041.65H84.3035V1042.26C84.3035 1043.7 84.7235 1044.89 85.5635 1045.82C86.4275 1046.74 87.6515 1047.19 89.2355 1047.19C90.3875 1047.19 91.3595 1046.94 92.1515 1046.44C92.9435 1045.93 93.6155 1045.25 94.1675 1044.38L96.4715 1046.65C95.7755 1047.8 94.7675 1048.73 93.4475 1049.42C92.1275 1050.1 90.5915 1050.43 88.8395 1050.43ZM88.8395 1033.91C88.1675 1033.91 87.5435 1034.03 86.9675 1034.27C86.4155 1034.51 85.9355 1034.84 85.5275 1035.28C85.1435 1035.71 84.8435 1036.22 84.6275 1036.82C84.4115 1037.42 84.3035 1038.08 84.3035 1038.8V1039.06H93.0155V1038.7C93.0155 1037.26 92.6435 1036.1 91.8995 1035.24C91.1555 1034.35 90.1355 1033.91 88.8395 1033.91ZM105.036 1034.48H99.0598V1031.28H114.936V1034.48H108.96V1050H105.036V1034.48ZM125.472 1050.43C124.128 1050.43 122.928 1050.2 121.872 1049.75C120.816 1049.29 119.916 1048.64 119.172 1047.8C118.428 1046.94 117.852 1045.91 117.444 1044.71C117.06 1043.48 116.868 1042.13 116.868 1040.64C116.868 1039.15 117.06 1037.81 117.444 1036.61C117.852 1035.38 118.428 1034.35 119.172 1033.51C119.916 1032.65 120.816 1031.99 121.872 1031.53C122.928 1031.08 124.128 1030.85 125.472 1030.85C126.84 1030.85 128.04 1031.09 129.072 1031.57C130.128 1032.05 131.004 1032.72 131.7 1033.58C132.396 1034.42 132.912 1035.41 133.248 1036.54C133.608 1037.66 133.788 1038.88 133.788 1040.17V1041.65H120.936V1042.26C120.936 1043.7 121.356 1044.89 122.196 1045.82C123.06 1046.74 124.284 1047.19 125.868 1047.19C127.02 1047.19 127.992 1046.94 128.784 1046.44C129.576 1045.93 130.248 1045.25 130.8 1044.38L133.104 1046.65C132.408 1047.8 131.4 1048.73 130.08 1049.42C128.76 1050.1 127.224 1050.43 125.472 1050.43ZM125.472 1033.91C124.8 1033.91 124.176 1034.03 123.6 1034.27C123.048 1034.51 122.568 1034.84 122.16 1035.28C121.776 1035.71 121.476 1036.22 121.26 1036.82C121.044 1037.42 120.936 1038.08 120.936 1038.8V1039.06H129.648V1038.7C129.648 1037.26 129.276 1036.1 128.532 1035.24C127.788 1034.35 126.768 1033.91 125.472 1033.91ZM138.132 1031.28H142.056V1038.8H150.12V1031.28H154.044V1050H150.12V1042.01H142.056V1050H138.132V1031.28ZM159.648 1031.28H163.5V1040.42L163.14 1044.85H163.284L165.516 1040.86L171.996 1031.28H175.56V1050H171.708V1040.86L172.068 1036.43H171.924L169.692 1040.42L163.212 1050H159.648V1031.28ZM188.507 1050.43C187.163 1050.43 185.963 1050.2 184.907 1049.75C183.851 1049.29 182.951 1048.64 182.207 1047.8C181.463 1046.94 180.887 1045.91 180.479 1044.71C180.095 1043.48 179.903 1042.13 179.903 1040.64C179.903 1039.15 180.095 1037.81 180.479 1036.61C180.887 1035.38 181.463 1034.35 182.207 1033.51C182.951 1032.65 183.851 1031.99 184.907 1031.53C185.963 1031.08 187.163 1030.85 188.507 1030.85C189.875 1030.85 191.075 1031.09 192.107 1031.57C193.163 1032.05 194.039 1032.72 194.735 1033.58C195.431 1034.42 195.947 1035.41 196.283 1036.54C196.643 1037.66 196.823 1038.88 196.823 1040.17V1041.65H183.971V1042.26C183.971 1043.7 184.391 1044.89 185.231 1045.82C186.095 1046.74 187.319 1047.19 188.903 1047.19C190.055 1047.19 191.027 1046.94 191.819 1046.44C192.611 1045.93 193.283 1045.25 193.835 1044.38L196.139 1046.65C195.443 1047.8 194.435 1048.73 193.115 1049.42C191.795 1050.1 190.259 1050.43 188.507 1050.43ZM188.507 1033.91C187.835 1033.91 187.211 1034.03 186.635 1034.27C186.083 1034.51 185.603 1034.84 185.195 1035.28C184.811 1035.71 184.511 1036.22 184.295 1036.82C184.079 1037.42 183.971 1038.08 183.971 1038.8V1039.06H192.683V1038.7C192.683 1037.26 192.311 1036.1 191.567 1035.24C190.823 1034.35 189.803 1033.91 188.507 1033.91Z" fill="black"/>
<rect width="196" height="41" transform="matrix(1 0 0 -1 19 1324)" fill="black"/>
<rect width="196" height="41" transform="matrix(1 0 0 -1 19 965)" fill="black"/>
<rect width="196" height="42" transform="matrix(1 0 0 -1 19 1241)" fill="black"/>
<rect width="196" height="42" transform="matrix(1 0 0 -1 19 882)" fill="black"/>
<rect width="196" height="41" transform="matrix(1 0 0 -1 19 1157)" fill="black"/>
<rect width="196" height="41" transform="matrix(1 0 0 -1 19 798)" fill="black"/>
<rect width="196" height="41" transform="matrix(1 0 0 -1 19 515)" fill="black"/>
<rect width="196" height="41" transform="matrix(1 0 0 -1 19 123)" fill="black"/>
<rect width="196" height="41" transform="matrix(1 0 0 -1 19 715)" fill="black"/>
<rect width="196" height="41" transform="matrix(1 0 0 -1 19 432)" fill="black"/>
<rect x="19" width="196" height="41" fill="black"/>
<path d="M119.589 142.15H115.4V219.207H119.589V142.15Z" fill="white"/>
<path d="M121.977 139.762H113V221.596H121.977V139.762Z" fill="white"/>
<path d="M200.33 177.308L197.367 174.348L142.903 228.858L145.866 231.819L200.33 177.308Z" fill="white"/>
<path d="M197.351 170.97L139.51 228.86L145.861 235.205L203.701 177.315L197.351 170.97Z" fill="white"/>
<path d="M232.591 259.251L232.588 255.062L155.531 255.121L155.534 259.31L232.591 259.251Z" fill="white"/>
<path d="M234.967 252.705H153.133V261.683H234.967V252.705Z" fill="white"/>
<path d="M197.49 340.013L200.448 337.047L145.9 282.622L142.941 285.587L197.49 340.013Z" fill="white"/>
<path d="M145.901 279.246L139.56 285.601L197.491 343.401L203.831 337.046L145.901 279.246Z" fill="white"/>
<path d="M115.573 372.338L119.762 372.331L119.644 295.274L115.455 295.28L115.573 372.338Z" fill="white"/>
<path d="M122.041 292.889L113.064 292.902L113.19 374.737L122.167 374.723L122.041 292.889Z" fill="white"/>
<path d="M34.7821 337.299L37.7498 340.255L92.1368 285.66L89.1692 282.704L34.7821 337.299Z" fill="white"/>
<path d="M89.1447 279.344L31.386 337.316L37.7455 343.652L95.5043 285.68L89.1447 279.344Z" fill="white"/>
<path d="M2.39884 255.421L2.40845 259.61L79.4658 259.433L79.4561 255.245L2.39884 255.421Z" fill="white"/>
<path d="M81.8344 252.843L0 253.028L0.0203128 262.006L81.8548 261.82L81.8344 252.843Z" fill="white"/>
<path d="M37.3628 174.597L34.4089 177.567L89.0426 231.908L91.9964 228.938L37.3628 174.597Z" fill="white"/>
<path d="M37.3618 171.21L31.031 177.575L89.0516 235.285L95.3824 228.92L37.3618 171.21Z" fill="white"/>
<path d="M117.246 275.887C127.219 275.887 135.305 267.802 135.305 257.829C135.305 247.855 127.219 239.77 117.246 239.77C107.273 239.77 99.1875 247.855 99.1875 257.829C99.1875 267.802 107.273 275.887 117.246 275.887Z" fill="white"/>
</svg>
