<svg width="206" height="1133" viewBox="0 0 206 1133" fill="none" xmlns="http://www.w3.org/2000/svg">
<path d="M35.5736 303.28H45.5456C47.1536 303.28 48.3896 303.712 49.2536 304.576C50.1416 305.44 50.5856 306.592 50.5856 308.032C50.5856 310.384 49.3256 311.716 46.8056 312.028V312.208C48.3176 312.328 49.4336 312.772 50.1536 313.54C50.8976 314.284 51.2696 315.268 51.2696 316.492C51.2696 317.284 51.1376 318.016 50.8736 318.688C50.6336 319.36 50.2736 319.948 49.7936 320.452C49.3376 320.932 48.7736 321.316 48.1016 321.604C47.4296 321.868 46.6736 322 45.8336 322H35.5736V303.28ZM44.9336 319.012C45.6296 319.012 46.1816 318.832 46.5896 318.472C46.9976 318.112 47.2016 317.584 47.2016 316.888V315.916C47.2016 315.22 46.9976 314.692 46.5896 314.332C46.1816 313.948 45.6296 313.756 44.9336 313.756H39.4256V319.012H44.9336ZM44.4296 311.056C45.1016 311.056 45.6176 310.888 45.9776 310.552C46.3376 310.216 46.5176 309.736 46.5176 309.112V308.212C46.5176 307.588 46.3376 307.108 45.9776 306.772C45.6176 306.436 45.1016 306.268 44.4296 306.268H39.4256V311.056H44.4296ZM54.5268 318.796H56.5428L57.5868 316.492C58.0908 315.436 58.8108 314.848 59.7468 314.728V314.584C58.2108 314.416 57.0108 313.888 56.1468 313C55.3068 312.088 54.8868 310.852 54.8868 309.292C54.8868 308.356 55.0308 307.528 55.3188 306.808C55.6308 306.064 56.0628 305.428 56.6148 304.9C57.1668 304.372 57.8268 303.976 58.5948 303.712C59.3628 303.424 60.2148 303.28 61.1508 303.28H70.2588V322H66.3348V315.088H62.3388L60.3588 319.372C59.9028 320.38 59.3868 321.076 58.8108 321.46C58.2348 321.82 57.5508 322 56.7588 322H54.5268V318.796ZM66.3348 312.1V306.34H61.9068C60.9948 306.34 60.2748 306.544 59.7468 306.952C59.2188 307.336 58.9548 307.948 58.9548 308.788V309.724C58.9548 310.516 59.2188 311.116 59.7468 311.524C60.2748 311.908 60.9948 312.1 61.9068 312.1H66.3348ZM81.6947 322.432C79.8227 322.432 78.2867 322.12 77.0867 321.496C75.8867 320.872 74.8547 319.984 73.9907 318.832L76.5467 316.492C77.1227 317.332 77.8307 317.992 78.6707 318.472C79.5347 318.952 80.5427 319.192 81.6947 319.192C83.0387 319.192 84.0227 318.952 84.6467 318.472C85.2947 317.992 85.6187 317.368 85.6187 316.6V316.168C85.6187 315.4 85.3547 314.824 84.8267 314.44C84.3227 314.032 83.5907 313.828 82.6307 313.828H78.5987V310.948H82.2347C83.1947 310.948 83.9267 310.768 84.4307 310.408C84.9587 310.024 85.2227 309.472 85.2227 308.752V308.356C85.2227 307.66 84.9347 307.108 84.3587 306.7C83.7827 306.292 82.8707 306.088 81.6227 306.088C80.4947 306.088 79.5347 306.316 78.7427 306.772C77.9507 307.228 77.3147 307.84 76.8347 308.608L74.3867 306.484C75.1067 305.38 76.0667 304.504 77.2667 303.856C78.4907 303.184 80.0267 302.848 81.8747 302.848C84.3707 302.848 86.2187 303.316 87.4187 304.252C88.6427 305.164 89.2547 306.388 89.2547 307.924C89.2547 309.124 88.9427 310.06 88.3187 310.732C87.6947 311.38 86.7587 311.824 85.5107 312.064V312.244C86.8787 312.412 87.9107 312.868 88.6067 313.612C89.3267 314.356 89.6867 315.316 89.6867 316.492C89.6867 318.34 88.9667 319.792 87.5267 320.848C86.1107 321.904 84.1667 322.432 81.6947 322.432ZM107.965 322C106.933 322 106.141 321.712 105.589 321.136C105.037 320.536 104.701 319.78 104.581 318.868H104.401C104.041 320.044 103.381 320.932 102.421 321.532C101.461 322.132 100.297 322.432 98.9294 322.432C96.9854 322.432 95.4854 321.928 94.4294 320.92C93.3974 319.912 92.8814 318.556 92.8814 316.852C92.8814 314.98 93.5534 313.576 94.8974 312.64C96.2654 311.704 98.2574 311.236 100.873 311.236H104.257V309.652C104.257 308.5 103.945 307.612 103.321 306.988C102.697 306.364 101.725 306.052 100.405 306.052C99.3014 306.052 98.4014 306.292 97.7054 306.772C97.0094 307.252 96.4214 307.864 95.9414 308.608L93.6014 306.484C94.2254 305.428 95.1014 304.564 96.2294 303.892C97.3574 303.196 98.8334 302.848 100.657 302.848C103.081 302.848 104.941 303.412 106.237 304.54C107.533 305.668 108.181 307.288 108.181 309.4V318.796H110.161V322H107.965ZM100.045 319.444C101.269 319.444 102.277 319.18 103.069 318.652C103.861 318.1 104.257 317.368 104.257 316.456V313.756H100.945C98.2334 313.756 96.8774 314.596 96.8774 316.276V316.924C96.8774 317.764 97.1534 318.4 97.7054 318.832C98.2814 319.24 99.0614 319.444 100.045 319.444ZM114.007 303.28H117.931V310.804H125.995V303.28H129.919V322H125.995V314.008H117.931V322H114.007V303.28ZM135.523 303.28H139.375V312.424L139.015 316.852H139.159L141.391 312.856L147.871 303.28H151.435V322H147.583V312.856L147.943 308.428H147.799L145.567 312.424L139.087 322H135.523V303.28ZM164.382 322.432C163.038 322.432 161.838 322.204 160.782 321.748C159.726 321.292 158.826 320.644 158.082 319.804C157.338 318.94 156.762 317.908 156.354 316.708C155.97 315.484 155.778 314.128 155.778 312.64C155.778 311.152 155.97 309.808 156.354 308.608C156.762 307.384 157.338 306.352 158.082 305.512C158.826 304.648 159.726 303.988 160.782 303.532C161.838 303.076 163.038 302.848 164.382 302.848C165.75 302.848 166.95 303.088 167.982 303.568C169.038 304.048 169.914 304.72 170.61 305.584C171.306 306.424 171.822 307.408 172.158 308.536C172.518 309.664 172.698 310.876 172.698 312.172V313.648H159.846V314.26C159.846 315.7 160.266 316.888 161.106 317.824C161.97 318.736 163.194 319.192 164.778 319.192C165.93 319.192 166.902 318.94 167.694 318.436C168.486 317.932 169.158 317.248 169.71 316.384L172.014 318.652C171.318 319.804 170.31 320.728 168.99 321.424C167.67 322.096 166.134 322.432 164.382 322.432ZM164.382 305.908C163.71 305.908 163.086 306.028 162.51 306.268C161.958 306.508 161.478 306.844 161.07 307.276C160.686 307.708 160.386 308.224 160.17 308.824C159.954 309.424 159.846 310.084 159.846 310.804V311.056H168.558V310.696C168.558 309.256 168.186 308.104 167.442 307.24C166.698 306.352 165.678 305.908 164.382 305.908Z" fill="black"/>
<path d="M28.1678 966.796H30.4358C31.1318 965.716 31.6718 964.36 32.0558 962.728C32.4638 961.072 32.6678 959.044 32.6678 956.644V951.28H46.3477V966.796H49.5158V975.04H45.9518V970H31.7318V975.04H28.1678V966.796ZM42.4238 966.796V954.484H36.4118V956.86C36.4118 959.38 36.2318 961.444 35.8718 963.052C35.5118 964.636 35.0918 965.884 34.6118 966.796H42.4238ZM60.4254 970.432C59.0814 970.432 57.8814 970.204 56.8254 969.748C55.7694 969.292 54.8694 968.644 54.1254 967.804C53.3814 966.94 52.8054 965.908 52.3974 964.708C52.0134 963.484 51.8214 962.128 51.8214 960.64C51.8214 959.152 52.0134 957.808 52.3974 956.608C52.8054 955.384 53.3814 954.352 54.1254 953.512C54.8694 952.648 55.7694 951.988 56.8254 951.532C57.8814 951.076 59.0814 950.848 60.4254 950.848C61.7934 950.848 62.9934 951.088 64.0254 951.568C65.0814 952.048 65.9574 952.72 66.6534 953.584C67.3494 954.424 67.8654 955.408 68.2014 956.536C68.5614 957.664 68.7414 958.876 68.7414 960.172V961.648H55.8894V962.26C55.8894 963.7 56.3094 964.888 57.1494 965.824C58.0134 966.736 59.2374 967.192 60.8214 967.192C61.9734 967.192 62.9454 966.94 63.7374 966.436C64.5294 965.932 65.2014 965.248 65.7534 964.384L68.0574 966.652C67.3614 967.804 66.3534 968.728 65.0334 969.424C63.7134 970.096 62.1774 970.432 60.4254 970.432ZM60.4254 953.908C59.7534 953.908 59.1294 954.028 58.5534 954.268C58.0014 954.508 57.5214 954.844 57.1134 955.276C56.7294 955.708 56.4294 956.224 56.2134 956.824C55.9974 957.424 55.8894 958.084 55.8894 958.804V959.056H64.6014V958.696C64.6014 957.256 64.2294 956.104 63.4854 955.24C62.7414 954.352 61.7214 953.908 60.4254 953.908ZM73.0853 951.28H77.0093V958.84H80.3213L83.4173 953.62C83.9453 952.732 84.4733 952.12 85.0013 951.784C85.5293 951.448 86.2013 951.28 87.0173 951.28H88.9253V954.484H86.8373L84.4613 958.444C84.1013 959.068 83.7773 959.5 83.4893 959.74C83.2253 959.98 82.8653 960.16 82.4093 960.28V960.424C82.8893 960.52 83.3093 960.7 83.6693 960.964C84.0293 961.204 84.3773 961.636 84.7133 962.26L87.2333 966.796H89.2853V970H87.0533C86.2613 970 85.5773 969.82 85.0013 969.46C84.4493 969.1 83.9213 968.464 83.4173 967.552L80.3213 962.008H77.0093V970H73.0853V951.28ZM105.03 951.28H108.81L100.926 973.708C100.71 974.332 100.458 974.86 100.17 975.292C99.9063 975.748 99.5823 976.108 99.1983 976.372C98.8383 976.66 98.3943 976.864 97.8663 976.984C97.3383 977.128 96.7143 977.2 95.9943 977.2H93.7263V973.996H96.8943L97.9743 970.828L91.1703 951.28H95.0943L98.8383 962.296L99.9183 966.364H100.098L101.286 962.296L105.03 951.28ZM112.038 951.28H127.41V970H123.486V954.484H115.962V970H112.038V951.28ZM146.743 970C145.711 970 144.919 969.712 144.367 969.136C143.815 968.536 143.479 967.78 143.359 966.868H143.179C142.819 968.044 142.159 968.932 141.199 969.532C140.239 970.132 139.075 970.432 137.707 970.432C135.763 970.432 134.263 969.928 133.207 968.92C132.175 967.912 131.659 966.556 131.659 964.852C131.659 962.98 132.331 961.576 133.675 960.64C135.043 959.704 137.035 959.236 139.651 959.236H143.035V957.652C143.035 956.5 142.723 955.612 142.099 954.988C141.475 954.364 140.503 954.052 139.183 954.052C138.079 954.052 137.179 954.292 136.483 954.772C135.787 955.252 135.199 955.864 134.719 956.608L132.379 954.484C133.003 953.428 133.879 952.564 135.007 951.892C136.135 951.196 137.611 950.848 139.435 950.848C141.859 950.848 143.719 951.412 145.015 952.54C146.311 953.668 146.959 955.288 146.959 957.4V966.796H148.939V970H146.743ZM138.823 967.444C140.047 967.444 141.055 967.18 141.847 966.652C142.639 966.1 143.035 965.368 143.035 964.456V961.756H139.723C137.011 961.756 135.655 962.596 135.655 964.276V964.924C135.655 965.764 135.931 966.4 136.483 966.832C137.059 967.24 137.839 967.444 138.823 967.444ZM151.381 966.796H153.469L155.521 962.26C155.785 961.708 156.097 961.288 156.457 961C156.841 960.712 157.261 960.52 157.717 960.424V960.28C156.805 960.016 156.097 959.368 155.593 958.336L153.829 954.484H151.741V951.28H153.649C154.489 951.28 155.197 951.472 155.773 951.856C156.373 952.24 156.877 952.864 157.285 953.728L159.697 958.84H162.613V951.28H166.537V958.84H169.453L171.865 953.728C172.273 952.864 172.765 952.24 173.341 951.856C173.941 951.472 174.661 951.28 175.501 951.28H177.409V954.484H175.321L173.557 958.336C173.053 959.368 172.345 960.016 171.433 960.28V960.424C171.889 960.52 172.297 960.712 172.657 961C173.041 961.288 173.365 961.708 173.629 962.26L175.681 966.796H177.769V970H175.537C174.721 970 174.025 969.82 173.449 969.46C172.873 969.076 172.357 968.392 171.901 967.408L169.453 962.008H166.537V970H162.613V962.008H159.697L157.249 967.408C156.793 968.392 156.277 969.076 155.701 969.46C155.125 969.82 154.429 970 153.613 970H151.381V966.796Z" fill="black"/>
<path d="M35.8764 116H0C0 -38.0869 206 -39.2454 206 116H169.545C169.545 116 171.281 37.224 103.579 37.7983C35.8764 38.3727 35.8764 116 35.8764 116Z" fill="black"/>
<path d="M35.8764 763H0C0 610.241 206 609.093 206 763H169.545C169.545 763 171.281 684.903 103.579 685.472C35.8764 686.042 35.8764 763 35.8764 763Z" fill="black"/>
<path d="M35.8764 254H0C0 99.9131 206 98.7546 206 254H169.545C169.545 254 171.281 175.224 103.579 175.798C35.8764 176.373 35.8764 254 35.8764 254Z" fill="black"/>
<path d="M35.8764 902H0C0 747.913 206 746.755 206 902H169.545C169.545 902 171.281 823.224 103.579 823.798C35.8764 824.373 35.8764 902 35.8764 902Z" fill="black"/>
<path d="M35.8764 1017H0C0 1171.09 206 1172.25 206 1017H169.545C169.545 1017 171.281 1095.78 103.579 1095.2C35.8764 1094.63 35.8764 1017 35.8764 1017Z" fill="black"/>
<path d="M35.8764 371H0C0 525.087 206 526.245 206 371H169.545C169.545 371 171.281 449.776 103.579 449.202C35.8764 448.627 35.8764 371 35.8764 371Z" fill="black"/>
<path d="M35.8764 625H0C0 470.913 206 469.755 206 625H169.545C169.545 625 171.281 546.224 103.579 546.798C35.8764 547.373 35.8764 625 35.8764 625Z" fill="black"/>
</svg>
