<svg width="235" height="1036" viewBox="0 0 235 1036" fill="none" xmlns="http://www.w3.org/2000/svg">
<path d="M17.6026 675.432C21.2026 675.432 23.7586 673.74 24.9826 670.68L21.9946 669.096C21.2026 670.968 19.8706 672.192 17.6026 672.192C14.7226 672.192 13.2466 670.212 13.2466 667.332V663.984C13.2466 661.104 14.7226 659.124 17.6026 659.124C19.7266 659.124 21.0586 660.24 21.5986 661.968L24.8386 660.456C23.7226 657.684 21.3466 655.848 17.6026 655.848C12.2026 655.848 9.10659 659.664 9.10659 665.64C9.10659 671.616 12.2026 675.432 17.6026 675.432ZM28.7182 675H32.6422V667.008H35.9542L39.0502 672.552C40.0582 674.352 41.1022 675 42.6862 675H44.9182V671.796H42.8662L40.3462 667.26C39.6622 666 38.9782 665.604 38.0422 665.424V665.28C38.9422 665.028 39.3742 664.668 40.0942 663.444L42.4702 659.484H44.5582V656.28H42.6502C41.0302 656.28 40.1302 656.82 39.0502 658.62L35.9542 663.84H32.6422V656.28H28.7182V675ZM49.1791 682.2H53.1031V671.904H53.2831C54.0751 674.1 56.0551 675.432 58.5391 675.432C63.2551 675.432 65.9911 671.796 65.9911 665.64C65.9911 659.484 63.2551 655.848 58.5391 655.848C56.0551 655.848 54.0751 657.144 53.2831 659.376H53.1031V656.28H49.1791V682.2ZM57.3511 672.048C54.9751 672.048 53.1031 670.752 53.1031 668.844V662.436C53.1031 660.528 54.9751 659.232 57.3511 659.232C60.0511 659.232 61.8511 661.14 61.8511 664.02V667.26C61.8511 670.14 60.0511 672.048 57.3511 672.048ZM86.3958 675V671.796H84.4158V662.4C84.4158 658.224 81.7158 655.848 76.8918 655.848C73.2558 655.848 71.0598 657.396 69.8358 659.484L72.1758 661.608C73.1118 660.132 74.4438 659.052 76.6398 659.052C79.2678 659.052 80.4918 660.384 80.4918 662.652V664.236H77.1078C71.8878 664.236 69.1158 666.144 69.1158 669.852C69.1158 673.236 71.3118 675.432 75.1638 675.432C77.8998 675.432 79.9158 674.208 80.6358 671.868H80.8158C81.0678 673.704 82.1478 675 84.1998 675H86.3958ZM76.2798 672.444C74.3358 672.444 73.1118 671.58 73.1118 669.924V669.276C73.1118 667.656 74.4438 666.756 77.1798 666.756H80.4918V669.456C80.4918 671.292 78.6918 672.444 76.2798 672.444ZM90.2416 675H94.1656V659.484H101.69V675H105.614V656.28H90.2416V675ZM118.718 675.432C123.938 675.432 127.286 671.616 127.286 665.784C127.286 659.952 124.118 656.532 119.726 656.532C116.918 656.532 115.334 657.792 114.398 660.276H114.218C114.578 654.48 115.802 652.788 119.726 652.428L125.918 651.852V648L119.942 648.54C113.03 649.152 110.114 653.472 110.114 663.66C110.114 671.976 113.39 675.432 118.718 675.432ZM118.718 672.192C116.018 672.192 114.29 670.464 114.29 667.152V664.02C114.29 661.428 115.874 659.772 118.718 659.772C121.418 659.772 123.146 661.5 123.146 664.812V667.152C123.146 670.464 121.418 672.192 118.718 672.192ZM139.185 667.296L137.997 671.364H137.817L136.737 667.296L132.993 656.28H129.069L135.873 675.828L134.793 678.996H131.625V682.2H133.893C136.809 682.2 137.925 681.228 138.825 678.708L146.709 656.28H142.929L139.185 667.296ZM149.937 675H153.861V667.008H157.173L160.269 672.552C161.277 674.352 162.321 675 163.905 675H166.137V671.796H164.085L161.565 667.26C160.881 666 160.197 665.604 159.261 665.424V665.28C160.161 665.028 160.593 664.668 161.313 663.444L163.689 659.484H165.777V656.28H163.869C162.249 656.28 161.349 656.82 160.269 658.62L157.173 663.84H153.861V656.28H149.937V675ZM170.398 675H173.962L180.442 665.424L182.674 661.428H182.818L182.458 665.856V675H186.31V656.28H182.746L176.266 665.856L174.034 669.852H173.89L174.25 665.424V656.28H170.398V675ZM191.913 675H195.837V667.008H203.901V675H207.825V656.28H203.901V663.804H195.837V656.28H191.913V675ZM213.429 675H217.353V659.484H225.633V656.28H213.429V675Z" fill="black"/>
<path d="M52.5352 978H15C19.6197 1055.62 215.38 1055.04 220 978H182.465C182.465 978 172.07 1000.76 116.634 1000.76C61.1972 1000.76 52.5352 978 52.5352 978Z" fill="black"/>
<path d="M52.5352 895H15C19.6197 972.625 215.38 972.041 220 895H182.465C182.465 895 172.07 917.763 116.634 917.763C61.1972 917.763 52.5352 895 52.5352 895Z" fill="black"/>
<path d="M52.5352 812H15C19.6197 889.625 215.38 889.041 220 812H182.465C182.465 812 172.07 834.763 116.634 834.763C61.1972 834.763 52.5352 812 52.5352 812Z" fill="black"/>
<path d="M52.5352 142H15C19.6197 64.3753 215.38 64.9585 220 142H182.465C182.465 142 172.07 119.237 116.634 119.237C61.1972 119.237 52.5352 142 52.5352 142Z" fill="black"/>
<path d="M52.5352 729H15C19.6197 806.625 215.38 806.041 220 729H182.465C182.465 729 172.07 751.763 116.634 751.763C61.1972 751.763 52.5352 729 52.5352 729Z" fill="black"/>
<path d="M52.5352 224H15C19.6197 147.714 215.38 148.287 220 224H182.465C182.465 224 172.07 201.63 116.634 201.63C61.1972 201.63 52.5352 224 52.5352 224Z" fill="black"/>
<path d="M52.5352 602H15C19.6197 525.714 215.38 526.287 220 602H182.465C182.465 602 172.07 579.63 116.634 579.63C61.1972 579.63 52.5352 602 52.5352 602Z" fill="black"/>
<path d="M52.5352 462H15C19.6197 540.963 215.38 540.37 220 462H182.465C182.465 462 172.07 485.155 116.634 485.155C61.1972 485.155 52.5352 462 52.5352 462Z" fill="black"/>
<path d="M52.5352 58H15C19.6197 -19.6247 215.38 -19.0415 220 58H182.465C182.465 58 172.07 35.2375 116.634 35.2375C61.1972 35.2375 52.5352 58 52.5352 58Z" fill="black"/>
<path d="M119.589 226.231H115.4V303.288H119.589V226.231Z" fill="#5EB6CA"/>
<path d="M121.977 223.843H113V305.677H121.977V223.843Z" fill="#5EB6CA"/>
<path d="M200.33 261.389L197.367 258.429L142.903 312.939L145.866 315.899L200.33 261.389Z" fill="#5EB6CA"/>
<path d="M197.351 255.051L139.51 312.94L145.861 319.286L203.701 261.396L197.351 255.051Z" fill="#5EB6CA"/>
<path d="M232.591 343.332L232.588 339.143L155.53 339.202L155.534 343.391L232.591 343.332Z" fill="#5EB6CA"/>
<path d="M234.967 336.786H153.132V345.763H234.967V336.786Z" fill="#5EB6CA"/>
<path d="M197.49 424.093L200.448 421.128L145.899 366.703L142.941 369.668L197.49 424.093Z" fill="#5EB6CA"/>
<path d="M145.9 363.327L139.56 369.682L197.49 427.482L203.831 421.127L145.9 363.327Z" fill="#5EB6CA"/>
<path d="M115.573 456.419L119.762 456.412L119.644 379.355L115.455 379.361L115.573 456.419Z" fill="#5EB6CA"/>
<path d="M122.041 376.969L113.064 376.983L113.19 458.818L122.167 458.804L122.041 376.969Z" fill="#5EB6CA"/>
<path d="M34.7821 421.379L37.7498 424.336L92.1368 369.741L89.1692 366.784L34.7821 421.379Z" fill="#5EB6CA"/>
<path d="M89.1447 363.425L31.386 421.396L37.7455 427.733L95.5043 369.761L89.1447 363.425Z" fill="#5EB6CA"/>
<path d="M2.39859 339.502L2.4082 343.691L79.4655 343.514L79.4559 339.325L2.39859 339.502Z" fill="#5EB6CA"/>
<path d="M81.8344 336.924L0 337.109L0.0203128 346.086L81.8548 345.901L81.8344 336.924Z" fill="#5EB6CA"/>
<path d="M37.3628 258.678L34.4089 261.648L89.0426 315.988L91.9964 313.019L37.3628 258.678Z" fill="#5EB6CA"/>
<path d="M37.3616 255.291L31.0308 261.656L89.0514 319.366L95.3822 313.001L37.3616 255.291Z" fill="#5EB6CA"/>
<path d="M117.246 359.968C127.219 359.968 135.305 351.883 135.305 341.909C135.305 331.936 127.219 323.851 117.246 323.851C107.273 323.851 99.1875 331.936 99.1875 341.909C99.1875 351.883 107.273 359.968 117.246 359.968Z" fill="#5EB6CA"/>
</svg>
