<svg width="235" height="1034" viewBox="0 0 235 1034" fill="none" xmlns="http://www.w3.org/2000/svg">
<path d="M52.5352 58H15C19.6197 -19.6247 215.38 -19.0415 220 58H182.465C182.465 58 172.07 35.2375 116.634 35.2375C61.1972 35.2375 52.5352 58 52.5352 58Z" fill="black"/>
<path d="M52.5352 141H15C19.6197 63.3753 215.38 63.9585 220 141H182.465C182.465 141 172.07 118.237 116.634 118.237C61.1972 118.237 52.5352 141 52.5352 141Z" fill="black"/>
<path d="M52.5352 977H15C19.6197 1053.29 215.38 1052.71 220 977H182.465C182.465 977 172.07 999.37 116.634 999.37C61.1972 999.37 52.5352 977 52.5352 977Z" fill="black"/>
<path d="M52.5352 222H15C19.6197 147.052 215.38 147.615 220 222H182.465C182.465 222 172.07 200.022 116.634 200.022C61.1972 200.022 52.5352 222 52.5352 222Z" fill="black"/>
<path d="M52.5352 894H15C19.6197 970.286 215.38 969.713 220 894H182.465C182.465 894 172.07 916.37 116.634 916.37C61.1972 916.37 52.5352 894 52.5352 894Z" fill="black"/>
<path d="M52.5352 305H15C19.6197 230.052 215.38 230.615 220 305H182.465C182.465 305 172.07 283.022 116.634 283.022C61.1972 283.022 52.5352 305 52.5352 305Z" fill="black"/>
<path d="M52.5352 432H15C19.6197 509.625 215.38 509.041 220 432H182.465C182.465 432 172.07 454.763 116.634 454.763C61.1972 454.763 52.5352 432 52.5352 432Z" fill="black"/>
<path d="M52.5352 811H15C19.6197 888.625 215.38 888.041 220 811H182.465C182.465 811 172.07 833.763 116.634 833.763C61.1972 833.763 52.5352 811 52.5352 811Z" fill="black"/>
<path d="M52.5352 574H15C19.6197 495.037 215.38 495.63 220 574H182.465C182.465 574 172.07 550.845 116.634 550.845C61.1972 550.845 52.5352 574 52.5352 574Z" fill="black"/>
<path d="M119.588 577.17H115.4V654.227H119.588V577.17Z" fill="#FFD101"/>
<path d="M121.977 574.781H113V656.616H121.977V574.781Z" fill="#FFD101"/>
<path d="M200.33 612.328L197.367 609.368L142.902 663.878L145.866 666.839L200.33 612.328Z" fill="#FFD101"/>
<path d="M197.351 605.99L139.51 663.879L145.861 670.225L203.701 612.335L197.351 605.99Z" fill="#FFD101"/>
<path d="M232.591 694.27L232.588 690.082L155.53 690.141L155.534 694.329L232.591 694.27Z" fill="#FFD101"/>
<path d="M234.967 687.725H153.132V696.702H234.967V687.725Z" fill="#FFD101"/>
<path d="M197.49 775.033L200.448 772.067L145.899 717.642L142.941 720.607L197.49 775.033Z" fill="#FFD101"/>
<path d="M145.901 714.266L139.56 720.621L197.491 778.421L203.831 772.065L145.901 714.266Z" fill="#FFD101"/>
<path d="M115.573 807.357L119.762 807.351L119.644 730.294L115.455 730.3L115.573 807.357Z" fill="#FFD101"/>
<path d="M122.041 727.908L113.064 727.922L113.189 809.757L122.167 809.743L122.041 727.908Z" fill="#FFD101"/>
<path d="M34.7817 772.319L37.7494 775.275L92.1364 720.68L89.1688 717.723L34.7817 772.319Z" fill="#FFD101"/>
<path d="M89.1442 714.364L31.3855 772.335L37.745 778.672L95.5038 720.7L89.1442 714.364Z" fill="#FFD101"/>
<path d="M2.39847 690.441L2.40808 694.63L79.4654 694.453L79.4558 690.265L2.39847 690.441Z" fill="#FFD101"/>
<path d="M81.8344 687.863L0 688.048L0.0203128 697.025L81.8548 696.84L81.8344 687.863Z" fill="#FFD101"/>
<path d="M37.3628 609.617L34.4089 612.587L89.0426 666.927L91.9964 663.958L37.3628 609.617Z" fill="#FFD101"/>
<path d="M37.3616 606.23L31.0308 612.595L89.0514 670.305L95.3822 663.94L37.3616 606.23Z" fill="#FFD101"/>
<path d="M117.246 710.907C127.219 710.907 135.305 702.822 135.305 692.848C135.305 682.875 127.219 674.79 117.246 674.79C107.273 674.79 99.1875 682.875 99.1875 692.848C99.1875 702.822 107.273 710.907 117.246 710.907Z" fill="#FFD101"/>
</svg>
