<svg width="235" height="1324" viewBox="0 0 235 1324" fill="none" xmlns="http://www.w3.org/2000/svg">
<rect width="196" height="41" transform="matrix(1 0 0 -1 19 1324)" fill="black"/>
<rect width="196" height="41" transform="matrix(1 0 0 -1 19 965)" fill="black"/>
<rect width="196" height="42" transform="matrix(1 0 0 -1 19 1241)" fill="black"/>
<rect width="196" height="42" transform="matrix(1 0 0 -1 19 882)" fill="black"/>
<rect width="196" height="41" transform="matrix(1 0 0 -1 19 1157)" fill="black"/>
<rect width="196" height="41" transform="matrix(1 0 0 -1 19 798)" fill="black"/>
<rect width="196" height="41" transform="matrix(1 0 0 -1 19 515)" fill="black"/>
<rect width="196" height="41" transform="matrix(1 0 0 -1 19 123)" fill="black"/>
<rect width="196" height="41" transform="matrix(1 0 0 -1 19 715)" fill="black"/>
<rect width="196" height="41" transform="matrix(1 0 0 -1 19 432)" fill="black"/>
<rect x="19" width="196" height="41" fill="black"/>
<path d="M119.589 142.15H115.4V219.207H119.589V142.15Z" fill="white"/>
<path d="M121.977 139.762H113V221.596H121.977V139.762Z" fill="white"/>
<path d="M200.33 177.308L197.367 174.348L142.903 228.858L145.866 231.819L200.33 177.308Z" fill="white"/>
<path d="M197.351 170.97L139.51 228.86L145.861 235.205L203.701 177.315L197.351 170.97Z" fill="white"/>
<path d="M232.591 259.251L232.588 255.062L155.531 255.121L155.534 259.31L232.591 259.251Z" fill="white"/>
<path d="M234.967 252.705H153.133V261.683H234.967V252.705Z" fill="white"/>
<path d="M197.49 340.013L200.448 337.048L145.899 282.622L142.941 285.587L197.49 340.013Z" fill="white"/>
<path d="M145.901 279.246L139.56 285.601L197.491 343.401L203.831 337.046L145.901 279.246Z" fill="white"/>
<path d="M115.574 372.338L119.762 372.331L119.644 295.274L115.456 295.28L115.574 372.338Z" fill="white"/>
<path d="M122.041 292.889L113.064 292.902L113.19 374.737L122.167 374.723L122.041 292.889Z" fill="white"/>
<path d="M34.7819 337.299L37.7495 340.255L92.1366 285.66L89.1689 282.703L34.7819 337.299Z" fill="white"/>
<path d="M89.1445 279.344L31.3857 337.316L37.7453 343.652L95.504 285.68L89.1445 279.344Z" fill="white"/>
<path d="M2.39859 255.421L2.4082 259.61L79.4655 259.433L79.4559 255.245L2.39859 255.421Z" fill="white"/>
<path d="M81.8344 252.843L0 253.028L0.0203128 262.005L81.8548 261.82L81.8344 252.843Z" fill="white"/>
<path d="M37.363 174.597L34.4092 177.567L89.0428 231.908L91.9967 228.938L37.363 174.597Z" fill="white"/>
<path d="M37.3621 171.21L31.0312 177.575L89.0519 235.285L95.3827 228.92L37.3621 171.21Z" fill="white"/>
<path d="M117.246 275.887C127.219 275.887 135.305 267.802 135.305 257.829C135.305 247.855 127.219 239.77 117.246 239.77C107.273 239.77 99.1875 247.855 99.1875 257.829C99.1875 267.802 107.273 275.887 117.246 275.887Z" fill="white"/>
</svg>
