<svg width="168" height="972" viewBox="0 0 168 972" fill="none" xmlns="http://www.w3.org/2000/svg">
<path d="M17.2351 449.288C16.3391 449.288 15.5391 449.136 14.8351 448.832C14.1311 448.528 13.5391 448.096 13.0591 447.536C12.5791 446.96 12.2111 446.272 11.9551 445.472C11.6991 444.656 11.5711 443.752 11.5711 442.76C11.5711 441.768 11.6991 440.872 11.9551 440.072C12.2111 439.256 12.5791 438.568 13.0591 438.008C13.5391 437.432 14.1311 436.992 14.8351 436.688C15.5391 436.384 16.3391 436.232 17.2351 436.232C18.4831 436.232 19.5071 436.512 20.3071 437.072C21.1071 437.632 21.6911 438.376 22.0591 439.304L19.8991 440.312C19.7231 439.736 19.4111 439.28 18.9631 438.944C18.5311 438.592 17.9551 438.416 17.2351 438.416C16.2751 438.416 15.5471 438.72 15.0511 439.328C14.5711 439.92 14.3311 440.696 14.3311 441.656V443.888C14.3311 444.848 14.5711 445.632 15.0511 446.24C15.5471 446.832 16.2751 447.128 17.2351 447.128C18.0031 447.128 18.6111 446.944 19.0591 446.576C19.5231 446.192 19.8911 445.688 20.1631 445.064L22.1551 446.12C21.7391 447.144 21.1151 447.928 20.2831 448.472C19.4511 449.016 18.4351 449.288 17.2351 449.288ZM24.6454 436.52H27.2614V441.56H29.4694L31.5334 438.08C31.8854 437.488 32.2374 437.08 32.5894 436.856C32.9414 436.632 33.3894 436.52 33.9334 436.52H35.2054V438.656H33.8134L32.2294 441.296C31.9894 441.712 31.7734 442 31.5814 442.16C31.4054 442.32 31.1654 442.44 30.8614 442.52V442.616C31.1814 442.68 31.4614 442.8 31.7014 442.976C31.9414 443.136 32.1734 443.424 32.3974 443.84L34.0774 446.864H35.4454V449H33.9574C33.4294 449 32.9734 448.88 32.5894 448.64C32.2214 448.4 31.8694 447.976 31.5334 447.368L29.4694 443.672H27.2614V449H24.6454V436.52ZM38.2861 436.52H40.9021V438.584H41.0221C41.2941 437.832 41.7341 437.256 42.3421 436.856C42.9661 436.44 43.6941 436.232 44.5261 436.232C46.1101 436.232 47.3341 436.808 48.1981 437.96C49.0621 439.096 49.4941 440.696 49.4941 442.76C49.4941 444.824 49.0621 446.432 48.1981 447.584C47.3341 448.72 46.1101 449.288 44.5261 449.288C43.6941 449.288 42.9661 449.08 42.3421 448.664C41.7341 448.248 41.2941 447.672 41.0221 446.936H40.9021V453.8H38.2861V436.52ZM43.7341 447.032C44.6461 447.032 45.3741 446.744 45.9181 446.168C46.4621 445.576 46.7341 444.8 46.7341 443.84V441.68C46.7341 440.72 46.4621 439.952 45.9181 439.376C45.3741 438.784 44.6461 438.488 43.7341 438.488C42.9341 438.488 42.2621 438.688 41.7181 439.088C41.1741 439.472 40.9021 439.984 40.9021 440.624V444.896C40.9021 445.536 41.1741 446.056 41.7181 446.456C42.2621 446.84 42.9341 447.032 43.7341 447.032ZM61.6332 449C60.9452 449 60.4172 448.808 60.0492 448.424C59.6812 448.024 59.4572 447.52 59.3772 446.912H59.2572C59.0172 447.696 58.5772 448.288 57.9372 448.688C57.2972 449.088 56.5212 449.288 55.6092 449.288C54.3132 449.288 53.3132 448.952 52.6092 448.28C51.9212 447.608 51.5772 446.704 51.5772 445.568C51.5772 444.32 52.0252 443.384 52.9212 442.76C53.8332 442.136 55.1612 441.824 56.9052 441.824H59.1612V440.768C59.1612 440 58.9532 439.408 58.5372 438.992C58.1212 438.576 57.4732 438.368 56.5932 438.368C55.8572 438.368 55.2572 438.528 54.7932 438.848C54.3292 439.168 53.9372 439.576 53.6172 440.072L52.0572 438.656C52.4732 437.952 53.0572 437.376 53.8092 436.928C54.5612 436.464 55.5452 436.232 56.7612 436.232C58.3772 436.232 59.6172 436.608 60.4812 437.36C61.3452 438.112 61.7772 439.192 61.7772 440.6V446.864H63.0972V449H61.6332ZM56.3532 447.296C57.1692 447.296 57.8412 447.12 58.3692 446.768C58.8972 446.4 59.1612 445.912 59.1612 445.304V443.504H56.9532C55.1452 443.504 54.2412 444.064 54.2412 445.184V445.616C54.2412 446.176 54.4252 446.6 54.7932 446.888C55.1772 447.16 55.6972 447.296 56.3532 447.296ZM65.6611 436.52H75.9091V449H73.2931V438.656H68.2771V449H65.6611V436.52ZM84.6453 449.288C83.7493 449.288 82.9493 449.144 82.2453 448.856C81.5413 448.552 80.9413 448.08 80.4453 447.44C79.9493 446.8 79.5653 445.992 79.2933 445.016C79.0373 444.024 78.9093 442.832 78.9093 441.44C78.9093 439.744 79.0293 438.288 79.2693 437.072C79.5253 435.84 79.9173 434.824 80.4453 434.024C80.9893 433.208 81.6693 432.584 82.4853 432.152C83.3173 431.72 84.3093 431.456 85.4613 431.36L89.4453 431V433.568L85.3173 433.952C84.6613 434.016 84.1093 434.144 83.6613 434.336C83.2293 434.528 82.8693 434.824 82.5813 435.224C82.3093 435.608 82.1013 436.128 81.9573 436.784C81.8133 437.424 81.7093 438.224 81.6453 439.184H81.7653C82.0853 438.352 82.5173 437.728 83.0613 437.312C83.6213 436.896 84.3733 436.688 85.3173 436.688C86.0533 436.688 86.7253 436.832 87.3333 437.12C87.9573 437.392 88.4933 437.792 88.9413 438.32C89.3893 438.848 89.7333 439.496 89.9733 440.264C90.2293 441.016 90.3573 441.88 90.3573 442.856C90.3573 443.832 90.2213 444.72 89.9493 445.52C89.6773 446.304 89.2933 446.976 88.7973 447.536C88.3013 448.096 87.7013 448.528 86.9973 448.832C86.2933 449.136 85.5093 449.288 84.6453 449.288ZM84.6453 447.128C85.5573 447.128 86.2773 446.848 86.8053 446.288C87.3333 445.712 87.5973 444.872 87.5973 443.768V442.208C87.5973 441.104 87.3333 440.272 86.8053 439.712C86.2773 439.136 85.5573 438.848 84.6453 438.848C83.6853 438.848 82.9493 439.104 82.4373 439.616C81.9413 440.128 81.6933 440.816 81.6933 441.68V443.768C81.6933 444.872 81.9573 445.712 82.4853 446.288C83.0133 446.848 83.7333 447.128 84.6453 447.128ZM100.786 436.52H103.306L98.0498 451.472C97.9058 451.888 97.7378 452.24 97.5458 452.528C97.3698 452.832 97.1538 453.072 96.8978 453.248C96.6578 453.44 96.3618 453.576 96.0098 453.656C95.6578 453.752 95.2418 453.8 94.7618 453.8H93.2498V451.664H95.3618L96.0818 449.552L91.5458 436.52H94.1618L96.6578 443.864L97.3778 446.576H97.4978L98.2898 443.864L100.786 436.52ZM105.458 436.52H108.074V441.56H110.282L112.346 438.08C112.698 437.488 113.05 437.08 113.402 436.856C113.754 436.632 114.202 436.52 114.746 436.52H116.018V438.656H114.626L113.042 441.296C112.802 441.712 112.586 442 112.394 442.16C112.218 442.32 111.978 442.44 111.674 442.52V442.616C111.994 442.68 112.274 442.8 112.514 442.976C112.754 443.136 112.986 443.424 113.21 443.84L114.89 446.864H116.258V449H114.77C114.242 449 113.786 448.88 113.402 448.64C113.034 448.4 112.682 447.976 112.346 447.368L110.282 443.672H108.074V449H105.458V436.52ZM119.099 436.52H121.667V442.616L121.427 445.568H121.523L123.011 442.904L127.331 436.52H129.707V449H127.139V442.904L127.379 439.952H127.283L125.795 442.616L121.475 449H119.099V436.52ZM133.442 436.52H136.058V441.536H141.434V436.52H144.05V449H141.434V443.672H136.058V449H133.442V436.52ZM147.786 436.52H155.922V438.656H150.402V449H147.786V436.52Z" fill="black"/>
<path d="M58.2858 788.288C57.3898 788.288 56.5898 788.136 55.8858 787.832C55.1818 787.528 54.5898 787.096 54.1098 786.536C53.6298 785.96 53.2618 785.272 53.0058 784.472C52.7498 783.656 52.6218 782.752 52.6218 781.76C52.6218 780.768 52.7498 779.872 53.0058 779.072C53.2618 778.256 53.6298 777.568 54.1098 777.008C54.5898 776.432 55.1818 775.992 55.8858 775.688C56.5898 775.384 57.3898 775.232 58.2858 775.232C59.5338 775.232 60.5578 775.512 61.3578 776.072C62.1578 776.632 62.7418 777.376 63.1098 778.304L60.9498 779.312C60.7738 778.736 60.4618 778.28 60.0138 777.944C59.5818 777.592 59.0058 777.416 58.2858 777.416C57.3258 777.416 56.5978 777.72 56.1018 778.328C55.6218 778.92 55.3818 779.696 55.3818 780.656V782.888C55.3818 783.848 55.6218 784.632 56.1018 785.24C56.5978 785.832 57.3258 786.128 58.2858 786.128C59.0538 786.128 59.6618 785.944 60.1098 785.576C60.5738 785.192 60.9418 784.688 61.2138 784.064L63.2058 785.12C62.7898 786.144 62.1658 786.928 61.3338 787.472C60.5018 788.016 59.4858 788.288 58.2858 788.288ZM65.6962 775.52H72.3442C73.4162 775.52 74.2402 775.808 74.8162 776.384C75.4082 776.96 75.7042 777.728 75.7042 778.688C75.7042 780.256 74.8642 781.144 73.1842 781.352V781.472C74.1922 781.552 74.9362 781.848 75.4162 782.36C75.9122 782.856 76.1602 783.512 76.1602 784.328C76.1602 784.856 76.0722 785.344 75.8962 785.792C75.7362 786.24 75.4962 786.632 75.1762 786.968C74.8722 787.288 74.4962 787.544 74.0482 787.736C73.6002 787.912 73.0962 788 72.5362 788H65.6962V775.52ZM71.9362 786.008C72.4002 786.008 72.7682 785.888 73.0402 785.648C73.3122 785.408 73.4482 785.056 73.4482 784.592V783.944C73.4482 783.48 73.3122 783.128 73.0402 782.888C72.7682 782.632 72.4002 782.504 71.9362 782.504H68.2642V786.008H71.9362ZM71.6002 780.704C72.0482 780.704 72.3922 780.592 72.6322 780.368C72.8722 780.144 72.9922 779.824 72.9922 779.408V778.808C72.9922 778.392 72.8722 778.072 72.6322 777.848C72.3922 777.624 72.0482 777.512 71.6002 777.512H68.2642V780.704H71.6002ZM84.186 788.288C83.29 788.288 82.49 788.136 81.786 787.832C81.082 787.528 80.482 787.096 79.986 786.536C79.49 785.96 79.106 785.272 78.834 784.472C78.578 783.656 78.45 782.752 78.45 781.76C78.45 780.768 78.578 779.872 78.834 779.072C79.106 778.256 79.49 777.568 79.986 777.008C80.482 776.432 81.082 775.992 81.786 775.688C82.49 775.384 83.29 775.232 84.186 775.232C85.098 775.232 85.898 775.392 86.586 775.712C87.29 776.032 87.874 776.48 88.338 777.056C88.802 777.616 89.146 778.272 89.37 779.024C89.61 779.776 89.73 780.584 89.73 781.448V782.432H81.162V782.84C81.162 783.8 81.442 784.592 82.002 785.216C82.578 785.824 83.394 786.128 84.45 786.128C85.218 786.128 85.866 785.96 86.394 785.624C86.922 785.288 87.37 784.832 87.738 784.256L89.274 785.768C88.81 786.536 88.138 787.152 87.258 787.616C86.378 788.064 85.354 788.288 84.186 788.288ZM84.186 777.272C83.738 777.272 83.322 777.352 82.938 777.512C82.57 777.672 82.25 777.896 81.978 778.184C81.722 778.472 81.522 778.816 81.378 779.216C81.234 779.616 81.162 780.056 81.162 780.536V780.704H86.97V780.464C86.97 779.504 86.722 778.736 86.226 778.16C85.73 777.568 85.05 777.272 84.186 777.272ZM99.5859 782.456H99.4659C99.1139 782.92 98.6659 783.296 98.1219 783.584C97.5779 783.872 96.8659 784.016 95.9859 784.016C94.6579 784.016 93.6499 783.68 92.9619 783.008C92.2899 782.336 91.9539 781.304 91.9539 779.912V775.52H94.5699V779.744C94.5699 780.448 94.7539 780.968 95.1219 781.304C95.4899 781.624 96.0819 781.784 96.8979 781.784C97.7139 781.784 98.3619 781.664 98.8419 781.424C99.3379 781.184 99.5859 780.84 99.5859 780.392V775.52H102.202V788H99.5859V782.456ZM105.938 775.52H108.506V781.616L108.266 784.568H108.362L109.85 781.904L114.17 775.52H116.546V788H113.978V781.904L114.218 778.952H114.122L112.634 781.616L108.314 788H105.938V775.52Z" fill="black"/>
<path d="M40.9014 648H16C19.0648 697.519 148.935 697.147 152 648H127.099C127.099 648 120.203 662.521 83.4254 662.521C46.6479 662.521 40.9014 648 40.9014 648Z" fill="black"/>
<path d="M40.9014 592H16C19.0648 644.196 148.935 643.804 152 592H127.099C127.099 592 120.203 607.306 83.4254 607.306C46.6479 607.306 40.9014 592 40.9014 592Z" fill="black"/>
<path d="M41.9014 933H17C20.0648 985.196 149.935 984.804 153 933H128.099C128.099 933 121.203 948.306 84.4254 948.306C47.6479 948.306 41.9014 933 41.9014 933Z" fill="black"/>
<path d="M40.9014 537H16C19.0648 589.196 148.935 588.804 152 537H127.099C127.099 537 120.203 552.306 83.4254 552.306C46.6479 552.306 40.9014 537 40.9014 537Z" fill="black"/>
<path d="M41.9014 878H17C20.0648 930.196 149.935 929.804 153 878H128.099C128.099 878 121.203 893.306 84.4254 893.306C47.6479 893.306 41.9014 878 41.9014 878Z" fill="black"/>
<path d="M40.9014 93H16C19.0648 42.1425 148.935 42.5246 152 93H127.099C127.099 93 120.203 78.0866 83.4254 78.0866C46.6479 78.0866 40.9014 93 40.9014 93Z" fill="black"/>
<path d="M39.9014 484H15C18.0648 534.858 147.935 534.475 151 484H126.099C126.099 484 119.203 498.913 82.4254 498.913C45.6479 498.913 39.9014 484 39.9014 484Z" fill="black"/>
<path d="M41.9014 824H17C20.0648 874.858 149.935 874.475 153 824H128.099C128.099 824 121.203 838.913 84.4254 838.913C47.6479 838.913 41.9014 824 41.9014 824Z" fill="black"/>
<path d="M40.9014 148H16C19.0648 97.1425 148.935 97.5246 152 148H127.099C127.099 148 120.203 133.087 83.4254 133.087C46.6479 133.087 40.9014 148 40.9014 148Z" fill="black"/>
<path d="M39.9014 399H15C18.0648 346.804 147.935 347.196 151 399H126.099C126.099 399 119.203 383.694 82.4254 383.694C45.6479 383.694 39.9014 399 39.9014 399Z" fill="black"/>
<path d="M41.9014 740H17C20.0648 687.804 149.935 688.196 153 740H128.099C128.099 740 121.203 724.694 84.4254 724.694C47.6479 724.694 41.9014 740 41.9014 740Z" fill="black"/>
<path d="M40.9014 305H16C19.0648 357.196 148.935 356.804 152 305H127.099C127.099 305 120.203 320.306 83.4254 320.306C46.6479 320.306 40.9014 305 40.9014 305Z" fill="black"/>
<path d="M40.9014 37H16C19.0648 -12.5192 148.935 -12.1471 152 37H127.099C127.099 37 120.203 22.4791 83.4254 22.4791C46.6479 22.4791 40.9014 37 40.9014 37Z" fill="black"/>
<path d="M85.3191 149.257H82.5464V200.267H85.3191V149.257Z" fill="#5EB6CA"/>
<path d="M86.9007 147.676H80.958V201.848H86.9007V147.676Z" fill="#5EB6CA"/>
<path d="M138.768 172.531L136.806 170.571L100.753 206.655L102.714 208.615L138.768 172.531Z" fill="#5EB6CA"/>
<path d="M136.795 168.335L98.5068 206.656L102.711 210.856L140.999 172.535L136.795 168.335Z" fill="#5EB6CA"/>
<path d="M160.123 226.774L160.121 224.001L109.111 224.04L109.114 226.813L160.123 226.774Z" fill="#5EB6CA"/>
<path d="M161.696 222.441H107.524V228.383H161.696V222.441Z" fill="#5EB6CA"/>
<path d="M136.887 280.235L138.846 278.272L102.736 242.245L100.778 244.207L136.887 280.235Z" fill="#5EB6CA"/>
<path d="M102.737 240.009L98.54 244.216L136.888 282.478L141.085 278.271L102.737 240.009Z" fill="#5EB6CA"/>
<path d="M82.6613 301.633L85.4341 301.629L85.356 250.62L82.5833 250.624L82.6613 301.633Z" fill="#5EB6CA"/>
<path d="M86.9432 249.041L81.0005 249.05L81.0836 303.221L87.0263 303.212L86.9432 249.041Z" fill="#5EB6CA"/>
<path d="M29.1805 278.438L31.145 280.395L67.1473 244.255L65.1828 242.298L29.1805 278.438Z" fill="#5EB6CA"/>
<path d="M65.1668 240.074L26.9326 278.45L31.1424 282.644L69.3766 244.269L65.1668 240.074Z" fill="#5EB6CA"/>
<path d="M7.74413 224.238L7.75049 227.011L58.7597 226.894L58.7533 224.121L7.74413 224.238Z" fill="#5EB6CA"/>
<path d="M60.3277 222.532L6.15625 222.654L6.1697 228.597L60.3412 228.474L60.3277 222.532Z" fill="#5EB6CA"/>
<path d="M30.8884 170.736L28.9331 172.702L65.0986 208.674L67.054 206.708L30.8884 170.736Z" fill="#5EB6CA"/>
<path d="M30.888 168.494L26.6973 172.707L65.1048 210.909L69.2956 206.696L30.888 168.494Z" fill="#5EB6CA"/>
<path d="M83.769 237.786C90.3711 237.786 95.7231 232.434 95.7231 225.832C95.7231 219.23 90.3711 213.878 83.769 213.878C77.167 213.878 71.8149 219.23 71.8149 225.832C71.8149 232.434 77.167 237.786 83.769 237.786Z" fill="#5EB6CA"/>
</svg>
