<svg width="113" height="1067" viewBox="0 0 113 1067" fill="none" xmlns="http://www.w3.org/2000/svg">
<path d="M21.5368 144.64H26.5228C27.3268 144.64 27.9448 144.856 28.3768 145.288C28.8208 145.72 29.0428 146.296 29.0428 147.016C29.0428 148.192 28.4128 148.858 27.1528 149.014V149.104C27.9088 149.164 28.4668 149.386 28.8268 149.77C29.1988 150.142 29.3848 150.634 29.3848 151.246C29.3848 151.642 29.3188 152.008 29.1868 152.344C29.0668 152.68 28.8868 152.974 28.6468 153.226C28.4188 153.466 28.1368 153.658 27.8008 153.802C27.4648 153.934 27.0868 154 26.6668 154H21.5368V144.64ZM26.2168 152.506C26.5648 152.506 26.8408 152.416 27.0448 152.236C27.2488 152.056 27.3508 151.792 27.3508 151.444V150.958C27.3508 150.61 27.2488 150.346 27.0448 150.166C26.8408 149.974 26.5648 149.878 26.2168 149.878H23.4628V152.506H26.2168ZM25.9648 148.528C26.3008 148.528 26.5588 148.444 26.7388 148.276C26.9188 148.108 27.0088 147.868 27.0088 147.556V147.106C27.0088 146.794 26.9188 146.554 26.7388 146.386C26.5588 146.218 26.3008 146.134 25.9648 146.134H23.4628V148.528H25.9648ZM31.0134 152.398H32.0214L32.5434 151.246C32.7954 150.718 33.1554 150.424 33.6234 150.364V150.292C32.8554 150.208 32.2554 149.944 31.8234 149.5C31.4034 149.044 31.1934 148.426 31.1934 147.646C31.1934 147.178 31.2654 146.764 31.4094 146.404C31.5654 146.032 31.7814 145.714 32.0574 145.45C32.3334 145.186 32.6634 144.988 33.0474 144.856C33.4314 144.712 33.8574 144.64 34.3254 144.64H38.8794V154H36.9174V150.544H34.9194L33.9294 152.686C33.7014 153.19 33.4434 153.538 33.1554 153.73C32.8674 153.91 32.5254 154 32.1294 154H31.0134V152.398ZM36.9174 149.05V146.17H34.7034C34.2474 146.17 33.8874 146.272 33.6234 146.476C33.3594 146.668 33.2274 146.974 33.2274 147.394V147.862C33.2274 148.258 33.3594 148.558 33.6234 148.762C33.8874 148.954 34.2474 149.05 34.7034 149.05H36.9174ZM44.5973 154.216C43.6613 154.216 42.8933 154.06 42.2933 153.748C41.6933 153.436 41.1773 152.992 40.7453 152.416L42.0233 151.246C42.3113 151.666 42.6653 151.996 43.0853 152.236C43.5173 152.476 44.0213 152.596 44.5973 152.596C45.2693 152.596 45.7613 152.476 46.0733 152.236C46.3973 151.996 46.5593 151.684 46.5593 151.3V151.084C46.5593 150.7 46.4273 150.412 46.1633 150.22C45.9113 150.016 45.5453 149.914 45.0653 149.914H43.0493V148.474H44.8673C45.3473 148.474 45.7133 148.384 45.9653 148.204C46.2293 148.012 46.3613 147.736 46.3613 147.376V147.178C46.3613 146.83 46.2173 146.554 45.9293 146.35C45.6413 146.146 45.1853 146.044 44.5613 146.044C43.9973 146.044 43.5173 146.158 43.1213 146.386C42.7253 146.614 42.4073 146.92 42.1673 147.304L40.9433 146.242C41.3033 145.69 41.7833 145.252 42.3833 144.928C42.9953 144.592 43.7633 144.424 44.6873 144.424C45.9353 144.424 46.8593 144.658 47.4593 145.126C48.0713 145.582 48.3773 146.194 48.3773 146.962C48.3773 147.562 48.2213 148.03 47.9093 148.366C47.5973 148.69 47.1293 148.912 46.5053 149.032V149.122C47.1893 149.206 47.7053 149.434 48.0533 149.806C48.4133 150.178 48.5933 150.658 48.5933 151.246C48.5933 152.17 48.2333 152.896 47.5133 153.424C46.8053 153.952 45.8333 154.216 44.5973 154.216ZM57.7327 154C57.2167 154 56.8207 153.856 56.5447 153.568C56.2687 153.268 56.1007 152.89 56.0407 152.434H55.9507C55.7707 153.022 55.4407 153.466 54.9607 153.766C54.4807 154.066 53.8987 154.216 53.2147 154.216C52.2427 154.216 51.4927 153.964 50.9647 153.46C50.4487 152.956 50.1907 152.278 50.1907 151.426C50.1907 150.49 50.5267 149.788 51.1987 149.32C51.8827 148.852 52.8787 148.618 54.1867 148.618H55.8787V147.826C55.8787 147.25 55.7227 146.806 55.4107 146.494C55.0987 146.182 54.6127 146.026 53.9527 146.026C53.4007 146.026 52.9507 146.146 52.6027 146.386C52.2547 146.626 51.9607 146.932 51.7207 147.304L50.5507 146.242C50.8627 145.714 51.3007 145.282 51.8647 144.946C52.4287 144.598 53.1667 144.424 54.0787 144.424C55.2907 144.424 56.2207 144.706 56.8687 145.27C57.5167 145.834 57.8407 146.644 57.8407 147.7V152.398H58.8307V154H57.7327ZM53.7727 152.722C54.3847 152.722 54.8887 152.59 55.2847 152.326C55.6807 152.05 55.8787 151.684 55.8787 151.228V149.878H54.2227C52.8667 149.878 52.1887 150.298 52.1887 151.138V151.462C52.1887 151.882 52.3267 152.2 52.6027 152.416C52.8907 152.62 53.2807 152.722 53.7727 152.722ZM60.7536 144.64H62.7156V148.402H66.7476V144.64H68.7096V154H66.7476V150.004H62.7156V154H60.7536V144.64ZM71.5114 144.64H73.4374V149.212L73.2574 151.426H73.3294L74.4454 149.428L77.6854 144.64H79.4674V154H77.5414V149.428L77.7214 147.214H77.6494L76.5334 149.212L73.2934 154H71.5114V144.64ZM85.9412 154.216C85.2692 154.216 84.6692 154.102 84.1412 153.874C83.6132 153.646 83.1632 153.322 82.7912 152.902C82.4192 152.47 82.1312 151.954 81.9272 151.354C81.7352 150.742 81.6392 150.064 81.6392 149.32C81.6392 148.576 81.7352 147.904 81.9272 147.304C82.1312 146.692 82.4192 146.176 82.7912 145.756C83.1632 145.324 83.6132 144.994 84.1412 144.766C84.6692 144.538 85.2692 144.424 85.9412 144.424C86.6252 144.424 87.2252 144.544 87.7412 144.784C88.2692 145.024 88.7072 145.36 89.0552 145.792C89.4032 146.212 89.6612 146.704 89.8292 147.268C90.0092 147.832 90.0992 148.438 90.0992 149.086V149.824H83.6732V150.13C83.6732 150.85 83.8832 151.444 84.3032 151.912C84.7352 152.368 85.3472 152.596 86.1392 152.596C86.7152 152.596 87.2012 152.47 87.5972 152.218C87.9932 151.966 88.3292 151.624 88.6052 151.192L89.7572 152.326C89.4092 152.902 88.9052 153.364 88.2452 153.712C87.5852 154.048 86.8172 154.216 85.9412 154.216ZM85.9412 145.954C85.6052 145.954 85.2932 146.014 85.0052 146.134C84.7292 146.254 84.4892 146.422 84.2852 146.638C84.0932 146.854 83.9432 147.112 83.8352 147.412C83.7272 147.712 83.6732 148.042 83.6732 148.402V148.528H88.0292V148.348C88.0292 147.628 87.8432 147.052 87.4712 146.62C87.0992 146.176 86.5892 145.954 85.9412 145.954Z" fill="black"/>
<path d="M17.8339 462.398H18.9679C19.3159 461.858 19.5859 461.18 19.7779 460.364C19.9819 459.536 20.0839 458.522 20.0839 457.322V454.64H26.9239V462.398H28.5079V466.52H26.7259V464H19.6159V466.52H17.8339V462.398ZM24.9619 462.398V456.242H21.9559V457.43C21.9559 458.69 21.8659 459.722 21.6859 460.526C21.5059 461.318 21.2959 461.942 21.0559 462.398H24.9619ZM33.9627 464.216C33.2907 464.216 32.6907 464.102 32.1627 463.874C31.6347 463.646 31.1847 463.322 30.8127 462.902C30.4407 462.47 30.1527 461.954 29.9487 461.354C29.7567 460.742 29.6607 460.064 29.6607 459.32C29.6607 458.576 29.7567 457.904 29.9487 457.304C30.1527 456.692 30.4407 456.176 30.8127 455.756C31.1847 455.324 31.6347 454.994 32.1627 454.766C32.6907 454.538 33.2907 454.424 33.9627 454.424C34.6467 454.424 35.2467 454.544 35.7627 454.784C36.2907 455.024 36.7287 455.36 37.0767 455.792C37.4247 456.212 37.6827 456.704 37.8507 457.268C38.0307 457.832 38.1207 458.438 38.1207 459.086V459.824H31.6947V460.13C31.6947 460.85 31.9047 461.444 32.3247 461.912C32.7567 462.368 33.3687 462.596 34.1607 462.596C34.7367 462.596 35.2227 462.47 35.6187 462.218C36.0147 461.966 36.3507 461.624 36.6267 461.192L37.7787 462.326C37.4307 462.902 36.9267 463.364 36.2667 463.712C35.6067 464.048 34.8387 464.216 33.9627 464.216ZM33.9627 455.954C33.6267 455.954 33.3147 456.014 33.0267 456.134C32.7507 456.254 32.5107 456.422 32.3067 456.638C32.1147 456.854 31.9647 457.112 31.8567 457.412C31.7487 457.712 31.6947 458.042 31.6947 458.402V458.528H36.0507V458.348C36.0507 457.628 35.8647 457.052 35.4927 456.62C35.1207 456.176 34.6107 455.954 33.9627 455.954ZM40.2927 454.64H42.2547V458.42H43.9107L45.4587 455.81C45.7227 455.366 45.9867 455.06 46.2507 454.892C46.5147 454.724 46.8507 454.64 47.2587 454.64H48.2127V456.242H47.1687L45.9807 458.222C45.8007 458.534 45.6387 458.75 45.4947 458.87C45.3627 458.99 45.1827 459.08 44.9547 459.14V459.212C45.1947 459.26 45.4047 459.35 45.5847 459.482C45.7647 459.602 45.9387 459.818 46.1067 460.13L47.3667 462.398H48.3927V464H47.2767C46.8807 464 46.5387 463.91 46.2507 463.73C45.9747 463.55 45.7107 463.232 45.4587 462.776L43.9107 460.004H42.2547V464H40.2927V454.64ZM56.2651 454.64H58.1551L54.2131 465.854C54.1051 466.166 53.9791 466.43 53.8351 466.646C53.7031 466.874 53.5411 467.054 53.3491 467.186C53.1691 467.33 52.9471 467.432 52.6831 467.492C52.4191 467.564 52.1071 467.6 51.7471 467.6H50.6131V465.998H52.1971L52.7371 464.414L49.3351 454.64H51.2971L53.1691 460.148L53.7091 462.182H53.7991L54.3931 460.148L56.2651 454.64ZM59.7692 454.64H67.4552V464H65.4932V456.242H61.7312V464H59.7692V454.64ZM77.1214 464C76.6054 464 76.2094 463.856 75.9334 463.568C75.6574 463.268 75.4894 462.89 75.4294 462.434H75.3394C75.1594 463.022 74.8294 463.466 74.3494 463.766C73.8694 464.066 73.2874 464.216 72.6034 464.216C71.6314 464.216 70.8814 463.964 70.3534 463.46C69.8374 462.956 69.5794 462.278 69.5794 461.426C69.5794 460.49 69.9154 459.788 70.5874 459.32C71.2714 458.852 72.2674 458.618 73.5754 458.618H75.2674V457.826C75.2674 457.25 75.1114 456.806 74.7994 456.494C74.4874 456.182 74.0014 456.026 73.3414 456.026C72.7894 456.026 72.3394 456.146 71.9914 456.386C71.6434 456.626 71.3494 456.932 71.1094 457.304L69.9394 456.242C70.2514 455.714 70.6894 455.282 71.2534 454.946C71.8174 454.598 72.5554 454.424 73.4674 454.424C74.6794 454.424 75.6094 454.706 76.2574 455.27C76.9054 455.834 77.2294 456.644 77.2294 457.7V462.398H78.2194V464H77.1214ZM73.1614 462.722C73.7734 462.722 74.2774 462.59 74.6734 462.326C75.0694 462.05 75.2674 461.684 75.2674 461.228V459.878H73.6114C72.2554 459.878 71.5774 460.298 71.5774 461.138V461.462C71.5774 461.882 71.7154 462.2 71.9914 462.416C72.2794 462.62 72.6694 462.722 73.1614 462.722ZM79.4403 462.398H80.4843L81.5103 460.13C81.6423 459.854 81.7983 459.644 81.9783 459.5C82.1703 459.356 82.3803 459.26 82.6083 459.212V459.14C82.1523 459.008 81.7983 458.684 81.5463 458.168L80.6643 456.242H79.6203V454.64H80.5743C80.9943 454.64 81.3483 454.736 81.6363 454.928C81.9363 455.12 82.1883 455.432 82.3923 455.864L83.5983 458.42H85.0563V454.64H87.0183V458.42H88.4763L89.6823 455.864C89.8863 455.432 90.1323 455.12 90.4203 454.928C90.7203 454.736 91.0803 454.64 91.5003 454.64H92.4543V456.242H91.4103L90.5283 458.168C90.2763 458.684 89.9223 459.008 89.4663 459.14V459.212C89.6943 459.26 89.8983 459.356 90.0783 459.5C90.2703 459.644 90.4323 459.854 90.5643 460.13L91.5903 462.398H92.6343V464H91.5183C91.1103 464 90.7623 463.91 90.4743 463.73C90.1863 463.538 89.9283 463.196 89.7003 462.704L88.4763 460.004H87.0183V464H85.0563V460.004H83.5983L82.3743 462.704C82.1463 463.196 81.8883 463.538 81.6003 463.73C81.3123 463.91 80.9643 464 80.5563 464H79.4403V462.398Z" fill="black"/>
<path d="M31.57 979.64H33.532V983.42H35.188L36.736 980.81C37 980.366 37.264 980.06 37.528 979.892C37.792 979.724 38.128 979.64 38.536 979.64H39.49V981.242H38.446L37.258 983.222C37.078 983.534 36.916 983.75 36.772 983.87C36.64 983.99 36.46 984.08 36.232 984.14V984.212C36.472 984.26 36.682 984.35 36.862 984.482C37.042 984.602 37.216 984.818 37.384 985.13L38.644 987.398H39.67V989H38.554C38.158 989 37.816 988.91 37.528 988.73C37.252 988.55 36.988 988.232 36.736 987.776L35.188 985.004H33.532V989H31.57V979.64ZM45.2264 989.216C44.5784 989.216 43.9844 989.102 43.4444 988.874C42.9164 988.646 42.4664 988.322 42.0944 987.902C41.7224 987.47 41.4344 986.954 41.2304 986.354C41.0264 985.742 40.9244 985.064 40.9244 984.32C40.9244 983.576 41.0264 982.904 41.2304 982.304C41.4344 981.692 41.7224 981.176 42.0944 980.756C42.4664 980.324 42.9164 979.994 43.4444 979.766C43.9844 979.538 44.5784 979.424 45.2264 979.424C45.8744 979.424 46.4624 979.538 46.9904 979.766C47.5304 979.994 47.9864 980.324 48.3584 980.756C48.7304 981.176 49.0184 981.692 49.2224 982.304C49.4264 982.904 49.5284 983.576 49.5284 984.32C49.5284 985.064 49.4264 985.742 49.2224 986.354C49.0184 986.954 48.7304 987.47 48.3584 987.902C47.9864 988.322 47.5304 988.646 46.9904 988.874C46.4624 989.102 45.8744 989.216 45.2264 989.216ZM45.2264 987.596C45.8984 987.596 46.4384 987.392 46.8464 986.984C47.2544 986.564 47.4584 985.94 47.4584 985.112V983.528C47.4584 982.7 47.2544 982.082 46.8464 981.674C46.4384 981.254 45.8984 981.044 45.2264 981.044C44.5544 981.044 44.0144 981.254 43.6064 981.674C43.1984 982.082 42.9944 982.7 42.9944 983.528V985.112C42.9944 985.94 43.1984 986.564 43.6064 986.984C44.0144 987.392 44.5544 987.596 45.2264 987.596ZM51.7145 979.64H56.7005C57.5045 979.64 58.1225 979.856 58.5545 980.288C58.9985 980.72 59.2205 981.296 59.2205 982.016C59.2205 983.192 58.5905 983.858 57.3305 984.014V984.104C58.0865 984.164 58.6445 984.386 59.0045 984.77C59.3765 985.142 59.5625 985.634 59.5625 986.246C59.5625 986.642 59.4965 987.008 59.3645 987.344C59.2445 987.68 59.0645 987.974 58.8245 988.226C58.5965 988.466 58.3145 988.658 57.9785 988.802C57.6425 988.934 57.2645 989 56.8445 989H51.7145V979.64ZM56.3945 987.506C56.7425 987.506 57.0185 987.416 57.2225 987.236C57.4265 987.056 57.5285 986.792 57.5285 986.444V985.958C57.5285 985.61 57.4265 985.346 57.2225 985.166C57.0185 984.974 56.7425 984.878 56.3945 984.878H53.6405V987.506H56.3945ZM56.1425 983.528C56.4785 983.528 56.7365 983.444 56.9165 983.276C57.0965 983.108 57.1865 982.868 57.1865 982.556V982.106C57.1865 981.794 57.0965 981.554 56.9165 981.386C56.7365 981.218 56.4785 981.134 56.1425 981.134H53.6405V983.528H56.1425ZM61.9099 979.64H63.8719V981.188H63.9619C64.1659 980.624 64.4959 980.192 64.9519 979.892C65.4199 979.58 65.9659 979.424 66.5899 979.424C67.7779 979.424 68.6959 979.856 69.3439 980.72C69.9919 981.572 70.3159 982.772 70.3159 984.32C70.3159 985.868 69.9919 987.074 69.3439 987.938C68.6959 988.79 67.7779 989.216 66.5899 989.216C65.9659 989.216 65.4199 989.06 64.9519 988.748C64.4959 988.436 64.1659 988.004 63.9619 987.452H63.8719V992.6H61.9099V979.64ZM65.9959 987.524C66.6799 987.524 67.2259 987.308 67.6339 986.876C68.0419 986.432 68.2459 985.85 68.2459 985.13V983.51C68.2459 982.79 68.0419 982.214 67.6339 981.782C67.2259 981.338 66.6799 981.116 65.9959 981.116C65.3959 981.116 64.8919 981.266 64.4839 981.566C64.0759 981.854 63.8719 982.238 63.8719 982.718V985.922C63.8719 986.402 64.0759 986.792 64.4839 987.092C64.8919 987.38 65.3959 987.524 65.9959 987.524ZM72.5622 979.64H74.5242V982.772H76.9182C77.3862 982.772 77.8122 982.844 78.1962 982.988C78.5802 983.12 78.9102 983.324 79.1862 983.6C79.4622 983.864 79.6782 984.188 79.8342 984.572C79.9902 984.956 80.0682 985.394 80.0682 985.886C80.0682 986.882 79.7802 987.65 79.2042 988.19C78.6282 988.73 77.8722 989 76.9362 989H72.5622V979.64ZM76.5582 987.47C77.0142 987.47 77.3742 987.374 77.6382 987.182C77.9022 986.978 78.0342 986.666 78.0342 986.246V985.508C78.0342 985.088 77.9022 984.782 77.6382 984.59C77.3742 984.398 77.0142 984.302 76.5582 984.302H74.5242V987.47H76.5582ZM81.4722 979.64H83.4342V989H81.4722V979.64Z" fill="black"/>
<path d="M24.0674 55H7C7 -18.0584 105 -18.6077 105 55H87.6573C87.6573 55 88.4831 17.6493 56.2753 17.9216C24.0674 18.194 24.0674 55 24.0674 55Z" fill="black"/>
<path d="M24.0674 366H7C7 291.613 105 291.054 105 366H87.6573C87.6573 366 88.4831 327.97 56.2753 328.247C24.0674 328.525 24.0674 366 24.0674 366Z" fill="black"/>
<path d="M26.0674 825H9C9 750.613 107 750.054 107 825H89.6573C89.6573 825 90.4831 786.97 58.2753 787.247C26.0674 787.525 26.0674 825 26.0674 825Z" fill="black"/>
<path d="M24.0674 122H7C7 48.9416 105 48.3923 105 122H87.6573C87.6573 122 88.4831 84.6493 56.2753 84.9216C24.0674 85.194 24.0674 122 24.0674 122Z" fill="black"/>
<path d="M24.0674 432H7C7 357.613 105 357.054 105 432H87.6573C87.6573 432 88.4831 393.97 56.2753 394.247C24.0674 394.525 24.0674 432 24.0674 432Z" fill="black"/>
<path d="M26.0674 957H9C9 882.613 107 882.054 107 957H89.6573C89.6573 957 90.4831 918.97 58.2753 919.247C26.0674 919.525 26.0674 957 26.0674 957Z" fill="black"/>
<path d="M26.0674 891H9C9 816.613 107 816.054 107 891H89.6573C89.6573 891 90.4831 852.97 58.2753 853.247C26.0674 853.525 26.0674 891 26.0674 891Z" fill="black"/>
<path d="M23.2416 607H6C6 533.942 105 533.392 105 607H87.4803C87.4803 607 88.3146 569.649 55.7781 569.922C23.2416 570.194 23.2416 607 23.2416 607Z" fill="black"/>
<path d="M24.0674 486H7C7 560.387 105 560.946 105 486H87.6573C87.6573 486 88.4831 524.03 56.2753 523.753C24.0674 523.475 24.0674 486 24.0674 486Z" fill="black"/>
<path d="M26.0674 1011H9C9 1085.39 107 1085.95 107 1011H89.6573C89.6573 1011 90.4831 1049.03 58.2753 1048.75C26.0674 1048.48 26.0674 1011 26.0674 1011Z" fill="black"/>
<path d="M23.2416 703H6C6 777.387 105 777.946 105 703H87.4803C87.4803 703 88.3146 741.03 55.7781 740.753C23.2416 740.475 23.2416 703 23.2416 703Z" fill="black"/>
<path d="M24.0674 178H7C7 251.058 105 251.608 105 178H87.6573C87.6573 178 88.4831 215.351 56.2753 215.078C24.0674 214.806 24.0674 178 24.0674 178Z" fill="black"/>
<path d="M24.0674 299H7C7 224.613 105 224.054 105 299H87.6573C87.6573 299 88.4831 260.97 56.2753 261.247C24.0674 261.525 24.0674 299 24.0674 299Z" fill="black"/>
<path d="M57.2458 598.129H55.2407V635.016H57.2458V598.129Z" fill="#FFD101"/>
<path d="M58.3892 596.985H54.0918V636.159H58.3892V596.985Z" fill="#FFD101"/>
<path d="M95.8964 614.958L94.478 613.541L68.4065 639.635L69.8249 641.052L95.8964 614.958Z" fill="#FFD101"/>
<path d="M94.4705 611.924L66.7827 639.636L69.8227 642.673L97.5105 614.962L94.4705 611.924Z" fill="#FFD101"/>
<path d="M111.339 654.183L111.337 652.178L74.4507 652.206L74.4523 654.211L111.339 654.183Z" fill="#FFD101"/>
<path d="M112.477 651.05H73.3032V655.348H112.477V651.05Z" fill="#FFD101"/>
<path d="M94.5369 692.843L95.9531 691.424L69.841 665.371L68.4249 666.79L94.5369 692.843Z" fill="#FFD101"/>
<path d="M69.8414 663.755L66.8062 666.797L94.537 694.465L97.5723 691.423L69.8414 663.755Z" fill="#FFD101"/>
<path d="M55.324 708.318L57.3291 708.315L57.2727 671.428L55.2676 671.431L55.324 708.318Z" fill="#FFD101"/>
<path d="M58.4204 670.286L54.123 670.293L54.1832 709.466L58.4805 709.46L58.4204 670.286Z" fill="#FFD101"/>
<path d="M16.6502 691.545L18.0708 692.96L44.1054 666.826L42.6848 665.411L16.6502 691.545Z" fill="#FFD101"/>
<path d="M42.673 663.802L15.0244 691.553L18.0687 694.586L45.7173 666.835L42.673 663.802Z" fill="#FFD101"/>
<path d="M1.14823 652.351L1.15283 654.356L38.0395 654.271L38.0349 652.266L1.14823 652.351Z" fill="#FFD101"/>
<path d="M39.1735 651.117L0 651.205L0.00972354 655.503L39.1832 655.414L39.1735 651.117Z" fill="#FFD101"/>
<path d="M17.8857 613.661L16.4717 615.082L42.6243 641.095L44.0383 639.673L17.8857 613.661Z" fill="#FFD101"/>
<path d="M17.885 612.039L14.8545 615.086L42.6285 642.711L45.659 639.664L17.885 612.039Z" fill="#FFD101"/>
<path d="M55.789 662.147C60.5632 662.147 64.4334 658.277 64.4334 653.503C64.4334 648.729 60.5632 644.858 55.789 644.858C51.0148 644.858 47.1445 648.729 47.1445 653.503C47.1445 658.277 51.0148 662.147 55.789 662.147Z" fill="#FFD101"/>
</svg>
