<svg width="114" height="1211" viewBox="0 0 114 1211" fill="none" xmlns="http://www.w3.org/2000/svg">
<path d="M27.0651 130.64H29.0271V132.188H29.1171C29.3211 131.624 29.6511 131.192 30.1071 130.892C30.5751 130.58 31.1211 130.424 31.7451 130.424C32.9331 130.424 33.8511 130.856 34.4991 131.72C35.1471 132.572 35.4711 133.772 35.4711 135.32C35.4711 136.868 35.1471 138.074 34.4991 138.938C33.8511 139.79 32.9331 140.216 31.7451 140.216C31.1211 140.216 30.5751 140.06 30.1071 139.748C29.6511 139.436 29.3211 139.004 29.1171 138.452H29.0271V143.6H27.0651V130.64ZM31.1511 138.524C31.8351 138.524 32.3811 138.308 32.7891 137.876C33.1971 137.432 33.4011 136.85 33.4011 136.13V134.51C33.4011 133.79 33.1971 133.214 32.7891 132.782C32.3811 132.338 31.8351 132.116 31.1511 132.116C30.5511 132.116 30.0471 132.266 29.6391 132.566C29.2311 132.854 29.0271 133.238 29.0271 133.718V136.922C29.0271 137.402 29.2311 137.792 29.6391 138.092C30.0471 138.38 30.5511 138.524 31.1511 138.524ZM41.3895 140.216C40.7175 140.216 40.1175 140.102 39.5895 139.874C39.0615 139.646 38.6115 139.322 38.2395 138.902C37.8675 138.47 37.5795 137.954 37.3755 137.354C37.1835 136.742 37.0875 136.064 37.0875 135.32C37.0875 134.576 37.1835 133.904 37.3755 133.304C37.5795 132.692 37.8675 132.176 38.2395 131.756C38.6115 131.324 39.0615 130.994 39.5895 130.766C40.1175 130.538 40.7175 130.424 41.3895 130.424C42.0735 130.424 42.6735 130.544 43.1895 130.784C43.7175 131.024 44.1555 131.36 44.5035 131.792C44.8515 132.212 45.1095 132.704 45.2775 133.268C45.4575 133.832 45.5475 134.438 45.5475 135.086V135.824H39.1215V136.13C39.1215 136.85 39.3315 137.444 39.7515 137.912C40.1835 138.368 40.7955 138.596 41.5875 138.596C42.1635 138.596 42.6495 138.47 43.0455 138.218C43.4415 137.966 43.7775 137.624 44.0535 137.192L45.2055 138.326C44.8575 138.902 44.3535 139.364 43.6935 139.712C43.0335 140.048 42.2655 140.216 41.3895 140.216ZM41.3895 131.954C41.0535 131.954 40.7415 132.014 40.4535 132.134C40.1775 132.254 39.9375 132.422 39.7335 132.638C39.5415 132.854 39.3915 133.112 39.2835 133.412C39.1755 133.712 39.1215 134.042 39.1215 134.402V134.528H43.4775V134.348C43.4775 133.628 43.2915 133.052 42.9195 132.62C42.5475 132.176 42.0375 131.954 41.3895 131.954ZM50.6354 140.216C49.6994 140.216 48.9314 140.06 48.3314 139.748C47.7314 139.436 47.2154 138.992 46.7834 138.416L48.0614 137.246C48.3494 137.666 48.7034 137.996 49.1234 138.236C49.5554 138.476 50.0594 138.596 50.6354 138.596C51.3074 138.596 51.7994 138.476 52.1114 138.236C52.4354 137.996 52.5974 137.684 52.5974 137.3V137.084C52.5974 136.7 52.4654 136.412 52.2014 136.22C51.9494 136.016 51.5834 135.914 51.1034 135.914H49.0874V134.474H50.9054C51.3854 134.474 51.7514 134.384 52.0034 134.204C52.2674 134.012 52.3994 133.736 52.3994 133.376V133.178C52.3994 132.83 52.2554 132.554 51.9674 132.35C51.6794 132.146 51.2234 132.044 50.5994 132.044C50.0354 132.044 49.5554 132.158 49.1594 132.386C48.7634 132.614 48.4454 132.92 48.2054 133.304L46.9814 132.242C47.3414 131.69 47.8214 131.252 48.4214 130.928C49.0334 130.592 49.8014 130.424 50.7254 130.424C51.9734 130.424 52.8974 130.658 53.4974 131.126C54.1094 131.582 54.4154 132.194 54.4154 132.962C54.4154 133.562 54.2594 134.03 53.9474 134.366C53.6354 134.69 53.1674 134.912 52.5434 135.032V135.122C53.2274 135.206 53.7434 135.434 54.0914 135.806C54.4514 136.178 54.6314 136.658 54.6314 137.246C54.6314 138.17 54.2714 138.896 53.5514 139.424C52.8434 139.952 51.8714 140.216 50.6354 140.216ZM56.9655 130.64H58.9275V133.772H61.5015C62.4375 133.772 63.1935 134.048 63.7695 134.6C64.3575 135.14 64.6515 135.902 64.6515 136.886C64.6515 137.882 64.3635 138.65 63.7875 139.19C63.2115 139.73 62.4555 140 61.5195 140H56.9655V130.64ZM61.1415 138.47C61.5975 138.47 61.9575 138.374 62.2215 138.182C62.4855 137.978 62.6175 137.666 62.6175 137.246V136.508C62.6175 136.088 62.4855 135.782 62.2215 135.59C61.9575 135.398 61.5975 135.302 61.1415 135.302H58.9275V138.47H61.1415ZM70.3951 140.216C69.7231 140.216 69.1231 140.108 68.5951 139.892C68.0671 139.664 67.6171 139.31 67.2451 138.83C66.8731 138.35 66.5851 137.744 66.3811 137.012C66.1891 136.268 66.0931 135.374 66.0931 134.33C66.0931 133.058 66.1831 131.966 66.3631 131.054C66.5551 130.13 66.8491 129.368 67.2451 128.768C67.6531 128.156 68.1631 127.688 68.7751 127.364C69.3991 127.04 70.1431 126.842 71.0071 126.77L73.9951 126.5V128.426L70.8991 128.714C70.4071 128.762 69.9931 128.858 69.6571 129.002C69.3331 129.146 69.0631 129.368 68.8471 129.668C68.6431 129.956 68.4871 130.346 68.3791 130.838C68.2711 131.318 68.1931 131.918 68.1451 132.638H68.2351C68.4751 132.014 68.7991 131.546 69.2071 131.234C69.6271 130.922 70.1911 130.766 70.8991 130.766C71.4511 130.766 71.9551 130.874 72.4111 131.09C72.8791 131.294 73.2811 131.594 73.6171 131.99C73.9531 132.386 74.2111 132.872 74.3911 133.448C74.5831 134.012 74.6791 134.66 74.6791 135.392C74.6791 136.124 74.5771 136.79 74.3731 137.39C74.1691 137.978 73.8811 138.482 73.5091 138.902C73.1371 139.322 72.6871 139.646 72.1591 139.874C71.6311 140.102 71.0431 140.216 70.3951 140.216ZM70.3951 138.596C71.0791 138.596 71.6191 138.386 72.0151 137.966C72.4111 137.534 72.6091 136.904 72.6091 136.076V134.906C72.6091 134.078 72.4111 133.454 72.0151 133.034C71.6191 132.602 71.0791 132.386 70.3951 132.386C69.6751 132.386 69.1231 132.578 68.7391 132.962C68.3671 133.346 68.1811 133.862 68.1811 134.51V136.076C68.1811 136.904 68.3791 137.534 68.7751 137.966C69.1711 138.386 69.7111 138.596 70.3951 138.596ZM83.722 140C83.206 140 82.81 139.856 82.534 139.568C82.258 139.268 82.09 138.89 82.03 138.434H81.94C81.76 139.022 81.43 139.466 80.95 139.766C80.47 140.066 79.888 140.216 79.204 140.216C78.232 140.216 77.482 139.964 76.954 139.46C76.438 138.956 76.18 138.278 76.18 137.426C76.18 136.49 76.516 135.788 77.188 135.32C77.872 134.852 78.868 134.618 80.176 134.618H81.868V133.826C81.868 133.25 81.712 132.806 81.4 132.494C81.088 132.182 80.602 132.026 79.942 132.026C79.39 132.026 78.94 132.146 78.592 132.386C78.244 132.626 77.95 132.932 77.71 133.304L76.54 132.242C76.852 131.714 77.29 131.282 77.854 130.946C78.418 130.598 79.156 130.424 80.068 130.424C81.28 130.424 82.21 130.706 82.858 131.27C83.506 131.834 83.83 132.644 83.83 133.7V138.398H84.82V140H83.722ZM79.762 138.722C80.374 138.722 80.878 138.59 81.274 138.326C81.67 138.05 81.868 137.684 81.868 137.228V135.878H80.212C78.856 135.878 78.178 136.298 78.178 137.138V137.462C78.178 137.882 78.316 138.2 78.592 138.416C78.88 138.62 79.27 138.722 79.762 138.722Z" fill="black"/>
<path d="M17.2054 353C16.6894 353 16.2934 352.856 16.0174 352.568C15.7414 352.268 15.5734 351.89 15.5134 351.434H15.4234C15.2434 352.022 14.9134 352.466 14.4334 352.766C13.9534 353.066 13.3714 353.216 12.6874 353.216C11.7154 353.216 10.9654 352.964 10.4374 352.46C9.92136 351.956 9.66336 351.278 9.66336 350.426C9.66336 349.49 9.99936 348.788 10.6714 348.32C11.3554 347.852 12.3514 347.618 13.6594 347.618H15.3514V346.826C15.3514 346.25 15.1954 345.806 14.8834 345.494C14.5714 345.182 14.0854 345.026 13.4254 345.026C12.8734 345.026 12.4234 345.146 12.0754 345.386C11.7274 345.626 11.4334 345.932 11.1934 346.304L10.0234 345.242C10.3354 344.714 10.7734 344.282 11.3374 343.946C11.9014 343.598 12.6394 343.424 13.5514 343.424C14.7634 343.424 15.6934 343.706 16.3414 344.27C16.9894 344.834 17.3134 345.644 17.3134 346.7V351.398H18.3034V353H17.2054ZM13.2454 351.722C13.8574 351.722 14.3614 351.59 14.7574 351.326C15.1534 351.05 15.3514 350.684 15.3514 350.228V348.878H13.6954C12.3394 348.878 11.6614 349.298 11.6614 350.138V350.462C11.6614 350.882 11.7994 351.2 12.0754 351.416C12.3634 351.62 12.7534 351.722 13.2454 351.722ZM20.2263 343.64H22.6023L25.2483 348.068H25.2843L27.9303 343.64H30.1983V353H28.2723V346.052H28.2003L27.5883 347.204L25.2123 351.164L22.8363 347.204L22.2243 346.052H22.1523V353H20.2263V343.64ZM33.0056 343.64H34.9316V348.212L34.7516 350.426H34.8236L35.9396 348.428L39.1796 343.64H40.9616V353H39.0356V348.428L39.2156 346.214H39.1436L38.0276 348.212L34.7876 353H33.0056V343.64ZM43.7634 343.64H49.8654V345.242H45.7254V353H43.7634V343.64ZM57.644 343.64H59.534L55.592 354.854C55.484 355.166 55.358 355.43 55.214 355.646C55.082 355.874 54.92 356.054 54.728 356.186C54.548 356.33 54.326 356.432 54.062 356.492C53.798 356.564 53.486 356.6 53.126 356.6H51.992V354.998H53.576L54.116 353.414L50.714 343.64H52.676L54.548 349.148L55.088 351.182H55.178L55.772 349.148L57.644 343.64ZM61.1481 343.64H63.1101V345.188H63.2001C63.4041 344.624 63.7341 344.192 64.1901 343.892C64.6581 343.58 65.2041 343.424 65.8281 343.424C67.0161 343.424 67.9341 343.856 68.5821 344.72C69.2301 345.572 69.5541 346.772 69.5541 348.32C69.5541 349.868 69.2301 351.074 68.5821 351.938C67.9341 352.79 67.0161 353.216 65.8281 353.216C65.2041 353.216 64.6581 353.06 64.1901 352.748C63.7341 352.436 63.4041 352.004 63.2001 351.452H63.1101V356.6H61.1481V343.64ZM65.2341 351.524C65.9181 351.524 66.4641 351.308 66.8721 350.876C67.2801 350.432 67.4841 349.85 67.4841 349.13V347.51C67.4841 346.79 67.2801 346.214 66.8721 345.782C66.4641 345.338 65.9181 345.116 65.2341 345.116C64.6341 345.116 64.1301 345.266 63.7221 345.566C63.3141 345.854 63.1101 346.238 63.1101 346.718V349.922C63.1101 350.402 63.3141 350.792 63.7221 351.092C64.1301 351.38 64.6341 351.524 65.2341 351.524ZM77.4194 343.64H79.3094L75.3674 354.854C75.2594 355.166 75.1334 355.43 74.9894 355.646C74.8574 355.874 74.6954 356.054 74.5034 356.186C74.3234 356.33 74.1014 356.432 73.8374 356.492C73.5734 356.564 73.2614 356.6 72.9014 356.6H71.7674V354.998H73.3514L73.8914 353.414L70.4894 343.64H72.4514L74.3234 349.148L74.8634 351.182H74.9534L75.5474 349.148L77.4194 343.64ZM80.9235 343.64H83.2995L85.9455 348.068H85.9815L88.6275 343.64H90.8955V353H88.9695V346.052H88.8975L88.2855 347.204L85.9095 351.164L83.5335 347.204L82.9215 346.052H82.8495V353H80.9235V343.64ZM93.7028 343.64H95.6288V348.212L95.4488 350.426H95.5208L96.6368 348.428L99.8768 343.64H101.659V353H99.7328V348.428L99.9128 346.214H99.8408L98.7248 348.212L95.4848 353H93.7028V343.64Z" fill="black"/>
<path d="M22.3532 706.64H24.3152V708.188H24.4052C24.6092 707.624 24.9392 707.192 25.3952 706.892C25.8632 706.58 26.4092 706.424 27.0332 706.424C28.2212 706.424 29.1392 706.856 29.7872 707.72C30.4352 708.572 30.7592 709.772 30.7592 711.32C30.7592 712.868 30.4352 714.074 29.7872 714.938C29.1392 715.79 28.2212 716.216 27.0332 716.216C26.4092 716.216 25.8632 716.06 25.3952 715.748C24.9392 715.436 24.6092 715.004 24.4052 714.452H24.3152V719.6H22.3532V706.64ZM26.4392 714.524C27.1232 714.524 27.6692 714.308 28.0772 713.876C28.4852 713.432 28.6892 712.85 28.6892 712.13V710.51C28.6892 709.79 28.4852 709.214 28.0772 708.782C27.6692 708.338 27.1232 708.116 26.4392 708.116C25.8392 708.116 25.3352 708.266 24.9272 708.566C24.5192 708.854 24.3152 709.238 24.3152 709.718V712.922C24.3152 713.402 24.5192 713.792 24.9272 714.092C25.3352 714.38 25.8392 714.524 26.4392 714.524ZM36.6776 716.216C36.0296 716.216 35.4356 716.102 34.8956 715.874C34.3676 715.646 33.9176 715.322 33.5456 714.902C33.1736 714.47 32.8856 713.954 32.6816 713.354C32.4776 712.742 32.3756 712.064 32.3756 711.32C32.3756 710.576 32.4776 709.904 32.6816 709.304C32.8856 708.692 33.1736 708.176 33.5456 707.756C33.9176 707.324 34.3676 706.994 34.8956 706.766C35.4356 706.538 36.0296 706.424 36.6776 706.424C37.3256 706.424 37.9136 706.538 38.4416 706.766C38.9816 706.994 39.4376 707.324 39.8096 707.756C40.1816 708.176 40.4696 708.692 40.6736 709.304C40.8776 709.904 40.9796 710.576 40.9796 711.32C40.9796 712.064 40.8776 712.742 40.6736 713.354C40.4696 713.954 40.1816 714.47 39.8096 714.902C39.4376 715.322 38.9816 715.646 38.4416 715.874C37.9136 716.102 37.3256 716.216 36.6776 716.216ZM36.6776 714.596C37.3496 714.596 37.8896 714.392 38.2976 713.984C38.7056 713.564 38.9096 712.94 38.9096 712.112V710.528C38.9096 709.7 38.7056 709.082 38.2976 708.674C37.8896 708.254 37.3496 708.044 36.6776 708.044C36.0056 708.044 35.4656 708.254 35.0576 708.674C34.6496 709.082 34.4456 709.7 34.4456 710.528V712.112C34.4456 712.94 34.6496 713.564 35.0576 713.984C35.4656 714.392 36.0056 714.596 36.6776 714.596ZM46.7837 716.216C46.1117 716.216 45.5117 716.102 44.9837 715.874C44.4557 715.646 44.0117 715.322 43.6517 714.902C43.2917 714.47 43.0157 713.954 42.8237 713.354C42.6317 712.742 42.5357 712.064 42.5357 711.32C42.5357 710.576 42.6317 709.904 42.8237 709.304C43.0157 708.692 43.2917 708.176 43.6517 707.756C44.0117 707.324 44.4557 706.994 44.9837 706.766C45.5117 706.538 46.1117 706.424 46.7837 706.424C47.7197 706.424 48.4877 706.634 49.0877 707.054C49.6877 707.474 50.1257 708.032 50.4017 708.728L48.7817 709.484C48.6497 709.052 48.4157 708.71 48.0797 708.458C47.7557 708.194 47.3237 708.062 46.7837 708.062C46.0637 708.062 45.5177 708.29 45.1457 708.746C44.7857 709.19 44.6057 709.772 44.6057 710.492V712.166C44.6057 712.886 44.7857 713.474 45.1457 713.93C45.5177 714.374 46.0637 714.596 46.7837 714.596C47.3597 714.596 47.8157 714.458 48.1517 714.182C48.4997 713.894 48.7757 713.516 48.9797 713.048L50.4737 713.84C50.1617 714.608 49.6937 715.196 49.0697 715.604C48.4457 716.012 47.6837 716.216 46.7837 716.216ZM52.3415 706.64H60.0275V716H58.0655V708.242H54.3035V716H52.3415V706.64ZM62.8356 706.64H64.7616V711.212L64.5816 713.426H64.6536L65.7696 711.428L69.0096 706.64H70.7916V716H68.8656V711.428L69.0456 709.214H68.9736L67.8576 711.212L64.6176 716H62.8356V706.64ZM77.2115 716.216C76.5395 716.216 75.9395 716.102 75.4115 715.874C74.8835 715.646 74.4395 715.322 74.0795 714.902C73.7195 714.47 73.4435 713.954 73.2515 713.354C73.0595 712.742 72.9635 712.064 72.9635 711.32C72.9635 710.576 73.0595 709.904 73.2515 709.304C73.4435 708.692 73.7195 708.176 74.0795 707.756C74.4395 707.324 74.8835 706.994 75.4115 706.766C75.9395 706.538 76.5395 706.424 77.2115 706.424C78.1475 706.424 78.9155 706.634 79.5155 707.054C80.1155 707.474 80.5535 708.032 80.8295 708.728L79.2095 709.484C79.0775 709.052 78.8435 708.71 78.5075 708.458C78.1835 708.194 77.7515 708.062 77.2115 708.062C76.4915 708.062 75.9455 708.29 75.5735 708.746C75.2135 709.19 75.0335 709.772 75.0335 710.492V712.166C75.0335 712.886 75.2135 713.474 75.5735 713.93C75.9455 714.374 76.4915 714.596 77.2115 714.596C77.7875 714.596 78.2435 714.458 78.5795 714.182C78.9275 713.894 79.2035 713.516 79.4075 713.048L80.9015 713.84C80.5895 714.608 80.1215 715.196 79.4975 715.604C78.8735 716.012 78.1115 716.216 77.2115 716.216ZM82.7692 706.64H84.7312V709.772H87.3052C88.2412 709.772 88.9972 710.048 89.5732 710.6C90.1612 711.14 90.4552 711.902 90.4552 712.886C90.4552 713.882 90.1672 714.65 89.5912 715.19C89.0152 715.73 88.2592 716 87.3232 716H82.7692V706.64ZM86.9452 714.47C87.4012 714.47 87.7612 714.374 88.0252 714.182C88.2892 713.978 88.4212 713.666 88.4212 713.246V712.508C88.4212 712.088 88.2892 711.782 88.0252 711.59C87.7612 711.398 87.4012 711.302 86.9452 711.302H84.7312V714.47H86.9452Z" fill="black"/>
<path d="M16.9743 1108.64H24.6603V1118H22.6983V1110.24H18.9363V1118H16.9743V1108.64ZM26.2625 1116.4H27.4865C27.6305 1116.21 27.7565 1115.98 27.8645 1115.71C27.9725 1115.44 28.0625 1115.1 28.1345 1114.71C28.2065 1114.31 28.2605 1113.85 28.2965 1113.32C28.3445 1112.78 28.3685 1112.15 28.3685 1111.43V1108.64H35.1725V1118H33.2105V1110.24H30.2585V1111.52C30.2585 1112.38 30.2225 1113.14 30.1505 1113.79C30.0905 1114.44 30.0005 1114.99 29.8805 1115.46C29.7725 1115.93 29.6345 1116.32 29.4665 1116.63C29.3105 1116.93 29.1425 1117.17 28.9625 1117.35C28.7105 1117.6 28.4225 1117.78 28.0985 1117.89C27.7745 1118 27.3845 1118.05 26.9285 1118.05H26.2625V1116.4ZM41.6698 1118.22C40.9978 1118.22 40.3978 1118.1 39.8698 1117.87C39.3418 1117.65 38.8918 1117.32 38.5198 1116.9C38.1478 1116.47 37.8598 1115.95 37.6558 1115.35C37.4638 1114.74 37.3678 1114.06 37.3678 1113.32C37.3678 1112.58 37.4638 1111.9 37.6558 1111.3C37.8598 1110.69 38.1478 1110.18 38.5198 1109.76C38.8918 1109.32 39.3418 1108.99 39.8698 1108.77C40.3978 1108.54 40.9978 1108.42 41.6698 1108.42C42.3538 1108.42 42.9538 1108.54 43.4698 1108.78C43.9978 1109.02 44.4358 1109.36 44.7838 1109.79C45.1318 1110.21 45.3898 1110.7 45.5578 1111.27C45.7378 1111.83 45.8278 1112.44 45.8278 1113.09V1113.82H39.4018V1114.13C39.4018 1114.85 39.6118 1115.44 40.0318 1115.91C40.4638 1116.37 41.0758 1116.6 41.8678 1116.6C42.4438 1116.6 42.9298 1116.47 43.3258 1116.22C43.7218 1115.97 44.0578 1115.62 44.3338 1115.19L45.4858 1116.33C45.1378 1116.9 44.6338 1117.36 43.9738 1117.71C43.3138 1118.05 42.5458 1118.22 41.6698 1118.22ZM41.6698 1109.95C41.3338 1109.95 41.0218 1110.01 40.7338 1110.13C40.4578 1110.25 40.2178 1110.42 40.0138 1110.64C39.8218 1110.85 39.6718 1111.11 39.5638 1111.41C39.4558 1111.71 39.4018 1112.04 39.4018 1112.4V1112.53H43.7578V1112.35C43.7578 1111.63 43.5718 1111.05 43.1998 1110.62C42.8278 1110.18 42.3178 1109.95 41.6698 1109.95ZM49.7679 1110.24H46.7799V1108.64H54.7179V1110.24H51.7299V1118H49.7679V1110.24ZM59.9862 1118.22C59.3142 1118.22 58.7142 1118.1 58.1862 1117.87C57.6582 1117.65 57.2082 1117.32 56.8362 1116.9C56.4642 1116.47 56.1762 1115.95 55.9722 1115.35C55.7802 1114.74 55.6842 1114.06 55.6842 1113.32C55.6842 1112.58 55.7802 1111.9 55.9722 1111.3C56.1762 1110.69 56.4642 1110.18 56.8362 1109.76C57.2082 1109.32 57.6582 1108.99 58.1862 1108.77C58.7142 1108.54 59.3142 1108.42 59.9862 1108.42C60.6702 1108.42 61.2702 1108.54 61.7862 1108.78C62.3142 1109.02 62.7522 1109.36 63.1002 1109.79C63.4482 1110.21 63.7062 1110.7 63.8742 1111.27C64.0542 1111.83 64.1442 1112.44 64.1442 1113.09V1113.82H57.7182V1114.13C57.7182 1114.85 57.9282 1115.44 58.3482 1115.91C58.7802 1116.37 59.3922 1116.6 60.1842 1116.6C60.7602 1116.6 61.2462 1116.47 61.6422 1116.22C62.0382 1115.97 62.3742 1115.62 62.6502 1115.19L63.8022 1116.33C63.4542 1116.9 62.9502 1117.36 62.2902 1117.71C61.6302 1118.05 60.8622 1118.22 59.9862 1118.22ZM59.9862 1109.95C59.6502 1109.95 59.3382 1110.01 59.0502 1110.13C58.7742 1110.25 58.5342 1110.42 58.3302 1110.64C58.1382 1110.85 57.9882 1111.11 57.8802 1111.41C57.7722 1111.71 57.7182 1112.04 57.7182 1112.4V1112.53H62.0742V1112.35C62.0742 1111.63 61.8882 1111.05 61.5162 1110.62C61.1442 1110.18 60.6342 1109.95 59.9862 1109.95ZM66.3161 1108.64H68.2781V1112.4H72.3101V1108.64H74.2721V1118H72.3101V1114H68.2781V1118H66.3161V1108.64ZM77.0739 1108.64H78.9999V1113.21L78.8199 1115.43H78.8919L80.0079 1113.43L83.2479 1108.64H85.0299V1118H83.1039V1113.43L83.2839 1111.21H83.2119L82.0959 1113.21L78.8559 1118H77.0739V1108.64ZM91.5037 1118.22C90.8317 1118.22 90.2317 1118.1 89.7037 1117.87C89.1757 1117.65 88.7257 1117.32 88.3537 1116.9C87.9817 1116.47 87.6937 1115.95 87.4897 1115.35C87.2977 1114.74 87.2017 1114.06 87.2017 1113.32C87.2017 1112.58 87.2977 1111.9 87.4897 1111.3C87.6937 1110.69 87.9817 1110.18 88.3537 1109.76C88.7257 1109.32 89.1757 1108.99 89.7037 1108.77C90.2317 1108.54 90.8317 1108.42 91.5037 1108.42C92.1877 1108.42 92.7877 1108.54 93.3037 1108.78C93.8317 1109.02 94.2697 1109.36 94.6177 1109.79C94.9657 1110.21 95.2237 1110.7 95.3917 1111.27C95.5717 1111.83 95.6617 1112.44 95.6617 1113.09V1113.82H89.2357V1114.13C89.2357 1114.85 89.4457 1115.44 89.8657 1115.91C90.2977 1116.37 90.9097 1116.6 91.7017 1116.6C92.2777 1116.6 92.7637 1116.47 93.1597 1116.22C93.5557 1115.97 93.8917 1115.62 94.1677 1115.19L95.3197 1116.33C94.9717 1116.9 94.4677 1117.36 93.8077 1117.71C93.1477 1118.05 92.3797 1118.22 91.5037 1118.22ZM91.5037 1109.95C91.1677 1109.95 90.8557 1110.01 90.5677 1110.13C90.2917 1110.25 90.0517 1110.42 89.8477 1110.64C89.6557 1110.85 89.5057 1111.11 89.3977 1111.41C89.2897 1111.71 89.2357 1112.04 89.2357 1112.4V1112.53H93.5917V1112.35C93.5917 1111.63 93.4057 1111.05 93.0337 1110.62C92.6617 1110.18 92.1517 1109.95 91.5037 1109.95Z" fill="black"/>
<rect x="9" width="95" height="19" fill="black"/>
<rect x="9" y="170" width="95" height="21" fill="black"/>
<rect x="9" y="38" width="95" height="21" fill="black"/>
<rect x="9" y="211" width="95" height="21" fill="black"/>
<rect x="9" y="80" width="95" height="19" fill="black"/>
<rect x="9" y="251" width="95" height="20" fill="black"/>
<rect x="9" y="386" width="95" height="20" fill="black"/>
<rect x="9" y="749" width="95" height="20" fill="black"/>
<rect x="9" y="1151" width="95" height="20" fill="black"/>
<rect x="9" y="574" width="95" height="19" fill="black"/>
<rect x="9" y="976" width="95" height="19" fill="black"/>
<rect x="9" y="936" width="95" height="21" fill="black"/>
<rect x="9" y="290" width="95" height="20" fill="black"/>
<rect x="9" y="652" width="95" height="21" fill="black"/>
<rect x="9" y="1054" width="95" height="21" fill="black"/>
<rect x="9" y="426" width="95" height="20" fill="black"/>
<rect x="9" y="788" width="95" height="21" fill="black"/>
<rect x="9" y="1190" width="95" height="21" fill="black"/>
<rect x="9" y="614" width="95" height="19" fill="black"/>
<rect x="9" y="1016" width="95" height="19" fill="black"/>
<path d="M57.3308 454.588H55.3257V491.475H57.3308V454.588Z" fill="white"/>
<path d="M58.4741 453.445H54.1768V492.618H58.4741V453.445Z" fill="white"/>
<path d="M95.9804 471.418L94.562 470.001L68.4905 496.095L69.9089 497.512L95.9804 471.418Z" fill="white"/>
<path d="M94.5545 468.385L66.8667 496.096L69.9067 499.133L97.5945 471.422L94.5545 468.385Z" fill="white"/>
<path d="M111.423 510.643L111.422 508.638L74.5352 508.667L74.5367 510.672L111.423 510.643Z" fill="white"/>
<path d="M112.561 507.51H73.3877V511.807H112.561V507.51Z" fill="white"/>
<path d="M94.6214 549.303L96.0376 547.884L69.9255 521.831L68.5093 523.25L94.6214 549.303Z" fill="white"/>
<path d="M69.9259 520.215L66.8906 523.257L94.6215 550.925L97.6568 547.883L69.9259 520.215Z" fill="white"/>
<path d="M55.4085 564.777L57.4136 564.774L57.3571 527.887L55.3521 527.89L55.4085 564.777Z" fill="white"/>
<path d="M58.5049 526.746L54.2075 526.752L54.2676 565.926L58.565 565.919L58.5049 526.746Z" fill="white"/>
<path d="M16.7347 548.003L18.1553 549.419L44.1899 523.284L42.7693 521.869L16.7347 548.003Z" fill="white"/>
<path d="M42.7575 520.261L15.1089 548.012L18.1531 551.045L45.8018 523.294L42.7575 520.261Z" fill="white"/>
<path d="M1.2327 508.81L1.2373 510.815L38.124 510.731L38.1194 508.726L1.2327 508.81Z" fill="white"/>
<path d="M39.2579 507.576L0.0844727 507.665L0.0941962 511.962L39.2677 511.873L39.2579 507.576Z" fill="white"/>
<path d="M17.9692 470.121L16.5552 471.542L42.7078 497.555L44.1218 496.133L17.9692 470.121Z" fill="white"/>
<path d="M17.969 468.499L14.9385 471.546L42.7125 499.171L45.743 496.124L17.969 468.499Z" fill="white"/>
<path d="M56.2089 518.607C60.9831 518.607 64.8534 514.737 64.8534 509.963C64.8534 505.189 60.9831 501.318 56.2089 501.318C51.4347 501.318 47.5645 505.189 47.5645 509.963C47.5645 514.737 51.4347 518.607 56.2089 518.607Z" fill="white"/>
<path d="M57.8742 817.603H55.8691V854.49H57.8742V817.603Z" fill="#5EB6CA"/>
<path d="M59.0176 816.46H54.7202V855.633H59.0176V816.46Z" fill="#5EB6CA"/>
<path d="M96.5243 834.433L95.106 833.016L69.0344 859.11L70.4528 860.527L96.5243 834.433Z" fill="#5EB6CA"/>
<path d="M95.0984 831.4L67.4106 859.111L70.4506 862.148L98.1384 834.437L95.0984 831.4Z" fill="#5EB6CA"/>
<path d="M111.967 873.658L111.966 871.653L75.0791 871.681L75.0807 873.686L111.967 873.658Z" fill="#5EB6CA"/>
<path d="M113.105 870.525H73.9312V874.822H113.105V870.525Z" fill="#5EB6CA"/>
<path d="M95.1649 912.318L96.5811 910.899L70.469 884.845L69.0528 886.265L95.1649 912.318Z" fill="#5EB6CA"/>
<path d="M70.4693 883.23L67.4341 886.272L95.165 913.94L98.2002 910.898L70.4693 883.23Z" fill="#5EB6CA"/>
<path d="M55.952 927.792L57.957 927.789L57.9006 890.902L55.8955 890.905L55.952 927.792Z" fill="#5EB6CA"/>
<path d="M59.0483 889.761L54.751 889.767L54.8111 928.941L59.1085 928.934L59.0483 889.761Z" fill="#5EB6CA"/>
<path d="M17.2786 911.02L18.6992 912.435L44.7338 886.301L43.3132 884.885L17.2786 911.02Z" fill="#5EB6CA"/>
<path d="M43.3015 883.277L15.6528 911.027L18.6971 914.06L46.3457 886.31L43.3015 883.277Z" fill="#5EB6CA"/>
<path d="M1.77616 871.825L1.78076 873.83L38.6674 873.745L38.6628 871.74L1.77616 871.825Z" fill="#5EB6CA"/>
<path d="M39.8014 870.591L0.62793 870.68L0.637653 874.977L39.8111 874.888L39.8014 870.591Z" fill="#5EB6CA"/>
<path d="M18.5136 833.135L17.0996 834.557L43.2523 860.569L44.6662 859.147L18.5136 833.135Z" fill="#5EB6CA"/>
<path d="M18.5129 831.513L15.4824 834.56L43.2564 862.185L46.2869 859.139L18.5129 831.513Z" fill="#5EB6CA"/>
<path d="M56.7529 881.622C61.5271 881.622 65.3973 877.752 65.3973 872.977C65.3973 868.203 61.5271 864.333 56.7529 864.333C51.9787 864.333 48.1084 868.203 48.1084 872.977C48.1084 877.752 51.9787 881.622 56.7529 881.622Z" fill="#5EB6CA"/>
</svg>
