<svg width="138" height="1274" viewBox="0 0 138 1274" fill="none" xmlns="http://www.w3.org/2000/svg">
<path d="M33.9267 109.52H36.5427V114.56H38.7507L40.8147 111.08C41.1667 110.488 41.5187 110.08 41.8707 109.856C42.2227 109.632 42.6707 109.52 43.2147 109.52H44.4867V111.656H43.0947L41.5107 114.296C41.2707 114.712 41.0547 115 40.8627 115.16C40.6867 115.32 40.4467 115.44 40.1427 115.52V115.616C40.4627 115.68 40.7427 115.8 40.9827 115.976C41.2227 116.136 41.4547 116.424 41.6787 116.84L43.3587 119.864H44.7267V122H43.2387C42.7107 122 42.2547 121.88 41.8707 121.64C41.5027 121.4 41.1507 120.976 40.8147 120.368L38.7507 116.672H36.5427V122H33.9267V109.52ZM52.1352 122.288C51.2712 122.288 50.4792 122.136 49.7592 121.832C49.0552 121.528 48.4552 121.096 47.9592 120.536C47.4632 119.96 47.0792 119.272 46.8072 118.472C46.5352 117.656 46.3992 116.752 46.3992 115.76C46.3992 114.768 46.5352 113.872 46.8072 113.072C47.0792 112.256 47.4632 111.568 47.9592 111.008C48.4552 110.432 49.0552 109.992 49.7592 109.688C50.4792 109.384 51.2712 109.232 52.1352 109.232C52.9992 109.232 53.7832 109.384 54.4872 109.688C55.2072 109.992 55.8152 110.432 56.3112 111.008C56.8072 111.568 57.1912 112.256 57.4632 113.072C57.7352 113.872 57.8712 114.768 57.8712 115.76C57.8712 116.752 57.7352 117.656 57.4632 118.472C57.1912 119.272 56.8072 119.96 56.3112 120.536C55.8152 121.096 55.2072 121.528 54.4872 121.832C53.7832 122.136 52.9992 122.288 52.1352 122.288ZM52.1352 120.128C53.0312 120.128 53.7512 119.856 54.2952 119.312C54.8392 118.752 55.1112 117.92 55.1112 116.816V114.704C55.1112 113.6 54.8392 112.776 54.2952 112.232C53.7512 111.672 53.0312 111.392 52.1352 111.392C51.2392 111.392 50.5192 111.672 49.9752 112.232C49.4312 112.776 49.1592 113.6 49.1592 114.704V116.816C49.1592 117.92 49.4312 118.752 49.9752 119.312C50.5192 119.856 51.2392 120.128 52.1352 120.128ZM60.7861 109.52H67.4341C68.5061 109.52 69.3301 109.808 69.9061 110.384C70.4981 110.96 70.7941 111.728 70.7941 112.688C70.7941 114.256 69.9541 115.144 68.2741 115.352V115.472C69.2821 115.552 70.0261 115.848 70.5061 116.36C71.0021 116.856 71.2501 117.512 71.2501 118.328C71.2501 118.856 71.1621 119.344 70.9861 119.792C70.8261 120.24 70.5861 120.632 70.2661 120.968C69.9621 121.288 69.5861 121.544 69.1381 121.736C68.6901 121.912 68.1861 122 67.6261 122H60.7861V109.52ZM67.0261 120.008C67.4901 120.008 67.8581 119.888 68.1301 119.648C68.4021 119.408 68.5381 119.056 68.5381 118.592V117.944C68.5381 117.48 68.4021 117.128 68.1301 116.888C67.8581 116.632 67.4901 116.504 67.0261 116.504H63.3541V120.008H67.0261ZM66.6901 114.704C67.1381 114.704 67.4821 114.592 67.7221 114.368C67.9621 114.144 68.0821 113.824 68.0821 113.408V112.808C68.0821 112.392 67.9621 112.072 67.7221 111.848C67.4821 111.624 67.1381 111.512 66.6901 111.512H63.3541V114.704H66.6901ZM74.3798 109.52H76.9958V111.584H77.1158C77.3878 110.832 77.8278 110.256 78.4358 109.856C79.0598 109.44 79.7878 109.232 80.6198 109.232C82.2038 109.232 83.4278 109.808 84.2918 110.96C85.1558 112.096 85.5878 113.696 85.5878 115.76C85.5878 117.824 85.1558 119.432 84.2918 120.584C83.4278 121.72 82.2038 122.288 80.6198 122.288C79.7878 122.288 79.0598 122.08 78.4358 121.664C77.8278 121.248 77.3878 120.672 77.1158 119.936H76.9958V126.8H74.3798V109.52ZM79.8278 120.032C80.7398 120.032 81.4678 119.744 82.0118 119.168C82.5558 118.576 82.8278 117.8 82.8278 116.84V114.68C82.8278 113.72 82.5558 112.952 82.0118 112.376C81.4678 111.784 80.7398 111.488 79.8278 111.488C79.0278 111.488 78.3558 111.688 77.8118 112.088C77.2678 112.472 76.9958 112.984 76.9958 113.624V117.896C76.9958 118.536 77.2678 119.056 77.8118 119.456C78.3558 119.84 79.0278 120.032 79.8278 120.032ZM88.5829 109.52H91.1989V113.696H94.3909C95.0149 113.696 95.5829 113.792 96.0949 113.984C96.6069 114.16 97.0469 114.432 97.4149 114.8C97.7829 115.152 98.0709 115.584 98.2789 116.096C98.4869 116.608 98.5909 117.192 98.5909 117.848C98.5909 119.176 98.2069 120.2 97.4389 120.92C96.6709 121.64 95.6629 122 94.4149 122H88.5829V109.52ZM93.9109 119.96C94.5189 119.96 94.9989 119.832 95.3509 119.576C95.7029 119.304 95.8789 118.888 95.8789 118.328V117.344C95.8789 116.784 95.7029 116.376 95.3509 116.12C94.9989 115.864 94.5189 115.736 93.9109 115.736H91.1989V119.96H93.9109ZM100.463 109.52H103.079V122H100.463V109.52Z" fill="black"/>
<path d="M21.673 549.864H23.185C23.649 549.144 24.009 548.24 24.265 547.152C24.537 546.048 24.673 544.696 24.673 543.096V539.52H33.793V549.864H35.905V555.36H33.529V552H24.049V555.36H21.673V549.864ZM31.177 549.864V541.656H27.169V543.24C27.169 544.92 27.049 546.296 26.809 547.368C26.569 548.424 26.289 549.256 25.969 549.864H31.177ZM45.7741 539.52H48.2941L43.0381 554.472C42.8941 554.888 42.7261 555.24 42.5341 555.528C42.3581 555.832 42.1421 556.072 41.8861 556.248C41.6461 556.44 41.3501 556.576 40.9981 556.656C40.6461 556.752 40.2301 556.8 39.7501 556.8H38.2381V554.664H40.3501L41.0701 552.552L36.5341 539.52H39.1501L41.6461 546.864L42.3661 549.576H42.4861L43.2781 546.864L45.7741 539.52ZM48.3215 549.864H49.8335C50.2975 549.144 50.6575 548.24 50.9135 547.152C51.1855 546.048 51.3215 544.696 51.3215 543.096V539.52H60.4415V549.864H62.5535V555.36H60.1775V552H50.6975V555.36H48.3215V549.864ZM57.8255 549.864V541.656H53.8175V543.24C53.8175 544.92 53.6975 546.296 53.4575 547.368C53.2175 548.424 52.9375 549.256 52.6175 549.864H57.8255ZM63.5335 549.864H65.1655C65.3575 549.608 65.5255 549.304 65.6695 548.952C65.8135 548.584 65.9335 548.136 66.0295 547.608C66.1255 547.08 66.1975 546.464 66.2455 545.76C66.3095 545.04 66.3415 544.2 66.3415 543.24V539.52H75.4135V552H72.7975V541.656H68.8615V543.36C68.8615 544.512 68.8135 545.52 68.7175 546.384C68.6375 547.248 68.5175 547.992 68.3575 548.616C68.2135 549.24 68.0295 549.76 67.8055 550.176C67.5975 550.576 67.3735 550.896 67.1335 551.136C66.7975 551.472 66.4135 551.712 65.9815 551.856C65.5495 552 65.0295 552.072 64.4215 552.072H63.5335V549.864ZM79.1806 539.52H81.7486V545.616L81.5086 548.568H81.6046L83.0926 545.904L87.4126 539.52H89.7886V552H87.2206V545.904L87.4606 542.952H87.3646L85.8766 545.616L81.5566 552H79.1806V539.52ZM93.5243 539.52H96.1403V544.536H101.516V539.52H104.132V552H101.516V546.672H96.1403V552H93.5243V539.52ZM107.868 539.52H116.004V541.656H110.484V552H107.868V539.52Z" fill="black"/>
<path d="M16.9658 1061.52H27.2137V1074H24.5978V1063.66H19.5818V1074H16.9658V1061.52ZM29.3499 1071.86H30.9819C31.1739 1071.61 31.3419 1071.3 31.4859 1070.95C31.6299 1070.58 31.7499 1070.14 31.8459 1069.61C31.9419 1069.08 32.0139 1068.46 32.0619 1067.76C32.1259 1067.04 32.1579 1066.2 32.1579 1065.24V1061.52H41.2299V1074H38.6139V1063.66H34.6779V1065.36C34.6779 1066.51 34.6299 1067.52 34.5339 1068.38C34.4539 1069.25 34.3339 1069.99 34.1739 1070.62C34.0299 1071.24 33.8459 1071.76 33.6219 1072.18C33.4139 1072.58 33.1899 1072.9 32.9499 1073.14C32.6139 1073.47 32.2299 1073.71 31.7979 1073.86C31.3659 1074 30.8459 1074.07 30.2379 1074.07H29.3499V1071.86ZM49.893 1074.29C48.997 1074.29 48.197 1074.14 47.493 1073.83C46.789 1073.53 46.189 1073.1 45.693 1072.54C45.197 1071.96 44.813 1071.27 44.541 1070.47C44.285 1069.66 44.157 1068.75 44.157 1067.76C44.157 1066.77 44.285 1065.87 44.541 1065.07C44.813 1064.26 45.197 1063.57 45.693 1063.01C46.189 1062.43 46.789 1061.99 47.493 1061.69C48.197 1061.38 48.997 1061.23 49.893 1061.23C50.805 1061.23 51.605 1061.39 52.293 1061.71C52.997 1062.03 53.581 1062.48 54.045 1063.06C54.509 1063.62 54.853 1064.27 55.077 1065.02C55.317 1065.78 55.437 1066.58 55.437 1067.45V1068.43H46.869V1068.84C46.869 1069.8 47.149 1070.59 47.709 1071.22C48.285 1071.82 49.101 1072.13 50.157 1072.13C50.925 1072.13 51.573 1071.96 52.101 1071.62C52.629 1071.29 53.077 1070.83 53.445 1070.26L54.981 1071.77C54.517 1072.54 53.845 1073.15 52.965 1073.62C52.085 1074.06 51.061 1074.29 49.893 1074.29ZM49.893 1063.27C49.445 1063.27 49.029 1063.35 48.645 1063.51C48.277 1063.67 47.957 1063.9 47.685 1064.18C47.429 1064.47 47.229 1064.82 47.085 1065.22C46.941 1065.62 46.869 1066.06 46.869 1066.54V1066.7H52.677V1066.46C52.677 1065.5 52.429 1064.74 51.933 1064.16C51.437 1063.57 50.757 1063.27 49.893 1063.27ZM60.6906 1063.66H56.7066V1061.52H67.2906V1063.66H63.3066V1074H60.6906V1063.66ZM74.3149 1074.29C73.4189 1074.29 72.6189 1074.14 71.9149 1073.83C71.2109 1073.53 70.6109 1073.1 70.1149 1072.54C69.6189 1071.96 69.2349 1071.27 68.9629 1070.47C68.7069 1069.66 68.5789 1068.75 68.5789 1067.76C68.5789 1066.77 68.7069 1065.87 68.9629 1065.07C69.2349 1064.26 69.6189 1063.57 70.1149 1063.01C70.6109 1062.43 71.2109 1061.99 71.9149 1061.69C72.6189 1061.38 73.4189 1061.23 74.3149 1061.23C75.2269 1061.23 76.0269 1061.39 76.7149 1061.71C77.4189 1062.03 78.0029 1062.48 78.4669 1063.06C78.9309 1063.62 79.2749 1064.27 79.4989 1065.02C79.7389 1065.78 79.8589 1066.58 79.8589 1067.45V1068.43H71.2909V1068.84C71.2909 1069.8 71.5709 1070.59 72.1309 1071.22C72.7069 1071.82 73.5229 1072.13 74.5789 1072.13C75.3469 1072.13 75.9949 1071.96 76.5229 1071.62C77.0509 1071.29 77.4989 1070.83 77.8669 1070.26L79.4029 1071.77C78.9389 1072.54 78.2669 1073.15 77.3869 1073.62C76.5069 1074.06 75.4829 1074.29 74.3149 1074.29ZM74.3149 1063.27C73.8669 1063.27 73.4509 1063.35 73.0669 1063.51C72.6989 1063.67 72.3789 1063.9 72.1069 1064.18C71.8509 1064.47 71.6509 1064.82 71.5069 1065.22C71.3629 1065.62 71.2909 1066.06 71.2909 1066.54V1066.7H77.0989V1066.46C77.0989 1065.5 76.8509 1064.74 76.3549 1064.16C75.8589 1063.57 75.1789 1063.27 74.3149 1063.27ZM82.7548 1061.52H85.3708V1066.54H90.7468V1061.52H93.3628V1074H90.7468V1068.67H85.3708V1074H82.7548V1061.52ZM97.0986 1061.52H99.6666V1067.62L99.4266 1070.57H99.5226L101.011 1067.9L105.331 1061.52H107.707V1074H105.139V1067.9L105.379 1064.95H105.283L103.795 1067.62L99.4746 1074H97.0986V1061.52ZM116.338 1074.29C115.442 1074.29 114.642 1074.14 113.938 1073.83C113.234 1073.53 112.634 1073.1 112.138 1072.54C111.642 1071.96 111.258 1071.27 110.986 1070.47C110.73 1069.66 110.602 1068.75 110.602 1067.76C110.602 1066.77 110.73 1065.87 110.986 1065.07C111.258 1064.26 111.642 1063.57 112.138 1063.01C112.634 1062.43 113.234 1061.99 113.938 1061.69C114.642 1061.38 115.442 1061.23 116.338 1061.23C117.25 1061.23 118.05 1061.39 118.738 1061.71C119.442 1062.03 120.026 1062.48 120.49 1063.06C120.954 1063.62 121.298 1064.27 121.522 1065.02C121.762 1065.78 121.882 1066.58 121.882 1067.45V1068.43H113.314V1068.84C113.314 1069.8 113.594 1070.59 114.154 1071.22C114.73 1071.82 115.546 1072.13 116.602 1072.13C117.37 1072.13 118.018 1071.96 118.546 1071.62C119.074 1071.29 119.522 1070.83 119.89 1070.26L121.426 1071.77C120.962 1072.54 120.29 1073.15 119.41 1073.62C118.53 1074.06 117.506 1074.29 116.338 1074.29ZM116.338 1063.27C115.89 1063.27 115.474 1063.35 115.09 1063.51C114.722 1063.67 114.402 1063.9 114.13 1064.18C113.874 1064.47 113.674 1064.82 113.53 1065.22C113.386 1065.62 113.314 1066.06 113.314 1066.54V1066.7H119.122V1066.46C119.122 1065.5 118.874 1064.74 118.378 1064.16C117.882 1063.57 117.202 1063.27 116.338 1063.27Z" fill="black"/>
<path d="M23.8596 246H0C0 348.282 137 349.051 137 246H112.756C112.756 246 113.91 298.291 68.8848 297.91C23.8596 297.528 23.8596 246 23.8596 246Z" fill="black"/>
<path d="M23.8596 675H0C0 777.282 137 778.051 137 675H112.756C112.756 675 113.91 727.291 68.8848 726.91C23.8596 726.528 23.8596 675 23.8596 675Z" fill="black"/>
<path d="M23.8596 155H0C0 255.953 137 256.712 137 155H112.756C112.756 155 113.91 206.612 68.8848 206.236C23.8596 205.859 23.8596 155 23.8596 155Z" fill="black"/>
<path d="M23.8596 584H0C0 684.953 137 685.712 137 584H112.756C112.756 584 113.91 635.612 68.8848 635.236C23.8596 634.859 23.8596 584 23.8596 584Z" fill="black"/>
<path d="M23.8596 1106H0C0 1206.95 137 1207.71 137 1106H112.756C112.756 1106 113.91 1157.61 68.8848 1157.24C23.8596 1156.86 23.8596 1106 23.8596 1106Z" fill="black"/>
<path d="M23.8596 1198H0C0 1298.95 137 1299.71 137 1198H112.756C112.756 1198 113.91 1249.61 68.8848 1249.24C23.8596 1248.86 23.8596 1198 23.8596 1198Z" fill="black"/>
<path d="M24.8596 337H1C1 439.282 138 440.051 138 337H113.756C113.756 337 114.91 389.291 69.8848 388.91C24.8596 388.528 24.8596 337 24.8596 337Z" fill="black"/>
<path d="M24.8596 766H1C1 868.282 138 869.051 138 766H113.756C113.756 766 114.91 818.291 69.8848 817.91C24.8596 817.528 24.8596 766 24.8596 766Z" fill="black"/>
<path d="M24.8596 859H1C1 961.282 138 962.051 138 859H113.756C113.756 859 114.91 911.291 69.8848 910.91C24.8596 910.528 24.8596 859 24.8596 859Z" fill="black"/>
<path d="M23.8596 505H0C0 405.375 137 404.626 137 505H112.756C112.756 505 113.91 454.067 68.8848 454.439C23.8596 454.81 23.8596 505 23.8596 505Z" fill="black"/>
<path d="M23.8596 1027H0C0 927.375 137 926.626 137 1027H112.756C112.756 1027 113.91 976.067 68.8848 976.439C23.8596 976.81 23.8596 1027 23.8596 1027Z" fill="black"/>
<path d="M23.8596 75H0C0 -24.6251 137 -25.3742 137 75H112.756C112.756 75 113.91 24.0672 68.8848 24.4386C23.8596 24.8099 23.8596 75 23.8596 75Z" fill="black"/>
</svg>
