<svg width="157" height="1323" viewBox="0 0 157 1323" fill="none" xmlns="http://www.w3.org/2000/svg">
<path d="M39.5868 181.52H42.2028V183.584H42.3228C42.5948 182.832 43.0348 182.256 43.6428 181.856C44.2668 181.44 44.9948 181.232 45.8268 181.232C47.4108 181.232 48.6348 181.808 49.4988 182.96C50.3628 184.096 50.7948 185.696 50.7948 187.76C50.7948 189.824 50.3628 191.432 49.4988 192.584C48.6348 193.72 47.4108 194.288 45.8268 194.288C44.9948 194.288 44.2668 194.08 43.6428 193.664C43.0348 193.248 42.5948 192.672 42.3228 191.936H42.2028V198.8H39.5868V181.52ZM45.0348 192.032C45.9468 192.032 46.6748 191.744 47.2188 191.168C47.7628 190.576 48.0348 189.8 48.0348 188.84V186.68C48.0348 185.72 47.7628 184.952 47.2188 184.376C46.6748 183.784 45.9468 183.488 45.0348 183.488C44.2348 183.488 43.5628 183.688 43.0188 184.088C42.4748 184.472 42.2028 184.984 42.2028 185.624V189.896C42.2028 190.536 42.4748 191.056 43.0188 191.456C43.5628 191.84 44.2348 192.032 45.0348 192.032ZM58.686 194.288C57.79 194.288 56.99 194.136 56.286 193.832C55.582 193.528 54.982 193.096 54.486 192.536C53.99 191.96 53.606 191.272 53.334 190.472C53.078 189.656 52.95 188.752 52.95 187.76C52.95 186.768 53.078 185.872 53.334 185.072C53.606 184.256 53.99 183.568 54.486 183.008C54.982 182.432 55.582 181.992 56.286 181.688C56.99 181.384 57.79 181.232 58.686 181.232C59.598 181.232 60.398 181.392 61.086 181.712C61.79 182.032 62.374 182.48 62.838 183.056C63.302 183.616 63.646 184.272 63.87 185.024C64.11 185.776 64.23 186.584 64.23 187.448V188.432H55.662V188.84C55.662 189.8 55.942 190.592 56.502 191.216C57.078 191.824 57.894 192.128 58.95 192.128C59.718 192.128 60.366 191.96 60.894 191.624C61.422 191.288 61.87 190.832 62.238 190.256L63.774 191.768C63.31 192.536 62.638 193.152 61.758 193.616C60.878 194.064 59.854 194.288 58.686 194.288ZM58.686 183.272C58.238 183.272 57.822 183.352 57.438 183.512C57.07 183.672 56.75 183.896 56.478 184.184C56.222 184.472 56.022 184.816 55.878 185.216C55.734 185.616 55.662 186.056 55.662 186.536V186.704H61.47V186.464C61.47 185.504 61.222 184.736 60.726 184.16C60.23 183.568 59.55 183.272 58.686 183.272ZM71.0139 194.288C69.7659 194.288 68.7419 194.08 67.9419 193.664C67.1419 193.248 66.4539 192.656 65.8779 191.888L67.5819 190.328C67.9659 190.888 68.4379 191.328 68.9979 191.648C69.5739 191.968 70.2459 192.128 71.0139 192.128C71.9099 192.128 72.5659 191.968 72.9819 191.648C73.4139 191.328 73.6299 190.912 73.6299 190.4V190.112C73.6299 189.6 73.4539 189.216 73.1019 188.96C72.7659 188.688 72.2779 188.552 71.6379 188.552H68.9499V186.632H71.3739C72.0139 186.632 72.5019 186.512 72.8379 186.272C73.1899 186.016 73.3659 185.648 73.3659 185.168V184.904C73.3659 184.44 73.1739 184.072 72.7899 183.8C72.4059 183.528 71.7979 183.392 70.9659 183.392C70.2139 183.392 69.5739 183.544 69.0459 183.848C68.5179 184.152 68.0939 184.56 67.7739 185.072L66.1419 183.656C66.6219 182.92 67.2619 182.336 68.0619 181.904C68.8779 181.456 69.9019 181.232 71.1339 181.232C72.7979 181.232 74.0299 181.544 74.8299 182.168C75.6459 182.776 76.0539 183.592 76.0539 184.616C76.0539 185.416 75.8459 186.04 75.4299 186.488C75.0139 186.92 74.3899 187.216 73.5579 187.376V187.496C74.4699 187.608 75.1579 187.912 75.6219 188.408C76.1019 188.904 76.3419 189.544 76.3419 190.328C76.3419 191.56 75.8619 192.528 74.9019 193.232C73.9579 193.936 72.6619 194.288 71.0139 194.288ZM79.454 181.52H82.07V185.696H85.502C86.75 185.696 87.758 186.064 88.526 186.8C89.31 187.52 89.702 188.536 89.702 189.848C89.702 191.176 89.318 192.2 88.55 192.92C87.782 193.64 86.774 194 85.526 194H79.454V181.52ZM85.022 191.96C85.63 191.96 86.11 191.832 86.462 191.576C86.814 191.304 86.99 190.888 86.99 190.328V189.344C86.99 188.784 86.814 188.376 86.462 188.12C86.11 187.864 85.63 187.736 85.022 187.736H82.07V191.96H85.022ZM97.3601 194.288C96.4641 194.288 95.6641 194.144 94.9601 193.856C94.2561 193.552 93.6561 193.08 93.1601 192.44C92.6641 191.8 92.2801 190.992 92.0081 190.016C91.7521 189.024 91.6241 187.832 91.6241 186.44C91.6241 184.744 91.7441 183.288 91.9841 182.072C92.2401 180.84 92.6321 179.824 93.1601 179.024C93.7041 178.208 94.3841 177.584 95.2001 177.152C96.0321 176.72 97.0241 176.456 98.1761 176.36L102.16 176V178.568L98.0321 178.952C97.3761 179.016 96.8241 179.144 96.3761 179.336C95.9441 179.528 95.5841 179.824 95.2961 180.224C95.0241 180.608 94.8161 181.128 94.6721 181.784C94.5281 182.424 94.4241 183.224 94.3601 184.184H94.4801C94.8001 183.352 95.2321 182.728 95.7761 182.312C96.3361 181.896 97.0881 181.688 98.0321 181.688C98.7681 181.688 99.4401 181.832 100.048 182.12C100.672 182.392 101.208 182.792 101.656 183.32C102.104 183.848 102.448 184.496 102.688 185.264C102.944 186.016 103.072 186.88 103.072 187.856C103.072 188.832 102.936 189.72 102.664 190.52C102.392 191.304 102.008 191.976 101.512 192.536C101.016 193.096 100.416 193.528 99.7121 193.832C99.0081 194.136 98.2241 194.288 97.3601 194.288ZM97.3601 192.128C98.2721 192.128 98.9921 191.848 99.5201 191.288C100.048 190.712 100.312 189.872 100.312 188.768V187.208C100.312 186.104 100.048 185.272 99.5201 184.712C98.9921 184.136 98.2721 183.848 97.3601 183.848C96.4001 183.848 95.6641 184.104 95.1521 184.616C94.6561 185.128 94.4081 185.816 94.4081 186.68V188.768C94.4081 189.872 94.6721 190.712 95.2001 191.288C95.7281 191.848 96.4481 192.128 97.3601 192.128ZM115.129 194C114.441 194 113.913 193.808 113.545 193.424C113.177 193.024 112.953 192.52 112.873 191.912H112.753C112.513 192.696 112.073 193.288 111.433 193.688C110.793 194.088 110.017 194.288 109.105 194.288C107.809 194.288 106.809 193.952 106.105 193.28C105.417 192.608 105.073 191.704 105.073 190.568C105.073 189.32 105.521 188.384 106.417 187.76C107.329 187.136 108.657 186.824 110.401 186.824H112.657V185.768C112.657 185 112.449 184.408 112.033 183.992C111.617 183.576 110.969 183.368 110.089 183.368C109.353 183.368 108.753 183.528 108.289 183.848C107.825 184.168 107.433 184.576 107.113 185.072L105.553 183.656C105.969 182.952 106.553 182.376 107.305 181.928C108.057 181.464 109.041 181.232 110.257 181.232C111.873 181.232 113.113 181.608 113.977 182.36C114.841 183.112 115.273 184.192 115.273 185.6V191.864H116.593V194H115.129ZM109.849 192.296C110.665 192.296 111.337 192.12 111.865 191.768C112.393 191.4 112.657 190.912 112.657 190.304V188.504H110.449C108.641 188.504 107.737 189.064 107.737 190.184V190.616C107.737 191.176 107.921 191.6 108.289 191.888C108.673 192.16 109.193 192.296 109.849 192.296Z" fill="black"/>
<path d="M26.2738 489C25.5858 489 25.0578 488.808 24.6898 488.424C24.3218 488.024 24.0978 487.52 24.0178 486.912H23.8978C23.6578 487.696 23.2178 488.288 22.5778 488.688C21.9378 489.088 21.1618 489.288 20.2498 489.288C18.9538 489.288 17.9538 488.952 17.2498 488.28C16.5618 487.608 16.2178 486.704 16.2178 485.568C16.2178 484.32 16.6658 483.384 17.5618 482.76C18.4738 482.136 19.8018 481.824 21.5458 481.824H23.8018V480.768C23.8018 480 23.5938 479.408 23.1778 478.992C22.7618 478.576 22.1138 478.368 21.2338 478.368C20.4978 478.368 19.8978 478.528 19.4338 478.848C18.9698 479.168 18.5778 479.576 18.2578 480.072L16.6978 478.656C17.1138 477.952 17.6978 477.376 18.4498 476.928C19.2018 476.464 20.1858 476.232 21.4018 476.232C23.0178 476.232 24.2578 476.608 25.1218 477.36C25.9858 478.112 26.4178 479.192 26.4178 480.6V486.864H27.7378V489H26.2738ZM20.9938 487.296C21.8098 487.296 22.4818 487.12 23.0098 486.768C23.5378 486.4 23.8018 485.912 23.8018 485.304V483.504H21.5938C19.7858 483.504 18.8818 484.064 18.8818 485.184V485.616C18.8818 486.176 19.0658 486.6 19.4338 486.888C19.8178 487.16 20.3378 487.296 20.9938 487.296ZM30.3017 476.52H33.4697L36.9977 482.424H37.0457L40.5737 476.52H43.5977V489H41.0297V479.736H40.9337L40.1177 481.272L36.9497 486.552L33.7817 481.272L32.9657 479.736H32.8697V489H30.3017V476.52ZM47.3408 476.52H49.9088V482.616L49.6688 485.568H49.7648L51.2528 482.904L55.5728 476.52H57.9488V489H55.3808V482.904L55.6208 479.952H55.5248L54.0368 482.616L49.7168 489H47.3408V476.52ZM61.6845 476.52H69.8205V478.656H64.3005V489H61.6845V476.52ZM80.1921 476.52H82.7121L77.4561 491.472C77.3121 491.888 77.1441 492.24 76.9521 492.528C76.7761 492.832 76.5601 493.072 76.3041 493.248C76.0641 493.44 75.7681 493.576 75.4161 493.656C75.0641 493.752 74.6481 493.8 74.1681 493.8H72.6561V491.664H74.7681L75.4881 489.552L70.9521 476.52H73.5681L76.0641 483.864L76.7841 486.576H76.9041L77.6961 483.864L80.1921 476.52ZM84.8642 476.52H87.4802V478.584H87.6002C87.8722 477.832 88.3122 477.256 88.9202 476.856C89.5442 476.44 90.2722 476.232 91.1042 476.232C92.6882 476.232 93.9122 476.808 94.7762 477.96C95.6402 479.096 96.0722 480.696 96.0722 482.76C96.0722 484.824 95.6402 486.432 94.7762 487.584C93.9122 488.72 92.6882 489.288 91.1042 489.288C90.2722 489.288 89.5442 489.08 88.9202 488.664C88.3122 488.248 87.8722 487.672 87.6002 486.936H87.4802V493.8H84.8642V476.52ZM90.3122 487.032C91.2242 487.032 91.9522 486.744 92.4962 486.168C93.0402 485.576 93.3122 484.8 93.3122 483.84V481.68C93.3122 480.72 93.0402 479.952 92.4962 479.376C91.9522 478.784 91.2242 478.488 90.3122 478.488C89.5122 478.488 88.8402 478.688 88.2962 479.088C87.7522 479.472 87.4802 479.984 87.4802 480.624V484.896C87.4802 485.536 87.7522 486.056 88.2962 486.456C88.8402 486.84 89.5122 487.032 90.3122 487.032ZM106.559 476.52H109.079L103.823 491.472C103.679 491.888 103.511 492.24 103.319 492.528C103.143 492.832 102.927 493.072 102.671 493.248C102.431 493.44 102.135 493.576 101.783 493.656C101.431 493.752 101.015 493.8 100.535 493.8H99.0233V491.664H101.135L101.855 489.552L97.3193 476.52H99.9353L102.431 483.864L103.151 486.576H103.271L104.063 483.864L106.559 476.52ZM111.231 476.52H114.399L117.927 482.424H117.975L121.503 476.52H124.527V489H121.959V479.736H121.863L121.047 481.272L117.879 486.552L114.711 481.272L113.895 479.736H113.799V489H111.231V476.52ZM128.27 476.52H130.838V482.616L130.598 485.568H130.694L132.182 482.904L136.502 476.52H138.878V489H136.31V482.904L136.55 479.952H136.454L134.966 482.616L130.646 489H128.27V476.52Z" fill="black"/>
<path d="M33.1376 978.52H35.7536V980.584H35.8736C36.1456 979.832 36.5856 979.256 37.1936 978.856C37.8176 978.44 38.5456 978.232 39.3776 978.232C40.9616 978.232 42.1856 978.808 43.0496 979.96C43.9136 981.096 44.3456 982.696 44.3456 984.76C44.3456 986.824 43.9136 988.432 43.0496 989.584C42.1856 990.72 40.9616 991.288 39.3776 991.288C38.5456 991.288 37.8176 991.08 37.1936 990.664C36.5856 990.248 36.1456 989.672 35.8736 988.936H35.7536V995.8H33.1376V978.52ZM38.5856 989.032C39.4976 989.032 40.2256 988.744 40.7696 988.168C41.3136 987.576 41.5856 986.8 41.5856 985.84V983.68C41.5856 982.72 41.3136 981.952 40.7696 981.376C40.2256 980.784 39.4976 980.488 38.5856 980.488C37.7856 980.488 37.1136 980.688 36.5696 981.088C36.0256 981.472 35.7536 981.984 35.7536 982.624V986.896C35.7536 987.536 36.0256 988.056 36.5696 988.456C37.1136 988.84 37.7856 989.032 38.5856 989.032ZM52.2368 991.288C51.3728 991.288 50.5808 991.136 49.8608 990.832C49.1568 990.528 48.5568 990.096 48.0608 989.536C47.5648 988.96 47.1808 988.272 46.9088 987.472C46.6368 986.656 46.5008 985.752 46.5008 984.76C46.5008 983.768 46.6368 982.872 46.9088 982.072C47.1808 981.256 47.5648 980.568 48.0608 980.008C48.5568 979.432 49.1568 978.992 49.8608 978.688C50.5808 978.384 51.3728 978.232 52.2368 978.232C53.1008 978.232 53.8848 978.384 54.5888 978.688C55.3088 978.992 55.9168 979.432 56.4128 980.008C56.9088 980.568 57.2928 981.256 57.5648 982.072C57.8368 982.872 57.9728 983.768 57.9728 984.76C57.9728 985.752 57.8368 986.656 57.5648 987.472C57.2928 988.272 56.9088 988.96 56.4128 989.536C55.9168 990.096 55.3088 990.528 54.5888 990.832C53.8848 991.136 53.1008 991.288 52.2368 991.288ZM52.2368 989.128C53.1328 989.128 53.8528 988.856 54.3968 988.312C54.9408 987.752 55.2128 986.92 55.2128 985.816V983.704C55.2128 982.6 54.9408 981.776 54.3968 981.232C53.8528 980.672 53.1328 980.392 52.2368 980.392C51.3408 980.392 50.6208 980.672 50.0768 981.232C49.5328 981.776 49.2608 982.6 49.2608 983.704V985.816C49.2608 986.92 49.5328 987.752 50.0768 988.312C50.6208 988.856 51.3408 989.128 52.2368 989.128ZM65.7116 991.288C64.8156 991.288 64.0156 991.136 63.3116 990.832C62.6076 990.528 62.0156 990.096 61.5356 989.536C61.0556 988.96 60.6876 988.272 60.4316 987.472C60.1756 986.656 60.0476 985.752 60.0476 984.76C60.0476 983.768 60.1756 982.872 60.4316 982.072C60.6876 981.256 61.0556 980.568 61.5356 980.008C62.0156 979.432 62.6076 978.992 63.3116 978.688C64.0156 978.384 64.8156 978.232 65.7116 978.232C66.9596 978.232 67.9836 978.512 68.7836 979.072C69.5836 979.632 70.1676 980.376 70.5356 981.304L68.3756 982.312C68.1996 981.736 67.8876 981.28 67.4396 980.944C67.0076 980.592 66.4316 980.416 65.7116 980.416C64.7516 980.416 64.0236 980.72 63.5276 981.328C63.0476 981.92 62.8076 982.696 62.8076 983.656V985.888C62.8076 986.848 63.0476 987.632 63.5276 988.24C64.0236 988.832 64.7516 989.128 65.7116 989.128C66.4796 989.128 67.0876 988.944 67.5356 988.576C67.9996 988.192 68.3676 987.688 68.6396 987.064L70.6316 988.12C70.2156 989.144 69.5916 989.928 68.7596 990.472C67.9276 991.016 66.9116 991.288 65.7116 991.288ZM73.122 978.52H83.37V991H80.754V980.656H75.738V991H73.122V978.52ZM87.1142 978.52H89.6822V984.616L89.4422 987.568H89.5382L91.0262 984.904L95.3462 978.52H97.7222V991H95.1542V984.904L95.3942 981.952H95.2982L93.8102 984.616L89.4902 991H87.1142V978.52ZM106.282 991.288C105.386 991.288 104.586 991.136 103.882 990.832C103.178 990.528 102.586 990.096 102.106 989.536C101.626 988.96 101.258 988.272 101.002 987.472C100.746 986.656 100.618 985.752 100.618 984.76C100.618 983.768 100.746 982.872 101.002 982.072C101.258 981.256 101.626 980.568 102.106 980.008C102.586 979.432 103.178 978.992 103.882 978.688C104.586 978.384 105.386 978.232 106.282 978.232C107.53 978.232 108.554 978.512 109.354 979.072C110.154 979.632 110.738 980.376 111.106 981.304L108.946 982.312C108.77 981.736 108.458 981.28 108.01 980.944C107.578 980.592 107.002 980.416 106.282 980.416C105.322 980.416 104.594 980.72 104.098 981.328C103.618 981.92 103.378 982.696 103.378 983.656V985.888C103.378 986.848 103.618 987.632 104.098 988.24C104.594 988.832 105.322 989.128 106.282 989.128C107.05 989.128 107.658 988.944 108.106 988.576C108.57 988.192 108.938 987.688 109.21 987.064L111.202 988.12C110.786 989.144 110.162 989.928 109.33 990.472C108.498 991.016 107.482 991.288 106.282 991.288ZM113.692 978.52H116.308V982.696H119.74C120.988 982.696 121.996 983.064 122.764 983.8C123.548 984.52 123.94 985.536 123.94 986.848C123.94 988.176 123.556 989.2 122.788 989.92C122.02 990.64 121.012 991 119.764 991H113.692V978.52ZM119.26 988.96C119.868 988.96 120.348 988.832 120.7 988.576C121.052 988.304 121.228 987.888 121.228 987.328V986.344C121.228 985.784 121.052 985.376 120.7 985.12C120.348 984.864 119.868 984.736 119.26 984.736H116.308V988.96H119.26Z" fill="black"/>
<rect x="12" width="131" height="27" fill="black"/>
<rect x="12" y="236" width="131" height="28" fill="black"/>
<rect x="12" y="54" width="131" height="28" fill="black"/>
<rect x="12" y="291" width="131" height="29" fill="black"/>
<rect x="12" y="110" width="131" height="27" fill="black"/>
<rect x="12" y="347" width="131" height="28" fill="black"/>
<rect x="12" y="534" width="131" height="28" fill="black"/>
<rect x="12" y="1036" width="131" height="28" fill="black"/>
<rect x="12" y="794" width="131" height="27" fill="black"/>
<rect x="12.7515" y="1296" width="131" height="27" fill="black"/>
<rect x="12" y="401" width="131" height="28" fill="black"/>
<rect x="12" y="903" width="131" height="28" fill="black"/>
<rect x="12" y="589" width="131" height="28" fill="black"/>
<rect x="12.7515" y="1091" width="131" height="28" fill="black"/>
<rect x="12" y="849" width="131" height="27" fill="black"/>
<path d="M79.4119 628.948H76.6392V679.957H79.4119V628.948Z" fill="white"/>
<path d="M80.993 627.367H75.0503V681.539H80.993V627.367Z" fill="white"/>
<path d="M132.86 652.222L130.898 650.262L94.8452 686.346L96.8066 688.306L132.86 652.222Z" fill="white"/>
<path d="M130.888 648.026L92.5996 686.347L96.8035 690.547L135.092 652.227L130.888 648.026Z" fill="white"/>
<path d="M154.215 706.465L154.213 703.692L103.204 703.731L103.206 706.504L154.215 706.465Z" fill="white"/>
<path d="M155.788 702.131H101.617V708.074H155.788V702.131Z" fill="white"/>
<path d="M130.98 759.926L132.938 757.963L96.8291 721.935L94.8707 723.898L130.98 759.926Z" fill="white"/>
<path d="M96.8296 719.701L92.6323 723.908L130.98 762.169L135.178 757.962L96.8296 719.701Z" fill="white"/>
<path d="M76.7536 781.324L79.5264 781.32L79.4483 730.311L76.6756 730.315L76.7536 781.324Z" fill="white"/>
<path d="M81.0354 728.732L75.0928 728.741L75.1759 782.913L81.1186 782.903L81.0354 728.732Z" fill="white"/>
<path d="M23.2733 758.129L25.2378 760.086L61.2401 723.946L59.2756 721.989L23.2733 758.129Z" fill="white"/>
<path d="M59.2596 719.766L21.0254 758.141L25.2352 762.335L63.4694 723.96L59.2596 719.766Z" fill="white"/>
<path d="M1.83641 703.93L1.84277 706.703L52.852 706.585L52.8456 703.813L1.83641 703.93Z" fill="white"/>
<path d="M54.42 702.223L0.248535 702.345L0.261981 708.288L54.4335 708.166L54.42 702.223Z" fill="white"/>
<path d="M24.9812 650.427L23.0259 652.393L59.1914 688.365L61.1467 686.399L24.9812 650.427Z" fill="white"/>
<path d="M24.9808 648.185L20.79 652.398L59.1976 690.6L63.3884 686.387L24.9808 648.185Z" fill="white"/>
<path d="M77.8613 717.477C84.4634 717.477 89.8154 712.125 89.8154 705.523C89.8154 698.921 84.4634 693.569 77.8613 693.569C71.2593 693.569 65.9072 698.921 65.9072 705.523C65.9072 712.125 71.2593 717.477 77.8613 717.477Z" fill="white"/>
<path d="M80.1634 1130.95H77.3906V1181.96H80.1634V1130.95Z" fill="#5EB6CA"/>
<path d="M81.7444 1129.37H75.8018V1183.54H81.7444V1129.37Z" fill="#5EB6CA"/>
<path d="M133.611 1154.22L131.65 1152.26L95.5966 1188.35L97.558 1190.31L133.611 1154.22Z" fill="#5EB6CA"/>
<path d="M131.639 1150.03L93.3511 1188.35L97.5549 1192.55L135.843 1154.23L131.639 1150.03Z" fill="#5EB6CA"/>
<path d="M154.966 1208.46L154.964 1205.69L103.955 1205.73L103.957 1208.5L154.966 1208.46Z" fill="#5EB6CA"/>
<path d="M156.54 1204.13H102.368V1210.07H156.54V1204.13Z" fill="#5EB6CA"/>
<path d="M131.732 1261.93L133.69 1259.96L97.5805 1223.94L95.6222 1225.9L131.732 1261.93Z" fill="#5EB6CA"/>
<path d="M97.5811 1221.7L93.3838 1225.91L131.732 1264.17L135.929 1259.96L97.5811 1221.7Z" fill="#5EB6CA"/>
<path d="M77.5051 1283.32L80.2778 1283.32L80.1998 1232.31L77.4271 1232.31L77.5051 1283.32Z" fill="#5EB6CA"/>
<path d="M81.7869 1230.73L75.8442 1230.74L75.9274 1284.91L81.87 1284.9L81.7869 1230.73Z" fill="#5EB6CA"/>
<path d="M24.0248 1260.13L25.9893 1262.09L61.9915 1225.95L60.0271 1223.99L24.0248 1260.13Z" fill="#5EB6CA"/>
<path d="M60.0111 1221.77L21.7769 1260.14L25.9866 1264.34L64.2209 1225.96L60.0111 1221.77Z" fill="#5EB6CA"/>
<path d="M2.58788 1205.93L2.59424 1208.7L53.6034 1208.59L53.5971 1205.81L2.58788 1205.93Z" fill="#5EB6CA"/>
<path d="M55.1715 1204.22L1 1204.35L1.01345 1210.29L55.1849 1210.17L55.1715 1204.22Z" fill="#5EB6CA"/>
<path d="M25.7327 1152.43L23.7773 1154.39L59.9429 1190.36L61.8982 1188.4L25.7327 1152.43Z" fill="#5EB6CA"/>
<path d="M25.7323 1150.18L21.5415 1154.4L59.9491 1192.6L64.1399 1188.39L25.7323 1150.18Z" fill="#5EB6CA"/>
<path d="M78.6128 1219.48C85.2148 1219.48 90.5669 1214.13 90.5669 1207.52C90.5669 1200.92 85.2148 1195.57 78.6128 1195.57C72.0107 1195.57 66.6587 1200.92 66.6587 1207.52C66.6587 1214.13 72.0107 1219.48 78.6128 1219.48Z" fill="#5EB6CA"/>
</svg>
