<svg width="206" height="1415" viewBox="0 0 206 1415" fill="none" xmlns="http://www.w3.org/2000/svg">
<path d="M170.124 1042L206 1042C206 887.913 3.43094e-06 886.755 -1.0141e-05 1042L36.4551 1042C36.4551 1042 34.7191 963.224 102.421 963.798C170.124 964.373 170.124 1042 170.124 1042Z" fill="black"/>
<path d="M170.124 395L206 395C206 240.913 3.43094e-06 239.755 -1.0141e-05 395L36.4551 395C36.4551 395 34.7191 316.224 102.421 316.798C170.124 317.373 170.124 395 170.124 395Z" fill="black"/>
<path d="M170.124 1180L206 1180C206 1027.24 3.40136e-06 1026.09 -1.00536e-05 1180L36.4551 1180C36.4551 1180 34.7191 1101.9 102.421 1102.47C170.124 1103.04 170.124 1180 170.124 1180Z" fill="black"/>
<path d="M170.124 533L206 533C206 380.241 3.40136e-06 379.093 -1.00536e-05 533L36.4551 533C36.4551 533 34.7191 454.903 102.421 455.472C170.124 456.042 170.124 533 170.124 533Z" fill="black"/>
<path d="M170.124 904L206 904C206 749.913 3.43094e-06 748.755 -1.0141e-05 904L36.4551 904C36.4551 904 34.7191 825.224 102.421 825.798C170.124 826.373 170.124 904 170.124 904Z" fill="black"/>
<path d="M170.124 255L206 255C206 103.57 3.37179e-06 102.431 -9.9662e-06 255L36.4551 255C36.4551 255 34.7191 177.582 102.421 178.147C170.124 178.711 170.124 255 170.124 255Z" fill="black"/>
<path d="M170.124 116L206 116C206 -38.0869 3.43094e-06 -39.2454 -1.0141e-05 116L36.4551 116C36.4551 116 34.7191 37.224 102.421 37.7983C170.124 38.3727 170.124 116 170.124 116Z" fill="black"/>
<path d="M170.124 650L206 650C206 802.759 -3.40136e-06 803.907 1.00536e-05 650L36.4551 650C36.4551 650 34.7191 728.097 102.421 727.527C170.124 726.958 170.124 650 170.124 650Z" fill="black"/>
<path d="M170.124 1299L206 1299C206 1453.09 -3.43094e-06 1454.25 1.0141e-05 1299L36.4551 1299C36.4551 1299 34.7191 1377.78 102.421 1377.2C170.124 1376.63 170.124 1299 170.124 1299Z" fill="black"/>
</svg>
