<svg width="157" height="1048" viewBox="0 0 157 1048" fill="none" xmlns="http://www.w3.org/2000/svg">
<path d="M31.2158 200.52H37.8638C38.9358 200.52 39.7598 200.808 40.3358 201.384C40.9278 201.96 41.2238 202.728 41.2238 203.688C41.2238 205.256 40.3838 206.144 38.7038 206.352V206.472C39.7118 206.552 40.4558 206.848 40.9358 207.36C41.4318 207.856 41.6797 208.512 41.6797 209.328C41.6797 209.856 41.5918 210.344 41.4158 210.792C41.2558 211.24 41.0158 211.632 40.6958 211.968C40.3918 212.288 40.0158 212.544 39.5678 212.736C39.1198 212.912 38.6158 213 38.0558 213H31.2158V200.52ZM37.4558 211.008C37.9198 211.008 38.2878 210.888 38.5598 210.648C38.8318 210.408 38.9678 210.056 38.9678 209.592V208.944C38.9678 208.48 38.8318 208.128 38.5598 207.888C38.2878 207.632 37.9198 207.504 37.4558 207.504H33.7838V211.008H37.4558ZM37.1198 205.704C37.5678 205.704 37.9118 205.592 38.1518 205.368C38.3918 205.144 38.5118 204.824 38.5118 204.408V203.808C38.5118 203.392 38.3918 203.072 38.1518 202.848C37.9118 202.624 37.5678 202.512 37.1198 202.512H33.7838V205.704H37.1198ZM43.8512 210.864H45.1952L45.8912 209.328C46.2272 208.624 46.7072 208.232 47.3312 208.152V208.056C46.3072 207.944 45.5072 207.592 44.9312 207C44.3712 206.392 44.0912 205.568 44.0912 204.528C44.0912 203.904 44.1872 203.352 44.3792 202.872C44.5872 202.376 44.8752 201.952 45.2432 201.6C45.6112 201.248 46.0512 200.984 46.5632 200.808C47.0752 200.616 47.6432 200.52 48.2672 200.52H54.3392V213H51.7232V208.392H49.0592L47.7392 211.248C47.4352 211.92 47.0912 212.384 46.7072 212.64C46.3232 212.88 45.8672 213 45.3392 213H43.8512V210.864ZM51.7232 206.4V202.56H48.7712C48.1632 202.56 47.6832 202.696 47.3312 202.968C46.9792 203.224 46.8032 203.632 46.8032 204.192V204.816C46.8032 205.344 46.9792 205.744 47.3312 206.016C47.6832 206.272 48.1632 206.4 48.7712 206.4H51.7232ZM61.9631 213.288C60.7151 213.288 59.6911 213.08 58.8911 212.664C58.0911 212.248 57.4031 211.656 56.8271 210.888L58.5311 209.328C58.9151 209.888 59.3871 210.328 59.9471 210.648C60.5231 210.968 61.1951 211.128 61.9631 211.128C62.8591 211.128 63.5151 210.968 63.9311 210.648C64.3631 210.328 64.5791 209.912 64.5791 209.4V209.112C64.5791 208.6 64.4031 208.216 64.0511 207.96C63.7151 207.688 63.2271 207.552 62.5871 207.552H59.8991V205.632H62.3231C62.9631 205.632 63.4511 205.512 63.7871 205.272C64.1391 205.016 64.3151 204.648 64.3151 204.168V203.904C64.3151 203.44 64.1231 203.072 63.7391 202.8C63.3551 202.528 62.7471 202.392 61.9151 202.392C61.1631 202.392 60.5231 202.544 59.9951 202.848C59.4671 203.152 59.0431 203.56 58.7231 204.072L57.0911 202.656C57.5711 201.92 58.2111 201.336 59.0111 200.904C59.8271 200.456 60.8511 200.232 62.0831 200.232C63.7471 200.232 64.9791 200.544 65.7791 201.168C66.5951 201.776 67.0031 202.592 67.0031 203.616C67.0031 204.416 66.7951 205.04 66.3791 205.488C65.9631 205.92 65.3391 206.216 64.5071 206.376V206.496C65.4191 206.608 66.1071 206.912 66.5711 207.408C67.0511 207.904 67.2911 208.544 67.2911 209.328C67.2911 210.56 66.8111 211.528 65.8511 212.232C64.9071 212.936 63.6111 213.288 61.9631 213.288ZM79.4769 213C78.7889 213 78.2609 212.808 77.8929 212.424C77.5249 212.024 77.3009 211.52 77.2209 210.912H77.1009C76.8609 211.696 76.4209 212.288 75.7809 212.688C75.1409 213.088 74.3649 213.288 73.4529 213.288C72.1569 213.288 71.1569 212.952 70.4529 212.28C69.7649 211.608 69.4209 210.704 69.4209 209.568C69.4209 208.32 69.8689 207.384 70.7649 206.76C71.6769 206.136 73.0049 205.824 74.7489 205.824H77.0049V204.768C77.0049 204 76.7969 203.408 76.3809 202.992C75.9649 202.576 75.3169 202.368 74.4369 202.368C73.7009 202.368 73.1009 202.528 72.6369 202.848C72.1729 203.168 71.7809 203.576 71.4609 204.072L69.9009 202.656C70.3169 201.952 70.9009 201.376 71.6529 200.928C72.4049 200.464 73.3889 200.232 74.6049 200.232C76.2209 200.232 77.4609 200.608 78.3249 201.36C79.1889 202.112 79.6209 203.192 79.6209 204.6V210.864H80.9409V213H79.4769ZM74.1969 211.296C75.0129 211.296 75.6849 211.12 76.2129 210.768C76.7409 210.4 77.0049 209.912 77.0049 209.304V207.504H74.7969C72.9889 207.504 72.0849 208.064 72.0849 209.184V209.616C72.0849 210.176 72.2689 210.6 72.6369 210.888C73.0209 211.16 73.5409 211.296 74.1969 211.296ZM83.5048 200.52H86.1208V205.536H91.4968V200.52H94.1128V213H91.4968V207.672H86.1208V213H83.5048V200.52ZM97.8486 200.52H100.417V206.616L100.177 209.568H100.273L101.761 206.904L106.081 200.52H108.457V213H105.889V206.904L106.129 203.952H106.033L104.545 206.616L100.225 213H97.8486V200.52ZM117.088 213.288C116.192 213.288 115.392 213.136 114.688 212.832C113.984 212.528 113.384 212.096 112.888 211.536C112.392 210.96 112.008 210.272 111.736 209.472C111.48 208.656 111.352 207.752 111.352 206.76C111.352 205.768 111.48 204.872 111.736 204.072C112.008 203.256 112.392 202.568 112.888 202.008C113.384 201.432 113.984 200.992 114.688 200.688C115.392 200.384 116.192 200.232 117.088 200.232C118 200.232 118.8 200.392 119.488 200.712C120.192 201.032 120.776 201.48 121.24 202.056C121.704 202.616 122.048 203.272 122.272 204.024C122.512 204.776 122.632 205.584 122.632 206.448V207.432H114.064V207.84C114.064 208.8 114.344 209.592 114.904 210.216C115.48 210.824 116.296 211.128 117.352 211.128C118.12 211.128 118.768 210.96 119.296 210.624C119.824 210.288 120.272 209.832 120.64 209.256L122.176 210.768C121.712 211.536 121.04 212.152 120.16 212.616C119.28 213.064 118.256 213.288 117.088 213.288ZM117.088 202.272C116.64 202.272 116.224 202.352 115.84 202.512C115.472 202.672 115.152 202.896 114.88 203.184C114.624 203.472 114.424 203.816 114.28 204.216C114.136 204.616 114.064 205.056 114.064 205.536V205.704H119.872V205.464C119.872 204.504 119.624 203.736 119.128 203.16C118.632 202.568 117.952 202.272 117.088 202.272Z" fill="black"/>
<path d="M26.2785 638.864H27.7905C28.2545 638.144 28.6145 637.24 28.8705 636.152C29.1425 635.048 29.2785 633.696 29.2785 632.096V628.52H38.3985V638.864H40.5105V644.36H38.1345V641H28.6545V644.36H26.2785V638.864ZM35.7825 638.864V630.656H31.7745V632.24C31.7745 633.92 31.6545 635.296 31.4145 636.368C31.1745 637.424 30.8945 638.256 30.5745 638.864H35.7825ZM47.7836 641.288C46.8876 641.288 46.0876 641.136 45.3836 640.832C44.6796 640.528 44.0796 640.096 43.5836 639.536C43.0876 638.96 42.7036 638.272 42.4316 637.472C42.1756 636.656 42.0476 635.752 42.0476 634.76C42.0476 633.768 42.1756 632.872 42.4316 632.072C42.7036 631.256 43.0876 630.568 43.5836 630.008C44.0796 629.432 44.6796 628.992 45.3836 628.688C46.0876 628.384 46.8876 628.232 47.7836 628.232C48.6956 628.232 49.4956 628.392 50.1836 628.712C50.8876 629.032 51.4716 629.48 51.9356 630.056C52.3996 630.616 52.7436 631.272 52.9676 632.024C53.2076 632.776 53.3276 633.584 53.3276 634.448V635.432H44.7596V635.84C44.7596 636.8 45.0396 637.592 45.5996 638.216C46.1756 638.824 46.9916 639.128 48.0476 639.128C48.8156 639.128 49.4636 638.96 49.9916 638.624C50.5196 638.288 50.9676 637.832 51.3356 637.256L52.8716 638.768C52.4076 639.536 51.7356 640.152 50.8556 640.616C49.9756 641.064 48.9516 641.288 47.7836 641.288ZM47.7836 630.272C47.3356 630.272 46.9196 630.352 46.5356 630.512C46.1676 630.672 45.8476 630.896 45.5756 631.184C45.3196 631.472 45.1196 631.816 44.9756 632.216C44.8316 632.616 44.7596 633.056 44.7596 633.536V633.704H50.5676V633.464C50.5676 632.504 50.3196 631.736 49.8236 631.16C49.3276 630.568 48.6476 630.272 47.7836 630.272ZM56.2236 628.52H58.8396V633.56H61.0476L63.1116 630.08C63.4636 629.488 63.8156 629.08 64.1676 628.856C64.5196 628.632 64.9676 628.52 65.5116 628.52H66.7836V630.656H65.3916L63.8076 633.296C63.5676 633.712 63.3516 634 63.1596 634.16C62.9836 634.32 62.7436 634.44 62.4396 634.52V634.616C62.7596 634.68 63.0396 634.8 63.2796 634.976C63.5196 635.136 63.7516 635.424 63.9756 635.84L65.6556 638.864H67.0236V641H65.5356C65.0076 641 64.5516 640.88 64.1676 640.64C63.7996 640.4 63.4476 639.976 63.1116 639.368L61.0476 635.672H58.8396V641H56.2236V628.52ZM77.5202 628.52H80.0402L74.7842 643.472C74.6402 643.888 74.4722 644.24 74.2802 644.528C74.1042 644.832 73.8882 645.072 73.6322 645.248C73.3922 645.44 73.0962 645.576 72.7442 645.656C72.3922 645.752 71.9762 645.8 71.4962 645.8H69.9842V643.664H72.0962L72.8162 641.552L68.2802 628.52H70.8962L73.3922 635.864L74.1122 638.576H74.2322L75.0242 635.864L77.5202 628.52ZM82.1923 628.52H92.4403V641H89.8243V630.656H84.8083V641H82.1923V628.52ZM105.329 641C104.641 641 104.113 640.808 103.745 640.424C103.377 640.024 103.153 639.52 103.073 638.912H102.953C102.713 639.696 102.273 640.288 101.633 640.688C100.993 641.088 100.217 641.288 99.3045 641.288C98.0085 641.288 97.0085 640.952 96.3045 640.28C95.6165 639.608 95.2725 638.704 95.2725 637.568C95.2725 636.32 95.7205 635.384 96.6165 634.76C97.5285 634.136 98.8565 633.824 100.601 633.824H102.857V632.768C102.857 632 102.649 631.408 102.233 630.992C101.817 630.576 101.169 630.368 100.289 630.368C99.5525 630.368 98.9525 630.528 98.4885 630.848C98.0245 631.168 97.6325 631.576 97.3125 632.072L95.7525 630.656C96.1685 629.952 96.7525 629.376 97.5045 628.928C98.2565 628.464 99.2405 628.232 100.457 628.232C102.073 628.232 103.313 628.608 104.177 629.36C105.041 630.112 105.473 631.192 105.473 632.6V638.864H106.793V641H105.329ZM100.049 639.296C100.865 639.296 101.537 639.12 102.065 638.768C102.593 638.4 102.857 637.912 102.857 637.304V635.504H100.648C98.8405 635.504 97.9365 636.064 97.9365 637.184V637.616C97.9365 638.176 98.1205 638.6 98.4885 638.888C98.8725 639.16 99.3925 639.296 100.049 639.296ZM108.42 638.864H109.812L111.18 635.84C111.356 635.472 111.564 635.192 111.804 635C112.06 634.808 112.34 634.68 112.644 634.616V634.52C112.036 634.344 111.564 633.912 111.228 633.224L110.052 630.656H108.66V628.52H109.932C110.492 628.52 110.964 628.648 111.348 628.904C111.748 629.16 112.084 629.576 112.356 630.152L113.964 633.56H115.908V628.52H118.524V633.56H120.468L122.076 630.152C122.348 629.576 122.676 629.16 123.06 628.904C123.46 628.648 123.94 628.52 124.5 628.52H125.772V630.656H124.38L123.204 633.224C122.868 633.912 122.396 634.344 121.788 634.52V634.616C122.092 634.68 122.364 634.808 122.604 635C122.86 635.192 123.076 635.472 123.252 635.84L124.62 638.864H126.012V641H124.524C123.98 641 123.516 640.88 123.132 640.64C122.748 640.384 122.404 639.928 122.1 639.272L120.468 635.672H118.524V641H115.908V635.672H113.964L112.332 639.272C112.028 639.928 111.684 640.384 111.3 640.64C110.916 640.88 110.452 641 109.908 641H108.42V638.864Z" fill="black"/>
<path d="M32.5112 75H9C9 -24.6251 144 -25.3742 144 75H120.11C120.11 75 121.247 24.0672 76.8792 24.4386C32.5112 24.8099 32.5112 75 32.5112 75Z" fill="black"/>
<path d="M32.5112 505H9C9 402.718 144 401.949 144 505H120.11C120.11 505 121.247 452.709 76.8792 453.09C32.5112 453.472 32.5112 505 32.5112 505Z" fill="black"/>
<path d="M32.5112 168H9C9 67.0465 144 66.2875 144 168H120.11C120.11 168 121.247 116.388 76.8792 116.764C32.5112 117.141 32.5112 168 32.5112 168Z" fill="black"/>
<path d="M32.5112 596H9C9 495.047 144 494.288 144 596H120.11C120.11 596 121.247 544.388 76.8792 544.764C32.5112 545.141 32.5112 596 32.5112 596Z" fill="black"/>
<path d="M34.6854 840H11C11 737.718 147 736.949 147 840H122.933C122.933 840 124.079 787.709 79.382 788.09C34.6854 788.472 34.6854 840 34.6854 840Z" fill="black"/>
<path d="M32.5112 672H9C9 772.953 144 773.712 144 672H120.11C120.11 672 121.247 723.612 76.8792 723.236C32.5112 722.859 32.5112 672 32.5112 672Z" fill="black"/>
<path d="M34.6854 972H11C11 1072.95 147 1073.71 147 972H122.933C122.933 972 124.079 1023.61 79.382 1023.24C34.6854 1022.86 34.6854 972 34.6854 972Z" fill="black"/>
<path d="M32.5112 245H9C9 345.953 144 346.712 144 245H120.11C120.11 245 121.247 296.612 76.8792 296.236C32.5112 295.859 32.5112 245 32.5112 245Z" fill="black"/>
<path d="M33.5112 412H10C10 309.718 145 308.949 145 412H121.11C121.11 412 122.247 359.709 77.8792 360.09C33.5112 360.472 33.5112 412 33.5112 412Z" fill="black"/>
<path d="M79.9866 826.445H77.2139V877.454H79.9866V826.445Z" fill="#FFD101"/>
<path d="M81.5677 824.864H75.625V879.035H81.5677V824.864Z" fill="#FFD101"/>
<path d="M133.435 849.718L131.473 847.758L95.4199 883.842L97.3813 885.802L133.435 849.718Z" fill="#FFD101"/>
<path d="M131.463 845.522L93.1743 883.843L97.3782 888.044L135.667 849.723L131.463 845.522Z" fill="#FFD101"/>
<path d="M154.79 903.961L154.788 901.188L103.778 901.227L103.781 904L154.79 903.961Z" fill="#FFD101"/>
<path d="M156.363 899.628H102.191V905.57H156.363V899.628Z" fill="#FFD101"/>
<path d="M131.554 957.422L133.513 955.459L97.4033 919.432L95.4449 921.395L131.554 957.422Z" fill="#FFD101"/>
<path d="M97.4038 917.197L93.2065 921.404L131.555 959.665L135.752 955.458L97.4038 917.197Z" fill="#FFD101"/>
<path d="M77.3283 978.821L80.1011 978.817L80.023 927.807L77.2503 927.812L77.3283 978.821Z" fill="#FFD101"/>
<path d="M81.6101 926.228L75.6675 926.238L75.7506 980.409L81.6933 980.4L81.6101 926.228Z" fill="#FFD101"/>
<path d="M23.8475 955.626L25.812 957.583L61.8143 921.443L59.8498 919.486L23.8475 955.626Z" fill="#FFD101"/>
<path d="M59.8338 917.262L21.5996 955.637L25.8094 959.831L64.0436 921.456L59.8338 917.262Z" fill="#FFD101"/>
<path d="M2.41112 901.426L2.41748 904.199L53.4267 904.082L53.4203 901.309L2.41112 901.426Z" fill="#FFD101"/>
<path d="M54.9947 899.719L0.823242 899.842L0.836689 905.784L55.0082 905.662L54.9947 899.719Z" fill="#FFD101"/>
<path d="M25.5559 847.924L23.6006 849.89L59.7661 885.861L61.7214 883.895L25.5559 847.924Z" fill="#FFD101"/>
<path d="M25.5555 845.682L21.3647 849.895L59.7723 888.097L63.9631 883.883L25.5555 845.682Z" fill="#FFD101"/>
<path d="M78.436 914.974C85.0381 914.974 90.3901 909.622 90.3901 903.02C90.3901 896.417 85.0381 891.065 78.436 891.065C71.834 891.065 66.4819 896.417 66.4819 903.02C66.4819 909.622 71.834 914.974 78.436 914.974Z" fill="#FFD101"/>
</svg>
