<svg width="206" height="1415" viewBox="0 0 206 1415" fill="none" xmlns="http://www.w3.org/2000/svg">
<path d="M51.64 167.28H55.564V174.84H58.876L61.972 169.62C62.5 168.732 63.028 168.12 63.556 167.784C64.084 167.448 64.756 167.28 65.572 167.28H67.48V170.484H65.392L63.016 174.444C62.656 175.068 62.332 175.5 62.044 175.74C61.78 175.98 61.42 176.16 60.964 176.28V176.424C61.444 176.52 61.864 176.7 62.224 176.964C62.584 177.204 62.932 177.636 63.268 178.26L65.788 182.796H67.84V186H65.608C64.816 186 64.132 185.82 63.556 185.46C63.004 185.1 62.476 184.464 61.972 183.552L58.876 178.008H55.564V186H51.64V167.28ZM78.9528 186.432C77.6568 186.432 76.4688 186.204 75.3888 185.748C74.3328 185.292 73.4328 184.644 72.6888 183.804C71.9448 182.94 71.3688 181.908 70.9608 180.708C70.5528 179.484 70.3488 178.128 70.3488 176.64C70.3488 175.152 70.5528 173.808 70.9608 172.608C71.3688 171.384 71.9448 170.352 72.6888 169.512C73.4328 168.648 74.3328 167.988 75.3888 167.532C76.4688 167.076 77.6568 166.848 78.9528 166.848C80.2488 166.848 81.4248 167.076 82.4808 167.532C83.5608 167.988 84.4728 168.648 85.2168 169.512C85.9608 170.352 86.5368 171.384 86.9448 172.608C87.3528 173.808 87.5568 175.152 87.5568 176.64C87.5568 178.128 87.3528 179.484 86.9448 180.708C86.5368 181.908 85.9608 182.94 85.2168 183.804C84.4728 184.644 83.5608 185.292 82.4808 185.748C81.4248 186.204 80.2488 186.432 78.9528 186.432ZM78.9528 183.192C80.2968 183.192 81.3768 182.784 82.1928 181.968C83.0088 181.128 83.4168 179.88 83.4168 178.224V175.056C83.4168 173.4 83.0088 172.164 82.1928 171.348C81.3768 170.508 80.2968 170.088 78.9528 170.088C77.6088 170.088 76.5288 170.508 75.7128 171.348C74.8968 172.164 74.4888 173.4 74.4888 175.056V178.224C74.4888 179.88 74.8968 181.128 75.7128 181.968C76.5288 182.784 77.6088 183.192 78.9528 183.192ZM91.9291 167.28H101.901C103.509 167.28 104.745 167.712 105.609 168.576C106.497 169.44 106.941 170.592 106.941 172.032C106.941 174.384 105.681 175.716 103.161 176.028V176.208C104.673 176.328 105.789 176.772 106.509 177.54C107.253 178.284 107.625 179.268 107.625 180.492C107.625 181.284 107.493 182.016 107.229 182.688C106.989 183.36 106.629 183.948 106.149 184.452C105.693 184.932 105.129 185.316 104.457 185.604C103.785 185.868 103.029 186 102.189 186H91.9291V167.28ZM101.289 183.012C101.985 183.012 102.537 182.832 102.945 182.472C103.353 182.112 103.557 181.584 103.557 180.888V179.916C103.557 179.22 103.353 178.692 102.945 178.332C102.537 177.948 101.985 177.756 101.289 177.756H95.7811V183.012H101.289ZM100.785 175.056C101.457 175.056 101.973 174.888 102.333 174.552C102.693 174.216 102.873 173.736 102.873 173.112V172.212C102.873 171.588 102.693 171.108 102.333 170.772C101.973 170.436 101.457 170.268 100.785 170.268H95.7811V175.056H100.785ZM112.32 167.28H116.244V170.376H116.424C116.832 169.248 117.492 168.384 118.404 167.784C119.34 167.16 120.432 166.848 121.68 166.848C124.056 166.848 125.892 167.712 127.188 169.44C128.484 171.144 129.132 173.544 129.132 176.64C129.132 179.736 128.484 182.148 127.188 183.876C125.892 185.58 124.056 186.432 121.68 186.432C120.432 186.432 119.34 186.12 118.404 185.496C117.492 184.872 116.832 184.008 116.424 182.904H116.244V193.2H112.32V167.28ZM120.492 183.048C121.86 183.048 122.952 182.616 123.768 181.752C124.584 180.864 124.992 179.7 124.992 178.26V175.02C124.992 173.58 124.584 172.428 123.768 171.564C122.952 170.676 121.86 170.232 120.492 170.232C119.292 170.232 118.284 170.532 117.468 171.132C116.652 171.708 116.244 172.476 116.244 173.436V179.844C116.244 180.804 116.652 181.584 117.468 182.184C118.284 182.76 119.292 183.048 120.492 183.048ZM133.624 167.28H137.548V173.544H142.336C143.272 173.544 144.124 173.688 144.892 173.976C145.66 174.24 146.32 174.648 146.872 175.2C147.424 175.728 147.856 176.376 148.168 177.144C148.48 177.912 148.636 178.788 148.636 179.772C148.636 181.764 148.06 183.3 146.908 184.38C145.756 185.46 144.244 186 142.372 186H133.624V167.28ZM141.616 182.94C142.528 182.94 143.248 182.748 143.776 182.364C144.304 181.956 144.568 181.332 144.568 180.492V179.016C144.568 178.176 144.304 177.564 143.776 177.18C143.248 176.796 142.528 176.604 141.616 176.604H137.548V182.94H141.616ZM151.444 167.28H155.368V186H151.444V167.28Z" fill="black"/>
<path d="M32.5095 829.796H34.7775C35.4735 828.716 36.0135 827.36 36.3975 825.728C36.8055 824.072 37.0095 822.044 37.0095 819.644V814.28H50.6895V829.796H53.8575V838.04H50.2935V833H36.0735V838.04H32.5095V829.796ZM46.7655 829.796V817.484H40.7535V819.86C40.7535 822.38 40.5735 824.444 40.2135 826.052C39.8535 827.636 39.4335 828.884 38.9535 829.796H46.7655ZM68.6611 814.28H72.4411L64.5571 836.708C64.3411 837.332 64.0891 837.86 63.8011 838.292C63.5371 838.748 63.2131 839.108 62.8291 839.372C62.4691 839.66 62.0251 839.864 61.4971 839.984C60.9691 840.128 60.3451 840.2 59.6251 840.2H57.3571V836.996H60.5251L61.6051 833.828L54.8011 814.28H58.7251L62.4691 825.296L63.5491 829.364H63.7291L64.9171 825.296L68.6611 814.28ZM72.4822 829.796H74.7502C75.4462 828.716 75.9862 827.36 76.3702 825.728C76.7782 824.072 76.9822 822.044 76.9822 819.644V814.28H90.6622V829.796H93.8302V838.04H90.2662V833H76.0462V838.04H72.4822V829.796ZM86.7382 829.796V817.484H80.7262V819.86C80.7262 822.38 80.5462 824.444 80.1862 826.052C79.8262 827.636 79.4062 828.884 78.9262 829.796H86.7382ZM95.3003 829.796H97.7483C98.0363 829.412 98.2883 828.956 98.5043 828.428C98.7203 827.876 98.9003 827.204 99.0443 826.412C99.1883 825.62 99.2963 824.696 99.3683 823.64C99.4643 822.56 99.5123 821.3 99.5123 819.86V814.28H113.12V833H109.196V817.484H103.292V820.04C103.292 821.768 103.22 823.28 103.076 824.576C102.956 825.872 102.776 826.988 102.536 827.924C102.32 828.86 102.044 829.64 101.708 830.264C101.396 830.864 101.06 831.344 100.7 831.704C100.196 832.208 99.6203 832.568 98.9723 832.784C98.3243 833 97.5443 833.108 96.6323 833.108H95.3003V829.796ZM118.771 814.28H122.623V823.424L122.263 827.852H122.407L124.639 823.856L131.119 814.28H134.683V833H130.831V823.856L131.191 819.428H131.047L128.815 823.424L122.335 833H118.771V814.28ZM140.287 814.28H144.211V821.804H152.275V814.28H156.199V833H152.275V825.008H144.211V833H140.287V814.28ZM161.802 814.28H174.006V817.484H165.726V833H161.802V814.28Z" fill="black"/>
<path d="M35.8764 373H0C0 527.087 206 528.245 206 373H169.545C169.545 373 171.281 451.776 103.579 451.202C35.8764 450.627 35.8764 373 35.8764 373Z" fill="black"/>
<path d="M35.8764 1020H0C0 1174.09 206 1175.25 206 1020H169.545C169.545 1020 171.281 1098.78 103.579 1098.2C35.8764 1097.63 35.8764 1020 35.8764 1020Z" fill="black"/>
<path d="M35.8764 235H0C0 387.759 206 388.907 206 235H169.545C169.545 235 171.281 313.097 103.579 312.528C35.8764 311.958 35.8764 235 35.8764 235Z" fill="black"/>
<path d="M35.8764 882H0C0 1034.76 206 1035.91 206 882H169.545C169.545 882 171.281 960.097 103.579 959.528C35.8764 958.958 35.8764 882 35.8764 882Z" fill="black"/>
<path d="M35.8764 511H0C0 665.087 206 666.245 206 511H169.545C169.545 511 171.281 589.776 103.579 589.202C35.8764 588.627 35.8764 511 35.8764 511Z" fill="black"/>
<path d="M35.8764 1160H0C0 1311.43 206 1312.57 206 1160H169.545C169.545 1160 171.281 1237.42 103.579 1236.85C35.8764 1236.29 35.8764 1160 35.8764 1160Z" fill="black"/>
<path d="M35.8764 1299H0C0 1453.09 206 1454.25 206 1299H169.545C169.545 1299 171.281 1377.78 103.579 1377.2C35.8764 1376.63 35.8764 1299 35.8764 1299Z" fill="black"/>
<path d="M35.8764 765H0C0 612.241 206 611.093 206 765H169.545C169.545 765 171.281 686.903 103.579 687.472C35.8764 688.042 35.8764 765 35.8764 765Z" fill="black"/>
<path d="M35.8764 116H0C0 -38.0869 206 -39.2454 206 116H169.545C169.545 116 171.281 37.224 103.579 37.7983C35.8764 38.3727 35.8764 116 35.8764 116Z" fill="black"/>
</svg>
